<?xml version="1.0" encoding="UTF-8"?><svg id="a" xmlns="http://www.w3.org/2000/svg" viewBox="0 0 602.9 127.9"><defs><style>.e{fill:#101010;}.f{fill:#1acc6c;}</style></defs><g id="b"><g id="c"><path class="e" d="M375.4,88.2c0,10.2,0,20.3,0,30.5,0,1.5,.1,3,0,4.5-.1,1.9-1.4,3.3-3.3,3.4-3.5,.1-6.9,.1-10.4,0-1.5,0-2.8-1.3-3.1-2.9-.2-.9-.1-1.8-.1-2.8,0-21.8,0-43.7,0-65.5,0-.6,0-1.2,0-1.7,.3-2.3,2-4,4.4-4.1,2.9,0,5.8,0,8.7,0,2.5,0,3.7,1.4,3.8,3.9,0,1.2,0,2.3,0,3.5,0,10.4,0,20.8,0,31.2Z"/><path class="e" d="M348.3,122.1c0,1.3-.6,2.6-1.6,3.4s-1.9,1.1-3.1,1.3c-6.1,1-12.2,1.2-18.2-.3-10.2-2.5-16.2-9-18.1-19.2-.5-2.7-.7-5.5-.7-8.3,0-9.4,0-18.7,0-28.1,0-1.2,0-2.3-.1-3.5,0-1.8-1.1-2.8-2.8-3.2s-.7-.1-1.1-.2c-5.6-.4-11.2-.4-16.8,.7-6,1.2-10.5,4.7-13.8,9.7-2.4,3.6-3.9,7.6-4.9,11.8-1,4.3-1.5,8.6-1.5,13.1,0,6.4,0,12.7,0,19.1,0,1.7-.1,3.5-.1,5.2,0,1.6-.9,2.4-2.3,2.8s-1.2,.2-1.8,.2c-3.3,0-6.6,0-9.9,0-1.8,0-2.8-.7-2.9-2.7,0-1.2-.2-2.3-.2-3.5,0-21,0-42.1,0-63.1,0-1.3,0-2.5,.3-3.8,.4-2.6,1.8-4,4.4-4,2.9-.1,5.8,0,8.7,0,2.1,0,3.5,1.4,3.6,3.5,.1,1.4,0,2.8,0,4.2,0,1.5,0,3-.1,4.5,0,.3,0,.7,0,1,.2,.8,.7,1.3,1.4,1.3,.5,0,1.2-.3,1.4-.7,.8-1.3,1.4-2.7,2.2-3.9,3.7-5.7,8.8-9.3,15.7-10.4,3.3-.5,6.7-.5,10-.3,1.8,.1,3.7,.3,5.5,.4,3.4,.3,6.2-2.1,6.7-5.3,.2-1.1,.3-2.3,.4-3.4,.2-1.6,.2-3.2,.5-4.8,.3-2.3,1.7-3.6,3.9-3.6,2.2,0,4.4,0,6.6,0,2.2,0,3.6,1.6,3.7,3.8,0,2.7,0,5.3,0,8,0,.8,0,1.6,0,2.4,.2,1.7,1.4,2.9,3.1,3.1,1.7,.2,3.5,.3,5.2,.3,3.9,0,7.9,0,11.8,0,.8,0,1.6,0,2.4,0,1.6,.2,2.8,1.4,2.9,3,.1,2.4,.2,4.9,0,7.3-.1,2.5-1.8,4-4.3,4-4.5,0-9,0-13.5,0-1.3,0-2.5,0-3.8,.3-2.6,.4-3.9,1.8-3.9,4.4,0,9.8,0,19.7,0,29.5,0,1.8,.3,3.7,.7,5.5,1.1,4.7,3.9,7.7,8.7,8.9,3.4,.8,6.9,.6,10.3,.3,.9,0,1.8-.3,2.7-.4,1.6-.1,2.4,.5,2.4,2.1,0,2.6,0,5.1,0,7.5Z"/><path class="e" d="M222.9,117.8l-.6-.3c-.3-.1-.7,0-1,.1s-.3,.3-.5,.4c-3.5,4.7-8.3,7.3-13.8,8.6-7.3,1.7-14.7,1.7-21.9-.4-5-1.5-9.4-4-12.5-8.3-4.7-6.5-5.6-13.6-2.9-21.1,1.9-5.3,5.9-8.7,11.1-10.8,4.8-1.9,9.8-2.5,15-2.5,6.7,0,13.4,0,20.1,0,1.3,0,2.5,0,3.8-.3,2.2-.3,3.8-2.2,3.9-4.4,.3-7.8-3.1-13.9-10.9-16.3-5.3-1.6-10.7-1.6-16.1-.2-5.2,1.3-8.8,4.5-10.2,9.8-.1,.6-.2,1.2-.5,1.7-1,2.1-2.5,3.6-5,3.6-1.8,0-3.7,.1-5.5,0-3.2-.2-5.1-2.2-4.9-5.5,.2-5.2,2-9.9,5.6-13.9,3.9-4.3,8.8-6.8,14.2-8.2,9.4-2.3,18.8-2.4,28.1,0,3.6,.9,7,2.4,10.1,4.5,6,4.2,9.7,9.9,11.1,17,.5,2.7,.8,5.5,.9,8.3,0,14.2,0,28.4,0,42.7,0,3.8-.5,4.2-4.1,4.3-2.8,0-5.6,0-8.3,0-.6,0-1.2,0-1.7,0-1.6-.2-2.5-1.2-2.5-2.8,0-1.5,0-3,0-4.6s-.4-1.2-1-1.5Zm-15.8-23.5c-3.7,0-7.4,0-11.1,0-2.2,0-4.4,.5-6.4,1.4-5.9,2.6-7.3,9.6-2.9,14.3,1.7,1.8,3.8,3,6.2,3.7,4.6,1.2,9.1,1.1,13.7,.3,3-.5,5.8-1.5,8.4-3.1,4.1-2.6,6.8-6.2,7.9-10.9,.5-2.3-.7-4.6-2.7-5.4-.8-.3-1.8-.4-2.7-.4-3.5,0-6.9,0-10.4,0Z"/><path class="e" d="M505.4,91.6h-34.8s-1.9,0-2.8,0c-2.6,.4-4.4,2.6-3.9,5.2,1.3,7.7,6.7,15.5,16.8,17,4,.5,7.9,.4,11.7-.8,4.9-1.6,8.9-4.5,10.5-9.7,.7-2.2,2-3.1,4.4-3.1s5.8,0,8.7,0c1.8,0,2.5,.8,2.5,2.6,0,.9-.2,1.8-.4,2.7-1.8,7.9-6.5,13.7-13.5,17.6-4.2,2.4-8.7,3.7-13.5,4.2-6.6,.8-13.2,.7-19.6-1.3-11.6-3.5-19.7-10.8-23.3-22.6-3.2-10.2-3.1-20.6,.2-30.7,3.9-12.1,12.2-19.9,24.6-23.1,7.4-1.9,14.9-1.9,22.3,0,10.1,2.7,16.9,9.1,20.7,18.8,2.5,6.4,3,13,2.7,19.8,0,.3,0,.7-.2,1-.4,1.1-1.1,2.1-2.4,2.1-1.3,0-2.5,.1-3.8,.1m-28.8-10.8c4.2,0,8.3,0,12.5,0,.9,0,1.9,0,2.8-.1,3.1-.4,4.9-3,4.1-6-1.5-5.7-4.9-9.6-10.4-11.5-4.7-1.6-9.5-1.7-14.3-.4-6,1.6-10,5.4-12.5,11-.3,.6-.5,1.3-.6,2-.4,2.3,.6,4.1,3,4.7,1,.3,2.1,.3,3.1,.3,4.2,0,8.3,0,12.5,0Z"/><path class="e" d="M525.1,88.7c0-10.9,0-21.7,0-32.6,0-.9,0-1.9,0-2.8,.3-2.4,1.6-3.7,4.1-3.7,2.7,0,5.3,0,8,0,3.2,0,4.5,1.4,4.6,4.7,0,1.8-.1,3.7-.2,5.5,0,1,0,2.1,0,3.1,0,.3,.5,.8,.9,.9,.4,0,.9,0,1.2-.3,.4-.4,.7-.9,1-1.4,4-6.6,9.8-10.7,17.2-12.5,6.8-1.7,13.8-1.8,20.6,0,11.3,3.1,17.8,10.7,19.8,22.1,.4,2.3,.6,4.6,.6,6.9,0,14.8,0,29.6,0,44.4,0,3.1-.5,3.6-3.6,3.7-3.2,0-6.5,0-9.7,0-2.2,0-3.5-1.1-3.5-3.3,0-2.5-.2-5.1-.2-7.6,0-10.5,0-21,0-31.6,0-1.7,0-3.5-.2-5.2-.7-7.4-5.1-12.7-12.2-14.7-5.7-1.6-11.4-1.3-17,.7-6.7,2.4-10.8,7.3-12.9,14-1.2,3.8-1.6,7.7-1.5,11.6,0,10.2,0,20.3,0,30.5,0,.9,0,1.9,0,2.8-.2,1.6-1.2,2.7-2.7,2.7-3.8,0-7.6,0-11.4,0-1.7,0-2.5-.9-2.7-2.6,0-.9,0-1.8,0-2.8,0-10.9,0-21.7,0-32.6Z"/><path class="e" d="M414.7,126.7c-8.3,0-16.7,0-25,0-.8,0-1.6,0-2.4,0-2.4,0-4-1.4-4.3-3.7-.4-3.3-.1-6.5,1.7-9.4,.7-1.1,1.4-2.1,2.2-3.1,10.4-13.1,20.8-26.3,31.2-39.4,.6-.8,1.3-1.6,1.9-2.5,1.5-2.4,.3-4.7-2.4-4.8-1,0-2.1,0-3.1,0-8.7,0-17.4,0-26,0-1.5,0-2.7-.4-3.5-1.7-.3-.6-.7-1.2-.7-1.9,0-2.3-.1-4.6,0-6.9,0-1.8,1.5-3.2,3.3-3.5,.6,0,1.2,0,1.7,0,17.1,0,34.2,0,51.4,0,1.2,0,2.3,0,3.3,.7,1,.7,1.9,1.5,2,2.7,.3,3.4,.4,6.7-1.9,9.6-3.2,4.1-6.4,8.2-9.6,12.3-7.8,9.9-15.6,19.8-23.5,29.7-.7,.9-1.4,1.8-2,2.8-1.3,2.1-.2,4.5,2.3,4.9,.9,.1,1.8,0,2.8,.1,8.8,0,17.6,0,26.4,0,.9,0,1.9,0,2.8,0,2.1,.3,3,1.6,2.9,3.2,0,2.5,0,5.1,0,7.6,0,2.3-1.2,3.3-3.5,3.4-4,0-8.1,0-12.1,0-5.2,0-10.4,0-15.6,0Z"/><path class="e" d="M366.9,23.5c1.3,0,2.5,0,3.8,0,2.6,.2,4.6,2.1,4.7,4.6,.2,2.5,.2,5.1,0,7.6-.2,2.5-1.9,4.2-4.3,4.6-2.7,.5-5.5,.4-8.3,0-2.3-.4-4-1.9-4.4-4.2-.5-2.7-.5-5.5,0-8.2,.5-2.6,2.3-4.2,5-4.4,1.1,0,2.3,0,3.5,0h0Z"/></g><path id="d" class="f" d="M159.2,118.9c0-2.1-1.8-3.9-3.9-3.9-11.9,0-23.7-1.5-34.8-5.3-5.9-2-11.7-5-16.6-9,10.3-8.9,19.1-19.4,25.3-31.6,3.1-6.2,5.6-13.2,4.7-20.3-1.4-10.3-9.9-16.3-19.9-16.9-16.2-1.3-30.3,8.1-37.2,22.5-3.4,7-4.9,14.9-4.4,22.7,.4,8.5,3.4,16.5,8.1,23.3-12.1,7.6-25.9,12.4-40,12.5-3.5,0-7.1-.2-10.5-.9-3.2-.7-6.4-2-8.7-4.3-4.7-4.9-4-12.1-2.4-18.6,3.9-14,12.7-26.5,22.5-37.2,9.4-10.1,23.1-21.4,37.2-24.9,4.4-1.1,7.6-4.8,8.3-9.3,.2-1.7,.4-3.4,.4-5.2s-.3-4.8-.6-6.9c-.6-3.4-3.7-5.8-7.2-5.5-2.8,.2-5.6,.7-8.3,1.4-17,4.6-31.3,16.6-42.6,29.6C14.3,47.7,.8,71.2,0,93.6c-.4,14.6,6.3,27.1,20.6,31.9,5,1.7,10.3,2.3,15.5,2.4,19.3,.2,38-6.4,54-16.8,3.3,2.8,7,5.2,10.9,7.1,15.8,8.1,33.8,9.7,51.2,9.5,.9,0,2,0,3.1,0,2.2,0,4.1-1.8,4-4v-4.8Zm-67.4-36.8c-2.8-12.2,3.4-27,15.9-30.6,2.1-.6,4.4-.9,6.6-.8,.5,0,1,.1,1.4,.2,.4,.1,.6,.2,.9,.5,.7,.7,.4,2.4,.3,3.7-.5,3.4-1.9,7.2-3.6,10.4-4.7,8.7-11.2,17-18.8,24-1.2-2.3-2.1-4.8-2.7-7.4Z"/></g></svg>