<?xml version="1.0" encoding="UTF-8"?>
<!-- Generator: Adobe Illustrator 27.2.0, SVG Export Plug-In . SVG Version: 6.00 Build 0)  -->
<svg xmlns="http://www.w3.org/2000/svg" xmlns:xlink="http://www.w3.org/1999/xlink" version="1.1" id="Capa_1" x="0px" y="0px" viewBox="0 0 512 512" style="enable-background:new 0 0 512 512;" xml:space="preserve" width="512" height="512">
<g>
	<g>
		<g>
			<g>
				<path style="fill:#0B2E57;" d="M169.32,223.204l-100.492,2.347c0,0-2.88-106.137,48.654-151.545      C168.999,102.45,169.32,223.204,169.32,223.204z"/>
				<path style="fill:#0B2E57;" d="M68.044,226.372l-0.021-0.801c-0.03-1.064-2.296-107.034,48.925-152.167l0.426-0.374l0.495,0.273      c51.338,28.343,52.251,148.686,52.254,149.897l0.002,0.788L68.044,226.372z M117.586,74.987      c-47.892,42.771-48.08,139.893-47.968,149.739l98.888-2.309C168.342,211.987,165.46,102.165,117.586,74.987z"/>
			</g>
			<g>
				<path style="fill:#678EE4;" d="M163.631,214.214l-86.398,3.133c0,0,1.66-86.72,41.825-130.346      C119.058,87.001,155.891,122.918,163.631,214.214z"/>
				<path style="opacity:0.5;fill:#FFFFFF;" d="M130.422,102.016l-15.657,8.229l-16.15,8.51      c5.359-11.686,12.084-22.664,20.454-31.761C119.069,86.994,123.887,91.695,130.422,102.016z"/>
				<path style="opacity:0.1;fill:#FFFFFF;" d="M114.765,110.245l-0.421,39.895l-24.686-7.807      c2.489-7.945,5.429-15.914,8.956-23.578L114.765,110.245z"/>
				<path style="opacity:0.3;fill:#FFFFFF;" d="M126.943,154.113l-9.262,25.696l-13.188,36.558h-0.023l-27.249,0.987      c0,0,0.706-37.121,12.438-75.022l24.686,7.807L126.943,154.113z"/>
				<path style="opacity:0.5;fill:#FFFFFF;" d="M163.641,214.204l-16.339,0.587l-29.621-34.981l9.262-25.696l28.377,8.957      C158.989,177.718,161.973,194.691,163.641,214.204z"/>
				<path style="opacity:0.3;fill:#FFFFFF;" d="M155.32,163.07l-28.377-8.957l12.72-35.264      C145.117,130.205,150.759,144.827,155.32,163.07z"/>
			</g>
		</g>
		<g>
			<g>
				<path style="fill:#0B2E57;" d="M437.527,218.222l-100.492,2.345c0,0-2.88-106.134,48.654-151.542      C437.206,97.469,437.527,218.222,437.527,218.222z"/>
				<path style="fill:#0B2E57;" d="M336.251,221.388l-0.02-0.801c-0.031-1.064-2.297-107.032,48.924-152.165l0.424-0.374      l0.497,0.273c51.339,28.344,52.252,148.686,52.254,149.898l0.003,0.788L336.251,221.388z M385.794,70.005      c-47.885,42.766-48.078,139.894-47.971,149.737l98.89-2.306C436.55,207.005,433.668,97.183,385.794,70.005z"/>
			</g>
			<g>
				<path style="fill:#678EE4;" d="M343.775,210.294h86.204c0,0-9.015-109.711-43.104-130.479      C386.875,79.814,348.486,125.436,343.775,210.294z"/>
				<path style="opacity:0.1;fill:#FFFFFF;" d="M385.901,133.543l-29.433,6.981c5.147-16.033,11.097-28.987,16.339-38.768      l6.89,16.739L385.901,133.543z"/>
				<path style="opacity:0.3;fill:#FFFFFF;" d="M426.879,184.394l-23.673-4.913l-54.026-11.237      c2.068-10.086,4.561-19.324,7.288-27.719l29.433-6.981l28.54-6.747C420.533,146.402,424.482,168.055,426.879,184.394z"/>
				<path style="opacity:0.5;fill:#FFFFFF;" d="M414.441,126.796l-28.54,6.747l-6.204-15.047l27.27-11.826      C409.765,112.878,412.255,119.693,414.441,126.796z"/>
				<path style="opacity:0.5;fill:#FFFFFF;" d="M429.982,210.301h-37.005l10.229-30.82l23.673,4.913      C429.112,199.677,429.982,210.301,429.982,210.301z"/>
			</g>
		</g>
		<g>
			<g>
				<path style="fill:#0B2E57;" d="M326.104,219.576l-146.933,3.432c0,0-4.212-155.186,71.136-221.578      C325.632,43.02,326.104,219.576,326.104,219.576z"/>
				<path style="fill:#0B2E57;" d="M178.029,224.209l-0.033-1.171c-0.041-1.556-3.359-156.497,71.536-222.489L250.152,0l0.725,0.4      c75.061,41.444,76.398,217.4,76.403,219.174l0.003,1.15L178.029,224.209z M250.463,2.863      c-70.024,62.537-70.297,204.545-70.136,218.94l144.588-3.375C324.678,203.179,320.461,42.602,250.463,2.863z"/>
			</g>
			<g>
				<path style="fill:#678EE4;" d="M187.437,214.995l131.262-1.957c0,0-14.905-167.311-67.404-194.349      C251.294,18.69,202.717,42.59,187.437,214.995z"/>
				<path style="opacity:0.5;fill:#FFFFFF;" d="M283.212,58.853l-11.166,9.334l-38.463-30.588      c10.133-15.164,17.703-18.901,17.703-18.901C264.052,25.281,274.586,40.139,283.212,58.853z"/>
				<path style="opacity:0.1;fill:#FFFFFF;" d="M272.046,68.187l-19.045,15.938l-38.061-8.58      c6.416-17.208,12.931-29.411,18.643-37.945L272.046,68.187z"/>
				<path style="opacity:0.3;fill:#FFFFFF;" d="M278.25,89.79l-6.864,47.442l-3.503,24.264l-40.271,2.609l-31.407-16.599      c1.176-6.677,2.421-13,3.711-19.02l53.086-44.363L278.25,89.79z"/>
				<path style="opacity:0.5;fill:#FFFFFF;" d="M227.612,164.105l-34.489,2.21c0.965-6.536,1.998-12.813,3.082-18.809      L227.612,164.105z"/>
				<path style="opacity:0.5;fill:#FFFFFF;" d="M318.689,213.028l-58.396,0.87l7.591-52.402l3.503-24.264l14.505,3.433l22.994,5.454      C315.985,182.889,318.689,213.028,318.689,213.028z"/>
				<path style="opacity:0.1;fill:#FFFFFF;" d="M303.64,121.483l-17.749,19.182l-14.505-3.433l6.864-47.442l17.987,4.043      C298.988,102.933,301.457,112.242,303.64,121.483z"/>
			</g>
			<g>
				<path style="fill:#FFBF41;" d="M289.977,133.389c3.02,8.849-6.39,9.63-12.127,9.338c3.104-3.791,2.712-8.454,1.916-11.52      l-19.105,0.758v50.029c2.888,0.622,6.566,0.641,9.807-1.693c-0.061,5.747-1.429,15.086-10.064,11.524      c-0.645,4.482-2.551,11.592-8.17,10.895c-6.174-0.763-6.896-8.589-6.883-12.342c-5.396,1.559-13.179,2.033-9.431-10.119      c3.714,4.209,8.507,1.706,10.836,0.041l-1.344-47.735l-19.467,0.771c-0.38,2.863-0.109,6.396,2.339,9.391      c-5.736,0.292-15.145-0.489-12.127-9.338c-4.513-0.367-11.724-1.829-11.38-7.482c0.375-6.198,8.128-7.41,11.888-7.631      c-1.88-5.285-2.837-13.031,9.533-10.038c-3.516,3.506-1.748,7.529-0.036,9.951l18.836-0.206l-0.793-27.955      c-2.456-1.087-5.647-1.48-8.285,1.513c-3.753-12.156,4.035-11.686,9.431-10.122c-0.013-3.762,0.709-11.583,6.883-12.348      c5.619-0.689,7.525,6.419,8.17,10.896c8.638-3.562,10.003,5.782,10.064,11.532c-3.24-2.342-6.919-2.317-9.807-1.701v28.01      l19.712-0.215c1.553-2.448,2.806-6.122-0.436-9.355c12.369-2.993,11.415,4.753,9.533,10.038      c3.76,0.221,11.512,1.433,11.885,7.631C301.702,131.56,294.488,133.021,289.977,133.389z"/>
				<polygon style="fill:#0B2E57;" points="253.068,134.355 248.017,125.693 252.614,115.95 258.119,125.693     "/>
				<rect x="224.229" y="123.976" style="fill:#0B2E57;" width="21.418" height="2.352"/>
				
					<rect x="239.958" y="99.391" transform="matrix(0.0133 -0.9999 0.9999 0.0133 148.2559 351.3783)" style="fill:#0B2E57;" width="24.431" height="2.351"/>
				<rect x="260.203" y="123.976" style="fill:#0B2E57;" width="21.581" height="2.352"/>
				<rect x="251.892" y="137.211" style="fill:#0B2E57;" width="2.352" height="43.504"/>
			</g>
		</g>
	</g>
	<g>
		<g>
			<polygon style="fill:#FFD184;" points="413.452,367.034 418.545,256.147 379.755,256.147 387.2,368.993    "/>
			<g>
				<path style="fill:#FF6C44;" d="M391.868,250.986c-3.061-3.571,0.271-13.696,10.112-17.26      C405.211,246.157,396.013,255.529,391.868,250.986z"/>
			</g>
			<path style="fill:#FFBF41;" d="M366.042,371.534h60.341c0,0,19.005-17.632,13.717-19.982c-5.291-2.352-17.633,8.423-17.633,8.423     s9.209-12.928,4.115-13.32c-5.098-0.394-20.571,10.969-20.571,10.969s2.694-10.989-2.475-10.981     c-5.168,0.013-5.561,9.806-5.561,9.806s-15.084-15.673-20.765-13.125c-5.684,2.546,5.091,13.967,5.091,13.967     S348.609,341.56,366.042,371.534z"/>
			
				<rect x="398.688" y="323.465" transform="matrix(0.0165 -0.9999 0.9999 0.0165 55.8294 731.7549)" style="fill:#678EE4;" width="2.35" height="28.068"/>
			<rect x="387.005" y="330.842" style="fill:#678EE4;" width="25.127" height="2.35"/>
			
				<rect x="398.541" y="259.72" transform="matrix(0.0141 -0.9999 0.9999 0.0141 118.7366 671.1638)" style="fill:#678EE4;" width="2.351" height="31.3"/>
			
				<rect x="397.953" y="253.618" transform="matrix(0.0271 -0.9996 0.9996 0.0271 118.5559 661.5323)" style="fill:#678EE4;" width="2.352" height="32.484"/>
		</g>
		<g>
			<polygon style="fill:#0B2E57;" points="189.671,369.526 185.633,355.81 239.091,355.81 235.254,338.964 167.483,340.923      164.66,331.125 338.533,326.033 336.514,337.395 258.249,337.395 255.024,356.596 302.224,355.42 298.592,371.093    "/>
			<path style="fill:#FFA482;" d="M253.06,247.415c-47.409-43.491-100.898,1.568-100.898,1.568l21.16,83.083l159.081-3.934     l18.025-90.514C299.88,202.748,253.06,247.415,253.06,247.415z"/>
			<polygon style="fill:#FF6C44;" points="170.621,335.66 147.29,247.04 154.109,245.244 176.021,328.472 329.474,324.676      346.963,233.722 353.889,235.053 335.329,331.586    "/>
			<rect x="251.443" y="250.55" style="fill:#0B2E57;" width="2.352" height="71.314"/>
			<path style="fill:#0B2E57;" d="M252.419,323.41l-0.679-0.765c-20.983-23.564-64.324-5.194-64.761-5.005l-1.253,0.54     l-20.002-75.163l2.273-0.605l19.308,72.552c7.485-2.977,45.053-16.382,65.517,5.381c5.574-3.424,37.149-21.383,61.98-5.87     l19.6-82.71l2.285,0.541l-20.377,86.008l-1.413-0.967c-26.081-17.861-61.276,5.261-61.626,5.495L252.419,323.41z"/>
			
				<rect x="185.374" y="247.464" transform="matrix(0.9998 -0.0195 0.0195 0.9998 -4.8128 4.101)" style="fill:#0B2E57;" width="44.676" height="2.352"/>
			
				<rect x="185.332" y="258.044" transform="matrix(0.9977 -0.0685 0.0685 0.9977 -17.2731 14.6231)" style="fill:#0B2E57;" width="38.587" height="2.352"/>
			
				<rect x="182.098" y="274.183" transform="matrix(0.9984 -0.0565 0.0565 0.9984 -15.2223 12.3254)" style="fill:#0B2E57;" width="56.515" height="2.35"/>
			
				<rect x="190.314" y="288.166" transform="matrix(0.9968 -0.0802 0.0802 0.9968 -22.5249 17.6541)" style="fill:#0B2E57;" width="36.559" height="2.351"/>
			<polygon style="fill:#0B2E57;" points="191.917,302.561 191.768,300.217 228.208,297.965 228.357,300.31    "/>
			
				<rect x="265.544" y="296.409" transform="matrix(0.9971 -0.0756 0.0756 0.9971 -21.6705 22.4543)" style="fill:#0B2E57;" width="40.674" height="2.351"/>
			
				<rect x="265.364" y="285.108" transform="matrix(0.9877 -0.1561 0.1561 0.9877 -41.2 48.0044)" style="fill:#0B2E57;" width="39.271" height="2.353"/>
			
				<rect x="264.077" y="272.505" transform="matrix(0.9977 -0.0685 0.0685 0.9977 -18.0664 20.4033)" style="fill:#0B2E57;" width="48.898" height="2.351"/>
			
				<rect x="265.458" y="259.219" transform="matrix(0.9934 -0.1147 0.1147 0.9934 -27.9739 34.6454)" style="fill:#0B2E57;" width="43.195" height="2.351"/>
			
				<rect x="264.064" y="249.668" transform="matrix(0.9968 -0.0801 0.0801 0.9968 -19.178 23.7476)" style="fill:#0B2E57;" width="44.514" height="2.352"/>
			<path style="fill:#0B2E57;" d="M191.075,324.778l-1.406-1.883c0.263-0.196,26.533-19.418,51.915-2l-1.332,1.936     C216.286,306.386,191.325,324.592,191.075,324.778z"/>
			<path style="fill:#0B2E57;" d="M203.98,324.796l-1.354-1.919c0.155-0.109,15.469-10.711,30.078-2.023l-1.202,2.021     C218.191,314.959,204.123,324.699,203.98,324.796z"/>
			<path style="fill:#0B2E57;" d="M266.371,322.755l-1.535-1.78c0.185-0.161,18.798-15.864,41.879-3.426l-1.115,2.068     C283.985,307.965,267.08,322.146,266.371,322.755z"/>
			<path style="fill:#0B2E57;" d="M298.289,322.916c-15.13-7.518-22.439-0.52-22.744-0.223l-1.666-1.655     c0.347-0.352,8.719-8.543,25.456-0.227L298.289,322.916z"/>
			
				<rect x="310.198" y="293.461" transform="matrix(0.2102 -0.9777 0.9777 0.2102 -29.7672 552.4272)" style="fill:#0B2E57;" width="33.647" height="2.353"/>
			
				<rect x="299.253" y="287.235" transform="matrix(0.1844 -0.9829 0.9829 0.1844 -11.627 562.8115)" style="fill:#0B2E57;" width="68.07" height="2.352"/>
			
				<rect x="165.687" y="268.082" transform="matrix(0.9708 -0.2399 0.2399 0.9708 -62.6828 48.2625)" style="fill:#0B2E57;" width="2.351" height="26.949"/>
			
				<rect x="170.683" y="251.535" transform="matrix(0.9667 -0.2561 0.2561 0.9667 -66.9109 53.4683)" style="fill:#0B2E57;" width="2.35" height="64.262"/>
		</g>
		<g>
			<polygon style="fill:#FFD184;" points="94.574,367.034 89.48,256.147 128.27,256.147 120.826,368.993    "/>
			<g>
				<path style="fill:#FF6C44;" d="M106.469,250.986c-3.063-3.571,0.268-13.696,10.109-17.26      C119.811,246.157,110.612,255.529,106.469,250.986z"/>
			</g>
			<path style="fill:#FFBF41;" d="M141.984,371.534H81.643c0,0-19.004-17.632-13.716-19.982c5.29-2.352,17.632,8.423,17.632,8.423     s-9.209-12.928-4.114-13.32c5.097-0.394,20.57,10.969,20.57,10.969s-2.693-10.989,2.475-10.981     c5.168,0.013,5.562,9.806,5.562,9.806s15.083-15.673,20.765-13.125c5.684,2.546-5.092,13.967-5.092,13.967     S159.417,341.56,141.984,371.534z"/>
			
				<rect x="94.129" y="336.325" transform="matrix(0.9999 -0.015 0.015 0.9999 -5.0435 1.6581)" style="fill:#678EE4;" width="28.068" height="2.35"/>
			<rect x="95.893" y="330.842" style="fill:#678EE4;" width="25.127" height="2.35"/>
			
				<rect x="92.66" y="274.195" transform="matrix(0.9999 -0.0129 0.0129 0.9999 -3.5375 1.4177)" style="fill:#678EE4;" width="31.299" height="2.351"/>
			
				<rect x="92.655" y="268.684" transform="matrix(0.9996 -0.0282 0.0282 0.9996 -7.5798 3.1839)" style="fill:#678EE4;" width="32.485" height="2.352"/>
		</g>
		<g>
			<g>
				<polygon style="fill:#0B2E57;" points="435.908,480.782 429.583,512 80.067,512 74.633,483.014 82.424,401.898 111.028,397.978       394.319,392.101 419.729,402.835     "/>
				<path style="opacity:0.1;fill:#FFFFFF;" d="M94.822,496.74l-8.982-98.352l113.35-1.603v97.952L94.822,496.74z M88.411,400.704      l8.554,93.644l99.873-1.916v-93.26L88.411,400.704z"/>
				<path style="opacity:0.1;fill:#FFFFFF;" d="M305.569,494.368h-98.105l-4.064-97.523l102.168-3.609V494.368z M209.719,492.017      h93.5v-96.348l-97.37,3.443L209.719,492.017z"/>
				<path style="opacity:0.1;fill:#FFFFFF;" d="M424.359,494.368H311.704l3.107-101.092h115.627L424.359,494.368z M314.13,492.017      h108.018l5.793-96.389h-110.85L314.13,492.017z"/>
			</g>
			<g>
				<polygon style="fill:#366ABB;" points="460.147,361.14 435.908,480.782 386.866,481.039 391.967,439.897 109.852,439.897       117.681,483.014 74.633,483.014 51.853,361.14     "/>
				<polygon style="fill:#FFD184;" points="77.296,475.558 77.169,473.211 107.533,471.52 93.702,372.575 96.028,372.249       110.214,473.724     "/>
				<polygon style="fill:#FFD184;" points="432.522,472.035 392.998,472.035 404.569,372.276 406.906,372.547 395.638,469.683       432.522,469.683     "/>
				<polygon style="fill:#FFD184;" points="98.097,430.304 91.062,430.939 89.48,416.786 77.233,416.786 80.255,431.908       71.942,432.655 73.412,439.897 81.832,439.782 86.342,462.336 94.572,462.336 92.034,439.645 98.097,439.56     "/>
				<polygon style="fill:#FFD184;" points="410.176,428.834 417.214,429.469 418.795,415.316 431.04,415.316 428.017,430.439       436.331,431.185 434.862,438.428 426.444,438.314 421.931,460.866 413.702,460.866 416.24,438.176 410.176,438.092     "/>
				<path style="fill:#FFD184;" d="M394.289,431.479l-3.339-0.028l0.061-7.051l3.337,0.025L394.289,431.479z M386.25,431.413      l-7.054-0.057l0.059-7.053l7.054,0.056L386.25,431.413z M374.494,431.316l-7.054-0.059l0.061-7.052l7.053,0.057L374.494,431.316      z M362.739,431.219l-7.054-0.056l0.062-7.054l7.053,0.059L362.739,431.219z M350.986,431.122l-7.051-0.056l0.059-7.054      l7.051,0.056L350.986,431.122z M339.231,431.025l-7.053-0.059l0.061-7.051l7.054,0.059L339.231,431.025z M327.476,430.931      l-7.053-0.059l0.06-7.054l7.054,0.059L327.476,430.931z M315.724,430.831l-7.053-0.056l0.056-7.054l7.054,0.059L315.724,430.831      z M303.967,430.737l-7.054-0.059l0.061-7.054l7.053,0.059L303.967,430.737z M292.212,430.64l-7.054-0.059l0.062-7.053      l7.053,0.059L292.212,430.64z M280.46,430.543l-7.053-0.059l0.059-7.054l7.053,0.059L280.46,430.543z M268.705,430.446      l-7.053-0.059l0.061-7.054l7.052,0.059L268.705,430.446z M256.951,430.35l-7.054-0.059l0.061-7.054l7.051,0.059L256.951,430.35z       M245.198,430.252l-7.053-0.059l0.056-7.053l7.054,0.059L245.198,430.252z M233.441,430.155l-7.054-0.059l0.061-7.054      l7.051,0.059L233.441,430.155z M221.686,430.059L214.632,430l0.062-7.054l7.051,0.059L221.686,430.059z M209.933,429.962      l-7.053-0.06l0.059-7.051l7.051,0.057L209.933,429.962z M198.179,429.864l-7.054-0.059l0.061-7.053l7.051,0.059L198.179,429.864      z M186.424,429.768l-7.054-0.059l0.061-7.054l7.051,0.059L186.424,429.768z M174.669,429.671l-7.054-0.059l0.059-7.051      l7.051,0.056L174.669,429.671z M162.915,429.573l-7.054-0.059l0.061-7.053l7.051,0.059L162.915,429.573z M151.16,429.477      l-7.054-0.059l0.061-7.051l7.051,0.059L151.16,429.477z M139.408,429.38l-7.054-0.056l0.059-7.054l7.054,0.056L139.408,429.38z       M127.653,429.283l-7.054-0.059l0.059-7.051l7.054,0.059L127.653,429.283z M115.898,429.189l-7.054-0.059l0.059-7.054      l7.054,0.059L115.898,429.189z"/>
				<path style="fill:#FFD184;" d="M104.01,380.346l-0.069-7.051l7.051-0.072l0.069,7.052L104.01,380.346z M115.765,380.228      l-0.069-7.053l7.051-0.071l0.069,7.053L115.765,380.228z M127.517,380.11l-0.068-7.053l7.053-0.071l0.069,7.053L127.517,380.11z       M139.272,379.991l-0.068-7.052l7.053-0.071l0.069,7.054L139.272,379.991z M151.027,379.873l-0.069-7.053l7.054-0.069      l0.069,7.054L151.027,379.873z M162.782,379.756l-0.069-7.053l7.054-0.072l0.069,7.054L162.782,379.756z M174.537,379.639      l-0.071-7.054l7.053-0.071l0.072,7.054L174.537,379.639z M186.292,379.519l-0.071-7.051l7.053-0.071l0.071,7.051      L186.292,379.519z M198.046,379.401l-0.071-7.054l7.053-0.071l0.071,7.054L198.046,379.401z M209.801,379.284l-0.072-7.054      l7.054-0.071l0.071,7.054L209.801,379.284z M221.553,379.164l-0.074-7.051l7.054-0.071l0.074,7.051L221.553,379.164z       M233.308,379.047l-0.074-7.054l7.054-0.071l0.074,7.054L233.308,379.047z M245.063,378.93l-0.074-7.054l7.054-0.071      l0.073,7.054L245.063,378.93z M256.818,378.81l-0.074-7.054l7.051-0.068l0.071,7.051L256.818,378.81z M268.567,378.692      l-0.068-7.054l7.054-0.068l0.068,7.051L268.567,378.692z M280.322,378.575l-0.068-7.054l7.053-0.071l0.069,7.054      L280.322,378.575z M292.077,378.455l-0.068-7.054l7.053-0.068l0.069,7.053L292.077,378.455z M303.832,378.338l-0.071-7.051      l7.051-0.071l0.071,7.051L303.832,378.338z M315.583,378.221l-0.068-7.054l7.054-0.071l0.068,7.054L315.583,378.221z       M327.338,378.103l-0.068-7.054l7.054-0.071l0.068,7.053L327.338,378.103z M339.093,377.983l-0.068-7.054l7.053-0.068      l0.069,7.051L339.093,377.983z M350.848,377.866l-0.071-7.054l7.051-0.071l0.074,7.053L350.848,377.866z M362.601,377.748      l-0.069-7.053l7.054-0.071l0.068,7.053L362.601,377.748z M374.355,377.629l-0.068-7.054l7.054-0.069l0.068,7.052      L374.355,377.629z M386.11,377.512l-0.068-7.054l7.054-0.071l0.068,7.053L386.11,377.512z"/>
			</g>
		</g>
	</g>
</g>















</svg>
