<?xml version="1.0" encoding="UTF-8" standalone="no"?>
<!-- Created with Inkscape (http://www.inkscape.org/) -->

<svg
   version="1.1"
   id="svg2956"
   xml:space="preserve"
   width="682.66669"
   height="682.66669"
   viewBox="0 0 682.66669 682.66669"
   xmlns="http://www.w3.org/2000/svg"
   xmlns:svg="http://www.w3.org/2000/svg"><defs
     id="defs2960"><clipPath
       clipPathUnits="userSpaceOnUse"
       id="clipPath2970"><path
         d="M 0,512 H 512 V 0 H 0 Z"
         id="path2968" /></clipPath><linearGradient
       x1="0"
       y1="0"
       x2="1"
       y2="0"
       gradientUnits="userSpaceOnUse"
       gradientTransform="matrix(487.93188,0,0,-487.93188,544.03406,-276)"
       spreadMethod="pad"
       id="linearGradient2994"><stop
         style="stop-opacity:1;stop-color:#ffdbed"
         offset="0"
         id="stop2984" /><stop
         style="stop-opacity:1;stop-color:#ffdbed"
         offset="0.048501"
         id="stop2986" /><stop
         style="stop-opacity:1;stop-color:#d2deff"
         offset="0.97145136"
         id="stop2988" /><stop
         style="stop-opacity:1;stop-color:#d2deff"
         offset="0.999306"
         id="stop2990" /><stop
         style="stop-opacity:1;stop-color:#d2deff"
         offset="1"
         id="stop2992" /></linearGradient><clipPath
       clipPathUnits="userSpaceOnUse"
       id="clipPath3004"><path
         d="M 0,512 H 512 V 0 H 0 Z"
         id="path3002" /></clipPath><linearGradient
       x1="0"
       y1="0"
       x2="1"
       y2="0"
       gradientUnits="userSpaceOnUse"
       gradientTransform="matrix(421.45193,0,0,-421.45193,45.274036,-276)"
       spreadMethod="pad"
       id="linearGradient3024"><stop
         style="stop-opacity:1;stop-color:#ffdbed"
         offset="0"
         id="stop3018" /><stop
         style="stop-opacity:1;stop-color:#dcfdee"
         offset="0.97070415"
         id="stop3020" /><stop
         style="stop-opacity:1;stop-color:#dcfdee"
         offset="1"
         id="stop3022" /></linearGradient><clipPath
       clipPathUnits="userSpaceOnUse"
       id="clipPath3034"><path
         d="M 0,512 H 512 V 0 H 0 Z"
         id="path3032" /></clipPath><linearGradient
       x1="0"
       y1="0"
       x2="1"
       y2="0"
       gradientUnits="userSpaceOnUse"
       gradientTransform="matrix(421.45193,0,0,-421.45193,577.27405,256)"
       spreadMethod="pad"
       id="linearGradient3056"><stop
         style="stop-opacity:1;stop-color:#d2deff"
         offset="0"
         id="stop3048" /><stop
         style="stop-opacity:1;stop-color:#d2deff"
         offset="0.048501"
         id="stop3050" /><stop
         style="stop-opacity:1;stop-color:#dcfdee"
         offset="0.97212503"
         id="stop3052" /><stop
         style="stop-opacity:1;stop-color:#dcfdee"
         offset="1"
         id="stop3054" /></linearGradient><linearGradient
       x1="0"
       y1="0"
       x2="1"
       y2="0"
       gradientUnits="userSpaceOnUse"
       gradientTransform="matrix(487.93188,0,0,-487.93188,12.034064,256)"
       spreadMethod="pad"
       id="linearGradient3082"><stop
         style="stop-opacity:1;stop-color:#ffdbed"
         offset="0"
         id="stop3072" /><stop
         style="stop-opacity:1;stop-color:#ffdbed"
         offset="0.048501"
         id="stop3074" /><stop
         style="stop-opacity:1;stop-color:#d2deff"
         offset="0.97145136"
         id="stop3076" /><stop
         style="stop-opacity:1;stop-color:#d2deff"
         offset="0.999306"
         id="stop3078" /><stop
         style="stop-opacity:1;stop-color:#d2deff"
         offset="1"
         id="stop3080" /></linearGradient><clipPath
       clipPathUnits="userSpaceOnUse"
       id="clipPath3092"><path
         d="M 0,512 H 512 V 0 H 0 Z"
         id="path3090" /></clipPath><clipPath
       clipPathUnits="userSpaceOnUse"
       id="clipPath3100"><path
         d="m 56.455,464.216 h 399.09 V 17.7842 H 56.455 Z"
         id="path3098" /></clipPath><clipPath
       clipPathUnits="userSpaceOnUse"
       id="clipPath3192"><path
         d="M 0,512 H 512 V 0 H 0 Z"
         id="path3190" /></clipPath><linearGradient
       x1="0"
       y1="0"
       x2="1"
       y2="0"
       gradientUnits="userSpaceOnUse"
       gradientTransform="matrix(487.93188,0,0,-487.93188,-519.96594,788)"
       spreadMethod="pad"
       id="linearGradient3216"><stop
         style="stop-opacity:1;stop-color:#ffdbed"
         offset="0"
         id="stop3206" /><stop
         style="stop-opacity:1;stop-color:#ffdbed"
         offset="0.048501"
         id="stop3208" /><stop
         style="stop-opacity:1;stop-color:#d2deff"
         offset="0.97145136"
         id="stop3210" /><stop
         style="stop-opacity:1;stop-color:#d2deff"
         offset="0.999306"
         id="stop3212" /><stop
         style="stop-opacity:1;stop-color:#d2deff"
         offset="1"
         id="stop3214" /></linearGradient></defs><g
     id="g2962"
     transform="matrix(1.3333333,0,0,-1.3333333,0,682.66667)"><g
       id="g2964"><g
         id="g2966"
         clip-path="url(#clipPath2970)"><g
           id="g2972"><g
             id="g2974"><g
               id="g2980"><g
                 id="g2982"><path
                   d="m 818.593,-24.867 c -94.351,-27.746 -75.427,-93.585 -85.981,-166.539 -13.171,-91.052 -70.094,-44.365 -135.496,-93.537 -113.054,-85.001 -30.93,-272.636 109.469,-244.14 74.552,15.13 89.786,70.094 120.192,128.824 39.333,75.972 104.559,55.259 163.067,104.856 118.655,100.582 -37.404,309.897 -171.251,270.536"
                   style="fill:url(#linearGradient2994);stroke:none"
                   id="path2996" /></g></g></g></g></g></g><g
       id="g2998"><g
         id="g3000"
         clip-path="url(#clipPath3004)"><g
           id="g3006"><g
             id="g3008"><g
               id="g3014"><g
                 id="g3016"><path
                   d="m 97.146,-58.232 c -135.328,-119.539 38.831,-235.409 22.243,-366.028 -7.375,-58.072 16.053,-113.588 92.705,-107.244 93.412,7.732 59.504,97.209 79.065,156.778 33.659,102.501 240.73,78.56 154.895,236.448 C 391.277,-37.52 190.288,24.043 97.146,-58.232"
                   style="fill:url(#linearGradient3024);stroke:none"
                   id="path3026" /></g></g></g></g></g></g><g
       id="g3028"><g
         id="g3030"
         clip-path="url(#clipPath3034)"><g
           id="g3036"><g
             id="g3038"><g
               id="g3044"><g
                 id="g3046"><path
                   d="M 629.146,473.768 C 493.818,354.229 667.977,238.359 651.389,107.74 644.014,49.668 667.442,-5.848 744.094,0.496 c 93.412,7.732 59.504,97.209 79.065,156.778 33.659,102.501 240.73,78.56 154.895,236.448 -54.777,100.758 -255.766,162.321 -348.908,80.046"
                   style="fill:url(#linearGradient3056);stroke:none"
                   id="path3058" /></g></g></g></g></g></g><g
       id="g3060"><g
         id="g3062"><g
           id="g3068"><g
             id="g3070"><path
               d="m 286.592,507.133 c -94.35,-27.746 -75.426,-93.585 -85.979,-166.539 v 0 C 187.441,249.542 130.518,296.23 65.116,247.056 v 0 C -47.938,162.056 34.186,-25.579 174.585,2.917 v 0 c 74.552,15.131 89.786,70.095 120.192,128.824 v 0 c 39.334,75.972 104.559,55.258 163.067,104.855 v 0 C 566.497,328.701 444.777,511.981 320.715,512 v 0 c -11.42,0.002 -22.841,-1.549 -34.123,-4.867"
               style="fill:url(#linearGradient3082);stroke:none"
               id="path3084" /></g></g></g></g><g
       id="g3086"><g
         id="g3088"
         clip-path="url(#clipPath3092)"><g
           id="g3094"><g
             id="g3096" /><g
             id="g3112"><g
               clip-path="url(#clipPath3100)"
               opacity="0.100006"
               id="g3110"><g
                 transform="translate(440.6504,134.3921)"
                 id="g3104"><path
                   d="m 0,0 c -11.043,-19.127 -41.256,-27.099 -82.896,-21.869 -6.871,0.863 -13.936,2.058 -21.158,3.569 6.253,21.538 10.808,45.378 13.49,70.588 20.491,14.927 38.859,30.79 54.385,46.975 4.92,-5.499 9.488,-11.02 13.67,-16.539 C 2.839,49.279 11.043,19.127 0,0 m -124.264,-45.753 c -16.29,-38.674 -38.3,-60.855 -60.386,-60.855 -22.086,0 -44.097,22.181 -60.387,60.855 -2.689,6.382 -5.186,13.099 -7.488,20.108 16.03,3.941 32.677,9.299 49.591,15.957 4.045,-5.744 10.724,-9.501 18.284,-9.501 7.559,0 14.238,3.757 18.283,9.501 16.914,-6.658 33.561,-12.016 49.592,-15.957 -2.303,-7.009 -4.8,-13.726 -7.489,-20.108 m -162.141,23.884 c -41.64,-5.229 -71.852,2.742 -82.896,21.869 -6.888,11.933 -6.285,28.157 1.296,46.793 2.198,-0.722 4.544,-1.119 6.984,-1.119 12.345,0 22.353,10.008 22.353,22.353 0,6.379 -2.676,12.13 -6.962,16.202 3.865,5.018 8.036,10.035 12.508,15.034 15.526,-16.185 33.894,-32.048 54.386,-46.975 2.681,-25.21 7.236,-49.05 13.489,-70.588 -7.222,-1.511 -14.287,-2.706 -21.158,-3.569 m -60.387,152.361 c -25.348,33.445 -33.552,63.596 -22.509,82.724 8.822,15.279 29.872,23.439 59.212,23.439 7.389,0 15.307,-0.518 23.684,-1.57 6.871,-0.863 13.936,-2.058 21.158,-3.569 -6.253,-21.538 -10.808,-45.378 -13.489,-70.587 -20.492,-14.928 -38.86,-30.791 -54.386,-46.975 -4.919,5.498 -9.487,11.019 -13.67,16.538 m 101.755,128.477 c 16.29,38.674 38.301,60.855 60.387,60.855 12.616,0 25.206,-7.249 36.72,-20.664 -3.537,-3.954 -5.691,-9.173 -5.691,-14.896 0,-12.345 10.008,-22.353 22.353,-22.353 1.878,0 3.702,0.235 5.444,0.671 0.526,-1.188 1.046,-2.392 1.56,-3.613 2.689,-6.382 5.186,-13.098 7.489,-20.108 -21.78,-5.354 -44.703,-13.33 -67.875,-23.612 -23.173,10.282 -46.096,18.258 -67.875,23.612 2.302,7.01 4.799,13.726 7.488,20.108 M -89.334,147.561 C -71.99,134.416 -56.373,120.624 -42.981,106.608 -56.373,92.592 -71.99,78.8 -89.334,65.655 c 1.055,13.371 1.6,27.064 1.6,40.953 0,13.889 -0.545,27.581 -1.6,40.953 m -83.125,62.07 c 20.057,8.448 39.809,15.077 58.643,19.666 5.443,-18.606 9.578,-39.026 12.291,-60.619 -11.054,7.599 -22.639,14.917 -34.667,21.862 -12.029,6.944 -24.16,13.318 -36.267,19.091 m -60.649,-19.091 c -12.029,-6.945 -23.614,-14.263 -34.667,-21.862 2.713,21.593 6.847,42.013 12.291,60.619 18.834,-4.589 38.586,-11.218 58.642,-19.666 -12.107,-5.773 -24.238,-12.147 -36.266,-19.091 M -279.967,65.655 c -17.344,13.145 -32.961,26.937 -46.352,40.953 13.391,14.016 29.008,27.808 46.352,40.953 -1.054,-13.372 -1.599,-27.064 -1.599,-40.953 0,-13.889 0.545,-27.582 1.599,-40.953 m 138.775,-34.319 c -8.668,-5.004 -17.386,-9.701 -26.103,-14.089 -4.099,5.045 -10.35,8.27 -17.355,8.27 -7.006,0 -13.257,-3.225 -17.356,-8.27 -8.717,4.388 -17.434,9.085 -26.102,14.089 -14.425,8.329 -28.195,17.193 -41.135,26.433 -1.531,15.826 -2.323,32.183 -2.323,48.839 0,16.656 0.792,33.014 2.323,48.84 12.94,9.239 26.71,18.104 41.135,26.431 14.424,8.329 28.986,15.822 43.458,22.409 14.471,-6.587 29.033,-14.08 43.458,-22.409 14.424,-8.327 28.194,-17.192 41.134,-26.431 1.532,-15.826 2.324,-32.184 2.324,-48.84 0,-16.656 -0.792,-33.013 -2.324,-48.839 -12.94,-9.24 -26.71,-18.104 -41.134,-26.433 M -162.891,8.271 c 8.922,4.487 17.838,9.29 26.699,14.405 12.028,6.945 23.613,14.263 34.667,21.862 -2.713,-21.593 -6.848,-42.014 -12.291,-60.619 -15.737,3.834 -32.114,9.089 -48.774,15.643 0.19,1.173 0.292,2.375 0.292,3.602 0,1.758 -0.209,3.466 -0.593,5.107 m -43.82,-8.709 c -16.66,-6.554 -33.037,-11.809 -48.773,-15.643 -5.444,18.605 -9.578,39.026 -12.291,60.619 11.053,-7.599 22.638,-14.917 34.667,-21.862 8.86,-5.115 17.776,-9.918 26.698,-14.405 -0.384,-1.641 -0.593,-3.349 -0.593,-5.107 0,-1.227 0.103,-2.429 0.292,-3.602 m 123.815,235.523 c 8.379,1.052 16.293,1.57 23.684,1.57 29.336,0 50.391,-8.161 59.212,-23.439 11.043,-19.128 2.839,-49.279 -22.509,-82.724 -4.182,-5.519 -8.75,-11.04 -13.67,-16.538 -15.526,16.184 -33.894,32.047 -54.385,46.975 -2.682,25.209 -7.237,49.049 -13.49,70.587 7.222,1.511 14.287,2.706 21.158,3.569 m 53.55,-128.477 c 5.338,5.928 10.291,11.885 14.807,17.844 28.307,37.348 36.545,70.648 23.199,93.764 -13.346,23.116 -46.3,32.629 -92.802,26.791 -7.418,-0.932 -15.053,-2.243 -22.856,-3.902 -2.465,7.587 -5.148,14.856 -8.05,21.746 -0.612,1.453 -1.232,2.879 -1.858,4.288 4.884,4.1 7.991,10.249 7.991,17.125 0,12.345 -10.008,22.353 -22.353,22.353 -2.964,0 -5.793,-0.583 -8.381,-1.631 -13.629,16.234 -28.957,24.838 -45.001,24.838 -26.693,0 -51.412,-23.785 -69.603,-66.973 -2.902,-6.89 -5.585,-14.159 -8.05,-21.746 -7.802,1.659 -15.438,2.97 -22.856,3.902 -46.505,5.839 -79.456,-3.675 -92.802,-26.791 -13.346,-23.116 -5.107,-56.416 23.199,-93.764 4.516,-5.959 9.469,-11.916 14.807,-17.844 -5.162,-5.733 -9.958,-11.493 -14.353,-17.255 -2.119,0.667 -4.374,1.027 -6.713,1.027 -12.344,0 -22.352,-10.007 -22.352,-22.353 0,-6.234 2.555,-11.87 6.671,-15.924 -9.474,-22.277 -10.039,-41.895 -1.259,-57.103 10.78,-18.672 34.354,-28.469 67.525,-28.469 7.896,0 16.336,0.555 25.277,1.678 7.418,0.932 15.054,2.243 22.856,3.902 2.465,-7.587 5.148,-14.856 8.05,-21.746 18.191,-43.188 42.91,-66.973 69.603,-66.973 26.692,0 51.411,23.785 69.602,66.973 2.902,6.89 5.585,14.159 8.05,21.746 7.803,-1.659 15.438,-2.97 22.856,-3.902 8.944,-1.123 17.379,-1.678 25.277,-1.678 33.168,10e-4 56.746,9.799 67.525,28.469 13.346,23.116 5.108,56.416 -23.199,93.764 -4.516,5.959 -9.469,11.916 -14.807,17.844"
                   style="fill:#2626bc;fill-opacity:1;fill-rule:nonzero;stroke:none"
                   id="path3102" /></g><g
                 transform="translate(256,288.4849)"
                 id="g3108"><path
                   d="m 0,0 c -26.225,0 -47.484,-21.26 -47.484,-47.485 0,-26.225 21.259,-47.484 47.484,-47.484 26.225,0 47.484,21.259 47.484,47.484 C 47.484,-21.26 26.225,0 0,0"
                   style="fill:#2626bc;fill-opacity:1;fill-rule:nonzero;stroke:none"
                   id="path3106" /></g></g></g></g><g
           id="g3114"
           transform="translate(319.9277,421.7944)"><path
             d="m 0,0 c 17.259,-39.67 27.988,-95.257 27.988,-156.794 0,-120.518 -41.152,-218.216 -91.916,-218.216 -50.763,0 -91.916,97.698 -91.916,218.216 0,120.517 41.153,218.215 91.916,218.215 13.975,0 27.221,-7.403 39.08,-20.649"
             style="fill:none;stroke:#2626bc;stroke-width:10;stroke-linecap:round;stroke-linejoin:round;stroke-miterlimit:10;stroke-dasharray:none;stroke-opacity:1"
             id="path3116" /></g><g
           id="g3118"
           transform="translate(234.8848,171.936)"><path
             d="m 0,0 c -8.259,4.187 -16.554,8.676 -24.843,13.462 -104.371,60.259 -168.404,144.747 -143.022,188.71 25.382,43.963 130.567,30.752 234.938,-29.506 104.371,-60.259 168.405,-144.747 143.023,-188.71 -19.784,-34.267 -88.052,-33.799 -166.628,-3.39"
             style="fill:none;stroke:#2626bc;stroke-width:10;stroke-linecap:round;stroke-linejoin:round;stroke-miterlimit:10;stroke-dasharray:none;stroke-opacity:1"
             id="path3120" /></g><g
           id="g3122"
           transform="translate(67.5029,205.9624)"><path
             d="m 0,0 c -7.641,-19.26 -8.275,-36.575 -0.483,-50.07 19.784,-34.267 88.051,-33.799 166.628,-3.39"
             style="fill:none;stroke:#2626bc;stroke-width:10;stroke-linecap:round;stroke-linejoin:round;stroke-miterlimit:10;stroke-dasharray:none;stroke-opacity:1"
             id="path3124" /></g><g
           id="g3126"
           transform="translate(277.7764,172.272)"><path
             d="M 0,0 C 8.04,4.091 16.113,8.468 24.182,13.126 128.553,73.385 192.586,157.873 167.204,201.836 141.822,245.799 36.637,232.588 -67.734,172.33 -118.529,143.003 -159.771,107.938 -185.8,74.598"
             style="fill:none;stroke:#2626bc;stroke-width:10;stroke-linecap:round;stroke-linejoin:round;stroke-miterlimit:10;stroke-dasharray:none;stroke-opacity:1"
             id="path3128" /></g><g
           id="g3130"
           transform="translate(303.4844,265)"><path
             d="m 0,0 c 0,-26.225 -21.26,-47.484 -47.484,-47.484 -26.225,0 -47.485,21.259 -47.485,47.484 0,26.225 21.26,47.484 47.485,47.484 C -21.26,47.484 0,26.225 0,0"
             style="fill:#02ffb3;fill-opacity:1;fill-rule:nonzero;stroke:none"
             id="path3132" /></g><g
           id="g3134"
           transform="translate(271.6699,271.1289)"><path
             d="m 0,0 h -12.168 v 23.854 c 0,1.112 -1.493,1.475 -2.004,0.487 l -18.11,-35.05 c -0.365,-0.707 0.147,-1.549 0.942,-1.549 h 12.167 v -23.854 c 0,-1.112 1.494,-1.475 2.005,-0.487 l 18.11,35.05 C 1.308,-0.842 0.795,0 0,0"
             style="fill:#ffffff;fill-opacity:1;fill-rule:nonzero;stroke:none"
             id="path3136" /></g><g
           id="g3138"
           transform="translate(239.2236,309.4263)"><path
             d="m 0,0 c -17.943,-6.78 -30.708,-24.109 -30.708,-44.426 0,-26.225 21.26,-47.485 47.484,-47.485 26.225,0 47.485,21.26 47.485,47.485 0,20.53 -13.03,38.014 -31.27,44.641"
             style="fill:none;stroke:#2626bc;stroke-width:10;stroke-linecap:round;stroke-linejoin:round;stroke-miterlimit:10;stroke-dasharray:none;stroke-opacity:1"
             id="path3140" /></g><g
           id="g3142"
           transform="translate(331.7354,442.6558)"><path
             d="m 0,0 c 0,-12.345 -10.008,-22.353 -22.353,-22.353 -12.345,0 -22.353,10.008 -22.353,22.353 0,12.345 10.008,22.353 22.353,22.353 C -10.008,22.353 0,12.345 0,0"
             style="fill:#9fb0fe;fill-opacity:1;fill-rule:nonzero;stroke:none"
             id="path3144" /></g><g
           id="g3146"
           transform="translate(331.7354,442.6558)"><path
             d="m 0,0 c 0,-12.345 -10.008,-22.353 -22.353,-22.353 -12.345,0 -22.353,10.008 -22.353,22.353 0,12.345 10.008,22.353 22.353,22.353 C -10.008,22.353 0,12.345 0,0 Z"
             style="fill:none;stroke:#2626bc;stroke-width:10;stroke-linecap:round;stroke-linejoin:round;stroke-miterlimit:10;stroke-dasharray:none;stroke-opacity:1"
             id="path3148" /></g><g
           id="g3150"
           transform="translate(101.9824,226.4194)"><path
             d="m 0,0 c 0,-12.345 -10.008,-22.353 -22.353,-22.353 -12.344,0 -22.352,10.008 -22.352,22.353 0,12.345 10.008,22.353 22.352,22.353 C -10.008,22.353 0,12.345 0,0"
             style="fill:#ff7eb8;fill-opacity:1;fill-rule:nonzero;stroke:none"
             id="path3152" /></g><g
           id="g3154"
           transform="translate(101.9824,226.4194)"><path
             d="m 0,0 c 0,-12.345 -10.008,-22.353 -22.353,-22.353 -12.344,0 -22.352,10.008 -22.352,22.353 0,12.345 10.008,22.353 22.352,22.353 C -10.008,22.353 0,12.345 0,0 Z"
             style="fill:none;stroke:#2626bc;stroke-width:10;stroke-linecap:round;stroke-linejoin:round;stroke-miterlimit:10;stroke-dasharray:none;stroke-opacity:1"
             id="path3156" /></g><g
           id="g3158"
           transform="translate(278.3525,161.5562)"><path
             d="m 0,0 c 0,-12.345 -10.008,-22.353 -22.353,-22.353 -12.344,0 -22.352,10.008 -22.352,22.353 0,12.345 10.008,22.353 22.352,22.353 C -10.008,22.353 0,12.345 0,0"
             style="fill:#ffffff;fill-opacity:1;fill-rule:nonzero;stroke:none"
             id="path3160" /></g><g
           id="g3162"
           transform="translate(278.3525,161.5562)"><path
             d="m 0,0 c 0,-12.345 -10.008,-22.353 -22.353,-22.353 -12.344,0 -22.352,10.008 -22.352,22.353 0,12.345 10.008,22.353 22.352,22.353 C -10.008,22.353 0,12.345 0,0 Z"
             style="fill:none;stroke:#2626bc;stroke-width:10;stroke-linecap:round;stroke-linejoin:round;stroke-miterlimit:10;stroke-dasharray:none;stroke-opacity:1"
             id="path3164" /></g><g
           id="g3166"
           transform="translate(123.8789,463.7607)"><path
             d="M 0,0 -7.741,-7.742 2.532,-14.258 -5.21,-22"
             style="fill:none;stroke:#ff7eb8;stroke-width:10;stroke-linecap:round;stroke-linejoin:round;stroke-miterlimit:10;stroke-dasharray:none;stroke-opacity:1"
             id="path3168" /></g><g
           id="g3170"
           transform="translate(399.0586,194.9087)"><path
             d="M 0,0 -7.741,-7.742 2.532,-14.258 -5.21,-22"
             style="fill:none;stroke:#ff7eb8;stroke-width:10;stroke-linecap:round;stroke-linejoin:round;stroke-miterlimit:10;stroke-dasharray:none;stroke-opacity:1"
             id="path3172" /></g><g
           id="g3174"
           transform="translate(131.7695,358.728)"><path
             d="m 0,0 c 0,-6.075 -4.925,-11 -11,-11 6.075,0 11,-4.925 11,-11 0,6.075 4.925,11 11,11 C 4.925,-11 0,-6.075 0,0 Z"
             style="fill:none;stroke:#01eca5;stroke-width:10;stroke-linecap:round;stroke-linejoin:round;stroke-miterlimit:10;stroke-dasharray:none;stroke-opacity:1"
             id="path3176" /></g><g
           id="g3178"
           transform="translate(153.2129,89.895)"><path
             d="m 0,0 c 0,-6.075 -4.925,-11 -11,-11 6.075,0 11,-4.925 11,-11 0,6.075 4.925,11 11,11 C 4.925,-11 0,-6.075 0,0 Z"
             style="fill:none;stroke:#6583fe;stroke-width:10;stroke-linecap:round;stroke-linejoin:round;stroke-miterlimit:10;stroke-dasharray:none;stroke-opacity:1"
             id="path3180" /></g><g
           id="g3182"
           transform="translate(455.8437,262.5967)"><path
             d="m 0,0 c 0,-6.075 -4.925,-11 -11,-11 6.075,0 11,-4.925 11,-11 0,6.075 4.925,11 11,11 C 4.925,-11 0,-6.075 0,0 Z"
             style="fill:none;stroke:#ff7eb8;stroke-width:10;stroke-linecap:round;stroke-linejoin:round;stroke-miterlimit:10;stroke-dasharray:none;stroke-opacity:1"
             id="path3184" /></g></g></g><g
       id="g3186"><g
         id="g3188"
         clip-path="url(#clipPath3192)"><g
           id="g3194"><g
             id="g3196"><g
               id="g3202"><g
                 id="g3204"><path
                   d="m -245.407,1039.133 c -94.351,-27.746 -75.427,-93.585 -85.981,-166.539 -13.171,-91.052 -70.094,-44.365 -135.495,-93.537 -113.054,-85.001 -30.931,-272.636 109.467,-244.14 74.552,15.13 89.787,70.094 120.193,128.824 39.333,75.972 104.559,55.259 163.067,104.856 118.655,100.582 -37.404,309.897 -171.251,270.536"
                   style="fill:url(#linearGradient3216);stroke:none"
                   id="path3218" /></g></g></g></g></g></g></g></svg>
