<svg id="Layer_1" enable-background="new 0 0 512 512" height="512" viewBox="0 0 512 512" width="512" xmlns="http://www.w3.org/2000/svg"><switch><g><g id="AXOLOTL_Hi" transform="translate(0 32.172)"><g transform="matrix(-.648 .358 .358 .648 1649.86 375.698)"><path clip-rule="evenodd" d="m1365.023-1056.828s-20.545-6.797-26.416-2.627c-5.871 4.172 2.162 12.668 2.162 12.668s-18.074-9.887-27.652-5.715c-9.578 4.17 6.179 16.529 6.179 16.529s-18.346-8.497-28.888-.154c-10.541 8.342 15.412 13.903 15.412 13.903s-22.09 3.244-22.09 15.449c0 12.203 23.944 6.488 23.944 6.488s-17.611 12.975-9.268 23.172c8.342 10.195 28.115-7.107 32.131-14.213-4.17 10.35-4.789 21.781 7.107 22.863 11.895 1.082 18.846-31.205 18.846-31.205s-2.008 15.912 10.66 15.448c12.667-.463 11.277-29.042 11.277-29.042s-.619 9.114 2.625 9.114 4.789-7.415 3.398-11.74-14.676-22.4-14.676-22.4z" fill="#ff295c" fill-rule="evenodd"/></g><g transform="matrix(-.648 .358 .358 .648 1649.86 375.698)"><path clip-rule="evenodd" d="m1365.699-1057.601c-46.727 13.676-73.769 34.506-59.861 58.413 10.241 17.607 41.217 12.704 78.689-16.655z" fill="#ffb0c3" fill-rule="evenodd"/></g><g transform="matrix(-1 0 0 1 1868.55 380.965)"><path clip-rule="evenodd" d="m1485.798-162.375c0-.001 0-.002 0-.002s.169-2.026-.416-3.805c-.388-1.181-1.093-2.234-2.143-2.874-1.03-.626-2.453-.949-4.438-.305-17.764 5.763-40.423 2.035-50.606-6.784-3.007-2.604-4.876-5.649-4.863-9.076.015-3.567 2.026-7.412 6.37-11.517.871-.823.911-2.2.086-3.072-.823-.871-2.199-.911-3.071-.087-5.469 5.168-7.712 10.166-7.731 14.658-.018 4.632 2.3 8.859 6.364 12.379 11.033 9.555 35.544 13.876 54.792 7.632.372-.121.638-.227.837-.116.142.079.193.242.247.396.075.215.121.443.159.659.143.807.084 1.537.084 1.537-.105 1.193.78 2.247 1.974 2.351 1.195.105 2.25-.781 2.355-1.974z" fill="#260053" fill-rule="evenodd"/></g><g transform="matrix(-1 0 0 1 1868.55 380.965)"><path clip-rule="evenodd" d="m1411.198-180.834c-3.496 3.891-3.367 8.374-.052 11.369 3.028 2.735 9.041 4.249 17.862 2.367.599-.128.98-.716.852-1.313-.128-.598-.716-.98-1.314-.852-15.127 3.226-21.175-3.997-15.7-10.089.409-.455.371-1.156-.083-1.564-.456-.409-1.157-.372-1.565.082z" fill="#260053" fill-rule="evenodd"/></g><g transform="matrix(-1 0 0 1 1868.55 380.965)"><path clip-rule="evenodd" d="m1426.835-160.718c-.907 3.397.676 6.621 4.121 7.906 1.904.709 4.425.811 7.433-.115 4.211-1.298 9.469-4.65 15.33-11.222.406-.456.366-1.158-.091-1.564-.455-.407-1.157-.367-1.563.09-5.494 6.162-10.381 9.363-14.329 10.579-2.432.749-4.469.73-6.008.157-2.294-.855-3.358-2.996-2.754-5.258.158-.591-.193-1.198-.784-1.356-.59-.159-1.198.192-1.355.783z" fill="#260053" fill-rule="evenodd"/></g><g transform="matrix(-1 0 0 1 1868.55 380.965)"><path clip-rule="evenodd" d="m1451.826-156.357c.82 2.916 3.188 4.591 6.436 4.406 4.217-.239 10.213-3.923 15.722-12.942.318-.521.153-1.204-.368-1.523-.522-.318-1.205-.153-1.522.368-4.958 8.119-10.161 11.669-13.956 11.885-2.093.12-3.65-.914-4.177-2.793-.166-.588-.777-.932-1.366-.766-.59.165-.934.777-.769 1.365z" fill="#260053" fill-rule="evenodd"/></g><g transform="matrix(1.115 .436 -.364 .931 1078.56 331.688)"><path clip-rule="evenodd" d="m-553.075 210.46c.958 2.3 1.666 5.044.074 5.856-2.891 1.473-7.634-4.432-8.36-8.918-.725-4.485 2.904-26.621 2.904-26.621l-4.184-18.674s15.219-15.386 22.343-14.336c7.125 1.05 3.826 12.268 3.826 12.268s11.614-17.016 22.041-17.649c10.428-.633 2 17.533 2 17.533s12.489-15.901 25.669-13.255c13.179 2.646-7.418 19.385-7.418 19.385s21.155-7.14 26.697 3.733c5.541 10.873-18.387 16.654-18.387 16.654s21.582 3.564 18.78 16.437c-2.802 12.872-28.276 6.436-35.082 1.929 8.417 7.327 14.158 17.232 4.051 23.597-10.107 6.364-30.961-19.245-30.961-19.245s9.014 13.265-2.482 18.604c-8.847 4.108-17.835-10.392-21.511-17.298z" fill="#e0325c" fill-rule="evenodd"/></g><g transform="matrix(1.115 .436 -.364 .931 1078.56 331.688)"><path clip-rule="evenodd" d="m-563.594 161.722c47.841-9.034 81.394-2.755 79.859 24.861-1.13 20.337-30.956 30.034-77.671 20.892z" fill="#ff92ac" fill-rule="evenodd"/></g><g transform="matrix(-1.159 .035 .182 1.028 1843.17 365.426)"><path clip-rule="evenodd" d="m1252.335-123.34s-.091-.943-.485-1.883c-.213-.505-.507-1.033-.989-1.311-.413-.238-.936-.263-1.609-.046-.899.291-1.982.991-3.311 2.248-17.706 16.746-43.628 28.093-61.492 26.355-6.173-.601-11.408-2.763-15.108-6.69-3.721-3.95-5.94-9.71-5.918-17.608.002-.585.436-.99.969-.902.533.087.964.633.962 1.218-.019 7.096 1.868 12.297 5.212 15.847 3.366 3.573 8.154 5.45 13.772 5.997 17.51 1.705 42.876-9.518 60.232-25.934 1.557-1.473 2.849-2.259 3.903-2.6 1.28-.414 2.286-.215 3.071.238.955.55 1.616 1.524 2.036 2.523.553 1.314.676 2.631.676 2.631.056.592-.329 1.053-.859 1.029-.53-.021-1.006-.521-1.062-1.112z" fill="#260053" fill-rule="evenodd"/></g><g transform="matrix(-1.159 .035 .182 1.028 1843.17 365.426)"><path clip-rule="evenodd" d="m1158.237-91.703c.845 4.123 3.486 6.297 6.955 6.75 5.747.751 13.549-2.897 19.984-10.071.348-.388.958-.339 1.361.107.404.447.45 1.125.102 1.514-6.863 7.651-15.265 11.38-21.394 10.58-4.45-.582-7.805-3.412-8.889-8.701-.121-.59.203-1.109.722-1.158.518-.049 1.038.389 1.159.979z" fill="#260053" fill-rule="evenodd"/></g><g transform="matrix(-1.159 .035 .182 1.028 1843.17 365.426)"><path clip-rule="evenodd" d="m1191.148-83.179c1.694 2.553 3.517 4.093 5.392 4.762 1.857.662 3.745.463 5.562-.362 5.869-2.665 10.952-11.663 12.168-21.405.072-.569.558-.899 1.086-.736s.899.757.828 1.326c-1.302 10.428-6.859 19.967-13.139 22.82-2.233 1.013-4.562 1.206-6.844.393-2.264-.808-4.504-2.612-6.55-5.695-.337-.508-.275-1.167.138-1.471.413-.305 1.021-.14 1.359.368z" fill="#260053" fill-rule="evenodd"/></g><g transform="matrix(-1.159 .035 .182 1.028 1843.17 365.426)"><path clip-rule="evenodd" d="m1225.098-93.853c8.398-1.627 12.96-9.798 13.519-19.263.035-.579.495-.95 1.026-.827.532.123.936.694.902 1.273-.611 10.33-5.688 19.157-14.854 20.932-.508.098-1.053-.296-1.216-.879-.163-.584.115-1.138.623-1.236z" fill="#260053" fill-rule="evenodd"/></g><g transform="translate(1124.59 419.275)"><path clip-rule="evenodd" d="m-978.057 34.507 254.879-.662c5.64-74 2.018-117.088-16.478-118.675l-83.832 5.081-136.089 7.899c-20.466 1.903-26.312 45.658-18.48 106.357z" fill="#ffb0c3" fill-rule="evenodd"/></g><g transform="translate(1123.07 414.16)"><path clip-rule="evenodd" d="m-857.06-34.781s20.818 37.414 41.638 37.414c20.818 0 31.379-53.404 31.379-53.404z" fill="#f67e9b" fill-rule="evenodd"/></g><g transform="translate(1122.87 419.275)"><path clip-rule="evenodd" d="m-835.144-35.607c-49.344 6.521-178.676-5.657-192.347-108.432-17.541-131.855 102.774-195.648 194.704-178.675 91.931 16.971 106.545 79.673 107.017 98.531.471 18.857 2.828 33.001 15.086 40.544 12.257 7.543 36.415 23.065 4.714 82.503-22.629 42.428-80.335 59.073-129.174 65.529z" fill="#ffb0c3" fill-rule="evenodd"/></g><g transform="translate(1122.87 419.275)"><path clip-rule="evenodd" d="m-1025.27-142.34s-20.545-6.797-26.416-2.627c-5.871 4.171 2.162 12.668 2.162 12.668s-18.074-9.887-27.652-5.715c-9.578 4.17 6.179 16.529 6.179 16.529s-18.346-8.497-28.888-.154c-10.541 8.342 15.412 13.903 15.412 13.903s-22.09 3.244-22.09 15.449c0 12.203 23.944 6.488 23.944 6.488s-17.611 12.975-9.268 23.172c8.342 10.195 28.115-7.107 32.131-14.213-4.17 10.35-4.789 21.782 7.107 22.863 11.895 1.082 18.846-31.205 18.846-31.205s-2.008 15.912 10.66 15.448c12.667-.463 11.277-29.042 11.277-29.042s-.619 9.114 2.625 9.114 4.789-7.415 3.398-11.74c-1.39-4.326-14.676-22.4-14.676-22.4z" fill="#ff295c" fill-rule="evenodd"/></g><g transform="translate(1122.87 419.275)"><path clip-rule="evenodd" d="m-1012.576-235.768c43.402-85.941 141.897-98.045 194.108-83.091 33.262 9.525 66.449 33.803 81.441 64.352 7.646 15.58 7.973 30.357 9.687 42.996 1.832 13.512 5.214 24.68 19.116 32.234 1.017.553 2.292.176 2.845-.841.553-1.018.176-2.292-.841-2.845-12.499-6.791-15.315-16.963-16.962-29.112-1.766-13.022-2.199-28.227-10.077-44.28-15.484-31.552-49.7-56.699-84.053-66.538-53.533-15.331-154.505-2.884-199.007 85.233-.522 1.034-.107 2.297.926 2.818 1.033.523 2.296.107 2.817-.926z" fill="#260053" fill-rule="evenodd"/></g><g transform="matrix(.648 .358 -.358 .648 1341.56 414.008)"><path clip-rule="evenodd" d="m-1594.58 586.593s-20.545-6.797-26.416-2.627c-5.871 4.172 2.162 12.668 2.162 12.668s-18.074-9.887-27.652-5.715c-9.578 4.17 6.18 16.529 6.18 16.529s-18.346-8.497-28.888-.154c-10.541 8.342 15.412 13.903 15.412 13.903s-22.09 3.244-22.09 15.449c0 12.204 23.944 6.488 23.944 6.488s-17.611 12.975-9.268 23.172c8.342 10.195 28.115-7.107 32.131-14.213-4.17 10.35-4.789 21.781 7.107 22.863 11.895 1.082 18.846-31.205 18.846-31.205s-2.008 15.912 10.66 15.448c12.667-.463 11.277-29.042 11.277-29.042s-.619 9.114 2.625 9.114 4.789-7.415 3.399-11.74c-1.391-4.326-14.676-22.4-14.676-22.4z" fill="#ff295c" fill-rule="evenodd"/></g><g transform="matrix(.286 .32 -.32 .286 1427.84 524.488)"><path clip-rule="evenodd" d="m-2625.968 1763.215s-20.545-6.797-26.416-2.627c-5.871 4.172 2.162 12.668 2.162 12.668s-18.074-9.887-27.652-5.715c-9.578 4.17 6.179 16.529 6.179 16.529s-18.346-8.497-28.888-.154c-10.541 8.342 15.412 13.903 15.412 13.903s-22.09 3.244-22.09 15.449c0 12.203 23.944 6.488 23.944 6.488s-17.611 12.975-9.268 23.172c8.342 10.195 28.115-7.107 32.131-14.213-4.17 10.35-4.789 21.781 7.107 22.863 11.895 1.082 18.846-31.205 18.846-31.205s-2.008 15.912 10.66 15.448c12.667-.463 11.277-29.042 11.277-29.042s-.619 9.114 2.625 9.114 4.789-7.415 3.398-11.74c-1.39-4.326-14.676-22.4-14.676-22.4z" fill="#ff295c" fill-rule="evenodd"/></g><g transform="translate(1122.87 419.275)"><path clip-rule="evenodd" d="m-1024.594-143.113c-46.727 13.676-73.769 34.506-59.861 58.413 10.241 17.607 44.244 11.038 81.715-18.319z" fill="#ffb0c3" fill-rule="evenodd"/></g><g transform="matrix(.979 -.204 .204 .979 -125.188 306.891)"><ellipse clip-rule="evenodd" cx="295.011" cy="-1.059" fill="#260053" fill-rule="evenodd" rx="18.103" ry="35" transform="matrix(-1 0 0 -1 590.022 -2.118)"/></g><g transform="matrix(.998 -.065 .065 .998 125.801 76.888)"><ellipse clip-rule="evenodd" cx="220.141" cy="163.767" fill="#260053" fill-rule="evenodd" rx="18.103" ry="35" transform="matrix(-1 0 0 -1 440.283 327.533)"/></g><g transform="matrix(.648 .358 -.358 .648 1341.56 414.008)"><path clip-rule="evenodd" d="m-1593.904 585.82c-46.727 13.676-73.769 34.506-59.861 58.413 10.241 17.607 41.217 12.704 78.689-16.655z" fill="#ffb0c3" fill-rule="evenodd"/></g><g transform="matrix(.286 .32 -.32 .286 1427.84 524.488)"><path clip-rule="evenodd" d="m-2625.292 1762.443c-46.727 13.676-73.769 34.506-59.861 58.413 10.241 17.607 41.217 12.703 78.689-16.655z" fill="#ffb0c3" fill-rule="evenodd"/></g><g transform="translate(1108.92 406.945)"><ellipse clip-rule="evenodd" cx="-967.197" cy="-127.416" fill="#fffc99" fill-rule="evenodd" rx="34.698" ry="12.37"/></g><g transform="matrix(.977 -.215 .215 .977 1254.03 458.964)"><ellipse clip-rule="evenodd" cx="-801.404" cy="-384.306" fill="#fffc99" fill-rule="evenodd" rx="34.698" ry="12.37" transform="matrix(-1 0 0 -1 -1602.809 -768.609)"/></g><g transform="translate(1122.87 419.275)"><path clip-rule="evenodd" d="m-909.588-48.268s-9.589-12.041-22.679-19.867c-9.036-5.403-19.706-8.743-30.098-5.28-3.36 1.12-6.237 3.648-8.612 7.327-3.231 5.007-5.573 12.237-7.197 20.592-6.121 31.504-2.264 79.317-2.264 79.317.096 1.197 1.146 2.089 2.341 1.992 1.196-.097 2.089-1.147 1.992-2.342 0 0-3.831-47.102 2.199-78.136 1.501-7.725 3.595-14.436 6.582-19.064 1.77-2.743 3.828-4.725 6.333-5.561 9.161-3.053 18.525.123 26.491 4.887 12.415 7.422 21.509 18.844 21.509 18.844.747.939 2.117 1.094 3.055.347.94-.749 1.095-2.118.348-3.056z" fill="#260053" fill-rule="evenodd"/></g><g transform="translate(1121.6 417.584)"><path clip-rule="evenodd" d="m-995.926-78.061s16.039 14.264 24.418 18.207c1.086.511 2.382.045 2.893-1.041.511-1.085.044-2.382-1.042-2.893-8.035-3.781-23.374-17.517-23.374-17.517-.895-.799-2.271-.72-3.07.176-.798.894-.72 2.269.175 3.068z" fill="#260053" fill-rule="evenodd"/></g><g transform="translate(1122.87 419.275)"><g><path clip-rule="evenodd" d="m-996.026-99.892c-.003-.04-.141-1.469-.741-2.895-.494-1.178-1.303-2.308-2.43-2.957-1.675-.967-4.489-1.233-8.525 2.585-17.056 16.132-41.951 27.235-59.158 25.56-5.326-.519-9.878-2.283-13.069-5.671-3.211-3.409-4.993-8.418-4.973-15.232.003-1.199-.968-2.176-2.167-2.179s-2.176.968-2.179 2.167c-.023 8.181 2.301 14.132 6.156 18.223 3.874 4.113 9.344 6.386 15.811 7.016 18.166 1.769 44.559-9.697 62.565-26.728 1.125-1.064 2.021-1.688 2.782-1.934.245-.079.436-.131.586-.045.311.18.458.55.595.876.34.811.421 1.623.421 1.623.113 1.191 1.173 2.07 2.367 1.957 1.194-.112 2.072-1.173 1.959-2.366z" fill="#260053" fill-rule="evenodd"/></g><g><path clip-rule="evenodd" d="m-1095.274-67.782c.672 3.278 2.255 5.579 4.405 6.996 2.128 1.404 4.837 1.945 7.851 1.627 5.678-.598 12.508-4.289 18.264-10.707.408-.454.37-1.156-.085-1.564-.455-.407-1.156-.369-1.564.085-5.325 5.937-11.595 9.429-16.848 9.983-2.452.26-4.667-.131-6.399-1.273-1.709-1.126-2.921-2.986-3.454-5.591-.123-.6-.708-.986-1.308-.862-.598.121-.984.707-.862 1.306z" fill="#260053" fill-rule="evenodd"/></g><g><path clip-rule="evenodd" d="m-1062.008-58.407c2.564 3.864 5.448 5.705 8.302 6.095 2.89.395 5.81-.692 8.463-2.9 4.949-4.12 8.997-12.223 10.085-20.931.076-.606-.355-1.16-.962-1.236-.606-.076-1.16.356-1.236.962-1.011 8.099-4.701 15.671-9.304 19.503-2.123 1.767-4.432 2.724-6.746 2.409-2.35-.321-4.645-1.944-6.756-5.126-.338-.509-1.026-.649-1.535-.31-.51.337-.649 1.025-.311 1.534z" fill="#260053" fill-rule="evenodd"/></g><g><path clip-rule="evenodd" d="m-1025.88-68.099c9.265-1.794 14.464-10.68 15.082-21.12.036-.611-.43-1.135-1.04-1.171s-1.134.43-1.17 1.04c-.554 9.354-4.993 17.469-13.293 19.077-.6.116-.992.697-.876 1.298.116.599.696.991 1.297.876z" fill="#260053" fill-rule="evenodd"/></g><g><path clip-rule="evenodd" d="m-1019.364-157.829c0-.001 0-.002 0-.002s.169-2.026-.416-3.805c-.388-1.181-1.093-2.234-2.143-2.874-1.03-.626-2.453-.949-4.438-.305-17.764 5.763-40.423 2.035-50.606-6.784-3.007-2.604-4.876-5.649-4.863-9.076.015-3.567 2.026-7.412 6.37-11.517.871-.823.911-2.2.086-3.072-.823-.871-2.199-.911-3.071-.087-5.469 5.168-7.712 10.166-7.731 14.658-.018 4.632 2.3 8.859 6.364 12.379 11.033 9.555 35.544 13.876 54.792 7.632.373-.121.638-.227.837-.116.142.079.192.242.247.396.075.215.121.443.159.659.143.807.084 1.537.084 1.537-.105 1.193.78 2.247 1.974 2.351 1.195.105 2.25-.781 2.355-1.974z" fill="#260053" fill-rule="evenodd"/></g><g><path clip-rule="evenodd" d="m-1093.964-176.288c-3.496 3.891-3.367 8.374-.053 11.369 3.028 2.735 9.041 4.249 17.862 2.367.599-.128.98-.716.852-1.313-.127-.598-.716-.98-1.314-.852-15.127 3.226-21.175-3.997-15.7-10.089.409-.455.371-1.156-.083-1.564-.455-.409-1.156-.372-1.564.082z" fill="#260053" fill-rule="evenodd"/></g><g><path clip-rule="evenodd" d="m-1078.327-156.172c-.907 3.397.676 6.621 4.121 7.906 1.904.709 4.425.811 7.434-.115 4.211-1.298 9.469-4.65 15.33-11.222.406-.456.366-1.158-.091-1.564-.455-.407-1.157-.367-1.563.09-5.494 6.162-10.381 9.363-14.329 10.579-2.432.749-4.469.73-6.008.157-2.294-.855-3.358-2.996-2.754-5.258.158-.591-.194-1.198-.784-1.356-.591-.159-1.199.192-1.356.783z" fill="#260053" fill-rule="evenodd"/></g><g><path clip-rule="evenodd" d="m-1053.336-151.811c.82 2.916 3.188 4.591 6.436 4.406 4.217-.239 10.213-3.923 15.722-12.942.318-.521.153-1.204-.368-1.523-.522-.318-1.205-.153-1.523.368-4.958 8.119-10.161 11.669-13.956 11.885-2.093.12-3.65-.914-4.177-2.793-.166-.588-.777-.932-1.366-.766-.589.165-.933.777-.768 1.365z" fill="#260053" fill-rule="evenodd"/></g><g><path clip-rule="evenodd" d="m-1013.959-211.316c-.004-.045-.489-5.064-5.593-5.286-2.038-.088-9.808-1.583-16.168-5.216-3.981-2.275-7.462-5.377-8.266-9.676-.181-.969-1.115-1.607-2.083-1.426-.969.181-1.609 1.114-1.427 2.083.993 5.309 5.088 9.31 10.004 12.12 6.989 3.994 15.545 5.587 17.784 5.684 2.001.087 2.194 2.053 2.194 2.053.092.98.963 1.701 1.944 1.61.98-.093 1.702-.965 1.611-1.946z" fill="#260053" fill-rule="evenodd"/></g><g><path clip-rule="evenodd" d="m-1049.271-245.626c-1.686 1.516-2.36 3.09-2.236 4.648.169 2.138 2.006 4.428 5.568 6.646.519.323 1.203.164 1.526-.355s.163-1.203-.355-1.526c-1.47-.915-2.616-1.816-3.406-2.714-.663-.755-1.066-1.487-1.125-2.226-.076-.969.462-1.885 1.509-2.826.455-.409.492-1.11.084-1.565-.41-.454-1.111-.491-1.565-.082z" fill="#260053" fill-rule="evenodd"/></g><g><path clip-rule="evenodd" d="m-1055.837-230.935c-.002 1.695.794 3.155 2.451 4.338 2.083 1.489 5.691 2.552 10.776 3.118.607.067 1.156-.371 1.223-.979.067-.607-.371-1.156-.979-1.223-3.856-.428-6.791-1.122-8.759-2.132-1.595-.819-2.499-1.809-2.497-3.12 0-.611-.496-1.107-1.106-1.109-.612.001-1.109.496-1.109 1.107z" fill="#260053" fill-rule="evenodd"/></g><g><path clip-rule="evenodd" d="m-1047.671-220.718c-1.049 2.2-.547 4.349 1.262 5.688.972.72 2.371 1.207 4.187 1.248 2.439.056 5.705-.696 9.698-2.765.543-.281.754-.95.473-1.492-.282-.543-.951-.755-1.493-.474-4.851 2.515-8.443 2.961-10.615 2.187-.832-.296-1.414-.774-1.674-1.395-.254-.606-.183-1.32.161-2.044.264-.552.029-1.213-.522-1.476-.552-.264-1.213-.029-1.477.523z" fill="#260053" fill-rule="evenodd"/></g><g><path clip-rule="evenodd" d="m-1034.782-211.987c.322.961 1.053 1.786 2.08 2.313 2.059 1.058 5.443.927 8.428-2.034.434-.431.437-1.132.007-1.566-.431-.434-1.132-.436-1.566-.006-1.817 1.801-3.799 2.264-5.257 1.866-.771-.21-1.384-.657-1.592-1.278-.193-.579-.822-.892-1.402-.698-.58.196-.893.824-.698 1.403z" fill="#260053" fill-rule="evenodd"/></g></g><g transform="matrix(1.233 0 0 1.233 1002.94 356.938)"><circle clip-rule="evenodd" cx="-463.065" cy="-73.724" fill="#260053" fill-rule="evenodd" r="1.961"/></g><g transform="translate(1122.87 419.275)"><path clip-rule="evenodd" d="m-806.351-37.926c33.376-3.279 108.584-31.778 117.447-104.676.145-1.191-.704-2.275-1.895-2.421-1.191-.144-2.275.705-2.421 1.896-8.557 70.38-81.332 97.707-113.557 100.872-1.195.117-2.068 1.182-1.951 2.376.117 1.195 1.182 2.069 2.377 1.953z" fill="#260053" fill-rule="evenodd"/></g><g transform="translate(-43.486 419.275)"><path clip-rule="evenodd" d="m446.935 34.007c2.226-45.446 1.913-88.487-14.912-114.878-.627-.975-1.913-1.263-2.897-.641-.973.622-1.264 1.919-.638 2.894 16.456 25.817 16.444 67.963 14.263 112.419-.067 1.156.828 2.14 1.991 2.197 1.153.056 2.137-.835 2.193-1.991z" fill-rule="evenodd"/></g><path d="m243.737 250.419c-2.641 0-5.181-.348-7.49-.954-9.143-2.395-15.349-8.48-15.089-14.798.041-1.088.933-2.042 2.049-1.887 1.084.043 1.931.961 1.885 2.047-.178 4.312 5.049 8.967 12.152 10.827 9.22 2.429 21.536.257 28.339-13.074.255-.499.71-.865 1.252-1.009.533-.143 1.12-.05 1.584.26 11.738 7.738 22.319 9.186 29.017 3.952 4.922-3.847 6.88-10.743 4.758-16.767-.36-1.024.178-2.149 1.202-2.511 1.034-.348 2.149.178 2.513 1.204 2.673 7.595.187 16.302-6.051 21.177-3.715 2.905-14.096 8.266-31.808-2.62-6.169 10.486-15.762 14.153-24.313 14.153z" fill="#260053"/><path clip-rule="evenodd" d="m241.63 248.306s10.023 76.552 41.1 72.598c31.065-3.956 14.017-81.458 14.017-81.458-9.945 3.903-19.599.925-29.074-6.47-6.533 11.804-15.281 16.708-26.043 15.33z" fill="#260053" fill-rule="evenodd"/><path clip-rule="evenodd" d="m249.695 270.809c26.993-4.108 44.02 5.817 47.644 21.91-.694 6.549-2.081 12.577-4.676 17.157-2.316 4.078-5.616 6.918-10.381 7.524-7.036.895-12.641-3.348-17.306-9.644-7.26-9.799-12.148-24.57-15.281-36.947z" fill="#fffc99" fill-rule="evenodd"/><g><path clip-rule="evenodd" d="m376.999 365.098s45.798-154.093 46.335-177.261c-21.545-8.152-18.201-31.314.268-27.843 0 0-1.544-38.762 33.448-38.964 60.9-.354-35.999 274.08-61.851 316.065" fill="#ffb0c3" fill-rule="evenodd"/><path d="m395.201 439.064c-.355 0-.71-.096-1.034-.294-.924-.569-1.211-1.783-.642-2.707 21.923-35.605 102.254-259.079 76.242-305.32-2.928-5.211-7.053-7.745-12.598-7.745-.036 0-.073 0-.105 0-9.152.052-16.478 2.891-21.773 8.435-10.299 10.782-9.725 28.304-9.721 28.482.023.599-.228 1.175-.678 1.566-.46.394-1.061.558-1.653.446-6.347-1.195-11.137 1.059-12.485 5.878-1.662 5.914 2.368 14.062 13.277 18.19.783.296 1.293 1.052 1.27 1.887-.537 23.166-44.543 171.475-46.419 177.776-.305 1.043-1.411 1.623-2.445 1.327-1.043-.31-1.639-1.407-1.325-2.447.446-1.512 44.111-148.659 46.182-175.4-12.102-5.145-16.405-15.025-14.333-22.399 1.744-6.208 7.426-9.598 14.684-8.997.187-5.489 1.598-19.401 10.8-29.031 6.06-6.345 14.338-9.593 24.596-9.653 7.057.141 12.498 3.242 16.159 9.753 27.282 48.507-53.599 272.413-76.324 309.313-.368.607-1.015.94-1.675.94z" fill="#260053"/></g><path d="m203.428 454.947c-.023 0-.046 0-.068-.002-1.088-.039-1.94-.949-1.899-2.035l.915-25.932c.036-1.084.979-1.944 2.035-1.896 1.088.039 1.94.949 1.899 2.035l-.915 25.932c-.036 1.06-.91 1.898-1.967 1.898z" fill="#260053"/><g transform="matrix(-.994 -.112 .112 -.994 3040.88 1358.52)"><path clip-rule="evenodd" d="m2855.776 965.241s-7.473 22.765-7.473 31.991c0 4.123 3.356 7.472 7.473 7.472 4.128 0 7.473-3.348 7.473-7.472 0-9.227-7.473-31.991-7.473-31.991z" fill="#260053" fill-rule="evenodd"/></g><g transform="matrix(-.897 -.443 .443 -.897 2727.44 1824.87)"><path clip-rule="evenodd" d="m2907.457 502.522s-7.473 22.765-7.473 31.992c0 4.123 3.356 7.472 7.473 7.472 4.128 0 7.473-3.348 7.473-7.472 0-9.227-7.473-31.992-7.473-31.992z" fill="#260053" fill-rule="evenodd"/></g><g transform="matrix(-.789 -.614 .614 -.789 2485.6 2040.92)"><path clip-rule="evenodd" d="m2862.191 233.932s-7.473 22.765-7.473 31.992c0 4.123 3.356 7.472 7.473 7.472 4.128 0 7.473-3.348 7.473-7.472 0-9.227-7.473-31.992-7.473-31.992z" fill="#260053" fill-rule="evenodd"/></g><g transform="matrix(-.556 -.831 .831 -.556 2016.17 2259.75)"><path clip-rule="evenodd" d="m2685.762-157.727s-7.473 22.765-7.473 31.992c0 4.123 3.356 7.472 7.473 7.472 4.128 0 7.473-3.348 7.473-7.472 0-9.227-7.473-31.992-7.473-31.992z" fill="#260053" fill-rule="evenodd"/></g><g transform="matrix(2.615 -1.438 1.203 2.187 -4173.3 1622.52)"><path d="m1517.508 263.926c1.342.093 2.584.83 3.457 2.044s1.298 2.799 1.174 4.392c-.358 4.751-.626 9.492-.794 14.224-.19 5.22-.257 10.472-.213 15.759.022 2.595-1.678 4.748-3.848 4.862-2.618.138-4.855-2.255-5.023-5.385-.022-.417-.045-.835-.067-1.252-.067-1.314-.123-2.641-.168-3.98-.034-.78-.324-1.512-.817-2.028-.492-.517-1.141-.772-1.79-.709-.571.055-1.141.113-1.7.173-.604.066-1.208.14-1.823.22-1.32.175-2.316 1.519-2.293 3.107.011 1.153.034 2.3.067 3.441.011.342.011.686.022 1.028.09 2.879-1.779 5.307-4.184 5.464-2.394.155-4.464-1.988-4.676-4.844-.716-10.192-1.018-20.435-.884-30.726.022-1.594.582-3.109 1.555-4.205.962-1.096 2.26-1.682 3.591-1.625 0-.002 0-.002 0-.002 1.398.06 2.73.797 3.669 2.04.94 1.244 1.421 2.891 1.32 4.564-.056.945-.101 1.888-.134 2.829-.078 1.784-.145 3.579-.201 5.382-.034.998.268 1.969.85 2.691.571.723 1.376 1.135 2.204 1.144.302.003.593.008.895.011.458.007.917.017 1.376.029.694.019 1.354-.293 1.846-.866s.772-1.358.783-2.18c.011-2.144.034-4.28.078-6.408.011-1.071.045-2.145.078-3.221.045-1.671.66-3.247 1.689-4.373 1.04-1.126 2.416-1.706 3.815-1.61.045.003.101.006.146.01z" fill="#7d7ed9"/></g><g transform="matrix(2.615 -1.438 1.203 2.187 -4181.75 1620.65)"><path clip-rule="evenodd" d="m1498.802 262.905c-1.477-.046-2.897.608-3.971 1.819-1.085 1.227-1.7 2.922-1.734 4.706v.001c-.134 10.316.168 20.581.895 30.797v.002c.235 3.236 2.584 5.663 5.291 5.487.011 0 .011-.001.011-.001 2.718-.181 4.821-2.931 4.732-6.191l-.022-1.027c-.033-1.138-.056-2.28-.067-3.429-.022-1.224.75-2.261 1.767-2.394.604-.081 1.208-.153 1.812-.219.559-.062 1.119-.119 1.689-.173.492-.048.984.145 1.354.536.369.389.593.942.615 1.531.056 1.341.112 2.671.168 3.988.022.418.045.837.067 1.256.19 3.513 2.696 6.2 5.638 6.045.011-.001.022-.001.045-.003 2.461-.151 4.396-2.61 4.374-5.573-.056-5.272.022-10.512.201-15.719.179-4.721.436-9.45.805-14.189.134-1.784-.336-3.558-1.32-4.918-.973-1.358-2.372-2.184-3.871-2.288l-.157-.01c-1.555-.106-3.076.539-4.228 1.792s-1.835 3.008-1.891 4.87c-.034 1.08-.067 2.157-.078 3.232-.045 2.131-.067 4.27-.078 6.417v.001c0 .633-.224 1.237-.604 1.679-.38.441-.884.68-1.421.666-.459-.012-.917-.022-1.387-.029l-.884-.011c-.671-.007-1.32-.341-1.79-.926-.459-.584-.716-1.369-.694-2.177.067-1.8.134-3.591.201-5.372.045-.937.09-1.877.145-2.819v-.001c.101-1.864-.436-3.697-1.477-5.083-1.052-1.386-2.517-2.206-4.083-2.272-.019-.002-.03-.002-.053-.001zm18.179 41.326c-2.293.109-4.24-1.988-4.385-4.726-.022-.417-.045-.833-.067-1.248-.067-1.311-.123-2.634-.179-3.971-.034-.971-.403-1.883-1.007-2.526-.615-.642-1.421-.961-2.226-.883-.582.055-1.141.113-1.712.175-.604.066-1.219.14-1.835.221-1.622.214-2.841 1.867-2.819 3.818.011 1.158.034 2.309.067 3.454.011.342.022.686.034 1.029.067 2.495-1.544 4.599-3.625 4.733l-.011.001c-2.07.134-3.871-1.724-4.05-4.201-.727-10.168-1.018-20.385-.884-30.652.022-1.404.515-2.74 1.365-3.705.85-.967 1.991-1.482 3.166-1.432.011.001.034.001.045 0 1.23.066 2.383.716 3.199 1.805.839 1.103 1.264 2.562 1.186 4.044-.056.95-.101 1.896-.146 2.84-.078 1.788-.145 3.584-.201 5.391-.034 1.189.324 2.345 1.018 3.206.682.86 1.633 1.353 2.629 1.364.291.003.593.007.884.01.459.007.917.017 1.376.029.839.023 1.667-.36 2.271-1.065s.951-1.671.962-2.682c.011-2.14.034-4.273.067-6.397.022-1.068.045-2.138.078-3.209.045-1.482.593-2.879 1.51-3.878.917-.998 2.137-1.511 3.367-1.426l.157.01c1.175.082 2.282.732 3.043 1.799.772 1.068 1.141 2.464 1.04 3.867v.001c-.369 4.762-.638 9.514-.806 14.257-.19 5.232-.257 10.498-.212 15.796v.001c.022 2.215-1.432 4.052-3.278 4.148zm-.258.097c-.123.086-.212.223-.257.389.067-.259.179-.339.257-.389zm.146-.075v.002zm-17.776-40.008c-.045.031-.089.049-.145.06.056-.012.1-.032.145-.06zm.313-.432c-.056.235-.157.313-.212.358.101-.088.168-.212.212-.358z" fill="#260053" fill-rule="evenodd"/></g><g transform="translate(-16.273 5.424)"><path d="m182.692 25.848c3.703-1.363 7.808-1.142 11.343.61 3.546 1.752 6.208 4.882 7.372 8.656 3.636 11.781 8.692 28.148 12.003 38.898 1.924 6.214-1.365 12.84-7.473 15.068 0 0-.011 0-.011.001-7.383 2.694-15.572-.952-18.514-8.241-4.094-10.152-9.777-24.227-14.028-34.757-1.544-3.841-1.477-8.147.201-11.933 1.689-3.787 4.821-6.731 8.714-8.16.124-.047.259-.094.393-.142zm-8.233-35.03c8.222 0 14.912 6.681 14.912 14.908 0 8.229-6.69 14.908-14.912 14.908-8.233 0-14.912-6.68-14.912-14.908 0-8.227 6.678-14.908 14.912-14.908z" fill="#7d7ed9"/></g><g transform="translate(-24.718 3.548)"><path clip-rule="evenodd" d="m181.074 23.971c-.123.048-.257.096-.38.143-4.34 1.594-7.842 4.877-9.721 9.099-1.868 4.222-1.946 9.023-.224 13.306 4.251 10.53 9.934 24.605 14.028 34.757 3.3 8.172 12.473 12.257 20.751 9.238.011 0 .011-.001.011-.001 6.992-2.551 10.75-10.133 8.558-17.243-3.322-10.751-8.368-27.119-12.003-38.898-1.309-4.236-4.296-7.75-8.278-9.717-3.971-1.966-8.58-2.214-12.742-.684zm1.22 3.309c3.255-1.196 6.857-1.002 9.967.535 3.099 1.538 5.437 4.284 6.466 7.597 3.636 11.78 8.681 28.147 12.003 38.898 1.644 5.316-1.175 10.985-6.399 12.893 0 0-.011 0-.011.001-6.488 2.368-13.692-.837-16.277-7.246-4.094-10.152-9.777-24.227-14.028-34.757-1.365-3.399-1.309-7.209.179-10.558 1.488-3.35 4.273-5.956 7.708-7.22zm-8.838-38.448c-9.207 0-16.679 7.47-16.679 16.671s7.473 16.671 16.679 16.671c9.195 0 16.668-7.47 16.668-16.671s-7.472-16.671-16.668-16.671zm0 3.526c7.249 0 13.144 5.89 13.144 13.145s-5.895 13.147-13.144 13.147c-7.26 0-13.144-5.891-13.144-13.147s5.884-13.145 13.144-13.145z" fill="#260053" fill-rule="evenodd"/></g></g></g></switch></svg>