<svg id="Layer_1" enable-background="new 0 0 512 512" height="512" viewBox="0 0 512 512" width="512" xmlns="http://www.w3.org/2000/svg"><switch><g><g id="AXOLOTL_Read"><g><path clip-rule="evenodd" d="m483.815 463.016h-266.586s-27.269-43.979-25.907-78.749 27.269-90 27.269-90l131.245-6.474 5.793 83.18s85.223 9.889 91.362 55.23c24.629-58.09 51.165-5.772 36.824 36.813z" fill="#ff7a9a" fill-rule="evenodd"/><path d="m483.815 464.664h-266.584c-.571 0-1.1-.294-1.403-.78-1.126-1.812-27.524-44.809-26.155-79.68 1.36-34.708 26.36-88.374 27.425-90.638.256-.554.802-.917 1.411-.947l131.243-6.473c.844-.154 1.663.635 1.727 1.531l5.701 81.829c10.971 1.458 79.658 12.114 90.404 51.346 10.894-22.927 20.961-23.298 26.159-21.337 13.248 5.031 21.217 35.565 11.636 64.023-.225.674-.856 1.126-1.564 1.126zm-265.655-3.3h264.456c8.08-25.409 1.343-54.437-10.046-58.761-7.539-2.861-16.314 5.969-24.061 24.245-.29.682-1.011 1.07-1.735.993-.738-.102-1.318-.678-1.416-1.416-5.901-43.552-89.082-53.717-89.922-53.815-.789-.09-1.399-.729-1.454-1.522l-5.684-81.569-128.63 6.345c-3.322 7.27-25.46 56.829-26.696 88.468-1.231 31.353 21.598 71.003 25.188 77.032z" fill="#260053"/></g><g transform="matrix(1 -.004 .004 1 -7.964 6.94)"><g><path clip-rule="evenodd" d="m441.315 287.007-44.178 43.884-23.99 3.122-89.393-23.372 8.695 116.505 88.952 27.154 25.583-1.875 34.644-39.013z" fill="#ce8710" fill-rule="evenodd"/><path d="m381.397 455.95c-.162-.001-.32-.027-.473-.07l-88.954-27.155c-.652-.199-1.114-.777-1.166-1.459l-8.694-116.503c-.04-.529.179-1.048.59-1.388.411-.339.953-.469 1.472-.331l89.082 23.289 23.119-3.006 43.779-43.49c.471-.471 1.171-.618 1.797-.355.613.254 1.015.853 1.017 1.518l.316 126.406c.003.405-.148.797-.418 1.103l-34.648 39.013c-.283.319-.684.517-1.111.55l-25.579 1.874c-.044.004-.086.004-.129.004zm-87.386-30.053 87.579 26.736 24.602-1.806 33.787-38.04-.306-121.827-41.373 41.099c-.257.255-.59.42-.949.469l-23.989 3.122c-.222.025-.426.011-.631-.041l-87.161-22.786z" fill="#260053"/></g></g><g transform="matrix(1 -.004 .004 1 -7.964 6.94)"><g><path clip-rule="evenodd" d="m397.033 330.912 9.523 121.701-25.279 1.687-8.234-120.276z" fill="#dab16b" fill-rule="evenodd"/><path d="m381.269 455.949c-.857-.004-1.579-.668-1.639-1.538l-8.235-120.274c-.06-.87.57-1.635 1.436-1.751l23.989-3.113c.444-.054.899.072 1.252.359.348.283.568.697.605 1.15l9.525 121.704c.032.439-.11.874-.397 1.209-.291.331-.697.539-1.141.567l-25.28 1.684c-.038.003-.076.003-.115.003zm-6.477-120.488 8.018 117.084 21.97-1.463-9.258-118.309z" fill="#260053"/></g></g><path clip-rule="evenodd" d="m171.365 316.529s-6.39 3.855-11.89 7.187c-4.746 2.87-7.229 8.36-6.244 13.807.021.157.052.314.084.471.849 4.735-2.095 9.334-6.757 10.56-3.96 1.037-6.768 4.547-6.904 8.643-.021.555-.042 1.131-.063 1.708-.084 2.567-1.456 4.913-3.656 6.244-2.189 1.331-4.913 1.467-7.229.367-1.404-.67-2.787-1.33-4.044-1.928-3.321-1.582-7.166-1.687-10.57-.283-1.299.534-2.724 1.121-4.138 1.708-5.123 2.106-11.021.189-13.912-4.536-.639-1.058-1.31-2.148-1.98-3.237-4.536-7.417-13.053-11.419-21.654-10.183-6.569.943-12.927 1.865-12.927 1.865-19.632-18.721-45.927 6.935-29.176 26.19 5.343 4.316 11.545 10.968 11.943 16.594.052.765.147 1.519.283 2.273.262 1.928.953 5.856 1.676 9.984 1.414 8.014 8.108 14.038 16.238 14.604.66.042 1.31.094 1.959.136 6.569.451 12.205 4.829 14.268 11.084 2.472 7.469 9.607 12.393 17.464 12.048 13.787-.608 33.345-1.477 33.345-1.477l39.516-69.614z" fill="#9dff00" fill-rule="evenodd"/><path clip-rule="evenodd" d="m149.114 273.996s30.255 60.866-.702 95.301-78.958-6.956-78.958-6.956c-17.988-13.923-39.086 7.595-16.699 28.872 0 0 64.868 73.867 181.771 80.697 64.679 3.782 92.577-1.959 95.175-26.955 4.526-43.476-41.045-53.219-42.439-4.871 0 0 1.393-52.171-52.171-39.652-26.18-36.446-7.721-88.712 13.074-103.651z" fill="#ffb0c3" fill-rule="evenodd"/><path d="m131.701 448.201c-.273 0-.55-.055-.814-.179-51.231-23.639-79.317-55.205-79.594-55.52-12.429-11.803-12.114-24.057-6.234-30.909 5.279-6.149 15.764-8.4 25.588-.793.542.465 47.001 39.816 76.316 7.193.716-.802 1.949-.857 2.754-.145.797.721.866 1.953.145 2.754-31.847 35.429-81.189-6.362-81.68-6.788-8.195-6.336-16.211-4.289-20.164.316-4.682 5.454-4.618 15.508 6.08 25.673.392.435 27.984 31.412 78.418 54.68.981.452 1.407 1.608.955 2.584-.329.717-1.037 1.134-1.77 1.134z" fill="#260053"/><path d="m266.155 474.915c-.286 0-.571 0-.857 0-1.079-.004-1.949-.878-1.944-1.953.004-1.075.874-1.944 1.949-1.944h.004.917c42.298 0 59.571-7.389 61.537-26.261 1.497-14.357-2.571-26.342-10.882-32.056-4.788-3.292-10.259-3.782-15.009-1.377-7.628 3.872-12.242 14.374-12.66 28.807v.004.004c-.03 1.074-.938 1.97-2 1.893-1.074-.03-1.923-.925-1.897-2 .004-.213.379-21.592-13.333-32.755-8.524-6.933-20.77-8.6-36.444-4.946-1.062.247-2.098-.405-2.341-1.454s.405-2.098 1.454-2.341c16.898-3.957 30.295-2.021 39.812 5.735 7.325 5.974 11.022 14.301 12.881 21.43 2.392-8.566 6.784-14.817 12.762-17.853 6.063-3.079 12.979-2.482 18.983 1.642 9.504 6.537 14.195 19.87 12.553 35.668-2.204 21.11-21.196 29.757-65.485 29.757z" fill="#260053"/><path d="m159.873 350.029c-.171 0-.35-.021-.524-.072-1.036-.286-1.642-1.36-1.352-2.401 9.048-32.517-10.43-72.295-10.626-72.695-.341-.686-.247-1.509.235-2.102.495-.588 1.296-.849 2.017-.644l73.416 19.78c1.04.277 1.654 1.347 1.373 2.388-.281 1.036-1.339 1.654-2.388 1.373l-69.404-18.697c4.78 10.992 17 43.368 9.129 71.647-.239.86-1.024 1.423-1.876 1.423z" fill="#260053"/><g transform="matrix(2.784 0 0 2.784 -2567.22 -3322.49)"><circle clip-rule="evenodd" cx="978.781" cy="1320.974" fill="#260053" fill-rule="evenodd" r=".773"/></g><g transform="matrix(2.784 0 0 2.784 -2585.3 -3233.26)"><circle clip-rule="evenodd" cx="978.472" cy="1322.5" fill="#260053" fill-rule="evenodd" r=".773"/></g><g transform="matrix(2.784 0 0 2.784 -2473.55 -3210.46)"><circle clip-rule="evenodd" cx="980.383" cy="1322.89" fill="#260053" fill-rule="evenodd" r=".773"/></g><g transform="matrix(-.648 .358 .358 .648 1670.55 1309.27)"><path clip-rule="evenodd" d="m760.903-2256.028s-19.24-6.365-24.738-2.46c-5.498 3.907 2.025 11.863 2.025 11.863s-16.926-9.259-25.896-5.352c-8.97 3.906 5.787 15.479 5.787 15.479s-17.181-7.958-27.053-.145c-9.872 7.812 14.433 13.02 14.433 13.02s-20.687 3.038-20.687 14.468c0 11.428 22.423 6.076 22.423 6.076s-16.492 12.151-8.679 21.7c7.812 9.548 26.33-6.655 30.091-13.31-3.905 9.693-4.485 20.398 6.655 21.411 11.139 1.013 17.649-29.223 17.649-29.223s-1.88 14.901 9.983 14.467c11.862-.434 10.561-27.197 10.561-27.197s-.579 8.535 2.459 8.535 4.485-6.944 3.183-10.995-13.744-20.977-13.744-20.977z" fill="#ff295c" fill-rule="evenodd"/></g><g transform="matrix(-.648 .358 .358 .648 1670.55 1309.27)"><path clip-rule="evenodd" d="m761.536-2256.752c-43.759 12.807-69.084 32.314-56.059 54.703 9.591 16.489 38.599 11.897 73.691-15.597z" fill="#ffb0c3" fill-rule="evenodd"/></g><g transform="matrix(-1 0 0 1 1889.24 1314.53)"><path clip-rule="evenodd" d="m1523.667-1157.767c0-.001 0-.002 0-.002s.158-1.897-.39-3.563c-.364-1.106-1.024-2.092-2.007-2.691-.965-.587-2.297-.888-4.156-.286-16.636 5.397-37.855 1.906-47.392-6.353-2.816-2.439-4.567-5.29-4.554-8.499.014-3.341 1.897-6.941 5.965-10.785.816-.771.853-2.061.081-2.877-.771-.816-2.06-.853-2.876-.082-5.122 4.84-7.222 9.521-7.24 13.727-.017 4.338 2.154 8.296 5.96 11.593 10.333 8.948 33.287 12.995 51.312 7.147.349-.113.597-.213.784-.109.133.074.18.226.231.371.07.201.113.415.149.617.134.755.079 1.439.079 1.439-.099 1.117.73 2.105 1.849 2.202 1.119.098 2.107-.731 2.205-1.849z" fill="#260053" fill-rule="evenodd"/></g><g transform="matrix(-1 0 0 1 1889.24 1314.53)"><path clip-rule="evenodd" d="m1453.805-1175.054c-3.274 3.644-3.153 7.842-.049 10.647 2.836 2.561 8.467 3.979 16.727 2.217.56-.119.918-.671.798-1.23-.119-.561-.67-.918-1.231-.798-14.166 3.021-19.83-3.743-14.703-9.448.383-.426.348-1.082-.078-1.465s-1.082-.348-1.464.077z" fill="#260053" fill-rule="evenodd"/></g><g transform="matrix(-1 0 0 1 1889.24 1314.53)"><path clip-rule="evenodd" d="m1468.448-1156.216c-.85 3.182.633 6.201 3.859 7.403 1.783.664 4.144.76 6.961-.108 3.943-1.215 8.868-4.355 14.356-10.51.38-.427.343-1.084-.085-1.464-.426-.381-1.083-.344-1.464.084-5.145 5.77-9.722 8.769-13.419 9.907-2.277.702-4.185.684-5.627.147-2.149-.8-3.145-2.806-2.579-4.924.148-.553-.181-1.122-.734-1.27s-1.12.182-1.268.735z" fill="#260053" fill-rule="evenodd"/></g><g transform="matrix(-1 0 0 1 1889.24 1314.53)"><path clip-rule="evenodd" d="m1491.852-1152.131c.768 2.731 2.986 4.299 6.027 4.127 3.949-.224 9.565-3.674 14.723-12.12.297-.488.144-1.127-.345-1.426-.489-.297-1.128-.143-1.426.345-4.643 7.604-9.515 10.928-13.07 11.13-1.96.112-3.418-.856-3.912-2.616-.155-.551-.728-.873-1.279-.718-.55.154-.872.727-.718 1.278z" fill="#260053" fill-rule="evenodd"/></g><g transform="matrix(1.115 .436 -.364 .931 1099.26 1265.25)"><path clip-rule="evenodd" d="m-886.638-706.859c.897 2.154 1.56 4.724.069 5.484-2.707 1.38-7.149-4.151-7.829-8.352-.679-4.2 2.72-24.93 2.72-24.93l-3.918-17.488s14.253-14.409 20.924-13.425c6.672.984 3.583 11.489 3.583 11.489s10.876-15.935 20.641-16.528c9.766-.593 1.873 16.419 1.873 16.419s11.695-14.891 24.038-12.413c12.342 2.478-6.947 18.154-6.947 18.154s19.811-6.687 25.001 3.496c5.189 10.183-17.22 15.596-17.22 15.596s20.211 3.338 17.587 15.393-26.48 6.027-32.854 1.806c7.882 6.862 13.259 16.137 3.793 22.098-9.465 5.96-28.995-18.023-28.995-18.023s8.442 12.423-2.325 17.423c-8.281 3.847-16.698-9.732-20.141-16.199z" fill="#e0325c" fill-rule="evenodd"/></g><g transform="matrix(1.115 .436 -.364 .931 1099.26 1265.25)"><path clip-rule="evenodd" d="m-896.488-752.501c44.802-8.461 76.224-2.58 74.787 23.282-1.058 19.046-28.99 28.126-72.738 19.565z" fill="#ff92ac" fill-rule="evenodd"/></g><g transform="matrix(-1.159 .035 .182 1.028 1863.87 1298.99)"><path clip-rule="evenodd" d="m1132.179-1091.797s-.085-.883-.455-1.763c-.199-.473-.475-.967-.926-1.228-.386-.223-.877-.246-1.506-.043-.842.272-1.856.928-3.101 2.106-16.582 15.683-40.857 26.309-57.586 24.681-5.781-.563-10.683-2.588-14.148-6.265-3.484-3.699-5.563-9.093-5.542-16.489.002-.548.409-.927.907-.844.499.082.903.593.901 1.141-.018 6.645 1.75 11.516 4.881 14.84 3.152 3.346 7.636 5.104 12.897 5.616 16.398 1.597 40.153-8.913 56.406-24.287 1.458-1.38 2.668-2.115 3.655-2.435 1.198-.388 2.141-.201 2.876.223.895.516 1.514 1.427 1.907 2.362.518 1.231.633 2.464.633 2.464.052.554-.308.986-.805.964s-.941-.49-.994-1.043z" fill="#260053" fill-rule="evenodd"/></g><g transform="matrix(-1.159 .035 .182 1.028 1863.87 1298.99)"><path clip-rule="evenodd" d="m1044.058-1062.17c.791 3.861 3.264 5.897 6.513 6.321 5.382.703 12.689-2.713 18.714-9.432.326-.363.897-.317 1.275.101.378.419.421 1.054.095 1.417-6.427 7.165-14.296 10.657-20.036 9.908-4.167-.545-7.309-3.195-8.324-8.148-.113-.552.19-1.038.676-1.084.486-.045.973.365 1.087.917z" fill="#260053" fill-rule="evenodd"/></g><g transform="matrix(-1.159 .035 .182 1.028 1863.87 1298.99)"><path clip-rule="evenodd" d="m1074.878-1054.187c1.586 2.391 3.294 3.833 5.049 4.46 1.739.62 3.507.434 5.209-.339 5.496-2.495 10.256-10.922 11.395-20.045.067-.533.523-.842 1.017-.689s.842.709.775 1.241c-1.219 9.766-6.423 18.699-12.304 21.37-2.091.949-4.272 1.129-6.409.368-2.12-.756-4.218-2.446-6.134-5.333-.315-.476-.258-1.093.129-1.378.387-.286.957-.131 1.273.345z" fill="#260053" fill-rule="evenodd"/></g><g transform="matrix(-1.159 .035 .182 1.028 1863.87 1298.99)"><path clip-rule="evenodd" d="m1106.672-1064.183c7.865-1.523 12.137-9.176 12.66-18.04.032-.543.463-.89.961-.774.499.115.877.65.844 1.192-.572 9.674-5.327 17.94-13.91 19.603-.476.092-.986-.278-1.139-.823-.152-.548.109-1.066.584-1.158z" fill="#260053" fill-rule="evenodd"/></g><g transform="translate(1143.56 1352.84)"><path clip-rule="evenodd" d="m-866.977-1041.484c-46.21 6.106-167.327-5.298-180.13-101.545-16.427-123.48 96.246-183.221 182.338-167.326 86.092 15.893 99.778 74.613 100.22 92.272.441 17.66 2.648 30.904 14.128 37.969 11.479 7.064 34.102 21.6 4.415 77.262-21.194 39.734-75.234 55.322-120.971 61.368z" fill="#ffb0c3" fill-rule="evenodd"/></g><g transform="translate(1143.56 1352.84)"><path clip-rule="evenodd" d="m-1045.027-1141.438s-19.24-6.365-24.738-2.46c-5.498 3.906 2.025 11.863 2.025 11.863s-16.926-9.259-25.896-5.352c-8.97 3.906 5.787 15.479 5.787 15.479s-17.181-7.958-27.053-.145c-9.872 7.812 14.433 13.02 14.433 13.02s-20.687 3.038-20.687 14.468c0 11.428 22.423 6.076 22.423 6.076s-16.493 12.151-8.679 21.7c7.812 9.548 26.33-6.656 30.09-13.31-3.906 9.693-4.485 20.398 6.656 21.411 11.139 1.013 17.649-29.223 17.649-29.223s-1.88 14.901 9.983 14.466c11.862-.434 10.561-27.197 10.561-27.197s-.579 8.535 2.459 8.535 4.485-6.944 3.183-10.995-13.744-20.977-13.744-20.977z" fill="#ff295c" fill-rule="evenodd"/></g><g transform="translate(1143.56 1352.84)"><path clip-rule="evenodd" d="m-1033.139-1228.931c40.645-80.483 132.884-91.818 181.779-77.813 31.15 8.92 62.228 31.656 76.268 60.265 7.16 14.59 7.466 28.429 9.071 40.265 1.716 12.654 4.883 23.112 17.902 30.187.952.518 2.146.165 2.664-.788s.164-2.147-.788-2.664c-11.705-6.36-14.342-15.886-15.885-27.263-1.654-12.195-2.06-26.434-9.437-41.468-14.501-29.548-46.543-53.098-78.714-62.312-50.132-14.357-144.692-2.701-186.367 79.82-.489.968-.1 2.151.867 2.639.969.488 2.152.099 2.64-.868z" fill="#260053" fill-rule="evenodd"/></g><g transform="matrix(.648 .358 -.358 .648 1362.25 1347.58)"><path clip-rule="evenodd" d="m-2269.071-577.901s-19.24-6.365-24.738-2.46c-5.498 3.907 2.025 11.863 2.025 11.863s-16.926-9.259-25.896-5.352c-8.97 3.906 5.787 15.479 5.787 15.479s-17.181-7.958-27.053-.145c-9.872 7.812 14.433 13.02 14.433 13.02s-20.687 3.038-20.687 14.468c0 11.428 22.423 6.076 22.423 6.076s-16.493 12.151-8.679 21.7c7.812 9.548 26.33-6.655 30.09-13.31-3.906 9.693-4.485 20.398 6.656 21.411 11.139 1.013 17.649-29.223 17.649-29.223s-1.881 14.901 9.983 14.466c11.862-.434 10.561-27.197 10.561-27.197s-.579 8.535 2.459 8.535 4.485-6.944 3.183-10.995-13.744-20.977-13.744-20.977z" fill="#ff295c" fill-rule="evenodd"/></g><g transform="matrix(.286 .32 -.32 .286 1448.54 1458.06)"><path clip-rule="evenodd" d="m-4385.098 258.998s-19.241-6.365-24.738-2.46c-5.498 3.907 2.025 11.863 2.025 11.863s-16.926-9.259-25.896-5.352c-8.97 3.905 5.787 15.479 5.787 15.479s-17.181-7.958-27.053-.145c-9.872 7.812 14.433 13.02 14.433 13.02s-20.687 3.038-20.687 14.467c0 11.428 22.423 6.076 22.423 6.076s-16.492 12.151-8.679 21.7c7.812 9.548 26.33-6.655 30.09-13.31-3.905 9.693-4.485 20.398 6.655 21.411s17.649-29.223 17.649-29.223-1.88 14.901 9.982 14.466c11.862-.434 10.561-27.197 10.561-27.197s-.579 8.535 2.459 8.535 4.485-6.944 3.183-10.995-13.744-20.977-13.744-20.977z" fill="#ff295c" fill-rule="evenodd"/></g><g transform="translate(1143.56 1352.84)"><path clip-rule="evenodd" d="m-1044.394-1142.162c-43.759 12.807-69.084 32.315-56.059 54.703 9.591 16.488 41.434 10.337 76.525-17.156z" fill="#ffb0c3" fill-rule="evenodd"/></g><g transform="matrix(.648 .358 -.358 .648 1362.25 1347.58)"><path clip-rule="evenodd" d="m-2268.439-578.625c-43.759 12.807-69.083 32.315-56.059 54.703 9.591 16.488 38.599 11.897 73.691-15.597z" fill="#ffb0c3" fill-rule="evenodd"/></g><g transform="matrix(.286 .32 -.32 .286 1448.54 1458.06)"><path clip-rule="evenodd" d="m-4384.465 258.274c-43.759 12.807-69.084 32.315-56.059 54.703 9.591 16.488 38.6 11.897 73.691-15.597z" fill="#ffb0c3" fill-rule="evenodd"/></g><g transform="matrix(1.056 .336 -.468 1.471 1326.41 1087.34)"><ellipse clip-rule="evenodd" cx="-1221.356" cy="-295.643" fill="#fffc99" fill-rule="evenodd" rx="16.143" ry="23.319" transform="matrix(0 1 -1 0 -1516.996 925.715)"/></g><g transform="matrix(.865 -.191 .269 1.22 1291.92 1339.63)"><ellipse clip-rule="evenodd" cx="-742.899" cy="-1015.844" fill="#fffc99" fill-rule="evenodd" rx="32.494" ry="11.584" transform="matrix(-1 0 0 -1 -1485.8 -2031.686)"/></g><g transform="translate(1142.29 1351.15)"><path clip-rule="evenodd" d="m-1017.466-1081.134s15.021 13.358 22.867 17.051c1.017.479 2.23.042 2.709-.975.479-1.016.041-2.23-.975-2.709-7.525-3.541-21.89-16.405-21.89-16.405-.838-.748-2.127-.675-2.875.165-.748.837-.674 2.125.164 2.873z" fill="#260053" fill-rule="evenodd"/></g><g transform="translate(1143.56 1352.84)"><g><path clip-rule="evenodd" d="m-1017.64-1101.687c-.003-.038-.132-1.375-.694-2.711-.463-1.103-1.22-2.161-2.275-2.769-1.568-.905-4.204-1.155-7.984 2.421-15.973 15.108-39.286 25.505-55.401 23.937-4.988-.486-9.25-2.138-12.239-5.31-3.007-3.192-4.676-7.883-4.657-14.264.003-1.123-.906-2.038-2.029-2.041s-2.038.906-2.041 2.029c-.022 7.661 2.155 13.234 5.765 17.066 3.628 3.852 8.751 5.981 14.807 6.571 17.012 1.656 41.728-9.081 58.591-25.031 1.054-.996 1.893-1.581 2.605-1.811.229-.074.409-.123.549-.042.291.169.428.515.557.82.318.76.394 1.52.394 1.52.106 1.116 1.099 1.938 2.217 1.832s1.94-1.099 1.835-2.217z" fill="#260053" fill-rule="evenodd"/></g><g><path clip-rule="evenodd" d="m-1110.584-1071.616c.63 3.069 2.112 5.224 4.125 6.552 1.993 1.315 4.53 1.822 7.352 1.523 5.318-.56 11.713-4.017 17.104-10.027.382-.425.347-1.082-.08-1.464-.426-.381-1.082-.346-1.465.08-4.987 5.56-10.858 8.83-15.778 9.349-2.296.243-4.371-.123-5.992-1.192-1.601-1.055-2.735-2.796-3.235-5.236-.115-.562-.663-.923-1.225-.808-.559.114-.921.663-.806 1.223z" fill="#260053" fill-rule="evenodd"/></g><g><path clip-rule="evenodd" d="m-1079.432-1062.836c2.401 3.619 5.102 5.343 7.774 5.708 2.706.37 5.441-.649 7.925-2.715 4.635-3.858 8.426-11.446 9.444-19.602.071-.568-.332-1.086-.901-1.158-.568-.071-1.086.333-1.158.901-.947 7.585-4.402 14.676-8.713 18.264-1.988 1.655-4.151 2.551-6.317 2.255-2.201-.301-4.35-1.821-6.327-4.8-.316-.477-.961-.608-1.437-.29-.476.316-.606.961-.29 1.437z" fill="#260053" fill-rule="evenodd"/></g><g><path clip-rule="evenodd" d="m-1045.598-1071.912c8.676-1.68 13.546-10.002 14.124-19.779.034-.572-.402-1.063-.974-1.097-.571-.034-1.062.402-1.096.974-.519 8.76-4.675 16.359-12.449 17.865-.562.109-.929.653-.82 1.215s.652.93 1.215.822z" fill="#260053" fill-rule="evenodd"/></g><g><path clip-rule="evenodd" d="m-1039.496-1155.943c0-.001 0-.002 0-.002s.158-1.897-.39-3.563c-.364-1.106-1.023-2.092-2.007-2.691-.965-.587-2.297-.888-4.156-.286-16.636 5.397-37.855 1.906-47.392-6.353-2.816-2.439-4.567-5.291-4.554-8.499.014-3.341 1.897-6.942 5.965-10.785.816-.771.853-2.061.081-2.877-.771-.816-2.06-.853-2.876-.082-5.122 4.84-7.222 9.521-7.24 13.727-.017 4.338 2.154 8.296 5.96 11.593 10.333 8.948 33.287 12.995 51.312 7.147.349-.113.597-.213.784-.109.133.074.18.226.232.371.07.201.113.415.149.617.134.755.078 1.439.078 1.439-.098 1.117.73 2.105 1.849 2.202 1.119.098 2.107-.731 2.205-1.849z" fill="#260053" fill-rule="evenodd"/></g><g><path clip-rule="evenodd" d="m-1109.358-1173.23c-3.274 3.644-3.153 7.842-.049 10.647 2.836 2.561 8.467 3.979 16.727 2.217.561-.119.918-.67.798-1.23s-.671-.918-1.231-.798c-14.166 3.021-19.83-3.743-14.703-9.448.383-.426.348-1.082-.078-1.464-.425-.384-1.081-.349-1.464.076z" fill="#260053" fill-rule="evenodd"/></g><g><path clip-rule="evenodd" d="m-1094.714-1154.392c-.85 3.182.633 6.201 3.859 7.403 1.783.664 4.144.76 6.961-.108 3.943-1.215 8.868-4.355 14.356-10.51.38-.427.343-1.084-.085-1.465-.426-.381-1.083-.344-1.464.084-5.145 5.77-9.722 8.769-13.419 9.907-2.277.702-4.185.684-5.627.147-2.149-.8-3.145-2.806-2.579-4.924.148-.553-.181-1.122-.734-1.27-.552-.146-1.12.183-1.268.736z" fill="#260053" fill-rule="evenodd"/></g><g><path clip-rule="evenodd" d="m-1071.311-1150.307c.768 2.731 2.986 4.299 6.027 4.127 3.949-.224 9.565-3.674 14.723-12.12.298-.488.144-1.127-.345-1.426-.489-.297-1.128-.144-1.426.345-4.643 7.604-9.516 10.928-13.07 11.13-1.96.112-3.418-.856-3.912-2.616-.155-.551-.728-.873-1.279-.718-.55.154-.871.727-.718 1.278z" fill="#260053" fill-rule="evenodd"/></g><g><path clip-rule="evenodd" d="m-1034.435-1206.033c-.004-.042-.458-4.742-5.238-4.95-1.909-.083-9.185-1.482-15.141-4.885-3.728-2.131-6.988-5.036-7.741-9.062-.17-.907-1.044-1.505-1.951-1.336-.907.17-1.506 1.043-1.337 1.951.93 4.972 4.765 8.718 9.369 11.35 6.545 3.74 14.557 5.232 16.655 5.323 1.874.082 2.054 1.922 2.054 1.922.086.918.902 1.593 1.821 1.507.918-.085 1.595-.901 1.509-1.82z" fill="#260053" fill-rule="evenodd"/></g><g><path clip-rule="evenodd" d="m-1067.504-1238.164c-1.579 1.42-2.21 2.894-2.094 4.353.158 2.002 1.878 4.146 5.214 6.224.486.303 1.126.154 1.429-.332s.153-1.126-.332-1.429c-1.377-.857-2.45-1.7-3.19-2.542-.621-.707-.998-1.392-1.054-2.085-.071-.907.433-1.765 1.413-2.646.426-.383.461-1.039.079-1.466-.382-.425-1.039-.459-1.465-.077z" fill="#260053" fill-rule="evenodd"/></g><g><path clip-rule="evenodd" d="m-1073.652-1224.406c-.002 1.587.744 2.954 2.295 4.063 1.951 1.394 5.329 2.39 10.092 2.92.569.063 1.082-.348 1.145-.917s-.348-1.082-.917-1.145c-3.611-.401-6.36-1.051-8.203-1.997-1.494-.767-2.34-1.694-2.338-2.922 0-.572-.464-1.037-1.036-1.038-.573 0-1.038.464-1.038 1.036z" fill="#260053" fill-rule="evenodd"/></g><g><path clip-rule="evenodd" d="m-1066.005-1214.838c-.983 2.061-.512 4.073 1.182 5.327.91.675 2.221 1.13 3.921 1.169 2.284.052 5.343-.652 9.082-2.59.508-.263.706-.889.443-1.397-.264-.508-.89-.707-1.399-.444-4.542 2.355-7.906 2.773-9.941 2.048-.779-.278-1.324-.725-1.567-1.306-.238-.568-.172-1.236.151-1.914.247-.516.027-1.136-.489-1.382-.517-.247-1.136-.027-1.383.489z" fill="#260053" fill-rule="evenodd"/></g><g><path clip-rule="evenodd" d="m-1053.935-1206.661c.302.9.986 1.673 1.948 2.167 1.929.991 5.098.868 7.893-1.905.406-.403.41-1.06.006-1.467s-1.06-.409-1.467-.005c-1.701 1.687-3.558 2.12-4.923 1.747-.722-.197-1.296-.615-1.491-1.196-.181-.543-.77-.835-1.313-.654-.542.182-.835.77-.653 1.313z" fill="#260053" fill-rule="evenodd"/></g></g><g transform="matrix(1.233 0 0 1.233 1023.64 1290.51)"><circle clip-rule="evenodd" cx="-496.333" cy="-883.718" fill="#260053" fill-rule="evenodd" r="1.836"/></g><g transform="matrix(1.301 0 0 1 -442.152 .999)"><ellipse clip-rule="evenodd" cx="500.941" cy="200.365" fill="#260053" fill-rule="evenodd" rx="13.472" ry="33.093"/></g><g transform="matrix(1.301 0 0 1 -289.577 .999)"><ellipse clip-rule="evenodd" cx="506.524" cy="200.365" fill="#260053" fill-rule="evenodd" rx="13.472" ry="33.093"/></g><g transform="matrix(1.031 0 0 1 -47.496 1.166)"><path clip-rule="evenodd" d="m320.92 174.476c0-11.953-9.397-21.644-20.994-21.644h-80.079c-6.108 0-11.964 2.504-16.28 6.956s-6.747 10.487-6.747 16.783v17.799c0 12.781 4.924 25.027 13.682 34.068 8.768 9.03 20.648 14.111 33.042 14.111h38.94c21.225 0 38.437-17.747 38.437-39.621v-28.452z" fill="#fff" fill-rule="evenodd" opacity=".6"/></g><g transform="matrix(.618 0 0 1 713.388 1.166)"><path clip-rule="evenodd" d="m-500.076 174.476c0-11.953-15.683-21.644-35.032-21.644h-50.641c-10.193 0-19.967 2.504-27.175 6.956s-11.251 10.487-11.251 16.783v23.33c0 23.55 30.905 42.648 69.038 42.648 14.604 0 28.61-3.583 38.929-9.963 10.329-6.38 16.133-15.033 16.133-24.053-.001-11.429-.001-23.853-.001-34.057z" fill="#fff" fill-rule="evenodd" opacity=".6"/></g><g transform="translate(1143.56 1352.84)"><path clip-rule="evenodd" d="m-840.013-1043.656c31.257-3.071 101.687-29.759 109.988-98.027.136-1.116-.659-2.131-1.775-2.267-1.116-.135-2.131.66-2.267 1.776-8.013 65.909-76.167 91.501-106.344 94.465-1.119.11-1.937 1.107-1.827 2.225.109 1.119 1.106 1.937 2.225 1.828z" fill="#260053" fill-rule="evenodd"/></g><g><path clip-rule="evenodd" d="m221.315 315.114c27.489 10.35 53.009 20.732 90.252 32.214-2.137-21.57 22.984-16.5 22.052-.199 27.992.377 10.015 59.619-25.981 47.279 0 0-42.208-12.11-66.439-19.067-10.57-3.038-21.926-1.372-31.166 4.568-3.269 2.095-5.783 3.709-5.783 3.709" fill="#ffb0c3" fill-rule="evenodd"/><path d="m317.399 398.075c-3.172 0-6.639-.537-10.391-1.825l-66.346-19.038c-10.029-2.874-20.804-1.296-29.575 4.336l-5.782 3.71c-.904.58-2.102.32-2.695-.588-.58-.908-.316-2.111.588-2.695l5.786-3.705c9.705-6.242 21.652-7.986 32.751-4.801l66.44 19.068c14.092 4.831 23.49-2.341 27.856-7.044 7.991-8.609 11.521-21.725 8.038-29.86-1.833-4.281-5.355-6.485-10.476-6.554-.533-.009-1.036-.23-1.399-.618-.362-.392-.55-.912-.52-1.441.256-4.49-1.816-8.472-5.547-10.651-3.049-1.787-6.601-1.927-9.048-.354-2.835 1.816-4.106 5.769-3.573 11.125.064.648-.2 1.288-.708 1.701-.499.405-1.177.529-1.808.354-30.265-9.334-52.962-17.998-74.908-26.381-5.142-1.961-10.263-3.919-15.452-5.871-1.006-.379-1.518-1.505-1.138-2.511s1.514-1.514 2.511-1.138c5.198 1.957 10.323 3.914 15.469 5.88 21.243 8.114 43.189 16.493 72.018 25.477.051-7.261 3.356-10.549 5.488-11.918 3.722-2.384 8.758-2.285 13.116.273 4.473 2.609 7.176 7.116 7.47 12.293 5.654.627 9.905 3.701 12.088 8.801 4.046 9.44.196 24.398-8.762 34.047-3.839 4.129-11.083 9.928-21.491 9.928z" fill="#260053"/></g><g transform="translate(-5.93 -5.233)"><path clip-rule="evenodd" d="m296.188 181.714c0-15.641-12.687-28.317-28.327-28.317-23.906 0-61.997 0-86.061 0-15.871 0-28.736 12.865-28.736 28.736v15.41c0 32.434 26.285 58.719 58.708 58.719h31.271c14.09 0 27.604-5.594 37.578-15.567 9.963-9.963 15.567-23.487 15.567-37.578zm-12.938 0v21.403c0 10.665-4.232 20.889-11.775 28.432s-17.768 11.786-28.432 11.786h-31.271c-25.279 0-45.781-20.502-45.781-45.791v-15.41c0-8.727 7.082-15.808 15.809-15.808h86.061c8.506-.001 15.389 6.892 15.389 15.388z" fill="#260053" fill-rule="evenodd"/></g><g transform="matrix(.583 0 0 1 761.901 -5.233)"><path clip-rule="evenodd" d="m-604.171 181.714c0-15.641-21.748-28.317-48.567-28.317h-54.528c-27.217 0-49.269 12.865-49.269 28.736v26.787c0 26.148 36.331 47.342 81.158 47.342h.01c18.878 0 36.991-4.379 50.338-12.163 13.357-7.784 20.858-18.344 20.858-29.365zm-22.178 0v33.021c0 7.585-5.165 14.855-14.352 20.219-9.198 5.364-21.665 8.381-34.666 8.381h-.01c-32.581 0-58.991-15.41-58.991-34.414v-26.787c0-8.727 12.131-15.808 27.102-15.808h54.528c14.572-.001 26.389 6.892 26.389 15.388z" fill="#260053" fill-rule="evenodd"/></g><path clip-rule="evenodd" d="m155.263 162.666-57.482-16.793c-3.426-1.006-7.019.964-8.025 4.389-.995 3.426.974 7.019 4.389 8.014l57.493 16.793c3.426 1.006 7.019-.964 8.014-4.39 1.006-3.424-.963-7.018-4.389-8.013z" fill="#260053" fill-rule="evenodd"/><path clip-rule="evenodd" d="m290.29 194.157c5.73-4.306 11.325-6.904 16.929-7.009 5.332-.094 10.529 2.2 15.725 6.893 2.65 2.389 6.736 2.189 9.135-.461 2.389-2.65 2.179-6.736-.461-9.135-8.077-7.291-16.343-10.371-24.64-10.225-8.035.147-16.238 3.415-24.462 9.596-2.85 2.148-3.426 6.202-1.278 9.062 2.148 2.851 6.202 3.427 9.052 1.279z" fill="#260053" fill-rule="evenodd"/><path d="m157.003 196.739c-.273 0-.542-.111-.738-.328-.362-.407-.328-1.034.077-1.399l46.86-42c.401-.367 1.032-.328 1.399.077.362.407.328 1.034-.077 1.399l-46.86 42c-.188.168-.426.251-.661.251z" fill="#260053"/><g transform="translate(162.288 -.273)"><path d="m164.73 196.726c-.273 0-.542-.111-.738-.328-.362-.407-.328-1.034.077-1.399l46.856-42c.405-.367 1.032-.328 1.399.077.362.407.328 1.034-.077 1.399l-46.856 42c-.188.168-.426.251-.661.251z" fill="#260053"/></g><g transform="translate(167.743 4.91)"><path d="m164.989 196.972c-.273 0-.542-.111-.738-.328-.362-.407-.328-1.034.077-1.399l46.86-41.997c.401-.369 1.032-.328 1.399.077.362.407.328 1.034-.077 1.399l-46.86 41.997c-.188.168-.427.251-.661.251z" fill="#260053"/></g><g transform="translate(187.381 40.095)"><path d="m165.924 198.648c-.273 0-.542-.111-.738-.328-.362-.407-.328-1.034.077-1.399l46.86-42c.401-.367 1.032-.328 1.399.077.362.407.328 1.034-.077 1.399l-46.86 42c-.188.168-.426.251-.661.251z" fill="#260053"/></g><g transform="matrix(1.192 -.172 -.172 1.155 20.411 -.388)"><path d="m147.489 206.209c-.256-.038-.527-.184-.744-.425-.401-.45-.457-1.056-.124-1.354l46.861-41.999c.332-.303.925-.183 1.334.271.401.45.457 1.056.124 1.354l-46.861 41.999c-.156.14-.367.188-.59.154z" fill="#260053"/></g><g transform="matrix(1.192 -.172 -.172 1.155 73.598 28.524)"><path d="m149.837 207.753c-.256-.038-.527-.184-.744-.425-.401-.45-.457-1.056-.124-1.354l46.857-42c.332-.299.924-.185 1.334.271.401.45.457 1.056.124 1.354l-46.857 42c-.156.139-.367.187-.59.154z" fill="#260053"/></g><g transform="matrix(1.192 -.172 -.172 1.155 77.689 31.524)"><path d="m150.022 207.905c-.256-.038-.527-.186-.744-.425-.401-.448-.456-1.054-.124-1.354l46.86-42.001c.332-.301.925-.183 1.334.271.401.45.457 1.056.124 1.354l-46.86 42.003c-.156.136-.367.186-.59.152z" fill="#260053"/></g><path d="m330.57 252.202h-55.891c-1.582 0-2.865-1.283-2.865-2.865s1.283-2.865 2.865-2.865h55.891c1.582 0 2.865 1.283 2.865 2.865s-1.283 2.865-2.865 2.865z" fill="#260053"/><g><path clip-rule="evenodd" d="m282.558 317.136s9.743-12.875 21.748-14.834c11.995-1.97 67.194 18.983 67.194 18.983s21.382-26.18 28.579-28.369c7.208-2.179 29.239 4.368 29.239 4.368l-37.798 38.123-24.996 3.352z" fill="#eaeaea" fill-rule="evenodd"/><path d="m366.523 340.41c-.136 0-.277-.017-.409-.051l-83.965-21.622c-.537-.141-.968-.533-1.147-1.057-.183-.52-.094-1.096.239-1.535.418-.55 10.289-13.431 22.803-15.469 11.402-1.838 58.821 15.606 66.931 18.65 4.277-5.176 21.708-25.882 28.624-27.988 7.462-2.268 27.886 3.68 30.189 4.366.559.166.985.61 1.13 1.173s-.017 1.16-.426 1.569l-37.8 38.124c-.256.26-.593.426-.955.478l-24.995 3.351c-.074.006-.146.011-.219.011zm-81.018-24.219 81.117 20.889 24.121-3.232 35.433-35.74c-7.287-1.983-20.77-5.078-25.618-3.616-4.925 1.501-19.311 17.469-27.779 27.839-.452.55-1.215.75-1.863.499-15.239-5.786-56.834-20.424-66.338-18.898-8.461 1.377-15.897 8.703-19.073 12.259z" fill="#260053"/></g><g><path clip-rule="evenodd" d="m449.757 335.553s-2.189-19.412-12.875-18.323c-10.696 1.09-3.929 15.054-3.929 15.054s-17.233.869-13.525 27.709c3.709 26.829 25.96 24.001 31.418 16.144 5.448-7.857 1.53-29.888-1.089-40.584z" fill="#ffb0c3" fill-rule="evenodd"/><path d="m438.652 383.224c-1.48 0-2.968-.166-4.417-.512-5.151-1.232-14.131-5.795-16.437-22.492-1.454-10.506.017-18.497 4.375-23.759 2.853-3.445 6.272-4.857 8.464-5.432-1.053-2.827-2.447-7.982-.397-11.662 1.224-2.196 3.403-3.467 6.477-3.778 11.811-1.305 14.446 17.862 14.668 19.669 1.352 5.552 7.411 32.312.819 41.82-2.662 3.83-8.031 6.146-13.552 6.146zm-.938-64.385c-.217 0-.439.013-.665.034-1.961.2-3.245.887-3.927 2.098-1.667 2.989.388 8.66 1.318 10.596.243.495.217 1.083-.064 1.556-.281.478-.785.78-1.335.806-.188.013-4.81.341-8.374 4.695-3.705 4.52-4.916 11.636-3.603 21.145 1.514 10.937 6.46 17.943 13.939 19.733 6.161 1.471 12.212-1.028 14.489-4.307 4.226-6.093 2.375-24.104-1.339-39.249-.017-.068-.03-.136-.038-.205-.019-.175-2.023-16.902-10.401-16.902z" fill="#260053"/></g></g></g></switch></svg>