<svg id="Layer_1" enable-background="new 0 0 512 512" height="512" viewBox="0 0 512 512" width="512" xmlns="http://www.w3.org/2000/svg"><switch><g><g><g><g transform="translate(-1.553 40.609)"><g transform="matrix(1.115 .436 -.364 .931 -42.766 -127.51)"><path clip-rule="evenodd" d="m445.276 247.876c.916 2.2 1.593 4.824.071 5.601-2.765 1.409-7.301-4.239-7.995-8.529-.693-4.289 2.777-25.46 2.777-25.46l-4.001-17.86s14.556-14.715 21.369-13.711c6.814 1.005 3.659 11.734 3.659 11.734s11.108-16.274 21.08-16.88c9.974-.606 1.913 16.769 1.913 16.769s11.944-15.208 24.55-12.677c12.605 2.53-7.095 18.54-7.095 18.54s20.233-6.829 25.533 3.57c5.299 10.399-17.586 15.928-17.586 15.928s20.642 3.409 17.961 15.72c-2.68 12.311-27.044 6.155-33.553 1.844 8.05 7.008 13.541 16.481 3.874 22.568s-29.612-18.407-29.612-18.407 8.621 12.687-2.374 17.793c-8.459 3.93-17.055-9.938-20.571-16.543z" fill="#e0325c" fill-rule="evenodd"/></g><g transform="matrix(1.115 .436 -.364 .931 -42.766 -127.51)"><path clip-rule="evenodd" d="m435.216 201.263c45.755-8.641 77.846-2.635 76.378 23.777-1.081 19.451-29.606 28.725-74.285 19.981z" fill="#ff92ac" fill-rule="evenodd"/></g><g transform="matrix(-1.159 .035 .182 1.028 721.844 -93.772)"><g><path clip-rule="evenodd" d="m379.289 363.544s-.087-.902-.464-1.801c-.203-.483-.485-.988-.946-1.254-.395-.228-.896-.251-1.538-.044-.86.278-1.896.948-3.167 2.15-16.934 16.016-41.726 26.868-58.811 25.206-5.904-.575-10.911-2.643-14.449-6.398-3.559-3.778-5.681-9.287-5.66-16.84.002-.56.417-.947.927-.862.509.083.922.606.92 1.165-.018 6.786 1.787 11.761 4.985 15.156 3.219 3.417 7.798 5.213 13.172 5.736 16.747 1.631 41.007-9.103 57.607-24.803 1.489-1.409 2.725-2.16 3.733-2.486 1.224-.396 2.187-.205 2.937.228.914.526 1.546 1.457 1.947 2.413.529 1.257.646 2.516.646 2.516.053.566-.315 1.007-.822.984-.509-.023-.963-.501-1.017-1.066z" fill="#260053" fill-rule="evenodd"/></g><g><path clip-rule="evenodd" d="m289.292 393.802c.808 3.944 3.334 6.022 6.652 6.456 5.496.718 12.959-2.771 19.113-9.632.333-.371.916-.324 1.302.103.386.428.43 1.076.097 1.448-6.564 7.317-14.6 10.884-20.462 10.119-4.256-.556-7.465-3.263-8.501-8.322-.116-.564.194-1.06.69-1.107.496-.049.994.371 1.109.935z" fill="#260053" fill-rule="evenodd"/></g><g><path clip-rule="evenodd" d="m320.769 401.954c1.62 2.441 3.364 3.915 5.157 4.555 1.776.633 3.582.443 5.32-.347 5.613-2.548 10.474-11.155 11.637-20.471.068-.545.534-.86 1.039-.704s.86.724.792 1.268c-1.245 9.974-6.56 19.097-12.566 21.825-2.136.969-4.363 1.153-6.546.376-2.165-.772-4.307-2.498-6.264-5.447-.322-.486-.263-1.116.132-1.407.394-.292.976-.134 1.299.352z" fill="#260053" fill-rule="evenodd"/></g><g><path clip-rule="evenodd" d="m353.239 391.745c8.032-1.556 12.395-9.371 12.93-18.424.033-.554.473-.908.981-.791.509.118.896.663.862 1.218-.584 9.879-5.44 18.322-14.206 20.02-.486.094-1.007-.284-1.163-.841-.156-.558.11-1.088.596-1.182z" fill="#260053" fill-rule="evenodd"/></g></g></g><path clip-rule="evenodd" d="m131.678 496.953h239.152l-3.968-114.345-217.509 12.625c-19.575 1.82-25.166 43.668-17.675 101.72z" fill="#ffb0c3" fill-rule="evenodd"/><path clip-rule="evenodd" d="m247.573 431.266s19.911 35.783 39.823 35.783c19.911 0 30.011-51.076 30.011-51.076z" fill="#f67e9b" fill-rule="evenodd"/><path clip-rule="evenodd" d="m358.805 407.299s53.657 38.777 95.589 18.938c41.933-19.839 31.112-113.174 31.112-113.174s4.364-15.005 12.155-23.374c7.792-8.368 3.174-20.488-6.348-25.394-9.523-4.905-42.708-2.885-43.574 30.588-15.872 0-26.837 10.678-23.663 24.817-7.791 6.06-15.583 19.045-8.369 31.454-7.791 9.522-5.194 25.105-2.02 29.145-13.274-6.349-36.359-21.065-36.359-21.065z" fill="#ffb0c3" fill-rule="evenodd"/><path clip-rule="evenodd" d="m268.556 429.895c-47.193 6.236-170.887-5.41-183.963-103.705-16.776-126.107 98.294-187.119 186.217-170.886 87.923 16.231 101.9 76.2 102.352 94.236.45 18.035 2.705 31.562 14.429 38.776 11.723 7.214 34.827 22.059 4.509 78.906-21.644 40.58-76.834 56.499-123.544 62.673z" fill="#ffb0c3" fill-rule="evenodd"/><path clip-rule="evenodd" d="m86.718 327.815s-19.65-6.501-25.265-2.512c-5.615 3.99 2.068 12.116 2.068 12.116s-17.286-9.456-26.447-5.466c-9.16 3.989 5.91 15.809 5.91 15.809s-17.546-8.127-27.629-.148c-10.082 7.978 14.74 13.297 14.74 13.297s-21.127 3.103-21.127 14.775 22.9 6.205 22.9 6.205-16.843 12.41-8.864 22.162c7.978 9.751 26.89-6.797 30.731-13.593-3.989 9.899-4.58 20.832 6.797 21.867 11.376 1.035 18.025-29.845 18.025-29.845s-1.92 15.218 10.195 14.774c12.114-.443 10.786-27.776 10.786-27.776s-.592 8.716 2.511 8.716 4.58-7.091 3.25-11.229c-1.33-4.137-14.036-21.424-14.036-21.424z" fill="#ff295c" fill-rule="evenodd"/><path clip-rule="evenodd" d="m98.859 238.46c41.51-82.195 135.711-93.771 185.647-79.469 31.812 9.11 63.552 32.329 77.891 61.547 7.313 14.9 7.625 29.034 9.264 41.122 1.753 12.923 4.987 23.604 18.282 30.829.973.529 2.192.168 2.721-.805.529-.974.168-2.192-.805-2.721-11.954-6.495-14.647-16.224-16.223-27.843-1.689-12.455-2.103-26.997-9.638-42.35-14.81-30.176-47.533-54.228-80.389-63.638-51.199-14.663-147.77-2.758-190.332 81.518-.5.989-.103 2.196.886 2.695.989.501 2.197.103 2.696-.885z" fill="#260053" fill-rule="evenodd"/><g transform="matrix(.648 .358 -.358 .648 218.689 -5.267)"><path clip-rule="evenodd" d="m29.34 418.32s-19.65-6.501-25.265-2.512c-5.615 3.99 2.068 12.116 2.068 12.116s-17.286-9.456-26.447-5.466c-9.16 3.989 5.91 15.809 5.91 15.809s-17.546-8.127-27.629-.148c-10.082 7.978 14.74 13.297 14.74 13.297s-21.127 3.103-21.127 14.775 22.9 6.205 22.9 6.205-16.843 12.41-8.864 22.162c7.978 9.751 26.89-6.797 30.731-13.593-3.989 9.899-4.58 20.832 6.797 21.867 11.376 1.035 18.025-29.845 18.025-29.845s-1.92 15.218 10.195 14.774c12.114-.443 10.786-27.776 10.786-27.776s-.592 8.716 2.511 8.716 4.58-7.091 3.25-11.229c-1.33-4.137-14.036-21.424-14.036-21.424z" fill="#ff295c" fill-rule="evenodd"/></g><g transform="matrix(.286 .32 -.32 .286 304.975 105.213)"><path clip-rule="evenodd" d="m-78.674 566.189s-19.65-6.501-25.265-2.512c-5.615 3.99 2.068 12.116 2.068 12.116s-17.286-9.456-26.447-5.466c-9.16 3.989 5.91 15.809 5.91 15.809s-17.546-8.127-27.629-.148c-10.082 7.978 14.74 13.297 14.74 13.297s-21.127 3.103-21.127 14.775 22.9 6.205 22.9 6.205-16.843 12.41-8.864 22.162c7.978 9.751 26.89-6.797 30.731-13.593-3.989 9.899-4.58 20.832 6.797 21.867 11.376 1.035 18.025-29.845 18.025-29.845s-1.92 15.218 10.195 14.774c12.114-.443 10.786-27.776 10.786-27.776s-.592 8.716 2.511 8.716 4.58-7.091 3.25-11.229c-1.33-4.137-14.036-21.424-14.036-21.424z" fill="#ff295c" fill-rule="evenodd"/></g><path clip-rule="evenodd" d="m87.364 327.076c-44.69 13.079-70.553 33.002-57.251 55.867 9.795 16.839 42.316 10.557 78.153-17.521z" fill="#ffb0c3" fill-rule="evenodd"/><g transform="matrix(.648 .358 -.358 .648 218.689 -5.267)"><path clip-rule="evenodd" d="m29.986 417.581c-44.69 13.08-70.553 33.002-57.251 55.867 9.795 16.839 39.42 12.15 75.259-15.929z" fill="#ffb0c3" fill-rule="evenodd"/></g><g transform="matrix(.286 .32 -.32 .286 304.975 105.213)"><path clip-rule="evenodd" d="m-78.028 565.449c-44.69 13.08-70.553 33.002-57.251 55.867 9.795 16.839 39.42 12.15 75.259-15.929z" fill="#ffb0c3" fill-rule="evenodd"/></g><g transform="translate(9.877 -3.292)"><path clip-rule="evenodd" d="m281.699 284.441c4.468-3.936 6.625-10.359 4.756-18.603-.272-1.2-1.467-1.954-2.666-1.681-1.2.272-1.954 1.467-1.681 2.666 1.485 6.554-.125 11.676-3.784 14.66-5.736 4.679-15.877 4.062-25.717-3.316-.533-.399-1.217-.539-1.864-.382s-1.191.596-1.481 1.195c-5.32 10.999-16.39 14.39-25.698 12.217-6.11-1.427-11.49-5.242-13.869-10.95-.474-1.135-1.779-1.672-2.915-1.199-1.135.473-1.673 1.779-1.199 2.915 2.804 6.725 8.914 11.415 16.04 13.306 1.099 6.501 6.951 37.537 19.549 56.172 6.462 9.558 14.723 15.846 24.771 14.907 10.228-.955 15.925-8.985 18.569-20.052.908-3.807 1.456-7.976 1.702-12.294.154-.378.197-.795.081-1.198 1.205-22.388-4.534-48.229-4.534-48.229z" fill="#260053" fill-rule="evenodd"/></g><g transform="translate(9.877 -3.292)"><path clip-rule="evenodd" d="m230.169 313.273c2.17 8.223 5.268 17.805 9.401 26.347 3.173 6.561 6.949 12.507 11.437 16.658 4.184 3.87 8.987 6.149 14.517 5.632 8.299-.776 12.503-7.67 14.648-16.65.863-3.616 1.388-7.571 1.625-11.667-14.539-27.393-44.34-22.094-51.628-20.32z" fill="#fffc99" fill-rule="evenodd"/></g><g transform="matrix(.991 -.134 .134 .991 -37.068 47.438)"><ellipse clip-rule="evenodd" cx="157.745" cy="271.981" fill="#260053" fill-rule="evenodd" rx="15.005" ry="32.897" transform="matrix(-1 0 0 -1 315.491 543.962)"/></g><g transform="matrix(.991 -.134 .134 .991 139.176 22.066)"><ellipse clip-rule="evenodd" cx="170.191" cy="271.869" fill="#260053" fill-rule="evenodd" rx="15.005" ry="32.897" transform="matrix(-1 0 0 -1 340.382 543.737)"/></g><g transform="translate(-1.618 -2.697)"><ellipse clip-rule="evenodd" cx="143.73" cy="343.3" fill="#fffc99" fill-rule="evenodd" rx="33.185" ry="11.831"/></g><g transform="matrix(.977 -.215 .215 .977 126.924 43.927)"><ellipse clip-rule="evenodd" cx="170.277" cy="312.701" fill="#fffc99" fill-rule="evenodd" rx="33.185" ry="11.831" transform="matrix(-1 0 0 -1 340.555 625.401)"/></g><path clip-rule="evenodd" d="m197.357 417.786s-9.171-11.516-21.69-19.001c-8.643-5.168-18.847-8.362-28.786-5.05-3.214 1.071-5.965 3.489-8.236 7.008-3.09 4.789-5.33 11.704-6.884 19.695-5.854 30.13-2.165 75.859-2.165 75.859.092 1.145 1.096 1.998 2.239 1.906 1.144-.093 1.997-1.097 1.905-2.24 0 0-3.664-45.049 2.103-74.73 1.436-7.389 3.439-13.807 6.295-18.233 1.693-2.623 3.661-4.519 6.057-5.318 8.761-2.92 17.718.118 25.336 4.674 11.874 7.099 20.571 18.022 20.571 18.022.715.898 2.024 1.046 2.922.332.899-.717 1.048-2.026.333-2.924z" fill="#260053" fill-rule="evenodd"/><path clip-rule="evenodd" d="m185.927 466.265v30.011c0 1.148.931 2.08 2.079 2.08 1.147 0 2.079-.932 2.079-2.08v-30.011c0-1.148-.932-2.08-2.079-2.08-1.148.001-2.079.932-2.079 2.08z" fill="#260053" fill-rule="evenodd"/><g transform="translate(-1.268 -1.691)"><path clip-rule="evenodd" d="m114.838 389.366s15.34 13.642 23.354 17.414c1.039.489 2.278.043 2.767-.996.489-1.038.042-2.278-.996-2.767-7.685-3.616-22.356-16.754-22.356-16.754-.856-.764-2.172-.689-2.936.168-.764.856-.689 2.171.167 2.935z" fill="#260053" fill-rule="evenodd"/></g><g clip-rule="evenodd" fill-rule="evenodd"><path d="m296.094 427.677c31.922-3.136 103.851-30.393 112.328-100.113.139-1.139-.673-2.176-1.812-2.315-1.139-.138-2.176.674-2.315 1.813-8.184 67.312-77.787 93.448-108.606 96.475-1.143.112-1.978 1.131-1.866 2.272.11 1.144 1.128 1.98 2.271 1.868z" fill="#260053"/><path d="m470.941 309.164s-3.342-6.178-8.849-11.066c-3.86-3.428-8.762-6.179-14.273-6.078-8.055.147-17.123 3.029-22.225 9.503-3.475 4.408-5.214 10.478-3.518 18.557.235 1.122 1.339 1.843 2.462 1.607 1.123-.235 1.843-1.338 1.608-2.462-1.38-6.575-.114-11.541 2.713-15.128 4.352-5.522 12.165-7.795 19.035-7.919 4.439-.081 8.329 2.269 11.438 5.03 4.946 4.392 7.954 9.938 7.954 9.938.547 1.009 1.809 1.384 2.818.838 1.008-.548 1.384-1.811.837-2.82z" fill="#260053"/><path d="m447.519 323.868c-9.966-7.467-18.951-7.635-25.413-4.092-9.713 5.326-14.006 19.46-7.526 31.823.533 1.016 1.791 1.409 2.807.876s1.409-1.79.876-2.806c-5.329-10.165-2.144-21.868 5.842-26.247 5.337-2.926 12.69-2.392 20.921 3.774.918.688 2.222.502 2.91-.417.689-.918.502-2.223-.417-2.911z" fill="#260053"/><path d="m441.397 353.254c-7.265-5.327-14.104-6.365-19.611-4.876-8.449 2.285-13.96 10.604-13.445 19.752.545 9.703 7.898 20.554 26.347 25.169 1.113.278 2.243-.399 2.521-1.513.279-1.113-.399-2.242-1.512-2.521-15.973-3.996-22.733-12.969-23.205-21.369-.401-7.144 3.782-13.72 10.38-15.505 4.526-1.224 10.096-.164 16.066 4.214.925.679 2.228.478 2.906-.447.678-.922.477-2.225-.447-2.904z" fill="#260053"/><path d="m114.687 368.413c-.003-.038-.135-1.405-.708-2.769-.473-1.127-1.246-2.207-2.324-2.828-1.602-.924-4.294-1.179-8.154 2.473-16.313 15.429-40.122 26.048-56.579 24.446-5.094-.496-9.447-2.184-12.5-5.423-3.071-3.26-4.775-8.051-4.756-14.568.003-1.147-.925-2.081-2.072-2.084s-2.081.925-2.084 2.072c-.022 7.824 2.201 13.516 5.888 17.429 3.705 3.934 8.937 6.108 15.122 6.71 17.374 1.692 42.616-9.274 59.837-25.563 1.076-1.017 1.933-1.614 2.661-1.85.234-.076.417-.125.561-.043.297.172.438.526.569.838.325.776.402 1.552.402 1.552.108 1.139 1.122 1.979 2.264 1.871 1.141-.108 1.981-1.122 1.873-2.263z" fill="#260053"/><path d="m19.766 399.123c.643 3.135 2.157 5.336 4.213 6.691 2.035 1.343 4.626 1.861 7.509 1.556 5.431-.572 11.963-4.102 17.468-10.24.391-.434.354-1.105-.081-1.496-.435-.389-1.105-.353-1.496.081-5.093 5.678-11.09 9.018-16.114 9.548-2.345.248-4.464-.125-6.12-1.218-1.635-1.077-2.793-2.856-3.304-5.347-.118-.573-.677-.943-1.251-.825-.572.117-.941.678-.824 1.25z" fill="#260053"/><path d="m51.581 408.09c2.452 3.695 5.21 5.457 7.94 5.829 2.764.378 5.557-.662 8.094-2.773 4.733-3.94 8.605-11.69 9.645-20.019.073-.58-.339-1.109-.92-1.182-.58-.073-1.109.34-1.182.92-.967 7.746-4.496 14.988-8.898 18.653-2.031 1.69-4.239 2.605-6.452 2.303-2.248-.307-4.442-1.859-6.461-4.902-.323-.487-.981-.621-1.468-.296-.488.322-.621.98-.298 1.467z" fill="#260053"/><path d="m86.135 398.82c8.861-1.716 13.834-10.214 14.424-20.2.034-.584-.411-1.086-.995-1.12-.583-.034-1.085.411-1.119.995-.53 8.947-4.775 16.708-12.714 18.245-.573.111-.949.667-.838 1.241.112.574.667.949 1.242.839z" fill="#260053"/><path d="m92.367 313.001c0-.001 0-.002 0-.002s.162-1.938-.398-3.639c-.371-1.13-1.045-2.137-2.05-2.749-.985-.599-2.346-.907-4.244-.292-16.99 5.512-38.661 1.946-48.4-6.488-2.876-2.491-4.664-5.403-4.651-8.68.014-3.412 1.938-7.089 6.092-11.015.833-.787.871-2.105.082-2.938-.787-.833-2.103-.871-2.937-.083-5.231 4.943-7.376 9.723-7.394 14.019-.017 4.43 2.2 8.473 6.087 11.84 10.552 9.138 33.995 13.271 52.404 7.299.356-.116.61-.217.8-.111.136.076.184.231.236.379.072.205.116.424.152.63.137.771.08 1.47.08 1.47-.101 1.141.746 2.149 1.888 2.249 1.143.1 2.152-.747 2.253-1.889z" fill="#260053"/><path d="m21.018 295.347c-3.343 3.721-3.22 8.009-.05 10.873 2.896 2.616 8.647 4.063 17.083 2.264.572-.122.937-.685.815-1.256-.122-.572-.685-.937-1.257-.815-14.467 3.086-20.252-3.823-15.016-9.649.392-.435.355-1.105-.079-1.496-.435-.391-1.105-.355-1.496.079z" fill="#260053"/><path d="m35.974 314.586c-.868 3.249.646 6.333 3.942 7.561 1.821.678 4.233.776 7.109-.11 4.027-1.241 9.057-4.448 14.662-10.733.388-.436.35-1.107-.087-1.496-.435-.389-1.106-.351-1.495.086-5.254 5.893-9.929 8.955-13.704 10.118-2.326.717-4.274.699-5.746.15-2.194-.817-3.212-2.865-2.634-5.029.151-.565-.185-1.146-.75-1.297-.566-.151-1.147.185-1.297.75z" fill="#260053"/><path d="m59.875 318.758c.784 2.789 3.049 4.391 6.155 4.214 4.034-.229 9.768-3.752 15.036-12.378.304-.499.147-1.151-.352-1.456-.5-.304-1.152-.147-1.456.352-4.742 7.765-9.718 11.16-13.348 11.367-2.002.115-3.491-.874-3.995-2.672-.158-.563-.744-.891-1.306-.733-.563.157-.891.743-.734 1.306z" fill="#260053"/><path d="m97.535 261.846c-.004-.043-.468-4.843-5.349-5.055-1.949-.085-9.381-1.514-15.463-4.989-3.808-2.176-7.136-5.143-7.905-9.255-.173-.927-1.067-1.537-1.992-1.364-.927.173-1.539 1.066-1.365 1.992.95 5.078 4.866 8.904 9.568 11.591 6.685 3.82 14.867 5.343 17.009 5.436 1.914.083 2.098 1.963 2.098 1.963.088.937.921 1.627 1.859 1.54.937-.087 1.628-.92 1.54-1.859z" fill="#260053"/><path d="m63.763 229.031c-1.612 1.45-2.257 2.955-2.139 4.445.162 2.045 1.918 4.235 5.325 6.356.496.309 1.15.157 1.459-.339s.156-1.15-.339-1.459c-1.406-.875-2.502-1.736-3.258-2.596-.634-.722-1.02-1.422-1.076-2.129-.073-.927.442-1.803 1.443-2.703.435-.392.471-1.061.08-1.497-.39-.433-1.061-.468-1.495-.078z" fill="#260053"/><path d="m57.484 243.082c-.002 1.621.76 3.017 2.344 4.149 1.992 1.424 5.443 2.44 10.306 2.982.581.064 1.105-.355 1.169-.936s-.355-1.105-.936-1.169c-3.688-.41-6.495-1.073-8.377-2.039-1.526-.783-2.39-1.73-2.388-2.984 0-.584-.474-1.059-1.058-1.06-.585-.001-1.06.473-1.06 1.057z" fill="#260053"/><path d="m65.293 252.854c-1.004 2.105-.523 4.16 1.207 5.44.93.689 2.268 1.154 4.005 1.194 2.332.053 5.456-.665 9.275-2.645.519-.269.721-.908.453-1.427-.27-.519-.909-.722-1.428-.454-4.639 2.405-8.075 2.832-10.152 2.092-.796-.284-1.352-.74-1.601-1.334-.243-.58-.175-1.262.154-1.955.253-.527.028-1.16-.5-1.411-.528-.252-1.16-.028-1.413.5z" fill="#260053"/><path d="m77.62 261.204c.308.919 1.007 1.709 1.989 2.213 1.97 1.012 5.206.887 8.061-1.945.415-.412.418-1.083.006-1.498s-1.083-.417-1.498-.005c-1.738 1.723-3.633 2.165-5.027 1.785-.737-.201-1.323-.628-1.522-1.222-.185-.554-.786-.853-1.341-.668-.554.186-.854.786-.668 1.34z" fill="#260053"/><path d="m372.057 486.673-.185-7.535c-.027-1.106-.948-1.984-2.054-1.956-1.107.027-1.984.948-1.957 2.054l.185 7.535c.028 1.106.948 1.984 2.055 1.956 1.106-.027 1.982-.948 1.956-2.054z" fill="#260053"/><path d="m371.696 471.995-1.362-55.444c26.448 14.938 53.235 22.608 80.793 12.697 1.042-.374 1.583-1.525 1.209-2.567-.374-1.041-1.525-1.583-2.567-1.208-27.497 9.888-54.151 1.285-80.514-14.172-.628-.368-1.406-.367-2.033.002-.627.37-1.005 1.05-.988 1.778l1.45 59.012c.028 1.107.948 1.984 2.055 1.957 1.107-.028 1.984-.948 1.957-2.055z" fill="#260053"/><path d="m449.48 294.35c2.705-12.235 10.893-22.424 20.323-27.347 6.065-3.166 12.648-4.145 18.54-1.895 5.298 2.022 8.325 4.562 9.724 7.431 1.575 3.228 1.015 6.765-.293 10.045-1.44 3.61-3.816 6.928-5.783 9.34-.7.858-.571 2.123.287 2.822s2.123.571 2.822-.287c2.639-3.236 5.891-7.957 7.254-12.918.989-3.595 1.004-7.311-.681-10.763-1.735-3.557-5.329-6.913-11.898-9.42-6.933-2.647-14.693-1.638-21.828 2.086-10.368 5.413-19.41 16.586-22.384 30.039-.239 1.081.445 2.153 1.526 2.391 1.08.241 2.151-.442 2.391-1.524z" fill="#260053"/></g><g transform="matrix(1.233 0 0 1.233 -119.923 -62.337)"><circle clip-rule="evenodd" cx="427.244" cy="308.091" fill="#260053" fill-rule="evenodd" r="1.876"/></g><g transform="matrix(1.233 0 0 1.233 -41.36 -79.113)"><circle clip-rule="evenodd" cx="431.699" cy="307.14" fill="#260053" fill-rule="evenodd" r="1.876"/></g></g><g transform="matrix(2.277 .665 -.665 2.277 31.902 -258.896)"><path d="m171.096 113.458c-1.792 6.478-5.557 11.454-11.295 14.929-5.738 3.474-12.062 4.249-18.971 2.326-6.661-1.854-11.654-5.657-14.979-11.412-3.324-5.753-4.116-11.819-2.377-18.197 1.627-5.923 5.082-10.674 10.365-14.249 5.283-3.576 11.107-4.737 17.474-3.487 7.674 1.497 13.385 5.081 17.131 10.753 3.745 5.671 4.63 12.116 2.652 19.337zm-17.74-4.592c.485-1.769.309-3.339-.529-4.71-.839-1.37-2.173-2.312-4.002-2.824-1.727-.481-3.318-.264-4.769.65-1.453.914-2.392 2.164-2.814 3.749-.542 1.912-.182 3.691 1.082 5.34 1.263 1.649 2.956 2.459 5.075 2.432 1.46.008 2.724-.43 3.793-1.311 1.067-.882 1.789-1.99 2.164-3.326z" fill="#7bff9e"/></g><g transform="matrix(2.277 .665 -.665 2.277 28.38 -265.942)"><path clip-rule="evenodd" d="m171.574 112.67s0-.001.001-.001c2.045-7.471 1.116-14.138-2.76-20.007-3.863-5.848-9.742-9.561-17.656-11.104-6.591-1.295-12.622-.089-18.091 3.612-5.453 3.691-9.016 8.596-10.696 14.711v.001c-1.798 6.599-.979 12.873 2.458 18.824 3.434 5.943 8.588 9.877 15.469 11.791 7.144 1.989 13.681 1.178 19.614-2.414 5.924-3.588 9.811-8.725 11.661-15.413zm-1.58-.436c-1.734 6.268-5.378 11.083-10.929 14.444-5.543 3.357-11.653 4.096-18.326 2.238-6.443-1.793-11.275-5.467-14.49-11.032-3.209-5.556-3.975-11.412-2.296-17.571 1.574-5.733 4.921-10.326 10.033-13.788 5.097-3.448 10.716-4.567 16.857-3.36h.001c7.433 1.449 12.974 4.905 16.603 10.399 3.616 5.475 4.455 11.7 2.547 18.67zm-16.161-4.153c0-.003.002-.004.002-.005.552-2.012.332-3.796-.622-5.354-.94-1.538-2.426-2.611-4.48-3.186h-.001c-1.966-.547-3.774-.295-5.426.747-1.636 1.03-2.689 2.44-3.167 4.224-.614 2.167-.213 4.187 1.22 6.057 1.429 1.863 3.34 2.784 5.737 2.752 1.654.007 3.089-.495 4.304-1.497 1.201-.992 2.012-2.237 2.433-3.738zm-1.578-.442c-.329 1.171-.961 2.141-1.897 2.913-.92.759-2.009 1.129-3.267 1.123-.005.001-.01 0-.014.001-1.843.023-3.316-.678-4.415-2.111-1.094-1.425-1.414-2.963-.943-4.617 0-.004.002-.008.003-.011.37-1.384 1.192-2.469 2.459-3.267 1.252-.789 2.624-.969 4.113-.555 1.605.45 2.787 1.26 3.523 2.464.721 1.181.855 2.536.438 4.06z" fill="#260053" fill-rule="evenodd"/></g><g transform="matrix(2.277 .665 -.665 2.277 31.902 -258.896)"><path d="m217.707 102.553c-.025.823-1.228 2.378-3.611 4.665-2.383 2.286-5.13 4.725-8.243 7.314 4.212 2.778 7.551 5.22 10.015 7.324.619.554.653 1.763.105 3.633-.549 1.868-1.373 3.781-2.47 5.739-1.099 1.958-2.322 3.648-3.67 5.071-1.349 1.424-2.504 1.987-3.468 1.694-1.043-.344-2.846-1.309-5.408-2.895-2.561-1.586-5.275-3.336-8.141-5.251-.678 2.786-1.256 4.428-1.733 4.927-.57.786-2.819 1.075-6.745.869-3.927-.207-6.649-.741-8.166-1.602-.679-.39-1.071-2.617-1.177-6.683s-.043-8.616.187-13.652.56-9.871.991-14.504c.432-4.633.836-7.724 1.212-9.271.273-.966 1.49-1.614 3.653-1.945 2.163-.33 4.485-.415 6.967-.257 2.481.159 4.735.516 6.761 1.071 2.027.555 3.05 1.236 3.069 2.042-.01.889-.03 1.813-.058 2.772-.028.961-.084 2.029-.166 3.206 2.668-1.79 5.078-3.205 7.233-4.246s3.532-1.401 4.133-1.084c1.553.928 3.433 2.802 5.642 5.621 2.208 2.817 3.237 4.631 3.088 5.442z" fill="#7bff9e"/></g><g transform="matrix(2.277 .665 -.665 2.277 28.38 -265.942)"><path clip-rule="evenodd" d="m218.131 101.628c.049-.336-.009-.791-.231-1.354-.405-1.028-1.402-2.574-3.009-4.627-2.283-2.914-4.238-4.839-5.844-5.798-.011-.006-.022-.013-.033-.019-.347-.184-.87-.259-1.575-.129-.778.143-1.855.538-3.227 1.2-1.841.89-3.867 2.048-6.081 3.479.035-.618.059-1.202.076-1.749.028-.966.047-1.894.058-2.787 0-.009-.001-.018-.001-.026-.012-.51-.244-1.006-.762-1.451-.551-.472-1.495-.915-2.851-1.288-2.07-.567-4.374-.932-6.91-1.095-2.537-.163-4.913-.074-7.125.263-1.44.22-2.497.587-3.182 1.061-.573.397-.92.876-1.071 1.414-.004.009-.006.016-.008.025-.38 1.566-.793 4.691-1.228 9.378-.433 4.645-.764 9.49-.995 14.537-.231 5.055-.293 9.624-.188 13.705.078 2.955.315 4.972.682 6.055.232.68.557 1.073.866 1.251.001 0 .002.002.004.002 1.579.896 4.405 1.481 8.492 1.697 2.44.129 4.253.065 5.442-.176.984-.201 1.604-.559 1.916-.961.217-.24.477-.687.735-1.346.271-.688.568-1.64.886-2.856 2.552 1.694 4.983 3.256 7.291 4.684 2.634 1.631 4.492 2.615 5.564 2.969.006.002.011.004.016.006 1.155.351 2.605-.188 4.22-1.894 1.388-1.464 2.648-3.202 3.778-5.218 1.128-2.009 1.972-3.974 2.536-5.892.367-1.253.481-2.242.38-2.964-.09-.634-.339-1.103-.702-1.428-.004-.003-.008-.007-.012-.01-2.319-1.981-5.406-4.258-9.261-6.832 2.816-2.366 5.323-4.603 7.521-6.712 1.477-1.418 2.511-2.567 3.112-3.44.476-.692.693-1.262.722-1.68zm-41.883 30.775c-.015-.02-.069-.097-.099-.155-.092-.185-.172-.432-.245-.738-.263-1.084-.418-2.811-.48-5.18-.105-4.049-.043-8.582.185-13.599.23-5.024.56-9.846.99-14.469.424-4.555.818-7.602 1.189-9.139.094-.318.362-.549.752-.757.552-.294 1.32-.506 2.3-.656 2.113-.322 4.383-.405 6.808-.249 2.426.155 4.632.503 6.614 1.045.916.251 1.609.522 2.072.83.251.167.438.307.451.502-.01.885-.028 1.799-.056 2.748-.027.952-.083 2.01-.166 3.176-.02.281.122.55.367.692s.548.131.783-.026c2.634-1.768 5.016-3.167 7.143-4.194 1.214-.587 2.162-.952 2.851-1.079.264-.049.464-.086.598-.025 1.5.902 3.298 2.719 5.42 5.429 1.283 1.638 2.16 2.922 2.62 3.86.22.448.364.767.322.992-.007.038-.011.076-.012.113-.007.236-.188.538-.465.942-.562.817-1.536 1.885-2.918 3.211-2.371 2.276-5.105 4.701-8.204 7.278-.18.15-.278.376-.265.61s.136.448.331.577c4.177 2.755 7.488 5.174 9.934 7.261.18.165.23.438.241.791.016.545-.109 1.237-.356 2.08-.533 1.818-1.337 3.679-2.405 5.585-1.066 1.9-2.253 3.542-3.562 4.923-.6.633-1.151 1.083-1.666 1.335-.377.183-.719.255-1.035.164-1.023-.339-2.766-1.284-5.248-2.821-2.555-1.581-5.262-3.327-8.119-5.237-.202-.135-.455-.162-.68-.074s-.393.279-.45.514c-.396 1.629-.756 2.857-1.081 3.684-.175.442-.318.752-.468.909-.023.024-.044.049-.064.075-.154.214-.519.309-1.038.415-1.108.225-2.797.27-5.07.15-3.75-.198-6.36-.676-7.819-1.493z" fill="#260053" fill-rule="evenodd"/></g></g></g></switch></svg>