<svg id="Capa_1" enable-background="new 0 0 512 512" viewBox="0 0 512 512" xmlns="http://www.w3.org/2000/svg" stroke="#000" stroke-width="1"><g><g><g><path d="m188.801 511.81c-39.679 1.97-53.191-18.481-57.707-30.67-6.62 3.222-14.052 5.034-21.91 5.034-27.684 0-50.125-22.442-50.125-50.125 0-11.212 3.683-21.564 9.903-29.914-35.175-3.152-62.755-32.669-62.755-68.664 0-13.441 3.857-25.974 10.506-36.579-10.407-12.08-16.713-27.792-16.713-44.987s6.306-32.907 16.712-44.987c-6.648-10.605-10.506-23.139-10.506-36.579 0-36.449 28.274-66.274 64.083-68.79-.851-4.022-1.307-8.189-1.307-12.465 0-33.087 26.822-59.909 59.909-59.909 4.474 0 8.828.506 13.023 1.436 6.165-20.042 24.823-34.611 46.887-34.611 27.09 0 49.05 21.96 49.05 49.05l20.605 241.906-20.605 171.804c0 33.683-21.994 47.706-49.05 49.05z" fill="#dad7dd"/></g></g><g><g><path d="m248.267 412.386c-4.116 1.127-8.366-1.296-9.493-5.411-6.02-21.984-28.803-34.971-50.787-28.95-4.116 1.127-8.366-1.296-9.493-5.411-1.127-4.116 1.296-8.366 5.411-9.493 30.202-8.271 61.501 9.571 69.772 39.773 1.128 4.115-1.295 8.365-5.41 9.492z" fill="#c9c5cd"/></g></g><g fill="#c9c5cd"><path d="m162.999 97.435c-4.267 0-7.726 3.459-7.726 7.726s3.459 7.726 7.726 7.726c16.097 0 29.192 13.095 29.192 29.191 0 4.267 3.459 7.726 7.726 7.726s7.726-3.459 7.726-7.726c.001-24.616-20.026-44.643-44.644-44.643z"/><path d="m168.86 234.049c-7.458 5.669-16.678 8.093-25.959 6.829-9.282-1.265-17.516-6.069-23.184-13.527-2.582-3.398-7.43-4.057-10.827-1.476-3.397 2.582-4.058 7.429-1.476 10.826 6.458 8.497 15.233 14.589 25.232 17.673-3.219 7.24-8.75 13.138-15.888 16.834-3.789 1.962-5.271 6.625-3.308 10.414 1.374 2.653 4.072 4.175 6.868 4.175 1.196 0 2.41-.279 3.546-.867 11.578-5.996 20.219-16.01 24.476-28.282 10.755-.127 21.15-3.669 29.871-10.297 3.397-2.582 4.058-7.429 1.475-10.827-2.581-3.396-7.429-4.056-10.826-1.475z"/></g><g><g><g><path d="m435.887 127.631-16.181-19.487c-4.556-1.318-9.305-2.18-14.197-2.53l-.198.042-78.521-24.05-88.94 148.939v129.398h198.037z" fill="#b2eaa3"/></g></g><g><g><path d="m459.947 175.589 8.433-13.61c-4.7-25.833-23.8-46.63-48.678-53.821 4.549 21.823 6.925 36.932 7.373 59.998z" fill="#90ddaa"/></g></g></g><g><g><g><path d="m387.35 355.696h-95.968l-53.531 56.803v50.319c0 33.684 21.994 47.707 49.05 49.05 39.679 1.97 53.191-18.481 57.707-30.67 6.62 3.222 14.052 5.034 21.91 5.034 27.684 0 50.125-22.442 50.125-50.125 0-11.212-3.683-21.564-9.903-29.914 1.612-.145 3.206-.363 4.784-.617z" fill="#f9d75a"/></g></g><g><g><path d="m405.882 374.944-22.165-19.248c-31.445 58.097-78.241 106.669-134.951 140.277 8.998 10.255 22.744 15.13 38.134 15.894 39.679 1.97 53.191-18.481 57.707-30.67 6.62 3.222 14.052 5.034 21.91 5.034 27.684 0 50.125-22.442 50.125-50.125 0-11.212-3.683-21.564-9.903-29.914 1.612-.144 3.206-.363 4.784-.617z" fill="#f8cb3c"/></g></g></g><g><g><g><path d="m349.419 205.718c-22.336 36.561-7.806 84.421 31.086 102.393l20.971 9.691c.604-3.669 47.616-132.959 47.616-132.959l-22.018-16.686-27.111 4.054c-20.977 3.137-39.486 15.407-50.544 33.507z" fill="#b180f0"/></g></g><g><g><path d="m421.562 247.69h45.901l7.276-3.161c-2.121-12.693-7.702-24.211-15.749-33.553 6.648-10.605 10.506-23.139 10.506-36.579 0-4.24-.398-8.385-1.131-12.414l-41.29 6.174c.191 4.847.291 9.718.291 14.613 0 22.162-2.007 43.851-5.804 64.92z" fill="#a070db"/></g></g></g><g><g><g><path d="m469.495 337.529c0-13.44-3.857-25.974-10.506-36.579 10.406-12.08 16.712-27.792 16.712-44.987 0-3.898-.34-7.714-.962-11.434-12.299-6.993-26.406-11.107-41.375-11.372-15.737-.279-46.746 12.93-41.227 54.739 3.29 24.922-15.99 47.381-41.118 48.091-11.654.329-24.822-2.129-38.875-9.634-10.166-5.428-22.061-7.605-34.269-7.9-14.299-.345-27.911 2.845-40.024 8.733v85.313c11.459 5.519 24.305 8.616 37.875 8.616 24.024 0 45.775-9.698 61.567-25.391 11.85-11.775 30.3-13.569 43.917-3.892 8.992 6.39 19.247 11.118 30.314 13.744 32.857-5.275 57.971-33.703 57.971-68.047z" fill="#f29cda"/></g></g><g><g><path d="m475.702 255.962c0-3.898-.34-7.714-.962-11.434-12.299-6.993-26.406-11.107-41.375-11.372-2.82-.05-6.135.343-9.638 1.246-7.883 55.484-28.281 106.937-58.248 151.41 5.511.622 10.923 2.602 15.731 6.019 8.992 6.39 19.247 11.118 30.314 13.744 32.857-5.275 57.971-33.703 57.971-68.047 0-13.441-3.857-25.974-10.506-36.579 10.407-12.079 16.713-27.792 16.713-44.987z" fill="#f07cce"/></g></g></g><g><g><path d="m237.851 102.871v127.672c46.307-4.341 84.434-43.443 84.434-93.004v-75.521z" fill="#f68157"/></g></g><g><g><path d="m346.429 123.62c21.878 0 42.205-6.637 59.08-18.005-.033-.002-.065-.007-.097-.009.851-4.022 1.307-8.189 1.307-12.465 0-33.087-26.822-59.909-59.909-59.909-4.474 0-8.828.506-13.023 1.436-6.107-19.853-24.472-34.336-46.263-34.607-27.319-.341-49.674 22.574-49.674 49.895v52.915c2.818 0 5.61-.11 8.372-.327 18.397-1.443 36.786 1.977 53.327 10.158 14.132 6.99 30.047 10.918 46.88 10.918z" fill="#54afff"/></g></g><g fill="#c9c5cd"><path d="m105.69 381.631c-3.297-2.709-8.166-2.232-10.875 1.065-9.129 11.113-21.963 18.652-36.138 21.228-.382.069-.769.124-1.153.186 3.702.978 7.519 1.673 11.437 2.025-2.899 3.892-5.238 8.223-6.919 12.869 17.532-3.332 33.393-12.719 44.714-26.499 2.709-3.297 2.232-8.165-1.066-10.874z"/><path d="m153.545 429.453c-1.605-3.954-6.112-5.857-10.066-4.252s-5.857 6.112-4.252 10.066c6.588 16.224 2.464 34.768-9.929 46.687.602-.264 1.206-.526 1.795-.813 1.439 3.883 3.796 8.603 7.615 13.17 17.904-16.185 24.042-42.188 14.837-64.858z"/><path d="m66.572 308.891c4.003-1.477 6.051-5.92 4.574-9.923s-5.92-6.051-9.923-4.574c-18.97 7-33.63 6.244-49.022-2.526-.836-.476-1.723-.77-2.62-.912 2.086 3.524 4.473 6.85 7.131 9.936-1.653 2.637-3.133 5.394-4.425 8.254 16.829 7.234 34.295 7.122 54.285-.255z"/><path d="m114.093 128.416c-10.868-17.86-26.275-29.952-44.557-34.968-.182-.05-.366-.091-.548-.139.016 4.196.465 8.29 1.301 12.241-3.563.25-7.048.782-10.441 1.553 1.881.332 3.755.742 5.599 1.248 18.204 4.994 29.323 18.036 35.445 28.098 1.067 1.754 2.72 2.931 4.555 3.434 1.98.543 4.17.301 6.062-.85 3.645-2.219 4.802-6.972 2.584-10.617z"/></g></g><g/><g/><g/><g/><g/><g/><g/><g/><g/><g/><g/><g/><g/><g/><g/></svg>