<svg id="Layer_1" viewBox="0 0 64 64" xmlns="http://www.w3.org/2000/svg" data-name="Layer 1"><path d="m56.5 58.747h3.5v-3.529a7.635 7.635 0 0 0 -3.5 3.529z"/><path d="m8.724 28.584h18.433v11.042h-18.433z"/><path d="m30.985 53.8v-10.435a1 1 0 0 1 1-1h22.125v-37.112h-50.11v50.111h26.985zm3.731-45.112a1 1 0 0 1 1.239.682l2.721 9.372 2.724-9.372a1 1 0 0 1 1.921 0l2.72 9.372 2.72-9.372a1 1 0 1 1 1.921.557l-3.682 12.681a1 1 0 0 1 -1.921 0l-2.721-9.372-2.72 9.372a1 1 0 0 1 -1.921 0l-3.683-12.681a1 1 0 0 1 .682-1.239zm-1.734 17.9h8.651a1 1 0 0 1 0 2h-8.651a1 1 0 0 1 0-2zm0 4.348h17.433a1 1 0 0 1 0 2h-17.433a1 1 0 1 1 0-2zm0 4.347h12.218a1 1 0 0 1 0 2h-12.218a1 1 0 0 1 0-2zm-25.589-25.433a1 1 0 0 1 1.787-.616l7.969 10.193v-9.577a1 1 0 0 1 2 0v12.48a1 1 0 0 1 -1.788.615l-7.968-10.192v9.577a1 1 0 1 1 -2 0zm16.833 41.558h-16.502a1 1 0 0 1 0-2h16.5a1 1 0 0 1 0 2zm-17.502-5.478a1 1 0 0 1 1-1h13.176a1 1 0 0 1 0 2h-13.176a1 1 0 0 1 -1-1zm19.868 1h-1.739a1 1 0 0 1 0-2h1.739a1 1 0 0 1 0 2zm2.565-6.3a1 1 0 0 1 -1 1h-20.433a1 1 0 0 1 -1-1v-13.046a1 1 0 0 1 1-1h20.433a1 1 0 0 1 1 1zm-5.928-17.3a1 1 0 0 1 -1-1v-12.682a1 1 0 0 1 1-1h7.563a1 1 0 0 1 0 2h-6.563v4.341h5.3a1 1 0 0 1 0 2h-5.3v4.341h6.563a1 1 0 0 1 0 2z"/><path d="m36.791 44.365h-3.806v3.66a7.461 7.461 0 0 0 3.806-3.66z"/><path d="m32.985 55.093v3.654h3.805a7.466 7.466 0 0 0 -3.805-3.654z"/><path d="m45.485 50.548h2.015v2.015h-2.015z"/><path d="m54.316 44.365h-15.348a9.466 9.466 0 0 1 -5.983 5.745v2.9a9.468 9.468 0 0 1 5.982 5.738h15.35a9.435 9.435 0 0 1 5.683-5.654v-3.069a9.449 9.449 0 0 1 -5.684-5.66zm-7.823 13.755a6.564 6.564 0 1 1 6.564-6.564 6.572 6.572 0 0 1 -6.564 6.564z"/><path d="m60 47.9v-3.535h-3.5a7.64 7.64 0 0 0 3.5 3.535z"/><path d="m46.493 46.992a4.564 4.564 0 1 0 4.564 4.564 4.569 4.569 0 0 0 -4.564-4.564zm3.007 6.571a1 1 0 0 1 -1 1h-4.015a1 1 0 0 1 -1-1v-4.015a1 1 0 0 1 1-1h4.015a1 1 0 0 1 1 1z"/></svg>