<svg version="1.1" id="Capa_1" xmlns="http://www.w3.org/2000/svg" xmlns:xlink="http://www.w3.org/1999/xlink" x="0px" y="0px" viewBox="0 0 512 512" style="enable-background:new 0 0 512 512;" xml:space="preserve">
<g>
	<path style="fill:#D7F8C4;" d="M205.014,15.623L57.454,63.867c-8.248,2.697-13.828,10.391-13.828,19.069v61.329&#10;&#9;&#9;c0,110.462,46.468,215.828,128.034,290.318l70.811,64.668c7.662,6.997,19.396,6.997,27.058,0l70.811-64.668&#10;&#9;&#9;c81.566-74.49,128.034-179.857,128.034-290.318V82.936c0-8.678-5.579-16.372-13.828-19.069l-147.56-48.244&#10;&#9;&#9;C273.858,4.792,238.142,4.792,205.014,15.623z"/>
	<path style="fill:#BBF49B;" d="M468.37,82.94v61.33c0,110.46-46.46,215.82-128.03,290.31l-70.81,64.67c-7.66,7-19.4,7-27.06,0&#10;&#9;&#9;l-18.31-16.72l38.69-32.16l164.92-345.18V69.153c0-8.377-5.385-15.804-13.347-18.409v0L454.55,63.87&#10;&#9;&#9;C462.79,66.56,468.37,74.26,468.37,82.94z"/>
	<path style="fill:#FEB237;" d="M199.042,404.602C126.077,337.968,84.23,243.079,84.23,144.266v-39.073&#10;&#9;&#9;c0-4.391,2.823-8.284,6.996-9.648l126.406-41.328c12.406-4.056,25.315-6.112,38.367-6.112s25.961,2.056,38.367,6.112&#10;&#9;&#9;l126.406,41.328c4.173,1.364,6.996,5.258,6.996,9.648v39.073c0,98.813-41.847,193.702-114.811,260.336l-50.114,45.766&#10;&#9;&#9;c-3.877,3.54-9.814,3.54-13.691,0L199.042,404.602z"/>
	<path style="fill:#FE9901;" d="M427.77,105.19v39.08c0,98.81-41.85,193.7-114.81,260.33l-50.11,45.77c-3.88,3.54-9.82,3.54-13.7,0&#10;&#9;&#9;l-20.81-19.01l44.62-40.76c72.96-66.63,114.81-161.52,114.81-260.33V91.19c0-2.94-1.27-5.66-3.36-7.53l36.36,11.88&#10;&#9;&#9;C424.95,96.91,427.77,100.8,427.77,105.19z"/>
	<g>
		<g>
			<g>
				<g>
					<g>
						<g>
							<g>
								<g>
									<g>
										<path style="fill:#C4E2FF;" d="M256,93.529c-73.239,0-136.723,41.802-167.866,102.859&#10;&#9;&#9;&#9;&#9;&#9;&#9;&#9;&#9;&#9;&#9;&#9;c11.938,79.492,50.897,153.411,110.909,208.216l50.115,45.76c3.878,3.543,9.806,3.543,13.683,0l50.115-45.76&#10;&#9;&#9;&#9;&#9;&#9;&#9;&#9;&#9;&#9;&#9;&#9;c60.012-54.805,98.972-128.724,110.909-208.216C392.723,135.331,329.239,93.529,256,93.529z"/>
									</g>
								</g>
							</g>
						</g>
					</g>
				</g>
				<path style="fill:#8DCAFC;" d="M256,93.529c-11.066,0-21.906,0.961-32.449,2.791v330.662l25.607,23.382&#10;&#9;&#9;&#9;&#9;&#9;c3.878,3.543,9.806,3.543,13.684,0L256,93.529z"/>
				<path style="fill:#31A7FB;" d="M423.866,196.389c-11.938,79.492-50.897,153.411-110.909,208.216l-50.115,45.76&#10;&#9;&#9;&#9;&#9;&#9;c-1.939,1.776-4.385,2.66-6.842,2.66V93.529C329.239,93.529,392.723,135.331,423.866,196.389z"/>
				<path style="fill:#1C96F9;" d="M387.367,146.913C382.953,239.672,341.813,327.72,272.96,390.6L256,406.093v46.932&#10;&#9;&#9;&#9;&#9;&#9;c2.456,0,4.903-0.883,6.842-2.66l50.115-45.76c60.012-54.805,98.972-128.724,110.909-208.216&#10;&#9;&#9;&#9;&#9;&#9;C414.449,177.927,402.072,161.231,387.367,146.913z"/>
				<path style="fill:#6FD7A3;" d="M299.228,328.851l-4.243-8.538c-1.715-3.451-5.236-5.633-9.09-5.633H256v138.345&#10;&#9;&#9;&#9;&#9;&#9;c2.456,0,4.903-0.883,6.842-2.66l50.115-45.76c13.2-12.054,25.379-25.035,36.478-38.795l-22.005-25.74&#10;&#9;&#9;&#9;&#9;&#9;c-1.574-1.841-3.754-3.058-6.146-3.433l-14.535-2.275C303.497,333.853,300.693,331.798,299.228,328.851z"/>
				<path style="fill:#3EC3A4;" d="M349.43,365.81c-11.09,13.76-23.27,26.74-36.47,38.79l-50.12,45.77&#10;&#9;&#9;&#9;&#9;&#9;c-1.94,1.77-4.38,2.65-6.84,2.65v-46.93l16.96-15.49c17.96-16.41,34.04-34.53,48.07-54l0.25,0.04c2.4,0.37,4.58,1.59,6.15,3.43&#10;&#9;&#9;&#9;&#9;&#9;L349.43,365.81z"/>
				<path style="fill:none;stroke:#000000;stroke-width:15;stroke-linecap:round;stroke-linejoin:round;stroke-miterlimit:10;" d="&#10;&#9;&#9;&#9;&#9;&#9;M349.435,365.81l-22.005-25.74c-1.574-1.841-3.754-3.058-6.146-3.433l-14.535-2.275c-3.252-0.509-6.056-2.563-7.521-5.511&#10;&#9;&#9;&#9;&#9;&#9;l-4.243-8.538c-1.715-3.451-5.236-5.633-9.09-5.633H256"/>
				<path style="fill:#6FD7A3;" d="M423.866,196.389c-6.06,40.33-19.074,79.228-38.269,114.919&#10;&#9;&#9;&#9;&#9;&#9;c-0.487-3.167-1.969-6.111-4.253-8.415l-49.608-49.597c-2.852-2.863-6.73-4.466-10.77-4.466h-10.171&#10;&#9;&#9;&#9;&#9;&#9;c-8.405,0-15.226-6.822-15.226-15.226V210.61c0-4.04,1.604-7.918,4.466-10.77l22.779-22.789c2.863-2.863,6.73-4.466,10.78-4.466&#10;&#9;&#9;&#9;&#9;&#9;h23.104c4.05,0,7.918-1.604,10.78-4.456l20.556-20.556C402.447,161.733,414.588,178.209,423.866,196.389z"/>
				<path style="fill:#3EC3A4;" d="M423.87,196.39c-6.06,40.33-19.08,79.23-38.27,114.92c-0.49-3.17-1.97-6.11-4.26-8.42&#10;&#9;&#9;&#9;&#9;&#9;l-25.72-25.72c18.46-40.28,29.36-84.01,31.68-128.87l0.73-0.73C402.45,161.73,414.59,178.21,423.87,196.39z"/>
				<path style="fill:none;stroke:#000000;stroke-width:15;stroke-linecap:round;stroke-linejoin:round;stroke-miterlimit:10;" d="&#10;&#9;&#9;&#9;&#9;&#9;M381.344,302.892l-49.608-49.597c-2.852-2.863-6.73-4.466-10.77-4.466h-10.171c-8.405,0-15.226-6.822-15.226-15.226V210.61&#10;&#9;&#9;&#9;&#9;&#9;c0-4.04,1.604-7.918,4.466-10.77l22.779-22.789c2.863-2.863,6.73-4.466,10.78-4.466h23.104c4.05,0,7.918-1.604,10.78-4.456&#10;&#9;&#9;&#9;&#9;&#9;l20.556-20.556"/>
				<g>
					<g>
						<g>
							<g>
								<g>
									<g>
										
											<path style="fill:none;stroke:#000000;stroke-width:15;stroke-linecap:round;stroke-linejoin:round;stroke-miterlimit:10;" d="&#10;&#9;&#9;&#9;&#9;&#9;&#9;&#9;&#9;&#9;&#9;&#9;M423.87,196.387C392.721,135.334,329.244,93.528,256,93.528S119.279,135.334,88.13,196.387 M423.87,196.387&#10;&#9;&#9;&#9;&#9;&#9;&#9;&#9;&#9;&#9;&#9;&#9; M444.34,281.868"/>
									</g>
								</g>
							</g>
						</g>
					</g>
				</g>
				<g>
					<g>
						<g>
							<g>
								<g>
									<g>
										
											<path style="fill:none;stroke:#000000;stroke-width:15;stroke-linecap:round;stroke-linejoin:round;stroke-miterlimit:10;" d="&#10;&#9;&#9;&#9;&#9;&#9;&#9;&#9;&#9;&#9;&#9;&#9;M256,372.907c-26.775,0-52.521,3.467-76.556,9.862"/>
									</g>
								</g>
							</g>
						</g>
					</g>
				</g>
				<g>
					<g>
						<g>
							<g>
								<g>
									<g>
										
											<path style="fill:none;stroke:#000000;stroke-width:15;stroke-linecap:round;stroke-linejoin:round;stroke-miterlimit:10;" d="&#10;&#9;&#9;&#9;&#9;&#9;&#9;&#9;&#9;&#9;&#9;&#9;M116.418,155.428C155.696,177.702,203.9,190.831,256,190.831"/>
									</g>
								</g>
							</g>
						</g>
					</g>
				</g>
				<g>
					<g>
						<g>
							<g>
								<g>
									<g>
										
											<path style="fill:none;stroke:#000000;stroke-width:15;stroke-linecap:round;stroke-linejoin:round;stroke-miterlimit:10;" d="&#10;&#9;&#9;&#9;&#9;&#9;&#9;&#9;&#9;&#9;&#9;&#9;M256,93.528c-61.261,22.351-106.355,98.195-106.355,188.34c0,28.107,4.384,54.823,12.275,78.961"/>
										
											<line style="fill:none;stroke:#000000;stroke-width:15;stroke-linecap:round;stroke-linejoin:round;stroke-miterlimit:10;" x1="256" y1="453.025" x2="256" y2="93.528"/>
									</g>
								</g>
							</g>
						</g>
					</g>
				</g>
			</g>
			
				<line style="fill:none;stroke:#000000;stroke-width:15;stroke-linecap:round;stroke-linejoin:round;stroke-miterlimit:10;" x1="113.605" y1="281.868" x2="256" y2="281.868"/>
		</g>
	</g>
	<path style="fill:none;stroke:#000000;stroke-width:15;stroke-linecap:round;stroke-linejoin:round;stroke-miterlimit:10;" d="&#10;&#9;&#9;M338.05,68.499l-43.683-14.282c-12.406-4.057-25.315-6.112-38.367-6.112c-13.052,0-25.961,2.056-38.367,6.112L91.227,95.545&#10;&#9;&#9;c-4.173,1.365-6.996,5.258-6.996,9.648v39.073c0,98.813,41.847,193.702,114.812,260.336l50.113,45.766&#10;&#9;&#9;c3.877,3.541,9.814,3.541,13.691,0l50.114-45.766c72.964-66.633,114.811-161.523,114.811-260.336v-39.073&#10;&#9;&#9;c0-4.391-2.823-8.284-6.996-9.648l-51.688-16.899"/>
	<path style="fill:none;stroke:#000000;stroke-width:15;stroke-linecap:round;stroke-linejoin:round;stroke-miterlimit:10;" d="&#10;&#9;&#9;M113.484,367.98c16.685,24.114,36.147,46.487,58.176,66.604l70.811,64.668c7.662,6.997,19.396,6.997,27.058,0l70.811-64.668&#10;&#9;&#9;c81.566-74.49,128.034-179.857,128.034-290.318V82.936c0-8.678-5.579-16.372-13.828-19.069l-147.56-48.244&#10;&#9;&#9;c-33.128-10.831-68.844-10.831-101.971,0L57.454,63.867c-8.248,2.697-13.828,10.391-13.828,19.069v61.329&#10;&#9;&#9;c0,69.537,18.421,137.052,52.413,196.119"/>
</g>
<g>
</g>
<g>
</g>
<g>
</g>
<g>
</g>
<g>
</g>
<g>
</g>
<g>
</g>
<g>
</g>
<g>
</g>
<g>
</g>
<g>
</g>
<g>
</g>
<g>
</g>
<g>
</g>
<g>
</g>
</svg>