<svg id="Layer_1" enable-background="new 0 0 500 500" viewBox="0 0 500 500" xmlns="http://www.w3.org/2000/svg"><g clip-rule="evenodd" fill-rule="evenodd"><path d="m77.559 170.642c-12.427 0-22.502 10.074-22.502 22.501 0 12.428 10.074 22.502 22.502 22.502 12.427 0 22.501-10.074 22.501-22.502 0-12.427-10.074-22.501-22.501-22.501z" fill="#f0b16e"/><path d="m116.937 255.023c0-21.658-17.72-39.378-39.378-39.378s-39.378 17.72-39.378 39.378v143.119h78.756c0-33.775 0-109.343 0-143.119z" fill="#19cfba"/><path d="m80.839 248.555h-6.559c-4.746 0-8.629 3.883-8.629 8.629v24.854c0 4.746 3.883 8.629 8.629 8.629h6.559c4.746 0 8.629-3.883 8.629-8.629v-24.854c0-4.746-3.883-8.629-8.629-8.629z" fill="#ffbf31"/><path d="m156.314 129.105c12.427 0 22.502 10.074 22.502 22.501 0 12.428-10.074 22.502-22.502 22.502-12.427 0-22.502-10.074-22.502-22.502.001-12.427 10.075-22.501 22.502-22.501z" fill="#f0b16e"/><path d="m116.936 213.486c0-21.658 17.719-39.378 39.378-39.378h33.087c2.524 0 19.19-13.999 19.19-16.523v-48.595c0-6.459 5.285-11.743 11.743-11.743 2.482 0 6.283 2.858 8.185 6.129 3.047 5.243 3.559 12.333 3.559 16.31v42.406c0 30.533-36.386 39.96-36.386 58.276v136.238h-78.756c0-33.776 0-109.344 0-143.12z" fill="#19cfba"/><path d="m153.072 207.261h6.484c4.691 0 8.529 3.838 8.529 8.529v24.567c0 4.691-3.838 8.53-8.529 8.53h-6.484c-4.691 0-8.529-3.838-8.529-8.53v-24.567c0-4.691 3.838-8.529 8.529-8.529z" fill="#ffbf31"/><path d="m219.98 446.418c.418-1.771.64-3.617.64-5.513v-184.998l-182.44 93.737v96.774z" fill="#fa6e85"/><path d="m422.419 170.642c12.427 0 22.502 10.074 22.502 22.501 0 12.428-10.074 22.502-22.502 22.502-12.427 0-22.501-10.074-22.501-22.502-.001-12.427 10.074-22.501 22.501-22.501z" fill="#f0b16e"/><path d="m383.041 255.023c0-21.658 17.72-39.378 39.378-39.378s39.378 17.72 39.378 39.378v143.119h-78.756c0-33.775 0-109.343 0-143.119z" fill="#19cfba"/><path d="m419.139 248.555h6.559c4.746 0 8.63 3.883 8.63 8.629v24.854c0 4.746-3.883 8.629-8.63 8.629h-6.559c-4.746 0-8.629-3.883-8.629-8.629v-24.854c0-4.746 3.882-8.629 8.629-8.629z" fill="#ffbf31"/><path d="m343.663 129.105c-12.427 0-22.502 10.074-22.502 22.501 0 12.428 10.074 22.502 22.502 22.502 12.427 0 22.501-10.074 22.501-22.502.001-12.427-10.074-22.501-22.501-22.501z" fill="#f0b16e"/><path d="m383.041 213.486c0-21.658-17.719-39.378-39.378-39.378h-18.479c-9.784 0-41.45 26.511-56.072 33.808l-43.321 8.606c-6.462 1.284 6.462 20.607 12.123 19.993l45.069-4.888 21.302-8.772v133.75h78.756c0-33.775 0-109.343 0-143.119z" fill="#19cfba"/><path d="m346.905 207.261h-6.484c-4.691 0-8.529 3.838-8.529 8.529v24.567c0 4.691 3.838 8.53 8.529 8.53h6.484c4.691 0 8.529-3.838 8.529-8.53v-24.567c.001-4.691-3.837-8.529-8.529-8.529z" fill="#ffbf31"/><path d="m279.997 446.418c-.418-1.771-.64-3.617-.64-5.513v-184.998l182.44 93.737v96.774z" fill="#60b7fe"/><path d="m74.658 53.581h91.949v52.104h-63.088l-28.861 41.887z" fill="#ffbf31"/><path d="m286.907 53.581h91.949v52.104h-63.088l-28.861 41.887z" fill="#ffbf31"/><path d="m318.007 85.289h-11.318v-13.237h11.318zm20.517 0h-11.318v-13.237h11.318zm20.566 0h-11.318v-13.237h11.318zm-253.388 0h-11.318v-13.237h11.318zm41.084 0h-11.318v-13.237h11.318zm-20.566 0h-11.27v-13.237h11.27zm167.32-25.091v66.103l16.761-24.368c1.252-1.801 3.275-2.869 5.491-2.869h56.447v-38.866zm-8.621 93.699c2.846.82 5.763-.137 7.465-2.568l26.875-39.026h59.578c3.66 0 6.647-2.965 6.647-6.618v-52.105c0-3.653-2.986-6.62-6.647-6.62h-91.944c-3.66 0-6.598 2.967-6.598 6.62v93.99c0 2.903 1.878 5.462 4.624 6.327zm-203.635-93.699v66.103l16.809-24.368c1.204-1.801 3.275-2.869 5.443-2.869h56.447v-38.866zm-8.573 93.699c2.738.849 5.74-.173 7.417-2.568l26.875-39.026h59.626c3.612 0 6.598-2.965 6.598-6.618v-52.105c0-3.653-2.986-6.62-6.598-6.62h-91.992c-3.612 0-6.598 2.967-6.598 6.62v93.99c0 2.903 1.878 5.462 4.672 6.327zm382.465 285.906h-169.198v-173.057l54.521 28.022v.007l114.677 58.91zm-106.345-199.443c0 1.031-.867 1.906-1.926 1.906h-6.502c-1.011 0-1.878-.875-1.878-1.906v-24.571c0-1.032.867-1.906 1.878-1.906h6.502c1.06 0 1.926.873 1.926 1.906zm-40.842-23c1.83 1.227 2.938 3.292 2.938 5.497v41.815l26.105 13.431v-22.988c-6.695-1.545-11.752-7.563-11.752-14.756v-24.571c0-8.348 6.791-15.143 15.123-15.143h6.502c8.332 0 15.172 6.795 15.172 15.143v24.571c0 7.193-5.057 13.211-11.8 14.756v29.793l26.153 13.433v-84.856c0-18.067-14.689-32.76-32.799-32.76h-18.447c-7.117.244-47.559 32.257-54.762 33.686l-38.483 7.644c1.638 2.946 4.479 6.592 6.309 7.766l43.106-4.669 20.421-8.419c2.023-.839 4.384-.609 6.214.627zm35.689-81.635c8.766 0 15.894 7.123 15.894 15.886 0 8.758-7.135 15.882-15.942 15.877-8.718-.009-15.846-7.131-15.846-15.877 0-8.763 7.128-15.886 15.894-15.886zm84.045 146.317v-24.853c0-1.095-.915-2.013-2.023-2.013h-6.55c-1.108 0-2.023.918-2.023 2.013v24.853c0 1.086.915 2.011 2.023 2.011h6.55c1.108 0 2.023-.925 2.023-2.011zm-5.298-59.775c-18.061 0-32.751 14.693-32.751 32.76v50.111l26.105 13.432v-21.657c-6.791-1.538-11.896-7.618-11.896-14.87v-24.853c0-8.41 6.839-15.25 15.268-15.25h6.55c8.38 0 15.268 6.841 15.268 15.25v24.853c0 7.252-5.105 13.333-11.944 14.87v28.462l26.153 13.431v-83.778c-.002-18.068-14.692-32.761-32.753-32.761zm-15.894-29.124c0-8.754 7.128-15.877 15.894-15.877s15.894 7.123 15.894 15.877c0 8.756-7.128 15.886-15.894 15.886s-15.894-7.13-15.894-15.886zm36.363 20.705c15.123 7.537 25.527 23.158 25.527 41.179v191.395c0 3.654-2.986 6.619-6.647 6.619h-181.768c-3.082 0-5.731-2.109-6.454-5.1-.53-2.295-.819-4.67-.819-7.034v-184.998c0-4.925 5.268-8.148 9.633-5.887l15.316 7.855v-25.135l-12.185 5.004c-.578.239-1.156.397-1.782.459l-45.081 4.89c-9.825 1.059-19.988-15.198-21.096-22.171-.963-6.346 2.938-10.095 6.984-10.889l42.384-8.429c5.346-2.824 13.438-8.455 21.288-13.918 14.257-9.937 24.371-16.803 31.74-19.22-13.672-19.334.177-45.981 23.745-45.981 16.038 0 29.091 13.062 29.091 29.123 0 8.084-3.323 15.408-8.669 20.695 15.123 7.546 25.574 23.167 25.574 41.18v9.292c3.564-3.618 7.706-6.645 12.282-8.931-5.346-5.287-8.669-12.611-8.669-20.705 0-16.052 13.1-29.114 29.139-29.114 16.038 0 29.139 13.062 29.139 29.114-.002 8.095-3.325 15.42-8.672 20.707zm-228.872 225.955h-169.198v-86.118l169.198-86.939zm-131.197-157.761v-24.853c0-1.095-.915-2.013-1.975-2.013h-6.55c-1.108 0-2.023.918-2.023 2.013v24.853c0 1.086.915 2.011 2.023 2.011h6.55c1.06 0 1.975-.925 1.975-2.011zm-5.25-59.775c-18.061 0-32.751 14.693-32.751 32.76v83.778l26.104-13.431v-28.462c-6.791-1.538-11.896-7.618-11.896-14.87v-24.853c0-8.41 6.839-15.25 15.268-15.25h6.55c8.381 0 15.22 6.841 15.22 15.25v24.853c0 7.252-5.105 13.333-11.896 14.87v21.657l26.153-13.432v-50.111c-.001-18.066-14.69-32.759-32.752-32.759zm0-45.001c8.718 0 15.894 7.123 15.894 15.877 0 8.756-7.176 15.886-15.894 15.886-8.766 0-15.894-7.131-15.894-15.886 0-8.754 7.128-15.877 15.894-15.877zm83.901 63.094c0 1.031-.867 1.906-1.927 1.906h-6.502c-1.011 0-1.878-.875-1.878-1.906v-24.571c0-1.032.867-1.906 1.878-1.906h6.502c1.06 0 1.927.873 1.927 1.906zm-37.905-26.874c0-18.067 14.689-32.76 32.799-32.76h33.04c1.734 0 4.383 0 14.834-8.895 10.163-8.642 10.981-11.561 10.981-14.244v-48.592c0-2.683 2.071-4.89 4.672-5.11.723.361 2.119 1.473 2.89 2.814 1.686 2.912 2.649 7.652 2.649 12.991v42.406c0 27.276-36.363 35.512-36.363 58.274v44.303l-26.153 13.431v-22.988c6.743-1.545 11.8-7.563 11.8-14.756v-24.571c0-8.348-6.839-15.143-15.172-15.143h-6.502c-8.332 0-15.123 6.795-15.123 15.143v24.571c0 7.193 5.057 13.211 11.752 14.756v29.793l-26.105 13.433v-84.856zm16.857-61.875c0-8.763 7.128-15.886 15.894-15.886s15.894 7.123 15.894 15.886c0 8.746-7.128 15.868-15.894 15.877-8.765-.009-15.894-7.13-15.894-15.877zm83.66 98.651c1.927 1.2 3.131 3.335 3.131 5.648v184.996c0 2.365-.241 4.739-.771 7.034-.722 2.992-3.371 5.1-6.454 5.1h-181.817c-3.66 0-6.598-2.965-6.598-6.619v-191.394c0-18.022 10.403-33.643 25.527-41.179-5.346-5.287-8.67-12.611-8.67-20.705 0-16.052 13.052-29.114 29.139-29.114 16.038 0 29.091 13.062 29.091 29.114 0 8.093-3.323 15.418-8.67 20.705 4.624 2.286 8.766 5.313 12.33 8.931v-9.292c0-18.012 10.403-33.633 25.527-41.18-5.346-5.287-8.67-12.611-8.67-20.695 0-16.061 13.052-29.123 29.139-29.123 23.154 0 36.888 25.835 24.371 45h7.465c3.179-1.889 11.174-8.668 13.823-11.676v-46.818c0-10.131 8.236-18.366 18.35-18.366 5.539 0 11.174 4.739 13.919 9.426 3.853 6.662 4.431 15.162 4.431 19.636v42.406c0 33.01-36.363 45.165-36.363 58.274v37.507l15.268-7.855c2.071-1.06 4.527-.962 6.502.239z" fill="#1e2f3f"/></g></svg>