<svg id="Capa_1" enable-background="new 0 0 512 512" viewBox="0 0 512 512" xmlns="http://www.w3.org/2000/svg"><g><g><g><path d="m283.425 330.505h168.491c12.4 0 22.452 10.052 22.452 22.452v108.233c0 12.4-10.052 22.452-22.452 22.452h-106.722c-.219 0-.421.117-.53.306l-10.096 17.487c-3.984 6.9-13.944 6.9-17.927 0l-10.096-17.487c-.109-.189-.311-.306-.53-.306h-22.59c-12.4 0-22.452-10.052-22.452-22.452v-108.232c-.001-12.401 10.052-22.453 22.452-22.453z" fill="#b180f0"/></g></g><path d="m451.915 330.505h-.217c.435 1.746.67 3.571.67 5.451v108.232c0 12.4-10.052 22.452-22.453 22.452h-168.273c2.436 9.765 11.263 17.001 21.782 17.001h22.59c.219 0 .421.116.53.306l10.096 17.487c3.984 6.9 13.943 6.9 17.927 0l10.096-17.487c.109-.189.311-.306.53-.306h106.721c12.4 0 22.453-10.052 22.453-22.453v-108.23c.001-12.401-10.052-22.453-22.452-22.453z" fill="#a070db"/><g><g><path d="m279.254 174.324h-246.417c-18.136 0-32.837 14.701-32.837 32.836v158.289c0 18.135 14.702 32.837 32.837 32.837h38.575c.219 0 .421.117.53.306l18.993 32.897c3.984 6.9 13.944 6.9 17.927 0l18.993-32.897c.109-.189.311-.306.53-.306h150.257c18.473 0 33.449-14.975 33.449-33.449v-157.677c0-18.135-14.702-32.836-32.837-32.836z" fill="#7ebfff"/></g></g><path d="m281.97 174.444c.073.896.121 1.799.121 2.714v157.677c0 18.473-14.975 33.449-33.448 33.449 0 0-150.677.117-150.787.306l-95.019-.306c-.916 0-1.82-.047-2.716-.121 1.381 16.864 15.496 30.123 32.716 30.123h38.575c.219 0 .42.117.53.306l18.993 32.897c3.984 6.9 13.944 6.9 17.927 0l18.993-32.897c.109-.189.311-.306.53-.306h150.257c18.473 0 33.448-14.975 33.448-33.448v-157.678c.001-17.219-13.257-31.334-30.12-32.716z" fill="#54afff"/><g><g><path d="m96.854 34.726 10.024 16.191c.565.912 1.465 1.566 2.507 1.822l18.497 4.53c2.954.723 4.116 4.3 2.151 6.622l-12.301 14.537c-.693.819-1.037 1.877-.958 2.947l1.408 18.991c.225 3.033-2.818 5.243-5.633 4.092l-17.627-7.207c-.993-.406-2.106-.406-3.099 0l-17.627 7.207c-2.815 1.151-5.857-1.06-5.633-4.092l1.408-18.991c.079-1.07-.265-2.128-.958-2.947l-12.3-14.537c-1.964-2.321-.802-5.898 2.151-6.622l18.497-4.53c1.042-.255 1.942-.909 2.507-1.822l10.024-16.191c1.6-2.585 5.361-2.585 6.962 0z" fill="#f8cb3c"/></g></g><g><g><path d="m477.849 296.108 10.024 16.191c.565.912 1.465 1.566 2.507 1.822l18.497 4.53c2.954.723 4.116 4.3 2.151 6.622l-12.301 14.537c-.693.819-1.037 1.877-.958 2.947l1.408 18.991c.225 3.033-2.818 5.243-5.633 4.092l-17.627-7.207c-.993-.406-2.106-.406-3.099 0l-17.627 7.207c-2.815 1.151-5.857-1.06-5.633-4.092l1.408-18.991c.079-1.07-.265-2.128-.958-2.947l-12.301-14.537c-1.964-2.321-.802-5.898 2.151-6.622l18.497-4.53c1.042-.255 1.942-.909 2.507-1.822l10.024-16.191c1.601-2.586 5.362-2.586 6.963 0z" fill="#f5bb2a"/></g></g><g><g><path d="m382.453 5.39h-100.409c-58.454 0-105.841 47.386-105.841 105.841 0 58.454 47.386 105.841 105.841 105.841h.612c.219 0 .421.117.53.306l18.993 32.897c3.984 6.9 13.944 6.9 17.927 0l18.993-32.897c.109-.189.311-.306.53-.306h42.825c58.454 0 105.84-47.386 105.84-105.84 0-58.456-47.387-105.842-105.841-105.842z" fill="#f5b6e6"/></g></g><path d="m425.257 14.41c20.346 19.288 33.037 46.571 33.037 76.82 0 58.454-47.386 105.84-105.84 105.84 0 0-99.579 0-99.798 0h-.612c-15.235 0-29.715-3.225-42.804-9.02 18.972 17.986 44.598 29.021 72.804 29.021h.612c.219 0 .421.117.53.306l18.993 32.897c3.984 6.9 13.944 6.9 17.927 0l18.993-32.897c.109-.189.311-.306.53-.306h42.825c58.454 0 105.84-47.386 105.84-105.84 0-43.22-25.908-80.382-63.037-96.821z" fill="#f29cda"/><g><g><path d="m350.759 52.895h-43.555c-2.931 0-5.518 1.915-6.374 4.718l-19.17 62.768c-1.308 4.283 1.896 8.612 6.374 8.612h40.9c4.209 0 7.365 3.854 6.534 7.98l-6.163 30.62c-1.478 7.346 8.417 11.165 12.257 4.731l40.62-68.049c2.652-4.443-.549-10.081-5.723-10.081h-21.225c-4.576 0-7.791-4.506-6.303-8.834l8.131-23.633c1.488-4.326-1.727-8.832-6.303-8.832z" fill="#eef7ff"/></g></g><path d="m186.774 462.886h-7.121v-7.12c0-4.267-3.459-7.726-7.726-7.726s-7.726 3.459-7.726 7.726v7.12h-7.121c-4.268 0-7.726 3.459-7.726 7.726s3.459 7.726 7.726 7.726h7.121v7.121c0 4.267 3.459 7.726 7.726 7.726s7.726-3.459 7.726-7.726v-7.121h7.121c4.268 0 7.726-3.459 7.726-7.726.001-4.267-3.458-7.726-7.726-7.726z" fill="#f29cda"/><g><g><path d="m419.894 373.876h-55.144c-4.268 0-7.726-3.459-7.726-7.726s3.459-7.726 7.726-7.726h55.144c4.268 0 7.726 3.459 7.726 7.726s-3.458 7.726-7.726 7.726z" fill="#eef7ff"/></g></g><g><g><path d="m419.894 412.532h-81.784c-4.268 0-7.726-3.459-7.726-7.726s3.459-7.726 7.726-7.726h81.784c4.268 0 7.726 3.459 7.726 7.726 0 4.266-3.458 7.726-7.726 7.726z" fill="#eef7ff"/></g></g><g><g><path d="m419.894 451.188h-110.63c-4.268 0-7.726-3.459-7.726-7.726s3.459-7.726 7.726-7.726h110.63c4.268 0 7.726 3.459 7.726 7.726 0 4.266-3.458 7.726-7.726 7.726z" fill="#eef7ff"/></g></g><g><g><path d="m102.554 344.251c-.234 0-.469-.003-.704-.007-17.953-.362-32.745-14.682-33.675-32.602-.495-9.541 2.849-18.605 9.415-25.521 4.672-4.921 10.711-8.326 17.241-9.842v-12.709c0-4.267 3.459-7.726 7.726-7.726 4.268 0 7.726 3.459 7.726 7.726v19.548c0 4.267-3.459 7.726-7.726 7.726-5.252 0-10.139 2.101-13.762 5.917-3.62 3.812-5.463 8.813-5.189 14.08.512 9.868 8.663 17.754 18.555 17.953.13.003.259.004.388.004 9.447 0 17.493-6.953 18.801-16.32.122-.872.183-1.765.183-2.657 0-4.267 3.459-7.726 7.726-7.726 4.268 0 7.726 3.459 7.726 7.726 0 1.605-.112 3.217-.332 4.794-2.373 17.01-16.967 29.636-34.099 29.636z" fill="#eef7ff"/></g></g><g><g><path d="m102.561 246.472c-9.081.225-10.463-13.747-1.513-15.298 10.797-2.188 12.536 15.319 1.513 15.298z" fill="#eef7ff"/></g></g><g><g><path d="m193.241 319.428c-4.268 0-7.726-3.459-7.726-7.726v-19.548c0-4.267 3.459-7.726 7.726-7.726 5.252 0 10.138-2.101 13.761-5.917 3.62-3.812 5.463-8.813 5.189-14.08-.512-9.868-8.662-17.754-18.555-17.953-9.608-.188-17.863 6.82-19.188 16.315-.122.872-.183 1.766-.183 2.657 0 4.267-3.459 7.726-7.726 7.726-4.268 0-7.726-3.459-7.726-7.726 0-1.605.112-3.217.332-4.794 2.406-17.242 17.351-29.972 34.804-29.629 17.953.362 32.745 14.682 33.676 32.602.495 9.542-2.849 18.605-9.415 25.521-4.672 4.921-10.71 8.326-17.24 9.842v12.709c-.003 4.267-3.461 7.727-7.729 7.727z" fill="#eef7ff"/></g></g><g><g><path d="m193.238 344.246c-9.081.224-10.452-13.743-1.503-15.298 10.802-2.18 12.529 15.343 1.503 15.298z" fill="#eef7ff"/></g></g></g><g/><g/><g/><g/><g/><g/><g/><g/><g/><g/><g/><g/><g/><g/><g/></svg>