<svg version="1.1" id="Capa_1" xmlns="http://www.w3.org/2000/svg" xmlns:xlink="http://www.w3.org/1999/xlink" x="0px" y="0px" viewBox="0 0 512 512" style="enable-background:new 0 0 512 512;" xml:space="preserve">
<g>
	<g>
		<g>
			<g>
				<path style="fill:#DF8A57;" d="M219.515,286.752l17.775,116.893H75.836c-32.974,0-59.704-26.731-59.704-59.704v-59.729&#10;&#9;&#9;&#9;&#9;&#9;L219.515,286.752z"/>
				<path style="fill:#FFCBBE;" d="M7.5,300.071c0-11.065,10.067-20.035,22.485-20.035c4.593,0,11.93-2.106,15.489,0&#10;&#9;&#9;&#9;&#9;&#9;c6.064,3.588,6.996,13.062,6.996,20.035c0,11.065-10.067,20.035-22.485,20.035S7.5,311.136,7.5,300.071z"/>
				<path style="fill:#FFDDCF;" d="M213.07,296.92c0,33.97-24.68,62.81-58.93,73.07c-57.03-2.36-72.537-39.1-72.537-73.07&#10;&#9;&#9;&#9;&#9;&#9;c0-33.98,24.885-66.072,72.537-73.07C188.39,234.1,213.07,262.94,213.07,296.92z"/>
				<path style="fill:#FFCBBE;" d="M154.14,369.99c-8.65,2.59-17.93,4-27.57,4c-47.77,0-86.49-34.51-86.49-77.07&#10;&#9;&#9;&#9;&#9;&#9;c0-42.57,38.72-77.07,86.49-77.07c9.64,0,18.92,1.41,27.57,4c-34.26,10.25-58.93,39.09-58.93,73.07&#10;&#9;&#9;&#9;&#9;&#9;C95.21,330.89,119.88,359.74,154.14,369.99z"/>
				<path style="fill:#EAAA83;" d="M237.4,280v73.54h-32.61v-66.23c0-5.03-3.61-9.32-8.56-10.2c-15.37-2.72-42.38-9.38-62.31-18.13&#10;&#9;&#9;&#9;&#9;&#9;c-27.432-19.837-27.188-68.06,10.32-68.06C193.58,198.27,237.4,235.35,237.4,280z"/>
				<path style="fill:#DF8A57;" d="M133.92,258.98c-7.21-3.172-13.49-6.613-17.966-10.237c-0.87-0.705-2.142,0.113-1.883,1.202&#10;&#9;&#9;&#9;&#9;&#9;c1.434,6.02,3.862,18.033,2.999,27.375c-0.14,1.49-1.49,2.57-2.97,2.3c-14.1-2.57-33.43-11.06-43.05-28.1&#10;&#9;&#9;&#9;&#9;&#9;c-13.26,5.81-24.7,15.81-29.38,30.73c0,0-17.23,1.95-25.43,1.96c-2.97-52.2,52.78-94.51,110.33-94.61&#10;&#9;&#9;&#9;&#9;&#9;c5.92,0,11.84,0.45,17.67,1.32C115.61,198.88,118.99,240.86,133.92,258.98z"/>
			</g>
			<g>
				<path style="fill:#C8866A;" d="M459.53,302.344c0-7.141,2.879-19.716,8.14-23.799c3.816-2.961,9.124,1.492,14.345,1.492&#10;&#9;&#9;&#9;&#9;&#9;c5.17,0,9.945,1.266,13.743,4.176c5.325,4.079,8.742,10.94,8.742,18.132c0,12.32-10.067,22.308-22.485,22.308&#10;&#9;&#9;&#9;&#9;&#9;C469.597,324.651,459.53,314.664,459.53,302.344z"/>
				<path style="fill:#C8866A;" d="M265.968,302.344c0-7.17,3.443-14.051,8.741-18.132c3.806-2.931,8.553-4.176,13.744-4.176&#10;&#9;&#9;&#9;&#9;&#9;c5.596,0,11.517-3.356,15.452,0c4.797,4.091,7.033,15.539,7.033,22.308c0,8.083,6.488,28.436,0,32.349&#10;&#9;&#9;&#9;&#9;&#9;c-3.401,2.051-21.621-8.396-22.498-9.962C276.021,324.731,265.968,314.664,265.968,302.344z"/>
				<path style="fill:#DB9E82;" d="M471.54,296.92c0,34.33-25.2,63.42-60.02,73.38c-47.886-2.885-72.039-39.05-72.039-73.38&#10;&#9;&#9;&#9;&#9;&#9;c0-34.34,23.909-69.488,72.039-73.38C446.34,233.49,471.54,262.58,471.54,296.92z"/>
				<path style="fill:#C8866A;" d="M411.52,370.3c-8.35,2.4-17.24,3.69-26.48,3.69c-47.77,0-86.5-34.51-86.5-77.07&#10;&#9;&#9;&#9;&#9;&#9;c0-42.57,38.73-77.07,86.5-77.07c9.24,0,18.13,1.29,26.48,3.69c-34.82,9.95-60.01,39.04-60.01,73.38&#10;&#9;&#9;&#9;&#9;&#9;C351.51,331.25,376.7,360.34,411.52,370.3z"/>
				<path style="fill:#7B849B;" d="M495.76,284.21c-5.82-0.01-20.64-0.71-25.79-1.96c-6.96-19.86-25.88-31.27-45.17-35.15&#10;&#9;&#9;&#9;&#9;&#9;c0.19,5.78-1.67,12.7-5.64,19.26c-7.59,12.54-19.93,18.97-27.56,14.36c-4.52-2.74-6.35-8.75-5.53-15.8&#10;&#9;&#9;&#9;&#9;&#9;c-22.436-6.991-27.071-66.033,15.38-74.16C452.79,197.88,498.46,236.99,495.76,284.21z"/>
				<path style="fill:#5D6A85;" d="M386.07,264.92c-10.24,10.39-23.64,13.79-29.99,7.58c-5.79-5.67-3.71-17.37,4.41-27.33&#10;&#9;&#9;&#9;&#9;&#9;c-23.21-0.09-52.14,10.92-60.36,37.08c0,0-17.23,1.95-25.42,1.96c-2.98-52.2,52.77-94.51,110.33-94.61&#10;&#9;&#9;&#9;&#9;&#9;c5.5,0.01,10.99,0.41,16.41,1.16C372.3,209.36,375.93,255.89,386.07,264.92z"/>
			</g>
		</g>
		<g>
			<path style="fill:#FFBD86;" d="M330.296,430.58c0-6.143,2.578-16.36,7.464-20.035c3.914-2.944,9.497,0,15.021,0&#10;&#9;&#9;&#9;&#9;c12.418,0,22.485,8.97,22.485,20.035s-10.067,20.035-22.485,20.035C340.363,450.615,330.296,441.645,330.296,430.58z"/>
			<path style="fill:#FFBD86;" d="M136.734,430.58c0-11.065,10.067-20.035,22.485-20.035c5.172,0,12.965-3.506,16.764-0.89&#10;&#9;&#9;&#9;&#9;c5.322,3.664,5.721,14.469,5.721,20.925c0,11.065-10.067,20.035-22.485,20.035C146.801,450.615,136.734,441.645,136.734,430.58z"/>
			<path style="fill:#FED2A4;" d="M342.3,427.43c0,34.41-25.31,63.55-60.24,73.45c-50.679-2.135-73.83-39.04-73.83-73.45&#10;&#9;&#9;&#9;&#9;c0-34.42,28.423-66.902,73.83-73.46C316.99,363.87,342.3,393.01,342.3,427.43z"/>
			<path style="fill:#FFBD86;" d="M282.06,500.88c-8.28,2.35-17.1,3.62-26.25,3.62c-47.77,0-86.5-34.51-86.5-77.07&#10;&#9;&#9;&#9;&#9;c0-42.57,38.73-77.07,86.5-77.07c9.15,0,17.97,1.27,26.25,3.61c-34.94,9.9-60.25,39.04-60.25,73.46&#10;&#9;&#9;&#9;&#9;C221.81,461.84,247.12,490.98,282.06,500.88z"/>
			<path style="fill:#7B849B;" d="M366.52,414.72c-5.81-0.01-20.63-0.72-25.78-1.96c-9.06-25.85-38.39-37.4-62.42-36.61&#10;&#9;&#9;&#9;&#9;c-9.11,7.48-19.26,13.49-30.01,18.32c-35.24-4.144-42.143-59.511-2.37-73.93c3.28-0.28,6.57-0.42,9.87-0.43&#10;&#9;&#9;&#9;&#9;C313.36,320.21,369.51,362.51,366.52,414.72z"/>
			<path style="fill:#5D6A85;" d="M248.31,394.47c-32.77,14.74-71.17,18.57-102.83,20.25c-2.81-49.21,46.57-89.63,100.46-94.18&#10;&#9;&#9;&#9;&#9;C217.6,342.48,225.07,379.98,248.31,394.47z"/>
		</g>
		<g>
			<path style="fill:#E8ECF9;" d="M374.65,29.86v89.48c0,12.35-10.02,22.36-22.38,22.36h-44.7c-8.06,0-15.56,4.15-19.85,10.97&#10;&#9;&#9;&#9;&#9;l-8.18,13.02C234.87,169.54,203.364,37.923,257.9,7.5h94.37C364.63,7.5,374.65,17.51,374.65,29.86z"/>
			<path style="fill:#C5CFF1;" d="M279.54,165.69l-10.47,16.69c-6.05,9.62-20.09,9.62-26.14,0l-18.65-29.71&#10;&#9;&#9;&#9;&#9;c-4.29-6.82-11.79-10.97-19.85-10.97h-44.7c-12.36,0-22.38-10.01-22.38-22.36V29.86c0-12.35,10.02-22.36,22.38-22.36h98.17&#10;&#9;&#9;&#9;&#9;C220.62,66.51,253.07,153.51,279.54,165.69z"/>
		</g>
	</g>
	<g>
		<path style="fill:none;stroke:#000000;stroke-width:15;stroke-linecap:round;stroke-linejoin:round;stroke-miterlimit:10;" d="&#10;&#9;&#9;&#9;M41.659,282.252c-1.028,4.75-1.584,9.65-1.584,14.667c0,42.565,38.726,77.072,86.496,77.072c11.487,0,22.442-2.013,32.47-5.636"/>
		
			<line style="fill:none;stroke:#000000;stroke-width:15;stroke-linecap:round;stroke-linejoin:round;stroke-miterlimit:10;" x1="75.551" y1="302.644" x2="75.551" y2="312.432"/>
		
			<line style="fill:none;stroke:#000000;stroke-width:15;stroke-linecap:round;stroke-linejoin:round;stroke-miterlimit:10;" x1="177.536" y1="302.644" x2="177.536" y2="312.432"/>
		<path style="fill:none;stroke:#000000;stroke-width:15;stroke-linecap:round;stroke-linejoin:round;stroke-miterlimit:10;" d="&#10;&#9;&#9;&#9;M113.1,312.141c3.269,3.747,8.078,6.118,13.444,6.118c5.366,0,10.175-2.371,13.444-6.118"/>
		<path style="fill:none;stroke:#000000;stroke-width:15;stroke-linecap:round;stroke-linejoin:round;stroke-miterlimit:10;" d="&#10;&#9;&#9;&#9;M300.127,282.252c-1.028,4.75-1.584,9.65-1.584,14.667c0,12.522,3.373,24.336,9.321,34.79"/>
		<path style="fill:none;stroke:#000000;stroke-width:15;stroke-linecap:round;stroke-linejoin:round;stroke-miterlimit:10;" d="&#10;&#9;&#9;&#9;M352.967,368.495c9.921,3.533,20.737,5.496,32.073,5.496c47.771,0,86.496-34.506,86.496-77.072c0-5.055-0.563-9.99-1.605-14.773"/>
		<path style="fill:none;stroke:#000000;stroke-width:15;stroke-linecap:round;stroke-linejoin:round;stroke-miterlimit:10;" d="&#10;&#9;&#9;&#9;M467.732,319.572c3.884,3.173,8.859,5.079,14.283,5.079c12.418,0,22.485-9.987,22.485-22.307c0-7.191-3.417-14.052-8.742-18.132"/>
		<path style="fill:none;stroke:#000000;stroke-width:15;stroke-linecap:round;stroke-linejoin:round;stroke-miterlimit:10;" d="&#10;&#9;&#9;&#9;M385.04,189.597c-57.555,0.101-113.306,42.417-110.33,94.615c8.194-0.011,25.425-1.961,25.425-1.961&#10;&#9;&#9;&#9;c8.212-26.156,37.147-37.176,60.352-37.077c-8.113,9.958-10.197,21.657-4.404,27.322c6.351,6.21,19.747,2.813,29.984-7.572&#10;&#9;&#9;&#9;c-0.819,7.046,1.012,13.056,5.534,15.792c7.631,4.617,19.972-1.812,27.563-14.36c3.966-6.556,5.831-13.473,5.638-19.254&#10;&#9;&#9;&#9;c19.29,3.874,38.21,15.292,45.169,35.151c5.154,1.243,19.97,1.949,25.788,1.96C498.748,232,442.592,189.701,385.04,189.597z"/>
		
			<line style="fill:none;stroke:#000000;stroke-width:15;stroke-linecap:round;stroke-linejoin:round;stroke-miterlimit:10;" x1="334.019" y1="302.644" x2="334.019" y2="312.432"/>
		
			<line style="fill:none;stroke:#000000;stroke-width:15;stroke-linecap:round;stroke-linejoin:round;stroke-miterlimit:10;" x1="436.004" y1="302.644" x2="436.004" y2="312.432"/>
		<path style="fill:none;stroke:#000000;stroke-width:15;stroke-linecap:round;stroke-linejoin:round;stroke-miterlimit:10;" d="&#10;&#9;&#9;&#9;M371.568,312.141c3.269,3.747,8.078,6.118,13.444,6.118s10.175-2.371,13.444-6.118"/>
		<path style="fill:none;stroke:#000000;stroke-width:15;stroke-linecap:round;stroke-linejoin:round;stroke-miterlimit:10;" d="&#10;&#9;&#9;&#9;M339.551,446.777c3.713,2.412,8.283,3.839,13.23,3.839c12.418,0,22.485-8.97,22.485-20.035c0-6.456-3.431-12.195-8.753-15.859"/>
		<path style="fill:none;stroke:#000000;stroke-width:15;stroke-linecap:round;stroke-linejoin:round;stroke-miterlimit:10;" d="&#10;&#9;&#9;&#9;M145.488,414.72c-5.322,3.664-8.754,9.403-8.754,15.86c0,11.065,10.067,20.035,22.485,20.035c4.804,0,9.253-1.347,12.906-3.634"/>
		<path style="fill:none;stroke:#000000;stroke-width:15;stroke-linecap:round;stroke-linejoin:round;stroke-miterlimit:10;" d="&#10;&#9;&#9;&#9;M170.873,412.863c-1.013,4.718-1.563,9.584-1.563,14.565c0,42.565,38.726,77.072,86.496,77.072s86.496-34.506,86.496-77.072&#10;&#9;&#9;&#9;c0-5.053-0.562-9.988-1.604-14.77"/>
		<path style="fill:none;stroke:#000000;stroke-width:15;stroke-linecap:round;stroke-linejoin:round;stroke-miterlimit:10;" d="&#10;&#9;&#9;&#9;M255.806,320.106c-57.555,0.101-113.305,42.417-110.33,94.615c42.052-2.227,95.972-8.258,132.845-38.57&#10;&#9;&#9;&#9;c24.03-0.788,53.356,10.756,62.416,36.61c5.154,1.243,19.97,1.949,25.788,1.96C369.514,362.509,313.358,320.21,255.806,320.106z"/>
		<path style="fill:none;stroke:#000000;stroke-width:15;stroke-linecap:round;stroke-linejoin:round;stroke-miterlimit:10;" d="&#10;&#9;&#9;&#9;M274.709,284.212c-5.299,4.081-8.741,10.961-8.741,18.132c0,8.723,5.05,16.272,12.404,19.939"/>
		
			<line style="fill:none;stroke:#000000;stroke-width:15;stroke-linecap:round;stroke-linejoin:round;stroke-miterlimit:10;" x1="204.785" y1="433.153" x2="204.785" y2="442.941"/>
		
			<line style="fill:none;stroke:#000000;stroke-width:15;stroke-linecap:round;stroke-linejoin:round;stroke-miterlimit:10;" x1="306.77" y1="433.153" x2="306.77" y2="442.941"/>
		<path style="fill:none;stroke:#000000;stroke-width:15;stroke-linecap:round;stroke-linejoin:round;stroke-miterlimit:10;" d="&#10;&#9;&#9;&#9;M242.334,442.65c3.269,3.747,8.078,6.118,13.444,6.118s10.175-2.371,13.444-6.118"/>
		
			<line style="fill:none;stroke:#000000;stroke-width:15;stroke-linecap:round;stroke-linejoin:round;stroke-miterlimit:10;" x1="189.047" y1="55.327" x2="322.953" y2="55.327"/>
		
			<line style="fill:none;stroke:#000000;stroke-width:15;stroke-linecap:round;stroke-linejoin:round;stroke-miterlimit:10;" x1="189.047" y1="93.877" x2="322.953" y2="93.877"/>
		<path style="fill:none;stroke:#000000;stroke-width:15;stroke-linecap:round;stroke-linejoin:round;stroke-miterlimit:10;" d="&#10;&#9;&#9;&#9;M281.043,7.5H159.734c-12.362,0-22.384,10.011-22.384,22.36v89.483c0,12.349,10.022,22.36,22.384,22.36h44.694&#10;&#9;&#9;&#9;c8.065,0,15.564,4.143,19.85,10.968l18.654,29.703c6.047,9.628,20.091,9.628,26.137,0l18.653-29.703&#10;&#9;&#9;&#9;c4.286-6.825,11.785-10.969,19.85-10.969h44.694c12.362,0,22.384-10.011,22.384-22.36V29.86c0-12.349-10.022-22.36-22.384-22.36&#10;&#9;&#9;&#9;h-36.223"/>
		
			<line style="fill:none;stroke:#000000;stroke-width:15;stroke-linecap:round;stroke-linejoin:round;stroke-miterlimit:10;" x1="110.551" y1="403.645" x2="145.731" y2="403.645"/>
		<path style="fill:none;stroke:#000000;stroke-width:15;stroke-linecap:round;stroke-linejoin:round;stroke-miterlimit:10;" d="&#10;&#9;&#9;&#9;M16.132,315.845v28.095c0,32.878,26.577,59.543,59.419,59.697"/>
		<path style="fill:none;stroke:#000000;stroke-width:15;stroke-linecap:round;stroke-linejoin:round;stroke-miterlimit:10;" d="&#10;&#9;&#9;&#9;M16.253,284.212c-5.322,3.664-8.753,9.403-8.753,15.859c0,11.065,10.067,20.035,22.485,20.035c4.804,0,9.253-1.347,12.906-3.634"/>
		<path style="fill:none;stroke:#000000;stroke-width:15;stroke-linecap:round;stroke-linejoin:round;stroke-miterlimit:10;" d="&#10;&#9;&#9;&#9;M237.4,321.562V280c0-49.927-54.796-90.403-110.828-90.403c-57.555,0.101-113.306,42.417-110.33,94.615&#10;&#9;&#9;&#9;c8.194-0.011,25.425-1.961,25.425-1.961c4.686-14.925,16.121-24.917,29.387-30.733c10.229,18.118,31.426,26.575,45.657,28.518&#10;&#9;&#9;&#9;c2.329-13.009-3.61-33.888-3.61-33.888c14.301,14.846,60.896,27.034,83.126,30.963c4.951,0.875,8.559,5.166,8.559,10.195v43.976"/>
	</g>
</g>
<g>
</g>
<g>
</g>
<g>
</g>
<g>
</g>
<g>
</g>
<g>
</g>
<g>
</g>
<g>
</g>
<g>
</g>
<g>
</g>
<g>
</g>
<g>
</g>
<g>
</g>
<g>
</g>
<g>
</g>
</svg>