<svg id="Layer_1_7_" enable-background="new 0 0 48 48" height="512" viewBox="0 0 48 48" width="512" xmlns="http://www.w3.org/2000/svg"><path d="m47 26v14c0 .552-.448 1-1 1h-14c-.552 0-1-.448-1-1v-14c0-2.85 1.999-5.237 4.667-5.846-2.182-1.186-3.667-3.5-3.667-6.154 0-3.86 3.14-7 7-7s7 3.14 7 7c0 2.654-1.485 4.968-3.667 6.154 2.668.609 4.667 2.996 4.667 5.846zm-34.667-5.846c2.182-1.186 3.667-3.5 3.667-6.154 0-3.86-3.14-7-7-7s-7 3.14-7 7c0 2.654 1.485 4.968 3.667 6.154-2.668.609-4.667 2.996-4.667 5.846v14c0 .552.448 1 1 1h14c.552 0 1-.448 1-1v-14c0-2.85-1.999-5.237-4.667-5.846zm16.374-.861c-.391-.391-1.024-.391-1.414 0l-3.293 3.293-3.293-3.293c-.391-.391-1.024-.391-1.414 0s-.391 1.024 0 1.414l3.293 3.293-3.293 3.293c-.391.391-.391 1.024 0 1.414s1.024.391 1.414 0l3.293-3.293 3.293 3.293c.391.391 1.024.391 1.414 0s.391-1.024 0-1.414l-3.293-3.293 3.293-3.293c.391-.39.391-1.024 0-1.414z"/></svg>