<svg id="Layer_1" viewBox="0 0 512 512" xmlns="http://www.w3.org/2000/svg" data-name="Layer 1"><ellipse cx="256" cy="272.34" fill="#ed1c24" rx="99.23" ry="93.38"/><path d="m395.26 369.09-26.58 26.59-24.88-24.88-56.74-56.74-31.06-31.06-220.42-220.41 77.3.77 1.78 1.93 8.7 9.42 59.2 64.1 12 13 8.92 9.66 46.06 49.86a30.3 30.3 0 0 0 -14.75 7.94l-4.13 4a23.19 23.19 0 0 0 -7 16.62 14.76 14.76 0 0 0 14.74 14.74h35.28a14.69 14.69 0 0 0 11.15-5.11l2.27 2.46 20.9 22.64a32.8 32.8 0 0 0 -23.23 31.38 10.33 10.33 0 0 0 10.3 10.31h26a25.17 25.17 0 0 0 18.25-7.81l33.41 36.19z" fill="#ff4553"/><path d="m368.68 395.68-26.59 26.59-22.75-21-21.43-19.78-8.08-7.49-26.7-24.66h6.25a3.56 3.56 0 0 0 2.87-5.66l-7-9.5-6.41-8.72a3.55 3.55 0 0 0 -5.73 0l-6.42 8.72-21.78-20.11-.78-.73a10.29 10.29 0 0 0 3.07-7.34 32.77 32.77 0 0 0 -23.2-31.38 32.38 32.38 0 0 0 -9.56-1.43h-13.73l-30.55-28.19-13.39-12.35-67.96-62.82-32.44-30-.79-77.28 220.42 220.45 31.06 31.06 56.74 56.74z" fill="#ed1c24"/><path d="m311.5 419.36h83.32v39.44h-83.32z" fill="#d61220" transform="matrix(.707 -.707 .707 .707 -207.04 378.33)"/><path d="m370.42 360.45h83.32v39.44h-83.32z" fill="#ed1c24" transform="matrix(.707 -.707 .707 .707 -148.12 402.73)"/><path d="m467.82 494.82-17.18 17.18-76.1-66.4 22.02-22.04z" fill="#9b0727"/><path d="m467.82 494.82 17.18-17.18-66.4-76.1-22.04 22.02z" fill="#d61220"/><path d="m476.42 62.59-55 55-67.15 67.15-12 12-86.27 86.26-31.06 31.06-56.74 56.74-24.88 24.88-26.58-26.59 22.55-24.41 33.41-36.19a25.17 25.17 0 0 0 18.3 7.81h26a10.33 10.33 0 0 0 10.23-10.3 32.77 32.77 0 0 0 -23.23-31.38l20.94-22.62 2.27-2.46a14.69 14.69 0 0 0 11.15 5.11h35.28a14.76 14.76 0 0 0 14.74-14.74 23.19 23.19 0 0 0 -7-16.62l-4.13-4a30.3 30.3 0 0 0 -14.75-7.94l46.06-49.86 9.06-9.82 11.84-12.8 59.2-64.1 8.7-9.42 1.78-1.93z" fill="#ff4553"/><path d="m476.42 62.59-.79 77.28-32.44 30-67.72 62.56-13.6 12.55-30.55 28.22h-13.75a32.81 32.81 0 0 0 -32.8 32.8 10.29 10.29 0 0 0 3.07 7.34l-.78.73-21.78 20.11-6.42-8.72a3.55 3.55 0 0 0 -5.73 0l-6.41 8.72-7 9.5a3.56 3.56 0 0 0 2.87 5.66h6.25l-26.65 24.66-8.1 7.48-21.43 19.78-22.75 21-26.59-26.59 24.88-24.87 56.74-56.74 31.06-31.06 86.3-86.3 12-12 67.15-67.15z" fill="#ed1c24"/><path d="m139.12 397.43h39.44v83.32h-39.44z" fill="#d61220" transform="matrix(.707 -.707 .707 .707 -263.96 240.92)"/><path d="m80.2 338.5h39.44v83.32h-39.44z" fill="#ed1c24" transform="matrix(.707 -.707 .707 .707 -239.55 182)"/><path d="m44.18 494.82 17.18 17.18 76.1-66.4-22.02-22.04z" fill="#9b0727"/><path d="m44.18 494.82-17.18-17.18 66.4-76.1 22.04 22.02z" fill="#d61220"/><path d="m340.55 169.31 30.7-8.22a23.46 23.46 0 0 0 17.39-22.66v-75.35a3.66 3.66 0 0 1 7-1.53l44.21 96a38.58 38.58 0 0 1 -15 49.12l-78.85 47.93z" fill="#140404"/><path d="m171.45 169.31-30.7-8.22a23.46 23.46 0 0 1 -17.39-22.66v-75.35a3.66 3.66 0 0 0 -7-1.53l-44.21 96a38.58 38.58 0 0 0 15 49.12l78.84 48z" fill="#380206"/><path d="m340.55 169.3-21.74-5.3-46.17-11.33v-149a3.66 3.66 0 0 1 7.09-1.26l15.09 41.43z" fill="#380206"/><path d="m318.81 163.96 4.03-9.33-28.02-110.79.02.01 45.71 125.45z" fill="#140404"/><path d="m239.36 152.63v-148.96a3.65 3.65 0 0 0 -7.09-1.25l-60.8 166.89z" fill="#380206"/><path d="m376.18 236.24c-.22-1.3-.45-2.58-.71-3.85a121.07 121.07 0 0 0 -21.18-47.68 119.14 119.14 0 0 0 -13.51-15.47c-.14-.15-.26-.27-.4-.4a121.69 121.69 0 0 0 -67.73-32.78 120.41 120.41 0 0 0 -17.08-1.13 122 122 0 0 0 -16.2 1.14 119.86 119.86 0 0 0 -44.82 15.71 121.56 121.56 0 0 0 -22.85 17.47l-.25.25a121.85 121.85 0 0 0 -13.45 15.5 123.43 123.43 0 0 0 -21.25 47.59c-.27 1.25-.52 2.5-.74 3.76a124.5 124.5 0 0 0 -1.92 21.81v63.84a51.9 51.9 0 0 0 52 52h5.23v21a14.59 14.59 0 0 0 1.39 6.24 14.78 14.78 0 0 0 13.37 8.5h8.06v-28.29a7.51 7.51 0 0 1 7.08-7.51 8.63 8.63 0 0 1 1 0 7.33 7.33 0 0 1 6.52 7.28v28.51h20v-28.18a7.52 7.52 0 0 1 7.09-7.61 7.31 7.31 0 0 1 7.53 7.31v28.51h20v-28.21a7.52 7.52 0 0 1 6.54-7.56 3.21 3.21 0 0 1 .55-.05 7.3 7.3 0 0 1 7.53 7.31v28.51h8.02a14.78 14.78 0 0 0 13.37-8.5 14.59 14.59 0 0 0 1.39-6.24v-21.08h5.24a51.93 51.93 0 0 0 52-52v-65.1a121.68 121.68 0 0 0 -1.82-20.6zm-113.7-25a30.3 30.3 0 0 1 14.75 7.94l4.13 4a23.19 23.19 0 0 1 7 16.62 14.76 14.76 0 0 1 -14.74 14.74h-35.26a14.76 14.76 0 0 1 -14.74-14.74 23.19 23.19 0 0 1 7-16.62l4.13-4a30.41 30.41 0 0 1 27.71-7.94zm-96.79 79.76v-7.55a10.3 10.3 0 0 1 10.31-10.26h18.44a32.38 32.38 0 0 1 9.56 1.43 32.77 32.77 0 0 1 23.23 31.38 10.33 10.33 0 0 1 -10.3 10.31h-25.93a25.28 25.28 0 0 1 -25.31-25.31zm76.93 58.3a3.56 3.56 0 0 1 -2.87-5.66l7-9.5 6.42-8.72a3.54 3.54 0 0 1 5.72 0l6.42 8.72 7 9.5a3.56 3.56 0 0 1 -2.87 5.66zm78.43-33h-26a10.33 10.33 0 0 1 -10.28-10.3 32.82 32.82 0 0 1 32.8-32.8h18.43a10.3 10.3 0 0 1 10.3 10.29v7.51a25.28 25.28 0 0 1 -25.26 25.27z" fill="#380206"/><path d="m377.92 256.69v65.22a52 52 0 0 1 -52 52h-5.25v21.09a14.79 14.79 0 0 1 -14.79 14.79h-8.06v-28.57a7.31 7.31 0 0 0 -14.62 0v28.55h-20v-28.55a7.31 7.31 0 0 0 -14.62 0v28.55h-20v-28.55a7.32 7.32 0 0 0 -14.64 0v28.55h-8.06a14.79 14.79 0 0 1 -14.78-14.77v-21.1c53.85-6.42 87.73-5.49 124.39-16.1s38.69-37.33 40.76-116.8c.91-34.88-15.13-64.29-33.4-86.34a122 122 0 0 1 55.07 102.03z" fill="#140404"/><path d="m279.45 287.32a27.42 27.42 0 0 1 0-3.39 26.69 26.69 0 0 1 .54-3.4 19.76 19.76 0 0 1 1-3.39l.69-1.66c.25-.54.58-1.06.89-1.59a22.42 22.42 0 0 1 4.71-5.66c1-.77 2-1.5 3-2.17a32.79 32.79 0 0 1 3.2-1.7 37.64 37.64 0 0 1 13.38-3 57.65 57.65 0 0 1 13 1.09 2.33 2.33 0 0 1 -.22 4.6h-.09c-4.09.4-8.08.68-11.93 1.37a38.83 38.83 0 0 0 -10.62 3.27 21 21 0 0 0 -7.75 6.52c-.25.36-.54.68-.78 1l-.69 1.12c-.52.72-.86 1.58-1.35 2.37a12.53 12.53 0 0 0 -.6 1.28l-.62 1.29c-.38.9-.76 1.81-1.2 2.73l-.12.22a2.35 2.35 0 0 1 -3.15 1.05 2.3 2.3 0 0 1 -1.29-1.95z" fill="#7f212f"/><path d="m154.31 287.76a30.71 30.71 0 0 1 -1.11-7 22.69 22.69 0 0 1 .83-7.63 14.66 14.66 0 0 1 4.89-7.37 15.11 15.11 0 0 1 3.83-2.23 21.83 21.83 0 0 1 3.89-1.19 51.22 51.22 0 0 1 14.34-.4 109.87 109.87 0 0 1 13.46 2.06 2 2 0 0 1 1.55 2.43 2.05 2.05 0 0 1 -1.77 1.58c-4.51.49-9 .63-13.36.88a73.06 73.06 0 0 0 -12.4 1.36 12.2 12.2 0 0 0 -4.46 1.95 8.76 8.76 0 0 0 -2.66 3.5 29.73 29.73 0 0 0 -1.69 5.52c-.45 2-.81 4.19-1.3 6.39a2.07 2.07 0 0 1 -2.46 1.56 2 2 0 0 1 -1.58-1.41z" fill="#7f212f"/><path d="m238.93 302.93a28.09 28.09 0 0 1 .8 6.61 18.39 18.39 0 0 1 -1.29 7.19c-.27.6-.55 1.21-.86 1.81s-.76 1.12-1.16 1.66a9.62 9.62 0 0 1 -1.37 1.48 14 14 0 0 1 -1.52 1.3 18.18 18.18 0 0 1 -3.31 1.9l-1.7.74c-.57.2-1.13.37-1.7.53a47.52 47.52 0 0 1 -13.31 1.61c-2.18 0-4.32-.16-6.46-.29s-4.26-.48-6.37-.79a1.79 1.79 0 0 1 -1.52-2.05 1.81 1.81 0 0 1 1.58-1.53h.07q3.13-.36 6.24-.58c2-.27 4.12-.34 6.13-.65l3-.36c1-.16 2-.36 2.94-.52a28 28 0 0 0 2.87-.6l1.4-.35 1.31-.46c.44-.15.89-.27 1.31-.43l1.18-.56a11.3 11.3 0 0 0 2.12-1.26 10.47 10.47 0 0 0 2.9-3.44c1.51-2.79 2.09-6.84 3.11-10.95a1.83 1.83 0 0 1 3.57 0z" fill="#140404"/><path d="m360.72 297.35a22.35 22.35 0 0 1 -2.31 15.94l-1.05 1.85-1.29 1.7a22.87 22.87 0 0 1 -2.86 3.12 32.21 32.21 0 0 1 -6.84 4.77 38.37 38.37 0 0 1 -15.31 4.09 43.34 43.34 0 0 1 -15.06-1.72 2.06 2.06 0 0 1 .2-4h.07c4.69-.92 9.17-1.75 13.41-2.91a49.86 49.86 0 0 0 11.69-4.69 33.76 33.76 0 0 0 8.93-7.5 43.8 43.8 0 0 0 6.42-10.9v-.07a2.1 2.1 0 0 1 4 .31z" fill="#140404"/><g fill="#7f212f"><path d="m254.7 203.23a93.62 93.62 0 0 0 -10.88 3.42 45.49 45.49 0 0 0 -9.49 5.17 43.62 43.62 0 0 0 -7.9 7.43 89.9 89.9 0 0 0 -6.63 9.32 3 3 0 0 1 -5.4-2.31 39.25 39.25 0 0 1 5.25-12 37 37 0 0 1 9.27-9.9 36.57 36.57 0 0 1 12.27-5.83 37.75 37.75 0 0 1 13.11-1.19 3 3 0 0 1 2.71 3.23 3 3 0 0 1 -2.21 2.63z"/><path d="m116.24 82.58c-1.78 7.3-3.81 14.52-5.92 21.71s-4.31 14.33-6.58 21.46l-3.45 10.67-3.6 10.58c-1.25 3.52-2.27 7.12-3.82 10.54a36.46 36.46 0 0 1 -6.07 9.73 3.83 3.83 0 0 1 -6.65-2.41 36.23 36.23 0 0 1 1.56-11.35c1-3.61 2.5-7 3.79-10.54l4-10.47 4.17-10.41c2.81-6.94 5.67-13.85 8.66-20.71s6-13.71 9.33-20.47a2.44 2.44 0 0 1 4.56 1.63z"/><path d="m235.13 10.16c-1.92 10.68-4.13 21.28-6.4 31.84s-4.67 21.13-7.13 31.66l-3.75 15.77-3.91 15.74c-1.35 5.24-2.46 10.53-4.15 15.67a68 68 0 0 1 -6.63 15 3.68 3.68 0 0 1 -5.08 1.18 3.75 3.75 0 0 1 -1.74-3.06 68.5 68.5 0 0 1 1.92-16.28c1.17-5.28 2.9-10.41 4.41-15.6l4.66-15.53 4.81-15.49c3.25-10.31 6.54-20.62 10-30.88s6.94-20.5 10.73-30.67a1.2 1.2 0 0 1 1.53-.71 1.24 1.24 0 0 1 .73 1.36z"/><path d="m150.58 207.58s12.67-54.86 93.55-64.44 36 30.73-2.12 36.45-28.44 37.52-50.47 46.41-50.98 12.74-40.96-18.42z"/></g></svg>