<svg height="512" viewBox="0 0 48 48" width="512" xmlns="http://www.w3.org/2000/svg"><g id="_21_-_30" data-name="21 - 30"><g id="ID_Card" data-name="ID Card"><rect fill="#0ca0f2" height="44" rx="4" transform="matrix(0 1 -1 0 48 0)" width="32" x="8" y="2"/><path d="m6 32v-24c-2.209 0-4 1.791-4 4v24c0 2.209 1.791 4 4 4h36c2.209 0 4-1.791 4-4h-36c-2.209 0-4-1.791-4-4z" fill="#0588e2"/><rect fill="#eff3f9" height="18" rx="2" width="14" x="8" y="15"/><path d="m20 33c.342 0 .659-.094.941-.245.002-.015.059-.499.059-.755 0-3.31-2.69-6-6-6s-6 2.69-6 6c0 .256.058.74.059.755.282.151.599.245.941.245z" fill="#6ee7ff"/><path d="m13 31.75c0-2.289 1.032-4.337 2.651-5.713-.214-.023-.431-.037-.651-.037-3.31 0-6 2.69-6 6 0 .256.058.74.059.755.282.151.599.245.941.245h4.25c-.428 0-.824-.117-1.176-.306-.002-.019-.074-.624-.074-.944z" fill="#47caf0"/><circle cx="15" cy="22" fill="#ffcdb4" r="3"/><path d="m16.5 23c-1.381 0-2.5-1.119-2.5-2.5 0-.54.175-1.037.467-1.446-1.402.252-2.467 1.472-2.467 2.946 0 1.657 1.343 3 3 3 1.474 0 2.694-1.065 2.946-2.467-.409.291-.906.467-1.446.467z" fill="#f6a28d"/></g></g><g id="Outline_Color" fill="#08105e" data-name="Outline Color"><path d="m42 7h-36c-2.757 0-5 2.243-5 5v24c0 2.757 2.243 5 5 5h36c2.757 0 5-2.243 5-5v-24c0-2.757-2.243-5-5-5zm3 29c0 1.654-1.346 3-3 3h-36c-1.654 0-3-1.346-3-3v-24c0-1.654 1.346-3 3-3h36c1.654 0 3 1.346 3 3z"/><path d="m20 14h-10c-1.654 0-3 1.346-3 3v14c0 1.654 1.346 3 3 3h10c1.654 0 3-1.346 3-3v-14c0-1.654-1.346-3-3-3zm-10 2h10c.552 0 1 .449 1 1v11.413c-.86-1.433-2.213-2.535-3.827-3.064 1.097-.714 1.827-1.946 1.827-3.35 0-2.206-1.794-4-4-4s-4 1.794-4 4c0 1.404.73 2.636 1.827 3.35-1.614.529-2.967 1.631-3.827 3.064v-11.413c0-.551.448-1 1-1zm0 16c0-2.757 2.243-5 5-5s5 2.243 5 5zm5-8c-1.103 0-2-.897-2-2s.897-2 2-2 2 .897 2 2-.897 2-2 2z"/><path d="m27 18h10c.553 0 1-.448 1-1s-.447-1-1-1h-10c-.553 0-1 .448-1 1s.447 1 1 1z"/><path d="m40 22h-13c-.553 0-1 .448-1 1s.447 1 1 1h13c.553 0 1-.448 1-1s-.447-1-1-1z"/><path d="m27 28h11c.553 0 1-.447 1-1s-.447-1-1-1h-11c-.553 0-1 .447-1 1s.447 1 1 1z"/><path d="m40 30h-13c-.553 0-1 .447-1 1s.447 1 1 1h13c.553 0 1-.447 1-1s-.447-1-1-1z"/></g></svg>