<svg id="Capa_1" enable-background="new 0 0 512 512" viewBox="0 0 512 512" xmlns="http://www.w3.org/2000/svg"><g><g><path d="m430.995 28.493h-134.995c-30.327 0-55 24.673-55 55v53.866c0 30.327 24.673 55 55 55h49.651l70.119 39.515c2.287 1.289 4.826 1.932 7.364 1.932 2.616 0 5.231-.684 7.567-2.049 4.604-2.689 7.433-7.62 7.433-12.951v-26.909c26.966-3.511 47.86-26.631 47.86-54.539v-53.865c.001-30.327-24.672-55-54.999-55z" fill="#17a9ff"/><g><path d="m403.41 125.288h-79.824c-8.284 0-15-6.716-15-15s6.716-15 15-15h79.824c8.284 0 15 6.716 15 15s-6.716 15-15 15z" fill="#eceef7"/></g></g><g><path d="m167.448 334.783c-43.503 0-78.896 35.393-78.896 78.896v72.57l69.238 15h19.313l69.239-15v-72.57c.002-43.503-35.391-78.896-78.894-78.896z" fill="#6b63c7"/><path d="m344.552 334.783c43.503 0 78.896 35.393 78.896 78.896v72.57l-69.238 15h-19.314l-69.24-15v-72.57c0-43.503 35.393-78.896 78.896-78.896z" fill="#4853b9"/><path d="m167.448 245.274c-36.437 0-66.08 29.643-66.08 66.08s29.644 66.08 66.08 66.08 66.079-29.643 66.079-66.08-29.642-66.08-66.079-66.08z" fill="#e4934d"/><path d="m344.553 245.274c-36.437 0-66.08 29.643-66.08 66.08s29.644 66.08 66.08 66.08 66.079-29.643 66.079-66.08-29.643-66.08-66.079-66.08z" fill="#f4a562"/><g><g><path d="m177.104 467.037v34.212h78.896l10.001-48.806-10.001-64.301c-43.503 0-78.896 35.392-78.896 78.895z" fill="#ff4c70"/><path d="m256 388.142v113.107h78.896v-34.212c0-43.573-35.323-78.895-78.896-78.895z" fill="#f21544"/></g><g><path d="m189.92 364.712c0 36.437 29.643 66.08 66.079 66.08l10.001-66.08-10-66.08c-36.437 0-66.08 29.643-66.08 66.08z" fill="#ffd2a1"/><path d="m256 298.632v132.159c36.437 0 66.08-29.643 66.08-66.08s-29.643-66.079-66.08-66.079z" fill="#ffbd82"/></g></g><g><path d="m78.896 388.142c-43.503 0-78.896 35.392-78.896 78.895v19.212c0 8.284 6.716 15 15 15h142.791v-34.212c0-43.503-35.393-78.895-78.895-78.895z" fill="#4bc6ff"/><path d="m78.896 298.632c-36.437 0-66.08 29.643-66.08 66.08s29.643 66.08 66.08 66.08c36.437 0 66.08-29.643 66.08-66.08s-29.644-66.08-66.08-66.08z" fill="#ae6f41"/></g><g><path d="m433.105 388.142c-43.503 0-78.896 35.393-78.896 78.896v34.212h142.791c8.284 0 15-6.716 15-15v-19.212c0-43.504-35.392-78.896-78.895-78.896z" fill="#ffd748"/><path d="m433.105 298.632c-36.437 0-66.08 29.643-66.08 66.08s29.643 66.08 66.08 66.08c36.437 0 66.08-29.643 66.08-66.08s-29.644-66.08-66.08-66.08z" fill="#e4934d"/></g></g><g><path d="m216 10.751h-134.995c-30.327 0-55 24.673-55 55v53.866c0 27.908 20.896 51.028 47.861 54.539v26.908c0 5.331 2.829 10.262 7.433 12.951 2.337 1.365 4.951 2.049 7.567 2.049 2.538 0 5.077-.644 7.364-1.932l70.118-39.515h49.652c30.327 0 55-24.673 55-55v-53.866c0-30.327-24.673-55-55-55z" fill="#eceef7"/><path d="m108.59 107.546h79.824c8.284 0 15-6.716 15-15s-6.716-15-15-15h-79.824c-8.284 0-15 6.716-15 15s6.716 15 15 15z" fill="#d3d3d8"/></g></g><g/><g/><g/><g/><g/><g/><g/><g/><g/><g/><g/><g/><g/><g/><g/></svg>