<svg height="512" viewBox="0 0 64 64" width="512" xmlns="http://www.w3.org/2000/svg"><g id="Idea_Head" data-name="Idea Head"><path d="m57.37988 3.89746a1.00092 1.00092 0 0 0 -1.58888-.70215l-4.76652 3.51374 6.97552 3.20983z"/><path d="m49.32 22h3.6l4.64-10.08-2.97-1.37z"/><path d="m52.78 9.72-2.97-1.37-6.27 13.65h3.59z"/><path d="m25 24h14v3h-14z"/><path d="m32 32a3.00883 3.00883 0 0 0 3-3h-6a3.00883 3.00883 0 0 0 3 3z"/><path d="m54.27 25.22a.96923.96923 0 0 0 -.19-.84 1.00032 1.00032 0 0 0 -.78-.38h-12.3v4a1.003 1.003 0 0 1 -1 1h-3a5 5 0 0 1 -10 0h-3a1.003 1.003 0 0 1 -1-1v-4h-12a1.003 1.003 0 0 0 -1 1v12.73l-3.87 6.77a1.04425 1.04425 0 0 0 0 1 1.00353 1.00353 0 0 0 .87.5h3v2.73a8.41307 8.41307 0 0 0 2.59 6.11 8.25781 8.25781 0 0 0 6.15 2.37c5.57-.21 12.29-1.14 16.84-4.4a1.00321 1.00321 0 0 1 1.17 1.63c-3.43 2.45-8.29 3.98-14.5 4.56l.77 4.18a.98822.98822 0 0 0 .98.82h30a.995.995 0 0 0 .81-1.58c-6.66-9.31-.6-36.92-.54-37.2z"/><path d="m11.03 22h5.16l-5.79-17.78-3.71 1.21a.98725.98725 0 0 0 -.58.5 1.00166 1.00166 0 0 0 -.06.76z"/><path d="m21.23 22-5.96-18.31a1.0014 1.0014 0 0 0 -1.26-.64l-1.71.56 5.99 18.39z"/><path d="m25 19.47v2.53h3.98a53.97226 53.97226 0 0 0 -.8-7.9h-1.18a1 1 0 0 1 0-2h.72a10.51444 10.51444 0 0 0 -1.52-3.5 1 1 0 0 1 1.6-1.2 13.45687 13.45687 0 0 1 1.97 4.7h4.46a13.45687 13.45687 0 0 1 1.97-4.7 1 1 0 0 1 1.6 1.2 10.55569 10.55569 0 0 0 -1.51 3.5h.71a1 1 0 0 1 0 2h-1.17a52.31859 52.31859 0 0 0 -.82 7.9h3.99v-2.53a10.89118 10.89118 0 0 0 4-8.47 11 11 0 0 0 -22 0 10.89118 10.89118 0 0 0 4 8.47z"/><path d="m33.79 14.1h-3.58a54.61476 54.61476 0 0 1 .77 7.9h2.03a56.42061 56.42061 0 0 1 .78-7.9z"/></g></svg>