<svg id="Capa_1" enable-background="new 0 0 512 512" viewBox="0 0 512 512" xmlns="http://www.w3.org/2000/svg"><g><g><g><g><path d="m223.391 224.639.425-.115 22.948-39.748-35.948-62.264c-2.165-3.751-7.579-3.751-9.745 0l-46.117 79.876c7.391-6.081 16.843-9.727 27.109-9.727 19.961.001 36.612 13.454 41.328 31.978z" fill="#02905d"/></g><g><path d="m210.816 122.513c-2.166-3.751-7.58-3.751-9.745 0l-5.9 10.22 24.478 42.397c3.447 5.97 3.447 13.325 0 19.294l-6.618 11.462c4.908 5.167 8.533 11.577 10.36 18.754l.425-.115 22.948-39.748z" fill="#017b4e"/></g><path d="m224.72 233.989.046 1.476 1.368-.553c5.092-2.055 10.462-3.097 15.964-3.097.235 0 .473.002.709.006 14.001.229 27.023 7.509 34.835 19.473l1.892 2.899v-21.288c0-10.793 8.781-19.573 19.573-19.573h7.397l-33.837-58.607c-2.166-3.751-7.58-3.751-9.745 0l-39.788 68.915c.927 3.298 1.473 6.763 1.586 10.349z" fill="#22b27f"/><g><path d="m272.669 154.725c-2.166-3.751-7.58-3.751-9.745 0l-8.465 14.662 29.515 51.122c3.593-4.378 9.042-7.178 15.134-7.178h7.397z" fill="#09a76d"/></g><path d="m383.354 175.448c22.817 0 41.25 17.86 41.966 40.659l.047 1.475 1.368-.552c5.011-2.022 10.295-3.047 15.705-3.047.232 0 .466.002.698.006 9.18.15 17.668 3.362 24.533 8.66l-49.748-124.331c-1.886-4.715-8.561-4.715-10.447 0l-31.099 77.721c2.274-.382 4.603-.591 6.977-.591z" fill="#02905d"/><path d="m417.923 98.318c-1.886-4.715-8.561-4.715-10.447 0l-9.199 22.991 37.311 93.245c2.255-.372 4.542-.571 6.854-.571.232 0 .466.002.698.006 9.18.15 17.668 3.362 24.533 8.66z" fill="#017b4e"/><path d="m44.747 198.197h20.723c3.047 0 4.803 3.461 3.004 5.92l-42.14 57.607c5.222-2.396 10.99-3.758 17.056-3.804l.331-.001c9.603 0 18.678 3.124 26.246 9.034l1.524 1.191.137-1.93c1.581-22.216 20.28-39.618 42.568-39.618 8.455 0 16.632 2.472 23.647 7.148l1.5 1 .1-1.8c1.225-22.009 19.031-39.363 40.888-40.239-.079-.145-.166-.288-.268-.427l-42.958-58.725c-1.799-2.459-.043-5.92 3.004-5.92h15.084c3.047 0 4.803-3.461 3.004-5.92l-44.291-60.547c-1.487-2.033-4.522-2.033-6.009 0l-44.291 60.547c-1.799 2.459-.043 5.92 3.004 5.92h15.084c3.047 0 4.803 3.461 3.004 5.92l-42.958 58.725c-1.796 2.458-.039 5.919 3.007 5.919z" fill="#22b27f"/><g><path d="m135.68 127.631c-12.29 0-19.326 14.009-11.988 23.868l35.565 47.78c6.025-3.814 13.058-6.165 20.59-6.552.099-.205.118-.245.217-.45l-42.958-58.725c-1.799-2.459-.043-5.92 3.004-5.92h15.084c3.047 0 4.803-3.461 3.004-5.92l-44.291-60.547c-1.487-2.033-4.522-2.033-6.009 0l-10.42 14.245z" fill="#09a76d"/></g><g><path d="m1.03 398.567v-1.03c0-20.473 16.304-37.564 36.343-38.1.338-.009.675-.014 1.011-.014 4.814 0 9.514.912 13.97 2.71l1.368.552.047-1.475c.637-20.277 17.032-36.161 37.324-36.161 19.812 0 36.192 15.482 37.293 35.246l.1 1.8 1.5-1c6.138-4.092 13.293-6.255 20.69-6.255 5.162 0 10.172 1.042 14.89 3.098l1.442.628v-5.632c0-10.793 8.781-19.573 19.573-19.573h36.69v-40.441c0-10.793 8.781-19.573 19.573-19.573h36.691l-.001-20.955c-7.509-12.669-21.043-21.344-36.71-21.601-6.047-.099-11.813 1.042-17.076 3.166-.739-23.499-20.008-42.325-43.686-42.325-23.318 0-42.368 18.256-43.648 41.254-6.934-4.622-15.26-7.321-24.218-7.321-23.087 0-41.982 17.899-43.596 40.575-7.499-5.856-16.949-9.329-27.219-9.251-24.16.183-43.381 20.449-43.381 44.611v97.067z" fill="#97d729"/></g><path d="m341.426 273.347v-58.326c.051-.916.142-1.82.251-2.719h-42.567c-11.379 0-20.604 9.225-20.604 20.604v39.411l4.214 1.03z" fill="#d6694b"/><path d="m310.172 212.302h31.254v61.045h-31.254z" fill="#c4573a"/><path d="m110.744 412.949c0-10.793 8.781-19.573 19.573-19.573h36.69v-35.918c-4.956-2.335-10.489-3.647-16.332-3.647-7.865 0-15.175 2.37-21.262 6.428-1.124-20.191-17.848-36.219-38.321-36.219-20.788 0-37.705 16.529-38.354 37.16-4.737-1.912-9.938-2.917-15.393-2.771-20.916.557-37.345 18.204-37.345 39.128v39.371c0 8.534 6.918 15.453 15.453 15.453h95.292v-39.412z" fill="#a2e62e"/><g><path d="m0 420.398v16.51c0 8.534 6.918 15.453 15.453 15.453h95.292v-31.963z" fill="#97d729"/></g><path d="m341.426 333.361v-61.045h-98.58c-11.379 0-20.604 9.225-20.604 20.604v39.411l6.755 1.03z" fill="#dd7f66"/><path d="m310.172 272.317h31.254v61.045h-31.254z" fill="#d6694b"/><path d="m299.159 382.342.289-.001c8.402 0 16.344 2.733 22.967 7.905l1.524 1.191.137-1.93c.868-12.187 7.624-22.718 17.35-28.879v-28.296h-154.844c-11.379 0-20.604 9.225-20.604 20.604v39.411l5.69 1.03h101.564c6.69-6.749 15.842-10.959 25.927-11.035z" fill="#d6694b"/><path d="m299.448 382.341c8.402 0 16.344 2.733 22.967 7.905l1.524 1.191.137-1.93c.868-12.187 7.624-22.718 17.35-28.879v-27.266h-31.254v12.599c0 8.534-6.919 15.453-15.453 15.453h-128.741v30.933l5.69 1.03h101.564c6.69-6.748 15.842-10.957 25.927-11.034z" fill="#c4573a"/><path d="m262.094 420.478c0-11.106 4.708-21.145 12.191-28.133h-143.967c-11.379 0-20.604 9.225-20.604 20.604v39.411h152.379v-31.882z" fill="#dd7f66"/><path d="m230.848 392.346v12.599c0 8.534-6.919 15.453-15.453 15.453h-105.681v31.963h152.379v-31.882c0-11.106 4.708-21.145 12.191-28.133z" fill="#d6694b"/><path d="m361.324 354.841c7.397 0 14.552 2.163 20.69 6.255l1.5 1 .1-1.8c1.101-19.765 17.481-35.246 37.293-35.246 20.292 0 36.687 15.884 37.325 36.161l.046 1.475 1.368-.552c4.456-1.798 9.156-2.71 13.971-2.71.335 0 .673.005 1.011.014 3.776.101 7.418.791 10.845 1.979v-104.635c0-23.621-18.699-43.437-42.317-43.823-5.951-.097-11.625 1.026-16.805 3.116-.727-23.128-19.692-41.657-42.996-41.657-22.95 0-41.699 17.968-42.959 40.603v146.291c5.998-4.082 13.215-6.471 20.928-6.471z" fill="#97d729"/><g><path d="m443.156 212.959c-2.77-.045-5.476.184-8.104.642 10.765 8.033 17.713 21.001 17.713 35.392v93.822c3.28 5.36 5.254 11.631 5.467 18.395l.046 1.475 1.368-.552c4.456-1.798 9.156-2.71 13.971-2.71.335 0 .673.005 1.011.014 3.776.101 7.418.791 10.845 1.979v-104.634c0-23.621-18.699-43.437-42.317-43.823z" fill="#8bc727"/></g><path d="m512 436.908v-39.371c0-20.924-16.429-38.571-37.345-39.129-5.455-.146-10.656.859-15.394 2.771-.649-20.631-17.566-37.16-38.354-37.16-20.472 0-37.197 16.028-38.321 36.219-6.087-4.058-13.397-6.428-21.262-6.428-20.27 0-36.858 15.714-38.275 35.623-6.584-5.141-14.88-8.19-23.897-8.122-21.213.161-38.088 17.953-38.088 39.167v31.882h235.484c8.534 0 15.452-6.918 15.452-15.452z" fill="#a2e62e"/><g><path d="m479.549 358.87v46.075c0 8.534-6.918 15.453-15.453 15.453h-203.03c0 .027-.002.054-.002.081v31.882h235.484c8.534 0 15.453-6.918 15.453-15.453v-39.371c-.001-19.26-13.925-35.732-32.452-38.667z" fill="#97d729"/></g></g></g></g><g/><g/><g/><g/><g/><g/><g/><g/><g/><g/><g/><g/><g/><g/><g/></svg>