<svg id="Capa_1" enable-background="new 0 0 512 512" viewBox="0 0 512 512" xmlns="http://www.w3.org/2000/svg"><g><g><path d="m171 391v85h85l20-42-20-43z" fill="#49658c"/><path d="m256 391h85v85h-85z" fill="#39326c"/><path d="m45 21c-24.813 0-45 20.187-45 45v310c0 24.813 20.187 45 45 45h211l40-187-40-213z" fill="#39326c"/><path d="m467 21h-211v400h211c24.813 0 45-20.187 45-45v-310c0-24.813-20.187-45-45-45z" fill="#2c0652"/><path d="m45 51c-8.271 0-15 6.729-15 15v255h226l50-122-50-148z" fill="#6aa8ff"/><path d="m482 66c0-8.271-6.729-15-15-15h-211v270h226z" fill="#5f69e2"/><path d="m131 476c0 8.284 6.716 15 15 15h110l20-15-20-15h-110c-8.284 0-15 6.716-15 15z" fill="#39326c"/><path d="m366 491c8.284 0 15-6.716 15-15s-6.716-15-15-15h-110v30z" fill="#2c0652"/></g><g><path d="m256 81c-8.284 0-15 6.716-15 15v55h15l8-35z" fill="#39326c"/><path d="m271 96c0-8.284-6.716-15-15-15v70h15z" fill="#2c0652"/><path d="m197.12 168.333-41.178-41.178c-5.858-5.858-5.858-15.355 0-21.213 5.858-5.858 15.355-5.858 21.213 0l41.178 41.178z" fill="#39326c"/><path d="m314.88 168.333-21.213-21.213 41.178-41.178c5.858-5.858 15.355-5.858 21.213 0 5.858 5.858 5.858 15.355 0 21.213z" fill="#2c0652"/><path d="m256 121c-88.225 0-157.901 71.569-160.824 74.615-5.568 5.804-5.568 14.966 0 20.77 2.923 3.046 72.599 74.615 160.824 74.615l32-85z" fill="#f7f9fa"/><path d="m416.824 216.385c5.568-5.804 5.568-14.966 0-20.77-2.923-3.046-72.599-74.615-160.824-74.615v170c88.225 0 157.901-71.569 160.824-74.615z" fill="#eeeef0"/><path d="m256 121c-46.869 0-85 38.131-85 85s38.131 85 85 85l24-85z" fill="#4ef8da"/><path d="m341 206c0-46.869-38.131-85-85-85v170c46.869 0 85-38.131 85-85z" fill="#00ddc1"/><path d="m256 176c-16.542 0-30 13.458-30 30s13.458 30 30 30l16-30z" fill="#39326c"/><path d="m286 206c0-16.542-13.458-30-30-30v60c16.542 0 30-13.458 30-30z" fill="#2c0652"/></g></g><g/><g/><g/><g/><g/><g/><g/><g/><g/><g/><g/><g/><g/><g/><g/></svg>