<svg id="Capa_1" enable-background="new 0 0 512 512" viewBox="0 0 512 512" xmlns="http://www.w3.org/2000/svg"><g><g><g><path d="m356.968 28.204c-37.143-37.414-97.803-37.632-135.218-.488l-19.35 19.211c-18.124 17.994-28.156 41.968-28.248 67.507-.093 25.539 9.767 49.586 27.761 67.71 2.932 2.953 6.788 4.432 10.645 4.432 3.821 0 7.643-1.451 10.568-4.355l133.766-132.804c2.823-2.803 4.417-6.613 4.432-10.591.014-3.978-1.553-7.799-4.356-10.622z" fill="#00b95a"/><g><path d="m203.364 27.716c-37.415-37.144-98.073-36.926-135.218.488-2.803 2.823-4.369 6.644-4.355 10.623.015 3.978 1.608 7.788 4.432 10.591l133.767 132.804c2.926 2.905 6.747 4.355 10.568 4.355l10.001-81.506-10.001-68.228z" fill="#00ea59"/><path d="m222.714 46.928c0-.001 0-.001 0 0l-10.157-10.085v149.734c3.856 0 7.713-1.479 10.645-4.432 17.994-18.124 27.854-42.171 27.761-67.71-.092-25.539-10.125-49.514-28.249-67.507z" fill="#00d166"/></g><path d="m120.281 75.963h-15.605c-52.722 0-95.614 42.892-95.614 95.614 0 8.284 6.716 15 15 15h176.833c8.284 0 15-6.716 15-15 0-52.722-42.893-95.614-95.614-95.614z" fill="#00f95f"/><path d="m320.439 75.963h-15.535c-52.722 0-95.614 42.892-95.614 95.614 0 8.284 6.716 15 15 15h176.763c8.284 0 15-6.716 15-15-.001-52.722-42.892-95.614-95.614-95.614z" fill="#00ea59"/></g><g><path d="m212.557 263.646-50.074 10v73.115l50.074 10.001 10.001-49.059z" fill="#e4934d"/><path d="m212.557 356.762 50.074-10.001v-73.115l-50.074-10z" fill="#ce8647"/><path d="m162.483 346.761v87.121h50.074l10.001-50.061-10.001-37.06z" fill="#ffbd82"/><path d="m212.557 346.761h50.074v87.121h-50.074z" fill="#f4a562"/><path d="m162.483 273.281h50.074l10.001-43.334-10.001-41.515h-50.074z" fill="#ffbd82"/><path d="m212.557 188.432h50.074v84.849h-50.074z" fill="#f4a562"/></g><circle cx="179.466" cy="179.527" fill="#ce8647" r="46.549"/><circle cx="245.648" cy="179.527" fill="#e4934d" r="46.549"/><g><path d="m139.162 401.875c-52.44 0-95.103 42.663-95.103 95.103 0 8.284 6.716 15 15 15h153.498l10.001-51.349-10.001-58.754z" fill="#ffe2c1"/><path d="m285.953 401.875h-73.396v110.103h15l153.498-15c0-52.44-42.663-95.103-95.102-95.103z" fill="#ffd2a1"/></g></g><g><g><path d="m311.126 324.04v-41.977c0-8.271 6.729-15 15-15h27.802l10.001-15-10.001-15h-27.802c-24.813 0-45 20.187-45 45v41.977z" fill="#f4a562"/><path d="m396.731 282.063v41.977h30v-41.977c0-24.813-20.187-45-45-45h-27.802v30h27.802c8.271 0 15 6.729 15 15z" fill="#e4934d"/></g><g><path d="m212.557 404.847v92.153c0 8.284 6.716 15 15 15h126.372l10.001-66.706-10.001-66.706z" fill="#f4a562"/><path d="m353.929 378.588v133.412h134.009c8.284 0 15-6.716 15-15v-92.153z" fill="#e4934d"/></g><g><path d="m227.557 301.603c-8.284 0-15 6.716-15 15v88.244c0 8.284 6.716 15 15 15h126.372l9.328-59.122-9.328-59.122z" fill="#ffd2a1"/><path d="m487.938 301.603h-134.009v118.244h134.009c8.284 0 15-6.716 15-15v-88.244c0-8.284-6.716-15-15-15z" fill="#ffbd82"/></g><g><g><path d="m296.675 452.638c-8.284 0-15-6.716-15-15v-35.621c0-8.284 6.716-15 15-15s15 6.716 15 15v35.621c0 8.284-6.716 15-15 15z" fill="#ce8647"/></g></g><g><g><path d="m418.82 452.638c-8.284 0-15-6.716-15-15v-35.621c0-8.284 6.716-15 15-15s15 6.716 15 15v35.621c0 8.284-6.716 15-15 15z" fill="#ae6f41"/></g></g></g></g><g/><g/><g/><g/><g/><g/><g/><g/><g/><g/><g/><g/><g/><g/><g/></svg>