<svg height="512" viewBox="0 0 48 48" width="512" xmlns="http://www.w3.org/2000/svg"><g id="_11_-_20" data-name="11 - 20"><g id="Archives"><path d="m8 6h8c1.104 0 2 .896 2 2v34h-12v-34c0-1.104.896-2 2-2z" fill="#05e594"/><path d="m11 39c-1.105 0-2-.895-2-2v-31h-1c-1.105 0-2 .895-2 2v34h12v-3z" fill="#00d18d"/><path d="m20 6h8c1.104 0 2 .896 2 2v34h-12v-34c0-1.104.896-2 2-2z" fill="#0ca0f2"/><path d="m23 39c-1.105 0-2-.895-2-2v-31h-1c-1.105 0-2 .895-2 2v34h12v-3z" fill="#0075d3"/><path d="m32 6h8c1.104 0 2 .896 2 2v34h-12v-34c0-1.104.896-2 2-2z" fill="#ff3b65"/><path d="m35 39c-1.105 0-2-.895-2-2v-31h-1c-1.105 0-2 .895-2 2v34h12v-3z" fill="#d82b50" opacity=".75"/><path d="m4 42h40" fill="none" stroke="#000" stroke-linecap="round" stroke-linejoin="round" stroke-width="2"/><path d="m34 11h4v11h-4z" fill="#eff3f9"/><g fill="none" stroke="#000" stroke-linecap="round" stroke-linejoin="round" stroke-width="2"><path d="m34 28h4"/><path d="m34 32h4"/><path d="m34 36h4"/></g><path d="m22 11h4v11h-4z" fill="#eff3f9"/><path d="m22 28h4" fill="none" stroke="#000" stroke-linecap="round" stroke-linejoin="round" stroke-width="2"/><path d="m22 32h4" fill="none" stroke="#000" stroke-linecap="round" stroke-linejoin="round" stroke-width="2"/><path d="m22 36h4" fill="none" stroke="#000" stroke-linecap="round" stroke-linejoin="round" stroke-width="2"/><path d="m10 11h4v11h-4z" fill="#eff3f9"/><path d="m10 28h4" fill="none" stroke="#000" stroke-linecap="round" stroke-linejoin="round" stroke-width="2"/><path d="m10 32h4" fill="none" stroke="#000" stroke-linecap="round" stroke-linejoin="round" stroke-width="2"/><path d="m10 36h4" fill="none" stroke="#000" stroke-linecap="round" stroke-linejoin="round" stroke-width="2"/></g></g><g id="Outline_Color" fill="#08105e" data-name="Outline Color"><path d="m44 41h-1v-33c0-1.654-1.346-3-3-3h-8c-.771 0-1.468.301-2 .78-.532-.48-1.229-.78-2-.78h-8c-.771 0-1.468.301-2 .78-.532-.48-1.229-.78-2-.78h-8c-1.654 0-3 1.346-3 3v33h-1c-.553 0-1 .448-1 1s.447 1 1 1h40c.553 0 1-.448 1-1s-.447-1-1-1zm-37-33c0-.551.448-1 1-1h8c.552 0 1 .449 1 1v33h-10zm12 0c0-.551.448-1 1-1h8c.552 0 1 .449 1 1v33h-10zm12 33v-33c0-.551.448-1 1-1h8c.552 0 1 .449 1 1v33z"/><path d="m38 10h-4c-.553 0-1 .448-1 1v11c0 .552.447 1 1 1h4c.553 0 1-.448 1-1v-11c0-.552-.447-1-1-1zm-1 11h-2v-9h2z"/><path d="m38 27h-4c-.553 0-1 .448-1 1s.447 1 1 1h4c.553 0 1-.448 1-1s-.447-1-1-1z"/><path d="m38 31h-4c-.553 0-1 .448-1 1s.447 1 1 1h4c.553 0 1-.448 1-1s-.447-1-1-1z"/><path d="m38 35h-4c-.553 0-1 .448-1 1s.447 1 1 1h4c.553 0 1-.448 1-1s-.447-1-1-1z"/><path d="m26 10h-4c-.553 0-1 .448-1 1v11c0 .552.447 1 1 1h4c.553 0 1-.448 1-1v-11c0-.552-.447-1-1-1zm-1 11h-2v-9h2z"/><path d="m26 27h-4c-.553 0-1 .448-1 1s.447 1 1 1h4c.553 0 1-.448 1-1s-.447-1-1-1z"/><path d="m26 31h-4c-.553 0-1 .448-1 1s.447 1 1 1h4c.553 0 1-.448 1-1s-.447-1-1-1z"/><path d="m26 35h-4c-.553 0-1 .448-1 1s.447 1 1 1h4c.553 0 1-.448 1-1s-.447-1-1-1z"/><path d="m14 10h-4c-.553 0-1 .448-1 1v11c0 .552.447 1 1 1h4c.553 0 1-.448 1-1v-11c0-.552-.447-1-1-1zm-1 11h-2v-9h2z"/><path d="m14 27h-4c-.553 0-1 .448-1 1s.447 1 1 1h4c.553 0 1-.448 1-1s-.447-1-1-1z"/><path d="m14 31h-4c-.553 0-1 .448-1 1s.447 1 1 1h4c.553 0 1-.448 1-1s-.447-1-1-1z"/><path d="m14 35h-4c-.553 0-1 .448-1 1s.447 1 1 1h4c.553 0 1-.448 1-1s-.447-1-1-1z"/></g></svg>