<svg id="Capa_1" enable-background="new 0 0 512 512" viewBox="0 0 512 512" xmlns="http://www.w3.org/2000/svg"><g><g><g><path d="m48.898 86.238h413.52v336.508h-413.52z" fill="#f07cce"/></g></g><g><g><path d="m423.98 86.238v291.781h-375.082v44.727h413.52v-336.508z" fill="#ed54c2"/></g></g><g><g><path d="m273.168 95.933v78.499c0 3.501 2.838 6.339 6.339 6.339h56.323c1.136 0 2.25.305 3.228.883l51.379 30.393c.936.554 1.994.857 3.082.882 12.911.288 97 2.081 97-.037 0-2.294 2.953-150.001 2.953-150.001z" fill="#90ddaa"/></g></g><g><g><path d="m423.98 77.524v135.986c16.918.272 36.915.5 50.541.354v-136.34z" fill="#6bcbad"/></g></g><g><g><path d="m45.911 335.503 52.403-30.196c9.022-5.431 19.354-8.3 29.885-8.3h74.324c8.804 0 17.493-2.006 25.406-5.866l47.645-23.241c7.913-3.86 16.602-5.866 25.406-5.866h156.427v171.026h-408.509z" fill="#7ebfff"/></g></g><g><g><path d="m423.98 262.033v115.986h-378.069l2.987 55.041h422.745l13.06-171.027z" fill="#54afff"/></g></g><g><g><g><path d="m305.798 335.503c-12.013 0-21.752 9.739-21.752 21.752s9.739 21.752 21.752 21.752h155.732v-43.505h-155.732z" fill="#c2deff"/></g></g><g><g><path d="m423.98 335.503h37.55v43.505h-37.55z" fill="#a0cfff"/></g></g></g><g><g><path d="m285.653 177.677c3.233 3.312 3.233 8.6 0 11.912-13.358 13.684-49.582 46.201-92.173 46.201s-78.815-32.517-92.173-46.201c-3.233-3.312-3.233-8.6 0-11.912 13.358-13.684 49.582-46.201 92.173-46.201s78.815 32.517 92.173 46.201z" fill="#eef7ff"/></g></g><g><g><circle cx="193.48" cy="183.633" fill="#aaa1b1" r="23.74"/></g></g><g><g><g><path d="m450.113 416.067h-388.226c-2.848 0-5.427-1.155-7.293-3.021l-30.317 9.712-21.255 41.86c1.867 1.866 4.445 3.021 7.293 3.021h491.371c2.848 0 5.427-1.155 7.293-3.021l-21.255-41.86-30.317-9.712c-1.867 1.866-4.446 3.021-7.294 3.021z" fill="#ddb865"/></g></g><g><g><path d="m61.887 95.933h388.226c2.848 0 5.427 1.155 7.294 3.021l34.666-14.061 16.906-37.511c-1.867-1.866-4.445-3.021-7.293-3.021h-491.372c-2.848 0-5.427 1.155-7.293 3.021l13.973 34.578 37.599 16.994c1.867-1.867 4.446-3.021 7.294-3.021z" fill="#ddb865"/></g></g><g><g><path d="m51.572 405.752v-299.505c0-2.848 1.154-5.427 3.021-7.293l-51.572-51.572c-1.866 1.866-3.021 4.445-3.021 7.293v402.65c0 2.848 1.155 5.427 3.021 7.293l51.572-51.573c-1.866-1.866-3.021-4.444-3.021-7.293z" fill="#f3e2b7"/></g></g><g><g><path d="m512 457.325v-402.65c0-2.848-1.155-5.427-3.021-7.293l-51.572 51.572c1.866 1.866 3.021 4.445 3.021 7.293v299.505c0 2.848-1.155 5.427-3.021 7.293l51.573 51.573c1.865-1.866 3.02-4.445 3.02-7.293z" fill="#f3e2b7"/></g></g></g></g><g/><g/><g/><g/><g/><g/><g/><g/><g/><g/><g/><g/><g/><g/><g/></svg>