<?xml version="1.0" encoding="iso-8859-1"?>
<!-- Generator: Adobe Illustrator 19.0.0, SVG Export Plug-In . SVG Version: 6.00 Build 0)  -->
<svg version="1.1" id="Capa_1" xmlns="http://www.w3.org/2000/svg" xmlns:xlink="http://www.w3.org/1999/xlink" x="0px" y="0px"
	 viewBox="0 0 512 512" style="enable-background:new 0 0 512 512;" xml:space="preserve">
<path style="fill:#FD4E26;" d="M235.294,361.454l-105.923-57.788c-6.87-4.731-16.172-2.988-20.874,3.823l-77.52,112.324
	c-3.442,4.995-3.545,11.572-0.249,16.67c3.281,5.083,9.229,7.764,15.308,6.606l68.716-12.598l12.598,69.212
	c1.099,5.962,5.669,10.679,11.602,11.953c5.642,1.254,11.916-0.968,15.498-6.138l84.668-123.192
	C243.82,375.502,242.106,366.156,235.294,361.454z"/>
<path style="fill:#FD3018;" d="M481.022,419.813l-78.384-113.584c-4.717-6.841-14.048-8.525-20.874-3.823l-105.249,58.755
	c-6.812,4.702-8.525,14.048-3.823,20.874l84.873,123.485c3.582,5.17,9.856,7.392,15.498,6.138
	c5.933-1.274,10.503-5.991,11.602-11.953l12.598-69.212l68.701,12.598c6.108,1.26,12.012-1.509,15.308-6.606
	S484.464,424.809,481.022,419.813z"/>
<path style="fill:#FEA832;" d="M255.011,0c-107.401,0-195,88.599-195,196c0,107.399,87.599,195,195,195s195-87.601,195-195
	C450.011,88.599,362.412,0,255.011,0z"/>
<path style="fill:#FEDB41;" d="M255.011,30c-90.901,0-165,75.099-165,166c0,90.899,74.099,165,165,165s165-74.101,165-165
	C420.011,105.099,345.912,30,255.011,30z"/>
<path style="fill:#FE9923;" d="M450.011,196c0,107.399-87.599,195-195,195V0C362.412,0,450.011,88.599,450.011,196z"/>
<path style="fill:#FCBF29;" d="M420.011,196c0,90.899-74.099,165-165,165V30C345.912,30,420.011,105.099,420.011,196z"/>
<path style="fill:#FEA832;" d="M255.011,61c-74.399,0-135,60.599-135,135c0,74.399,60.601,135,135,135s135-60.601,135-135
	C390.011,121.599,329.411,61,255.011,61z"/>
<path style="fill:#FE9923;" d="M390.011,196c0,74.399-60.601,135-135,135V61C329.411,61,390.011,121.599,390.011,196z"/>
<path style="fill:#FEDB41;" d="M255.011,91c-57.9,0-105,47.1-105,105s47.1,105,105,105s105-47.1,105-105S312.911,91,255.011,91z"/>
<path style="fill:#FCBF29;" d="M360.011,196c0,57.9-47.1,105-105,105V91C312.911,91,360.011,138.1,360.011,196z"/>
<path style="fill:#FEA832;" d="M329.711,172.599c-1.8-5.4-6.299-9.3-11.999-10.199L284.11,157l-14.7-30.601
	c-2.699-5.099-7.8-8.401-13.499-8.699h-0.901c-6-0.3-10.201,3.6-12.599,8.399l-15.601,30.3l-33.6,4.499
	c-5.7,0.901-10.499,4.801-12.299,10.201c-1.802,5.4-0.3,11.1,3.6,15.3l24.3,24l-6.301,33.6c-0.901,5.7,1.199,11.4,5.7,14.7
	c4.799,3.6,10.8,3.9,15.899,1.501l30.3-15.601l0.601,0.3l29.399,15.899c5.101,2.701,11.1,2.401,15.901-0.899
	c4.499-3.301,6.899-9.001,6-14.7l-5.4-33.602l24.899-23.699C329.711,183.999,331.511,177.999,329.711,172.599z"/>
<path style="fill:#FE9923;" d="M325.811,187.899l-24.899,23.699l5.4,33.602c0.899,5.698-1.501,11.398-6,14.7
	c-4.801,3.3-10.8,3.6-15.901,0.899l-29.4-15.899V117.7h0.901c5.698,0.298,10.8,3.6,13.499,8.699L284.11,157l33.602,5.4
	c5.7,0.899,10.199,4.799,11.999,10.199S329.711,183.999,325.811,187.899z"/>
<g>
</g>
<g>
</g>
<g>
</g>
<g>
</g>
<g>
</g>
<g>
</g>
<g>
</g>
<g>
</g>
<g>
</g>
<g>
</g>
<g>
</g>
<g>
</g>
<g>
</g>
<g>
</g>
<g>
</g>
</svg>
