<svg id="Capa_1" enable-background="new 0 0 512 512" viewBox="0 0 512 512" xmlns="http://www.w3.org/2000/svg"><g><g><path d="m146.61 247.881h-90c-8.284 0-15 6.716-15 15v124.603c0 8.284 6.716 15 15 15h90c8.284 0 15-6.716 15-15v-124.603c0-8.284-6.715-15-15-15z" fill="#f21544"/><path d="m455.39 49.516h-90c-8.284 0-15 6.716-15 15v322.969c0 8.284 6.716 15 15 15h90c8.284 0 15-6.716 15-15v-322.969c0-8.285-6.716-15-15-15z" fill="#5fe930"/></g><g><path d="m211 148.699c-8.284 0-15 6.716-15 15v223.785c0 8.284 6.716 15 15 15h45l10.001-120.779-10.001-133.006z" fill="#ffd748"/><path d="m301 148.699h-45v253.785h45c8.284 0 15-6.716 15-15v-223.785c0-8.284-6.716-15-15-15z" fill="#ffc335"/></g><g><path d="m15 372.484c-8.284 0-15 6.716-15 15v60c0 8.284 6.716 15 15 15h241l10.001-45-10.001-45z" fill="#6b63c7"/><path d="m497 372.484h-241v90h241c8.284 0 15-6.716 15-15v-60c0-8.284-6.716-15-15-15z" fill="#4853b9"/></g></g><g/><g/><g/><g/><g/><g/><g/><g/><g/><g/><g/><g/><g/><g/><g/></svg>