<svg id="Layer_1" enable-background="new 0 0 512 512" viewBox="0 0 512 512" xmlns="http://www.w3.org/2000/svg"><g clip-rule="evenodd" fill-rule="evenodd"><path d="m8.12 203.09h224.1v240.14h-224.1z" fill="#daeafa"/><path d="m94.54 115.27h169.95v327.97h-169.95z" fill="#2f5274"/><path d="m145.58 354.42h67.88v88.81h-67.88z" fill="#0cf"/><path d="m126.7 149.82h34.81v34.78h-34.81z" fill="#0cf"/><path d="m197.52 149.82h34.81v34.78h-34.81z" fill="#0cf"/><path d="m126.7 217.43h34.81v34.81h-34.81z" fill="#0cf"/><path d="m197.52 217.43h34.81v34.81h-34.81z" fill="#0cf"/><path d="m126.7 285.05h34.81v34.8h-34.81z" fill="#0cf"/><path d="m197.52 285.05h34.81v34.8h-34.81z" fill="#0cf"/><path d="m36.18 245.08h30.16v30.16h-30.16z" fill="#0cf"/><path d="m36.18 308.08h30.16v30.16h-30.16z" fill="#0cf"/><path d="m36.18 371.09h30.16v30.16h-30.16z" fill="#0cf"/><path d="m288.71 363.61h31.75v79.63h-31.75z" fill="#ffd400"/><path d="m347.26 327.7h31.75v115.53h-31.75z" fill="#ff4646"/><path d="m405.81 291.77h31.75v151.46h-31.75z" fill="#ffd400"/><path d="m464.35 255.86h31.78v187.37h-31.78z" fill="#ff4646"/><path d="m392.41 200.17c36.18 0 65.7-29.49 65.7-65.7 0-36.18-29.52-65.7-65.7-65.7s-65.7 29.52-65.7 65.7c-.01 36.21 29.52 65.7 65.7 65.7z" fill="#ffd400"/><path d="m8.12 203.09h14.47v240.14h-14.47z" fill="#c4d3e1"/><path d="m112.59 203.09.05-87.82h-18.02l-.05 87.82-.11 240.14h18.02z" fill="#2a4a68"/><path d="m400.03 199.76c-32.69-3.8-58.08-31.59-58.08-65.29s25.4-61.49 58.08-65.26c-2.5-.3-5.04-.44-7.62-.44-36.29 0-65.7 29.41-65.7 65.7s29.41 65.7 65.7 65.7c2.58 0 5.11-.13 7.62-.41z" fill="#e6bf00"/><path d="m288.71 363.61h7.73v79.63h-7.73z" fill="#e6bf00"/><path d="m347.26 327.7h6.66v115.53h-6.66z" fill="#e63f3f"/><path d="m464.35 255.86h6.69v187.37h-6.69z" fill="#e63f3f"/><path d="m405.81 291.77h7.73v151.46h-7.73z" fill="#e6bf00"/></g><g><path d="m268.73 105.01h-172.72c-4.41 0-7.99 3.58-7.99 7.99l-.04 81.24h-79.76c-4.41 0-7.99 3.57-7.99 7.99l-.23 244.01c0 2.12.84 4.16 2.34 5.66s3.53 2.34 5.65 2.34h87.85 51.96 68.97 51.79c4.41 0 7.99-3.58 7.99-7.99l.17-333.24c0-2.12-.84-4.15-2.34-5.65s-3.53-2.35-5.65-2.35zm-252.52 105.22h71.76l-.12 228.02h-71.85zm139.59 228.02v-74.27h52.98v74.27zm104.77 0h-35.81v-82.26c0-4.42-3.58-7.99-7.99-7.99h-68.97c-4.42 0-7.99 3.58-7.99 7.99v82.26h-35.97l.16-317.25h156.73zm-131.96-246.81h35.38c4.42 0 7.99-3.58 7.99-7.99v-35.35c0-4.42-3.58-7.99-7.99-7.99h-35.38c-4.42 0-7.99 3.58-7.99 7.99v35.35c0 4.41 3.58 7.99 7.99 7.99zm7.99-35.35h19.39v19.36h-19.39zm63.98 35.35h35.35c4.41 0 7.99-3.58 7.99-7.99v-35.35c0-4.42-3.58-7.99-7.99-7.99h-35.35c-4.42 0-7.99 3.58-7.99 7.99v35.35c0 4.41 3.58 7.99 7.99 7.99zm8-35.35h19.36v19.36h-19.36zm-79.97 104.06h35.38c4.42 0 7.99-3.58 7.99-7.99v-35.35c0-4.42-3.58-7.99-7.99-7.99h-35.38c-4.42 0-7.99 3.58-7.99 7.99v35.35c0 4.41 3.58 7.99 7.99 7.99zm7.99-35.35h19.39v19.36h-19.39zm63.98 35.35h35.35c4.41 0 7.99-3.58 7.99-7.99v-35.35c0-4.42-3.58-7.99-7.99-7.99h-35.35c-4.42 0-7.99 3.58-7.99 7.99v35.35c0 4.41 3.58 7.99 7.99 7.99zm8-35.35h19.36v19.36h-19.36zm-79.97 104.06h35.38c4.42 0 7.99-3.58 7.99-7.99v-35.35c0-4.42-3.58-7.99-7.99-7.99h-35.38c-4.42 0-7.99 3.58-7.99 7.99v35.35c0 4.42 3.58 7.99 7.99 7.99zm7.99-35.34h19.39v19.36h-19.39zm63.98 35.34h35.35c4.41 0 7.99-3.58 7.99-7.99v-35.35c0-4.42-3.58-7.99-7.99-7.99h-35.35c-4.42 0-7.99 3.58-7.99 7.99v35.35c0 4.42 3.58 7.99 7.99 7.99zm8-35.34h19.36v19.36h-19.36zm-141.31-56.61h-30.64c-4.42 0-7.99 3.58-7.99 7.99v30.64c0 4.42 3.58 7.99 7.99 7.99h30.64c4.42 0 7.99-3.58 7.99-7.99v-30.64c0-4.41-3.58-7.99-7.99-7.99zm-7.99 30.64h-14.66v-14.65h14.66zm7.99 33.39h-30.64c-4.42 0-7.99 3.58-7.99 7.99v30.61c0 4.42 3.58 7.99 7.99 7.99h30.64c4.42 0 7.99-3.58 7.99-7.99v-30.61c0-4.41-3.58-7.99-7.99-7.99zm-7.99 30.62h-14.66v-14.63h14.66zm7.99 33.39h-30.64c-4.42 0-7.99 3.58-7.99 7.99v30.64c0 4.42 3.58 7.99 7.99 7.99h30.64c4.42 0 7.99-3.58 7.99-7.99v-30.64c0-4.41-3.58-7.99-7.99-7.99zm-7.99 30.64h-14.66v-14.66h14.66zm266.2-38.24h-32.26c-4.42 0-7.99 3.58-7.99 7.99v80.9c0 4.42 3.58 7.99 7.99 7.99h32.26c4.42 0 7.99-3.58 7.99-7.99v-80.9c0-4.41-3.58-7.99-7.99-7.99zm-8 80.9h-16.27v-64.91h16.27zm67.5-117.41h-32.26c-4.42 0-7.99 3.58-7.99 7.99v117.41c0 4.42 3.58 7.99 7.99 7.99h32.26c4.42 0 7.99-3.58 7.99-7.99v-117.4c0-4.42-3.58-8-7.99-8zm-8 117.41h-16.27v-101.42h16.27zm67.52-153.89h-32.29c-4.42 0-7.99 3.58-7.99 7.99v153.89c0 4.41 3.58 7.99 7.99 7.99h32.29c4.41 0 7.99-3.58 7.99-7.99v-153.89c.01-4.41-3.57-7.99-7.99-7.99zm-7.99 153.89h-16.3v-137.9h16.3zm67.49-190.4h-32.29c-4.42 0-7.99 3.58-7.99 7.99v190.4c0 4.41 3.58 7.99 7.99 7.99h32.29c4.42 0 7.99-3.58 7.99-7.99v-190.4c.01-4.41-3.57-7.99-7.99-7.99zm-7.99 190.4h-16.3v-174.41h16.3zm-97.4-230.96c41.22 0 74.75-33.55 74.75-74.78 0-41.22-33.53-74.75-74.75-74.75-41.23 0-74.78 33.53-74.78 74.75 0 41.23 33.55 74.78 74.78 74.78zm0-133.54c32.4 0 58.76 26.36 58.76 58.76 0 32.42-26.36 58.79-58.76 58.79-32.42 0-58.79-26.37-58.79-58.79 0-32.4 26.37-58.76 58.79-58.76zm-21.85 45.18c0-9.18 5.76-17.04 13.86-20.16v-5.63c0-4.42 3.58-7.99 7.99-7.99s7.99 3.58 7.99 7.99v4.81c4.87 1.19 9.25 4.06 12.27 8.16 2.62 3.55 1.86 8.56-1.69 11.18s-8.56 1.86-11.18-1.69c-1.05-1.43-2.74-2.28-4.51-2.28h-3.15c-3.04 0-5.61 2.57-5.61 5.61 0 3.03 2.57 5.58 5.61 5.58h.48 1.11c.59 0 1.17.07 1.72.19 10.58 1.39 18.77 10.46 18.77 21.41 0 9.17-5.75 17.02-13.83 20.15v5.62c0 4.41-3.58 7.99-7.99 7.99s-7.99-3.58-7.99-7.99v-4.78c-4.85-1.19-9.23-4.04-12.28-8.12-2.64-3.54-1.91-8.55 1.63-11.19s8.55-1.91 11.19 1.63c1.08 1.45 2.78 2.31 4.53 2.31h3.15c3.09 0 5.61-2.52 5.61-5.61s-2.52-5.61-5.61-5.61h-.48-1.08c-.58 0-1.15-.07-1.69-.18-10.6-1.37-18.82-10.44-18.82-21.4zm-90.35 206.23c-2.31-3.76-1.13-8.69 2.63-10.99l194.3-119.17-13.98-3.32c-4.29-1.02-6.95-5.33-5.93-9.63s5.33-6.95 9.63-5.93l32.8 7.8c2.06.49 3.85 1.78 4.96 3.59s1.46 3.98.97 6.04l-7.82 32.8c-.88 3.67-4.15 6.14-7.77 6.14-.61 0-1.24-.07-1.86-.22-4.29-1.02-6.94-5.34-5.92-9.63l3.35-14.05-194.37 119.21c-1.3.8-2.75 1.18-4.17 1.18-2.69 0-5.32-1.36-6.82-3.82z"/></g></svg>