<svg id="Capa_1" enable-background="new 0 0 512 512" viewBox="0 0 512 512" xmlns="http://www.w3.org/2000/svg"><g><g><g><g><path d="m15 148.455c0 73.587 59.868 133.455 133.455 133.455l10.001-133.455-10.002-133.455c-73.587 0-133.454 59.868-133.454 133.455z" fill="#ffc335"/><path d="m148.454 15v266.91c73.587 0 133.455-59.868 133.455-133.455s-59.867-133.455-133.455-133.455z" fill="#ffae26"/></g><g><path d="m30 148.455c0-65.316 53.138-118.455 118.454-118.455l10.001-14.999-10.001-15.001c-81.858 0-148.454 66.596-148.454 148.455s66.596 148.455 148.454 148.455l10.001-16.331-10.001-13.669c-65.316 0-118.454-53.139-118.454-118.455z" fill="#ffd748"/><path d="m148.455 0v30c65.316 0 118.455 53.139 118.455 118.455s-53.139 118.455-118.455 118.455v30c81.858 0 148.455-66.596 148.455-148.455s-66.597-148.455-148.455-148.455z" fill="#ffc335"/></g><g><path d="m133.455 75.283v2.128c-1.29.382-2.576.832-3.853 1.362-12.877 5.344-21.741 15.762-24.318 28.583-2.551 12.697 1.648 26.053 11.234 35.727 8.462 8.539 17.232 11.577 27.386 15.095 1.478.512 2.989 1.037 4.551 1.594l10.001-15.456-10.001-16.351c-5.173-1.908-7.988-3.335-10.627-5.998-2.578-2.602-3.72-5.773-3.131-8.7.583-2.904 2.858-5.313 6.403-6.784 1.941-.805 4.518-.919 7.355-.561l10.001-20.725-10.001-24.913c-8.285-.001-15 6.715-15 14.999z" fill="#ffde68"/><path d="m146.936 189.997c-6.953 0-14.759-2.461-20.883-6.583-6.874-4.626-16.194-2.804-20.82 4.068-4.625 6.872-2.805 16.194 4.068 20.82 7.232 4.868 15.614 8.365 24.153 10.207v3.119c0 8.284 6.716 15 15 15l10.001-27.885-10.001-18.789c-.498.027-1.004.043-1.518.043z" fill="#ffde68"/><g fill="#ffd748"><path d="m163.246 133.246c-3.529-1.34-6.713-2.443-9.523-3.416-2.006-.695-3.736-1.3-5.269-1.866v31.807c1.336.477 2.709.976 4.146 1.522 9.274 3.52 13.408 10.391 11.058 18.382-1.758 5.979-7.517 9.83-15.204 10.276v46.675c8.284 0 15-6.716 15-15v-4.284c14.004-4.686 24.888-15.27 28.985-29.204 6.825-23.206-5.18-45.779-29.193-54.892z"/><path d="m164.966 111.837c7.144 4.195 16.335 1.804 20.53-5.339 4.195-7.144 1.805-16.335-5.339-20.53-2.901-1.704-9.005-4.972-16.703-7.364v-3.321c0-8.284-6.716-15-15-15v45.638c5.367.679 11.683 3.08 16.512 5.916z"/></g></g></g><g><path d="m420.588 497.786h58.06v-254.328c0-8.284-6.716-15-15-15h-28.06c-8.284 0-15 6.716-15 15z" fill="#00959b"/><path d="m302.222 497.786v-166.103c0-8.284-6.716-15-15-15h-28.068c-8.284 0-15 6.716-15 15v166.104h58.068z" fill="#c2e852"/><g><path d="m347.404 272.57c-8.284 0-15 6.716-15 15v210.216h28.996l10.001-112.608-10.001-112.608z" fill="#6bd6ff"/><path d="m390.396 287.57c0-8.284-6.716-15-15-15h-13.996v225.216h28.996z" fill="#4bc6ff"/></g><g><path d="m225.8 482c-8.509 0-15.364 7.086-14.985 15.679.357 8.095 7.352 14.321 15.455 14.321h135.13l10.001-15-10.001-15z" fill="#e2e2eb"/><path d="m496.53 482h-135.13v30h135.6c8.509 0 15.364-7.086 14.985-15.679-.357-8.095-7.352-14.321-15.455-14.321z" fill="#d6d9ef"/></g></g></g><g><path d="m466.071 130.285c-5.901-5.816-15.399-5.745-21.212.155l-3.257 3.305c-2.564-26.094-13.338-44.481-23.474-56.333-15.869-18.558-38.892-31.439-63.165-35.341-8.172-1.312-15.876 4.249-17.19 12.429-1.315 8.179 4.249 15.876 12.429 17.191 21.032 3.381 55.885 20.766 61.253 62.692l-3.725-3.67c-5.901-5.816-15.399-5.745-21.212.155-5.815 5.901-5.746 15.398.155 21.213l29.384 28.957c2.922 2.88 6.726 4.316 10.527 4.316 3.876 0 7.75-1.493 10.685-4.471l28.957-29.384c5.816-5.902 5.746-15.399-.155-21.214z" fill="#c2e852"/><path d="m161.798 440.31c-21.033-3.381-55.885-20.766-61.253-62.694l3.726 3.672c5.9 5.816 15.398 5.744 21.212-.155 5.815-5.901 5.746-15.398-.155-21.213l-29.384-28.957c-5.901-5.816-15.399-5.744-21.212.155l-28.957 29.384c-5.815 5.9-5.746 15.398.155 21.212 2.922 2.88 6.726 4.316 10.527 4.316 3.876 0 7.75-1.493 10.685-4.471l3.256-3.304c2.564 26.094 13.338 44.48 23.473 56.333 15.869 18.558 38.892 31.439 63.165 35.341.807.13 1.607.192 2.399.192 7.234 0 13.606-5.249 14.791-12.621 1.316-8.179-4.249-15.875-12.428-17.19z" fill="#4bc6ff"/></g></g><g/><g/><g/><g/><g/><g/><g/><g/><g/><g/><g/><g/><g/><g/><g/></svg>