<svg id="Layer_1" enable-background="new 0 0 512 512" viewBox="0 0 512 512" xmlns="http://www.w3.org/2000/svg"><g clip-rule="evenodd" fill-rule="evenodd"><path d="m391.41 305.04h46.06v17.94c0 8.82 4.82 16.36 12.81 20.07 21.57 10.06 51.9 12.44 51.9 40.39v65.68c0 5.3-4.34 9.61-9.64 9.61h-156.21c-5.3 0-9.64-4.31-9.64-9.61v-65.68c0-27.95 30.33-30.33 51.93-40.39 7.99-3.71 12.78-11.25 12.78-20.07v-17.94z" fill="#aae6fa"/><path d="m391.41 305.04h46.06v17.94c0 3.17.62 6.18 1.81 8.93v27.3h-49.66v-27.3c1.16-2.75 1.79-5.75 1.79-8.93z" fill="#e2aa73"/><path d="m34.47 265.07h125.89c0-28.29 4.82-49.24-28.83-51.96-1.62-.11-2.92-.96-3.63-2.32-.68-1.39-.54-2.86.4-4.08l5.61-7.34c.96-1.28 1.08-2.86.31-4.25-.79-1.39-2.24-2.21-3.94-2.21h-40.48c-28.6 0-55.33 16.92-55.33 45.33z" fill="#231915"/><path d="m44.71 254.84h105.42c5.61 0 10.23 4.59 10.23 10.23v13.01c0 5.61-4.62 10.2-10.23 10.2h-105.42c-5.64 0-10.23-4.59-10.23-10.2v-13.01c-.01-5.64 4.58-10.23 10.23-10.23z" fill="#e2aa73"/><path d="m74.53 305.04h46.06v17.94c0 8.82 4.79 16.36 12.78 20.07 21.6 10.06 51.93 12.44 51.93 40.39v65.68c0 5.3-4.34 9.61-9.64 9.61h-156.21c-5.3 0-9.64-4.31-9.64-9.61v-65.68c0-27.95 30.33-30.33 51.93-40.39 7.97-3.71 12.78-11.25 12.78-20.07v-17.94z" fill="#aae6fa"/><path d="m74.53 305.04h46.06v17.94c0 3.17.62 6.18 1.79 8.93v27.3h-49.64v-27.3c1.16-2.75 1.79-5.75 1.79-8.93z" fill="#e2aa73"/><path d="m107.15 237.15 5.64 3.77c3 2.01 6.12 2.98 9.72 2.98h3.32c6.94 0 12.61 5.67 12.61 12.61v27.44c0 22.03-18.03 40.05-40.05 40.05h-1.93c-22.05 0-40.05-18.03-40.05-40.05v-27.44c0-6.94 5.67-12.61 12.61-12.61h3.32c3.6 0 6.72-.96 9.72-2.98l5.64-3.77c6.02-4.02 13.44-4.02 19.45 0z" fill="#fbbd80"/><path d="m97.54 373.5-10.43 14.2-12.02 71.04h44.93l-12.02-71.04z" fill="#2f5274"/><path d="m121.61 353.94-13.61 33.76h-10.46-10.43l-13.63-33.76h24.06z" fill="#223c55"/><path d="m62.59 342.63c4.68-2.41 8.16-6.15 10.15-10.72l21.32 22.03-26.93 25.26z" fill="#2f5274"/><path d="m132.52 342.63c-4.68-2.41-8.19-6.15-10.15-10.72l-21.34 22.03 26.96 25.26z" fill="#2f5274"/><path d="m351.36 265.07h125.89c0-28.29 4.82-49.24-28.8-51.96-1.62-.11-2.95-.96-3.63-2.32-.68-1.39-.54-2.86.4-4.08l5.58-7.34c.99-1.28 1.11-2.86.31-4.25-.77-1.39-2.24-2.21-3.91-2.21h-40.51c-28.6 0-55.33 16.92-55.33 45.33z" fill="#231915"/><path d="m361.59 254.84h105.42c5.64 0 10.23 4.59 10.23 10.23v13.01c0 5.61-4.59 10.2-10.23 10.2h-105.42c-5.61 0-10.23-4.59-10.23-10.2v-13.01c0-5.64 4.62-10.23 10.23-10.23z" fill="#e2aa73"/><path d="m424.04 237.15 5.67 3.77c3 2.01 6.09 2.98 9.69 2.98h3.32c6.94 0 12.61 5.67 12.61 12.61v27.44c0 22.03-18 40.05-40.05 40.05h-1.93c-22.03 0-40.05-18.03-40.05-40.05v-27.44c0-6.94 5.67-12.61 12.61-12.61h3.32c3.63 0 6.72-.96 9.72-2.98l5.64-3.77c6.01-4.02 13.44-4.02 19.45 0z" fill="#fbbd80"/><path d="m414.46 373.5-10.46 14.2-12.02 71.04h44.93l-12.02-71.04z" fill="#2f5274"/><path d="m438.52 353.94-13.63 33.76h-10.43-10.46l-13.61-33.76h24.07z" fill="#223c55"/><path d="m379.51 342.63c4.65-2.41 8.16-6.15 10.12-10.72l21.34 22.03-26.96 25.26z" fill="#2f5274"/><path d="m449.41 342.63c-4.68-2.41-8.16-6.15-10.12-10.72l-21.35 22.03 26.96 25.26z" fill="#2f5274"/><path d="m229.04 324.12h53.91v21c0 10.32 5.61 19.16 14.97 23.5 25.26 11.79 60.75 14.54 60.75 47.28v76.82c0 6.21-5.05 11.28-11.25 11.28h-182.84c-6.21 0-11.25-5.07-11.25-11.28v-76.82c0-32.74 35.49-35.49 60.75-47.28 9.35-4.34 14.97-13.18 14.97-23.5v-21z" fill="#e2e7f0"/><path d="m229.04 324.12h53.91v21c0 3.97.82 7.71 2.38 11.08v31.41h-59.05v-30.61c1.79-3.57 2.75-7.6 2.75-11.88v-21z" fill="#e2aa73"/><path d="m256 404.26-12.22 16.61-14.06 83.14h52.59l-14.06-83.14z" fill="#2f5274"/><path d="m284.18 381.35-15.93 39.52h-12.25-12.22l-15.96-39.52h28.18z" fill="#223c55"/><path d="m215.1 368.14c5.47-2.83 9.55-7.23 11.85-12.56l24.97 25.77-31.55 29.57z" fill="#2f5274"/><path d="m296.9 368.14c-5.47-2.83-9.55-7.23-11.85-12.56l-24.97 25.77 31.55 29.57z" fill="#2f5274"/><path d="m184.71 277.35h142.24c0-33.08 5.47-57.63-32.54-60.77-1.84-.14-3.32-1.16-4.11-2.75-.77-1.59-.6-3.34.45-4.79l6.32-8.59c1.11-1.47 1.25-3.32.37-4.96-.88-1.62-2.52-2.58-4.45-2.58h-45.75c-32.31 0-62.53 19.79-62.53 53.06z" fill="#231915"/><path d="m196.67 265.39h118.35c6.58 0 11.93 5.39 11.93 11.96v15.25c0 6.58-5.36 11.93-11.93 11.93h-118.35c-6.58 0-11.96-5.36-11.96-11.93v-15.25c0-6.58 5.38-11.96 11.96-11.96z" fill="#e2aa73"/><path d="m267.23 244.69 6.6 4.42c3.52 2.35 7.14 3.46 11.4 3.46h3.85c8.14 0 14.77 6.63 14.77 14.77v32.09c0 25.8-21.09 46.89-46.86 46.89h-2.27c-25.8 0-46.89-21.09-46.89-46.89v-32.09c0-8.14 6.63-14.77 14.77-14.77h3.88c4.22 0 7.85-1.11 11.37-3.46l6.63-4.42c7.04-4.7 15.72-4.7 22.75 0z" fill="#fbbd80"/><path d="m390.25 30.37h48.33v107.32c0 13.29-10.86 24.15-24.15 24.15-13.29 0-24.18-10.86-24.18-24.15z" fill="#aae6fa"/><path d="m438.58 76.34v61.34c0 13.29-10.86 24.15-24.15 24.15s-24.18-10.86-24.18-24.15v-57.6c18 2.58 32.03-2.15 48.33-3.74z" fill="#70da40"/><path d="m382.68 15.88h63.47c1.96 0 3.54 1.59 3.54 3.54v15.42c0 1.96-1.59 3.54-3.54 3.54h-63.47c-1.96 0-3.54-1.59-3.54-3.54v-15.42c0-1.95 1.58-3.54 3.54-3.54z" fill="#0cf"/><path d="m73.36 30.37h48.33v107.32c0 13.29-10.89 24.15-24.18 24.15-13.27 0-24.15-10.86-24.15-24.15z" fill="#aae6fa"/><path d="m121.69 76.34v61.34c0 13.29-10.89 24.15-24.18 24.15-13.27 0-24.15-10.86-24.15-24.15v-57.6c17.98 2.58 32.01-2.15 48.33-3.74z" fill="#70da40"/><path d="m65.8 15.88h63.47c1.96 0 3.54 1.59 3.54 3.54v15.42c0 1.96-1.59 3.54-3.54 3.54h-63.47c-1.96 0-3.54-1.59-3.54-3.54v-15.42c-.01-1.95 1.58-3.54 3.54-3.54z" fill="#0cf"/><path d="m255.97 96.33c7.97 0 14.46-6.49 14.46-14.46s-6.49-14.46-14.46-14.46-14.46 6.49-14.46 14.46 6.5 14.46 14.46 14.46z" fill="#056bb8"/></g><g><path d="m470.24 338.37c-5.29-1.86-10.29-3.63-14.85-5.73-.49-.32-1.01-.59-1.57-.8-2.29-1.32-4.07-3.12-5.27-5.27-.21-.83-.55-1.63-1.03-2.38-.47-1.45-.73-3.02-.73-4.67v-1.56c7.98-6.38 13.91-15.23 16.61-25.39h5.37c10.09 0 18.3-8.21 18.3-18.3v-13.12c0-3.2.06-6.34.12-9.38.45-22.04.9-44.79-29.83-50.1l1.42-1.87c2.92-3.84 3.28-8.84.89-13.1-2.24-3.91-6.31-6.25-10.89-6.25h-40.82c-30.9 0-63.74 18.81-63.74 53.67v27.01 13.12c0 10.09 8.21 18.3 18.3 18.3h5.4c2.68 10.08 8.54 18.88 16.44 25.25v1.69c0 5.81-3.01 10.54-8.27 12.98-4.62 2.15-9.71 3.94-15.11 5.84-14.73 5.18-32.5 11.44-39.15 27.65-.79-.28-1.59-.56-2.37-.83-6.35-2.23-12.36-4.34-17.82-6.88-6.55-3.06-10.46-9.2-10.46-16.44v-2.69c9.5-7.51 16.49-18.06 19.46-30.18h4.84c11.06 0 20.06-9 20.06-20.06v-15.36c0-3.76.07-7.44.14-11 .29-14.74.54-27.47-4.32-37.87-5.1-10.93-15.14-17.41-30.55-19.72l3.02-4.11c2.97-3.97 3.35-9.17.97-13.61-2.27-4.17-6.68-6.77-11.52-6.77h-46.09c-18.35 0-35.64 5.63-48.67 15.86-14.42 11.32-22.36 27.5-22.36 45.58v31.63 15.36c0 11.06 9 20.06 20.06 20.06h4.84c3.01 12.25 10.11 22.89 19.77 30.41v2.45c0 7.24-3.91 13.38-10.45 16.44-5.47 2.55-11.47 4.65-17.82 6.88-.81.28-1.63.57-2.45.86-6.64-16.23-24.43-22.49-39.16-27.68-5.39-1.9-10.49-3.69-15.11-5.84-5.25-2.44-8.26-7.17-8.26-12.98v-1.73c7.87-6.37 13.71-15.15 16.38-25.21h5.37c10.09 0 18.3-8.21 18.3-18.3v-13.12c0-3.22.06-6.37.13-9.42.45-22.03.92-44.76-29.82-50.06l1.42-1.86c2.92-3.84 3.28-8.84.95-12.99-2.16-3.92-6.36-6.36-10.95-6.36h-40.76c-30.91 0-63.77 18.81-63.77 53.67v27.01 13.12c0 10.09 8.21 18.3 18.3 18.3h5.43c2.7 10.17 8.64 19.03 16.64 25.42v1.52c0 5.81-3.01 10.54-8.28 12.98-4.63 2.16-9.75 3.96-15.16 5.87-18.6 6.61-41.76 14.75-41.76 42.13v66.16c0 9.76 7.94 17.7 17.7 17.7h56.07 45.27 25.55v26.26c0 10.67 8.68 19.35 19.35 19.35h65.62 52.98 65.62c10.67 0 19.35-8.68 19.35-19.35v-26.26h25.64 45.27 55.87c9.76 0 17.7-7.94 17.7-17.7v-66.16c.01-27.38-23.15-35.52-41.75-42.07zm.82-64.09c0 1.24-1.04 2.28-2.28 2.28h-3.76v-17.69h3.76c1.24 0 2.28 1.04 2.28 2.28zm-104.74 2.29h-3.78c-1.24 0-2.28-1.04-2.28-2.28v-13.12c0-1.24 1.04-2.28 2.28-2.28h3.78zm2.42-33.71h-6.2c-.77 0-1.53.06-2.28.16v-8.87c0-24.46 24.59-37.66 47.72-37.66h33.22l-.77 1.01c-2.77 3.61-3.25 8.41-1.21 12.56 1.96 3.93 5.8 6.46 10.18 6.76 18.92 1.52 21.81 7.46 21.88 26.24-.82-.11-1.65-.19-2.5-.19h-6.17c-3.48-6.57-10.39-11.05-18.32-11.05h-3.34c-2.05 0-3.65-.48-5.32-1.59l-5.7-3.83c-.01 0-.01-.01-.02-.01-8.81-5.88-19.73-5.88-28.5.01l-5.66 3.8c-1.7 1.13-3.3 1.61-5.35 1.61h-3.34c-7.94 0-14.84 4.48-18.32 11.05zm13.82 41.05c-.01-.16-.04-.32-.06-.49-.11-1.07-.16-2.15-.16-3.24v-27.64c0-2.56 2.16-4.72 4.72-4.72h3.34c5.22 0 9.86-1.4 14.24-4.31l5.7-3.83c3.33-2.23 7.31-2.23 10.67.01l5.72 3.84c4.34 2.88 8.99 4.28 14.21 4.28h3.34c2.56 0 4.72 2.16 4.72 4.72v27.64c0 1.09-.06 2.17-.16 3.24-.02.16-.04.32-.06.49-1.85 16.09-15.56 28.63-32.14 28.63h-1.96c-6.34 0-12.26-1.84-17.26-5.01-.39-.32-.82-.6-1.27-.84-7.37-5.18-12.5-13.37-13.59-22.77zm33.36 58.79h-.25l-16-16.51c0-.01.01-.02.01-.03 4.73 1.55 9.77 2.4 15.01 2.4h1.96c5.18 0 10.17-.83 14.86-2.34.02.1.05.2.08.31zm8.97 24.2-3.97 9.81h-10.26l-3.95-9.8 8.74-8.2h.7zm-105.34-77.99c0 2.19-1.85 4.04-4.04 4.04h-3.25v-23.44h3.25c2.19 0 4.04 1.85 4.04 4.04zm-120.04 4.04h-3.25c-2.19 0-4.04-1.85-4.04-4.04v-15.36c0-2.19 1.85-4.04 4.04-4.04h3.25zm2.28-39.46h-5.53c-1.38 0-2.73.14-4.04.41v-11.99c0-29.82 27.67-45.43 55.01-45.43h39.96l-2.53 3.45c-2.88 3.87-3.35 8.76-1.25 13.08 1.98 4.13 5.95 6.85 10.69 7.28 22.71 1.88 25.75 9.93 25.7 33.67-1.38-.3-2.82-.47-4.29-.47h-5.53c-3.71-7.64-11.55-12.93-20.6-12.93h-3.88c-2.7 0-4.8-.64-7.03-2.14l-6.66-4.45c-9.81-6.55-21.99-6.55-31.79-.01l-6.74 4.49c-2.18 1.48-4.26 2.11-6.96 2.11h-3.88c-9.08.01-16.93 5.29-20.65 12.93zm13.73 42.31v-32.34c0-3.79 3.1-6.87 6.9-6.87h3.88c5.89 0 11.11-1.59 15.89-4.83l6.7-4.46c4.38-2.93 9.62-2.93 14.01 0l6.64 4.44c4.85 3.26 10.07 4.85 15.95 4.85h3.88c3.79 0 6.88 3.08 6.88 6.87v32.34c0 13.4-6.76 25.25-17.04 32.32-.29.16-.56.35-.82.54-6.15 4.01-13.48 6.35-21.36 6.35h-2.27c-7.78 0-15.03-2.28-21.14-6.2-.29-.21-.58-.41-.9-.58-10.37-7.06-17.2-18.96-17.2-32.43zm41.24 74.51h-1.44l-19.46-20.1c.19-.77.35-1.55.49-2.34 5.76 2.04 11.96 3.16 18.41 3.16h2.27c6.55 0 12.84-1.15 18.68-3.26.14.83.31 1.65.51 2.45zm11.52 26.62-5.32 13.21h-13.85l-5.32-13.21 11.3-10.6h1.88zm-27.76-18.89-14.35 13.47-2.77-22.45c1.63-1.23 3.13-2.6 4.49-4.07zm43.69-13.03c1.36 1.47 2.85 2.83 4.48 4.06l-2.77 22.45-14.35-13.46zm-132.55-90.73c0 1.24-1.04 2.28-2.28 2.28h-3.76v-17.69h3.76c1.24 0 2.28 1.04 2.28 2.28zm-104.72 2.29h-3.81c-1.24 0-2.28-1.04-2.28-2.28v-13.12c0-1.24 1.04-2.28 2.28-2.28h3.81zm2.41-33.71h-6.22c-.77 0-1.53.06-2.28.16v-8.87c0-24.72 24.02-37.66 47.75-37.66h33.22l-.75.99c-2.81 3.61-3.3 8.4-1.27 12.52.03.06.06.12.09.17 2.01 3.85 5.82 6.34 10.12 6.64 18.93 1.52 21.82 7.46 21.88 26.24-.82-.11-1.65-.19-2.51-.19h-6.17c-3.48-6.57-10.39-11.05-18.32-11.05h-3.32c-2.09 0-3.65-.47-5.34-1.59l-5.7-3.83c-8.77-5.89-19.69-5.89-28.51 0l-5.69 3.82c-1.67 1.12-3.26 1.59-5.32 1.59h-3.34c-7.94.01-14.84 4.49-18.32 11.06zm13.61 37.32v-27.64c0-2.6 2.1-4.72 4.69-4.72h3.35c5.26 0 9.92-1.41 14.24-4.31l5.68-3.82c3.35-2.24 7.34-2.25 10.67-.01l5.73 3.85c4.34 2.88 9 4.28 14.24 4.28h3.32c2.56 0 4.72 2.16 4.72 4.72v27.64c0 11.08-5.6 20.87-14.11 26.7-.2.12-.4.25-.58.39-5.08 3.32-11.15 5.27-17.66 5.27h-1.96c-6.39 0-12.34-1.87-17.36-5.08-.26-.19-.52-.36-.8-.52-8.55-5.82-14.17-15.64-14.17-26.75zm33.56 62.52h-.25l-15.82-16.34c.01-.04.02-.09.03-.13 4.67 1.51 9.64 2.33 14.81 2.33h1.96c5.26 0 10.32-.86 15.07-2.42.02.07.04.14.05.21zm8.97 24.21-3.95 9.8h-10.26l-3.96-9.82 8.72-8.18h.7zm-38.48 81.38h-49.3c-.93 0-1.69-.76-1.69-1.69v-66.16c0-15.26 11.8-20.19 31.06-26.96 2.47-.87 4.97-1.75 7.46-2.68l3.24 26.34c.37 2.99 2.39 5.52 5.22 6.55.89.32 1.81.48 2.73.48 2 0 3.97-.75 5.48-2.17l3.59-3.37 2.81 6.98zm4.74-88.75-2-16.24c.91-.72 1.79-1.48 2.6-2.29l9.12 9.42zm11.5 88.75 9.4-55.56h7.53l9.4 55.56zm37.22-107.28c.82.81 1.69 1.57 2.6 2.29l-2.01 16.25-9.73-9.12zm24.13 72.11v35.16h-18.79l-10.6-62.67 2.81-6.96 3.57 3.35c1.51 1.41 3.48 2.17 5.48 2.17.91 0 1.84-.16 2.72-.48 2.83-1.03 4.85-3.55 5.22-6.54l3.27-26.36c2.47.92 4.95 1.8 7.4 2.66 15.35 5.4 25.76 9.51 29.54 18.39-16.16 7.27-30.62 18.37-30.62 41.28zm78.2 80.78h-58.85c-1.84 0-3.33-1.49-3.33-3.33v-77.44c0-18.79 14.18-24.73 37.31-32.86 3.39-1.19 6.85-2.41 10.26-3.72l4.03 32.57c.37 2.99 2.39 5.52 5.22 6.55.89.32 1.81.48 2.72.48 2 0 3.97-.75 5.48-2.17l5.64-5.29 4.17 10.35zm16.24 0 11.44-67.75h11.13l11.46 67.75zm112.46-38.89c-.07.42-.11.85-.11 1.29s.04.87.11 1.29v32.98c0 1.8-1.53 3.33-3.33 3.33h-58.86l-12.67-74.86 4.17-10.35 5.64 5.29c1.51 1.42 3.48 2.17 5.48 2.17.91 0 1.83-.16 2.72-.48 2.83-1.03 4.85-3.56 5.22-6.55l4.03-32.57c3.42 1.31 6.88 2.53 10.28 3.72 3.51 1.23 6.82 2.42 9.9 3.6.28.13.58.25.88.34 16.68 6.51 26.54 13.25 26.54 28.91zm34.89-6.72h-18.87v-35.16c0-22.95-14.51-34.06-30.72-41.32 3.79-8.85 14.19-12.96 29.52-18.35 2.51-.88 5.06-1.79 7.59-2.73l3.28 26.43c.37 2.99 2.39 5.52 5.22 6.54.89.32 1.81.48 2.72.48 2 0 3.97-.75 5.48-2.17l3.57-3.35 2.81 6.96zm4.75-88.74-2.03-16.4c.88-.71 1.73-1.45 2.53-2.24l9.23 9.53zm11.49 88.74 9.4-55.56h7.53l9.4 55.56zm37.13-107.18c.84.83 1.73 1.61 2.68 2.34l-1.98 16.1-9.72-9.11zm56.22 105.49c0 .93-.76 1.69-1.69 1.69h-49.1l-10.6-62.66 2.82-6.98 3.59 3.35c1.51 1.41 3.48 2.17 5.48 2.17.92 0 1.84-.16 2.73-.48 2.83-1.03 4.85-3.56 5.22-6.55l3.24-26.27c2.43.9 4.86 1.77 7.27 2.61 19.26 6.77 31.06 11.7 31.06 26.96v66.16zm-313.12-289.79c5.56 5.56 13.28 8.36 22.64 8.36 7.75 0 16.63-1.92 26.33-5.78 7.87-3.13 16.02-7.43 24.2-12.69 8.17 5.26 16.33 9.56 24.2 12.69 9.7 3.86 18.58 5.78 26.33 5.78 9.35 0 17.08-2.8 22.64-8.36 10.18-10.17 11.09-27.57 2.58-48.97-3.13-7.87-7.43-16.02-12.69-24.2 5.26-8.17 9.56-16.33 12.69-24.2 8.51-21.4 7.6-38.8-2.58-48.97-10.18-10.18-27.57-11.1-48.97-2.59-7.87 3.13-16.03 7.43-24.2 12.69-8.17-5.26-16.33-9.56-24.2-12.69-21.4-8.51-38.79-7.59-48.97 2.59s-11.1 27.57-2.59 48.97c3.13 7.87 7.43 16.02 12.69 24.2-5.26 8.17-9.56 16.33-12.69 24.2-8.51 21.4-7.59 38.79 2.59 48.97zm135.01-11.33c-7.13 7.13-25.78 3.8-47.61-8.91 6.99-5.46 13.89-11.54 20.52-18.17 6.65-6.65 12.76-13.57 18.23-20.59 3.16 5.41 5.81 10.76 7.88 15.95 5.83 14.65 6.2 26.51.98 31.72zm-31.73-122.72c7.77-3.09 14.75-4.64 20.38-4.64 4.99 0 8.91 1.22 11.36 3.67 5.21 5.21 4.85 17.08-.98 31.73-2.06 5.19-4.72 10.54-7.88 15.95-5.47-7.02-11.58-13.94-18.23-20.59-6.65-6.66-13.58-12.77-20.6-18.24 5.41-3.16 10.76-5.81 15.95-7.88zm-6.68 37.44c7.58 7.58 14.38 15.49 20.22 23.44-5.84 7.95-12.65 15.86-20.22 23.44-7.76 7.76-15.68 14.49-23.43 20.16-7.76-5.67-15.68-12.4-23.44-20.16-7.58-7.57-14.39-15.48-20.23-23.43 5.84-7.95 12.65-15.86 20.24-23.44 7.57-7.58 15.48-14.39 23.43-20.23 7.95 5.83 15.86 12.64 23.43 20.22zm-85.28-38.41c2.45-2.45 6.37-3.67 11.36-3.67 5.62 0 12.61 1.55 20.38 4.64 5.19 2.06 10.54 4.72 15.95 7.88-7.02 5.47-13.94 11.58-20.59 18.24-6.66 6.65-12.77 13.58-18.24 20.6-3.16-5.41-5.81-10.76-7.88-15.95-5.83-14.66-6.19-26.52-.98-31.74zm.97 91.96c2.06-5.19 4.72-10.54 7.88-15.95 5.48 7.02 11.59 13.94 18.24 20.59 6.63 6.63 13.53 12.72 20.52 18.17-21.83 12.72-40.48 16.04-47.61 8.91-5.21-5.2-4.85-17.06.97-31.72zm-131.11-72.99v92.05c0 17.84 14.5 32.36 32.33 32.36 17.84 0 32.36-14.52 32.36-32.36v-61.75c0-.01 0-.02 0-.03v-30.27c6.21-.2 11.2-5.3 11.2-11.56v-15.53c0-6.38-5.19-11.58-11.58-11.58h-63.96c-6.38 0-11.58 5.19-11.58 11.58v15.53c0 6.27 5.01 11.37 11.23 11.56zm48.67 92.05c0 9.01-7.33 16.34-16.34 16.34-9 0-16.31-7.33-16.31-16.34v-49.3c.95.03 1.89.05 2.82.05 8.79 0 16.76-1.31 24.55-2.58 1.79-.29 3.54-.57 5.29-.84v52.67zm0-68.87c-2.68.39-5.31.81-7.88 1.23-8.27 1.35-16.19 2.64-24.78 2.3v-26.69h32.66zm-43.88-45.84h55.08v6.66h-55.08zm314.47 22.66v92.05c0 17.84 14.52 32.36 32.36 32.36s32.36-14.52 32.36-32.36v-61.75c0-.01 0-.02 0-.03v-30.27c6.21-.2 11.2-5.3 11.2-11.56v-15.53c0-6.38-5.19-11.58-11.58-11.58h-63.95c-6.39 0-11.58 5.19-11.58 11.58v15.53c0 6.26 4.99 11.36 11.19 11.56zm48.7 92.05c0 9.01-7.33 16.34-16.34 16.34s-16.34-7.33-16.34-16.34v-49.3c.95.03 1.9.05 2.83.05 8.8 0 16.78-1.31 24.56-2.58 1.79-.29 3.54-.57 5.29-.84zm0-68.87c-2.68.39-5.3.81-7.87 1.23-8.28 1.36-16.2 2.65-24.81 2.31v-26.7h32.68zm-43.88-45.84h55.08v6.66h-55.08zm-132.11 88.1c12.45 0 22.58-10.13 22.58-22.58s-10.13-22.58-22.58-22.58-22.58 10.13-22.58 22.58 10.13 22.58 22.58 22.58zm0-29.14c3.62 0 6.56 2.94 6.56 6.56s-2.94 6.56-6.56 6.56-6.56-2.94-6.56-6.56 2.95-6.56 6.56-6.56z"/></g></svg>