<svg id="Layer_1" enable-background="new 0 0 512 512" height="512" viewBox="0 0 512 512" width="512" xmlns="http://www.w3.org/2000/svg"><g><g><path clip-rule="evenodd" d="m255.999 95.477c88.639 0 160.523 71.884 160.523 160.523s-71.884 160.523-160.523 160.523c-88.636 0-160.52-71.884-160.52-160.523s71.884-160.523 160.52-160.523z" fill="#f7c5b8" fill-rule="evenodd"/></g><g><path clip-rule="evenodd" d="m270.391 96.129c81.897 7.283 146.13 76.082 146.13 159.871 0 88.64-71.884 160.523-160.523 160.523v-.327c49.407-7.608 88.137-76.396 88.137-160.196 0-82.739-37.764-150.84-86.27-159.871z" fill="#08a9f1" fill-rule="evenodd"/></g><g><path clip-rule="evenodd" d="m255.999 416.196c-49.404-7.608-88.133-76.396-88.133-160.196 0-83.796 38.729-152.588 88.133-160.196z" fill="#08a9f1" fill-rule="evenodd"/></g><g><circle clip-rule="evenodd" cx="43.729" cy="256" fill="#08a9f1" fill-rule="evenodd" r="22.52"/></g><g><circle clip-rule="evenodd" cx="100.053" cy="76.623" fill="#08a9f1" fill-rule="evenodd" r="22.559"/></g><g><path clip-rule="evenodd" d="m276.159 41.363c0-11.133-9.027-20.156-20.161-20.156-11.13 0-20.153 9.023-20.153 20.156 0 11.134 9.023 20.156 20.153 20.156 11.134.001 20.161-9.022 20.161-20.156z" fill="#08a9f1" fill-rule="evenodd"/></g><g><path clip-rule="evenodd" d="m468.271 278.52c12.439 0 22.523-10.08 22.523-22.52 0-12.435-10.084-22.52-22.523-22.52-12.435 0-22.519 10.085-22.519 22.52 0 12.439 10.084 22.52 22.519 22.52z" fill="#08a9f1" fill-rule="evenodd"/></g><g><path clip-rule="evenodd" d="m411.947 99.182c12.454 0 22.554-10.1 22.554-22.559s-10.1-22.559-22.554-22.559c-12.459 0-22.559 10.1-22.559 22.559s10.1 22.559 22.559 22.559z" fill="#08a9f1" fill-rule="evenodd"/></g><g><path clip-rule="evenodd" d="m21.206 331.506h200.294v159.287h-200.294z" fill="#9be6fb" fill-rule="evenodd"/></g><g><path clip-rule="evenodd" d="m77.268 426.576 35.584 40.758 58.702-67.247 49.946 57.205v33.501h-200.294z" fill="#6c8cc7" fill-rule="evenodd"/></g><g><path clip-rule="evenodd" d="m104.393 398.164c10.643 0 19.318-8.681 19.318-19.318 0-10.642-8.676-19.321-19.318-19.321-10.641 0-19.318 8.68-19.318 19.321 0 10.637 8.677 19.318 19.318 19.318z" fill="#6c8cc7" fill-rule="evenodd"/></g><g><path clip-rule="evenodd" d="m283.326 331.506h200.294v159.287h-200.294z" fill="#f7c5b8" fill-rule="evenodd"/></g><g><path clip-rule="evenodd" d="m324.91 376.077h86.608v70.145h-86.608z" fill="#08a9f1" fill-rule="evenodd"/></g><g><path clip-rule="evenodd" d="m411.518 388.049 30.518-6.224v58.649l-30.518-6.224z" fill="#08a9f1" fill-rule="evenodd"/></g><g><path clip-rule="evenodd" d="m155.695 258.874h200.614v159.544h-200.614z" fill="#b9d6ff" fill-rule="evenodd"/></g><g><path clip-rule="evenodd" d="m297.287 338.646-82.931 47.883c0-31.921 0-63.843 0-95.765z" fill="#08a9f1" fill-rule="evenodd"/></g><g><circle clip-rule="evenodd" cx="43.764" cy="152.782" fill="#08a9f1" fill-rule="evenodd" r="22.557"/></g><g><path clip-rule="evenodd" d="m468.233 175.339c12.462 0 22.562-10.1 22.562-22.559 0-12.455-10.1-22.555-22.562-22.555-12.455 0-22.555 10.1-22.555 22.555 0 12.459 10.1 22.559 22.555 22.559z" fill="#08a9f1" fill-rule="evenodd"/></g></g><g><g><path d="m442.493 263c3.085 13 14.847 22.75 28.855 22.75 16.351 0 29.654-13.349 29.654-29.698s-13.304-29.778-29.654-29.778c-14.009 0-25.771 9.727-28.855 22.727h-16.987c-1.065-27-8.398-52.09-20.588-74.354l16.699-16.647h20.8c3.086 13 14.866 22.932 28.895 22.932 16.371 0 29.691-13.297 29.691-29.667s-13.32-29.92-29.691-29.92c-14.029 0-25.809 9.655-28.895 22.655h-23.618c-1.804 0-3.534.958-4.813 2.231l-16.312 16.431c-18.003-27.269-43.657-48.911-73.883-62.14l18.683-19.522h42.839c3.086 13 14.865 22.801 28.894 22.801 16.372 0 29.691-13.361 29.691-29.731s-13.319-29.821-29.691-29.821c-14.028 0-25.808 9.752-28.894 22.752h-45.761c-1.865 0-3.649.875-4.933 2.229l-24.472 25.9c-14.928-5.033-31.147-7.976-47.147-8.631v-21.69c12-2.78 21.071-13.626 21.071-26.556 0-15.028-12.267-27.253-27.296-27.253-15.028 0-27.388 12.225-27.388 27.253 0 12.424 8.614 22.925 19.614 26.193v22.051c-16 .649-32.23 3.648-47.179 8.688l-24.497-25.956c-1.283-1.354-3.011-2.229-4.876-2.229h-45.759c-3.086-13-14.866-22.773-28.896-22.773-16.372 0-29.691 13.375-29.691 29.745s13.319 29.802 29.691 29.802c14.03 0 25.811-9.773 28.896-22.773h42.836l18.684 19.584c-30.227 13.229-55.88 34.974-73.883 62.243l-16.313-16.575c-1.278-1.273-3.009-2.252-4.813-2.252h-23.616c-3.085-13-14.866-22.644-28.896-22.644-16.371 0-29.691 13.44-29.691 29.811s13.32 29.704 29.691 29.704c14.03 0 25.811-9.871 28.896-22.871h20.798l16.7 16.648c-12.189 22.261-19.521 47.351-20.587 74.351h-16.987c-3.085-13-14.847-22.75-28.855-22.75-16.353 0-29.656 13.354-29.656 29.704s13.304 29.771 29.656 29.771c14.009 0 25.771-9.725 28.855-22.725h16.993c.876 22 5.941 43 14.844 63h-83.542c-3.759 0-6.804 2.842-6.804 6.601v161.595c0 3.759 3.045 6.805 6.804 6.805h203.196c3.759 0 7-3.046 7-6.805v-69.196h49v69.195c0 3.759 2.965 6.805 6.723 6.805h203.197c3.758 0 7.08-3.046 7.08-6.805v-161.594c0-3.759-3.322-6.601-7.08-6.601h-76.255c8.901-20 13.958-41 14.835-63zm28.856-23.041c8.846 0 16.042 7.199 16.042 16.045s-7.196 16.042-16.042 16.042-16.04-7.196-16.04-16.042 7.194-16.045 16.04-16.045zm-.037-104.752c8.867 0 16.079 7.216 16.079 16.081 0 8.866-7.212 16.081-16.079 16.081-8.866 0-16.078-7.215-16.078-16.081-.001-8.865 7.211-16.081 16.078-16.081zm-57.106-77.261c8.867 0 16.079 7.216 16.079 16.081s-7.212 16.081-16.079 16.081c-8.865 0-16.077-7.216-16.077-16.081s7.212-16.081 16.077-16.081zm-316.412 32.162c-8.867 0-16.079-7.216-16.079-16.081s7.212-16.081 16.079-16.081 16.079 7.216 16.079 16.081-7.212 16.081-16.079 16.081zm-57.106 77.261c-8.867 0-16.079-7.215-16.079-16.081 0-8.865 7.212-16.081 16.079-16.081 8.868 0 16.08 7.216 16.08 16.081.001 8.866-7.211 16.081-16.08 16.081zm-.035 104.677c-8.848 0-16.044-7.196-16.044-16.042s7.196-16.045 16.044-16.045c8.846 0 16.04 7.199 16.04 16.045s-7.194 16.042-16.04 16.042zm292.347 152.954h24.764c3.758 0 7.236-3.053 7.236-6.811v-33.189h42v57h-74zm18-14h-190v-148h190zm-232.28-229h51.44c-6.12 20-9.745 43-10.296 68h-5.624-54.136c1.002-25 7.624-48 18.616-68zm144.28-14v-52-13.694c25 7.409 45.878 31.694 59.542 65.694zm64.446 14c6.535 20 10.477 43 11.075 68h-75.521v-68zm-78.446-79.704v65.704h-59.54c13.669-34 34.54-58.307 59.54-65.704zm0 79.704v68h-75.52c.599-25 4.54-48 11.075-68zm108.764 68h-5.626c-.551-25-4.176-48-10.296-68h51.44c10.993 20 17.614 43 18.616 68zm27.21-82h-47.667c-9.959-27-24.409-48.835-41.824-63.243 36.913 9.66 68.536 33.243 89.491 63.243zm-141.881-129.747c0-7.524 6.12-13.644 13.642-13.644s13.643 6.119 13.643 13.644-6.12 13.645-13.643 13.645c-7.522-.001-13.642-6.121-13.642-13.645zm-26.573 66.504c-17.416 14.408-31.866 36.243-41.825 63.243h-47.667c20.955-30 52.577-53.583 89.492-63.243zm-116.378 158.243h46.858v63h-30.596c-9.71-20-15.262-41-16.262-63zm46.858 76v79.059l-36.441 41.988-30.861-35.473c-2.587-2.967-7.417-2.967-10.004 0l-44.694 51.48v-137.054zm-114.223 148 41.901-47.799 30.97 35.572c2.586 2.967 7.665 3.02 10.254.053l43.543-49.826h21.774l32.781 37.764v24.236zm181.223-44.93-14.715-17.07h14.715zm266 44.93h-189v-62h28v23.979c0 3.758 3.151 7.021 6.91 7.021h87.862c3.759 0 7.228-3.264 7.228-7.021v-3.81l22.584 4.648c.45.091.8.134 1.253.134 1.555 0 3.258-.533 4.482-1.535 1.582-1.289 2.68-3.224 2.68-5.269v-59.499c0-2.045-1.15-3.979-2.732-5.27-1.585-1.293-3.567-1.803-5.568-1.4l-22.7 4.649v-3.81c0-3.759-3.469-6.818-7.228-6.818h-48.771v-32h115zm-59-91.479 17-3.537v42.828l-17-3.537zm-56-69.521v-63h46.86c-1 22-6.563 43-16.273 63z"/><path d="m102.197 407.029c14.56 0 26.406-11.845 26.406-26.402 0-14.559-11.847-26.402-26.406-26.402s-26.404 11.844-26.404 26.402 11.846 26.402 26.404 26.402zm0-39.197c7.056 0 12.794 5.74 12.794 12.795 0 7.053-5.738 12.793-12.794 12.793-7.054 0-12.792-5.74-12.792-12.793 0-7.055 5.739-12.795 12.792-12.795z"/><path d="m210.376 391.727c1.052.605 2.213.91 3.388.91s2.343-.305 3.396-.91l84.128-48.571c2.106-1.215 3.403-3.462 3.403-5.895s-1.299-4.681-3.405-5.895l-84.132-48.572c-2.105-1.21-4.672-1.21-6.777 0-2.106 1.219-3.377 3.462-3.377 5.895v97.144c0 2.433 1.27 4.676 3.376 5.894zm10.624-91.249 63.716 36.783-63.716 36.782z"/></g></g></svg>