<svg version="1.1" id="Capa_1" xmlns="http://www.w3.org/2000/svg" xmlns:xlink="http://www.w3.org/1999/xlink" x="0px" y="0px" viewBox="0 0 512 512" style="enable-background:new 0 0 512 512;" xml:space="preserve">
<g>
	<g>
		<path style="fill:#D2A0F5;" d="M316.795,121.552c0,0,57.256,107.917,122.595,154.63c14.18,10.138,16.885,30.167,5.74,43.569&#10;&#9;&#9;&#9;c-5.896,7.09-13.558,13.598-23.272,17.14c0,0,15.328,32.295,49.376,54.598c17.334,11.355,18.026,36.459,1.518,48.985&#10;&#9;&#9;&#9;c-27.806,21.1-76.491,44.38-155.958,44.38V121.552z"/>
		<path style="fill:#FF7D81;" d="M195.205,121.552c0,0-57.256,107.917-122.595,154.63c-14.18,10.138-16.885,30.167-5.74,43.569&#10;&#9;&#9;&#9;c5.896,7.09,13.558,13.598,23.272,17.14c0,0-15.328,32.295-49.376,54.598c-17.334,11.355-18.026,36.459-1.518,48.985&#10;&#9;&#9;&#9;c27.806,21.1,76.491,44.38,155.958,44.38V121.552z"/>
		<path style="fill:#CDEBFC;" d="M127.688,161.54c11.171,29.012,44.825,42.361,73.548,30.464&#10;&#9;&#9;&#9;c28.722-11.897,42.361-44.825,30.464-73.548c-11.897-28.722-21.626-52.211-40.378-97.481S84.744,50.009,127.688,161.54z"/>
		<path style="fill:#E1F1FA;" d="M384.312,161.54c-11.171,29.012-44.825,42.361-73.548,30.464&#10;&#9;&#9;&#9;c-28.722-11.897-42.361-44.825-30.464-73.548s21.626-52.211,40.378-97.481C339.429-24.294,427.256,50.009,384.312,161.54z"/>
		<path style="fill:#CDEBFC;" d="M251,264.5H141v50.557c0,45.667-10.633,90.708-31.056,131.554v0&#10;&#9;&#9;&#9;c-13.298,26.596,6.042,57.889,35.777,57.889h110L251,264.5z"/>
		<path style="fill:#E1F1FA;" d="M402.056,446.611L402.056,446.611C381.633,405.765,371,360.725,371,315.057V264.5H251v50.557&#10;&#9;&#9;&#9;c0,45.667-10.633,90.708-31.056,131.554v0c-13.298,26.596,6.042,57.889,35.777,57.889h110.557&#10;&#9;&#9;&#9;C396.014,504.5,415.354,473.208,402.056,446.611z"/>
		<path style="fill:#E1F1FA;" d="M291,92.272c-11.136-3.106-22.873-4.772-35-4.772c-71.797,0-130,58.203-130,130&#10;&#9;&#9;&#9;c0,109.071,54.229,189.501,130,189.501c12.281,0,23.99-2.125,35-6.13V92.272z"/>
		<path style="fill:#F5FAFC;" d="M386,217.5c0-59.67-40.204-109.945-95-125.228c-54.796,15.283-95,65.558-95,125.228&#10;&#9;&#9;&#9;c0,91.394,38.08,162.665,95,183.371C347.92,380.165,386,308.894,386,217.5z"/>
		<g>
			<path style="fill:#BEE4F4;" d="M286,230.021v-4.631c0-16.568-13.431-30-30-30s-30,13.431-30,30v4.631&#10;&#9;&#9;&#9;&#9;c0,38.918-14.119,76.21-38.532,106.519C180.189,345.576,176,356.17,176,367.5c0,33.137,35.817,60,80,60&#10;&#9;&#9;&#9;&#9;c10.613,0,20.733-1.564,30-4.378V230.021z"/>
			<path style="fill:#CDEBFC;" d="M336,367.5c0-11.33-4.189-21.924-11.468-30.961C300.119,306.231,286,268.939,286,230.021&#10;&#9;&#9;&#9;&#9;c0,38.918-14.119,76.21-38.532,106.519C240.189,345.576,236,356.17,236,367.5c0,25.178,20.687,46.719,50,55.622&#10;&#9;&#9;&#9;&#9;C315.313,414.219,336,392.678,336,367.5z"/>
		</g>
		<g>
			<path style="fill:#FFE45C;" d="M276,27.227l-2.239-6.942c-2.458-7.62-9.55-12.784-17.556-12.784c-0.136,0-0.273,0-0.409,0&#10;&#9;&#9;&#9;&#9;c-8.006,0-15.098,5.164-17.556,12.784l-29.38,91.078c-2.043,6.333-0.546,13.294,3.987,18.166&#10;&#9;&#9;&#9;&#9;C220.199,137.43,233.904,147.5,256,147.5c7.643,0,14.281-1.206,20-3.109L276,27.227z"/>
			<path style="fill:#FFF48F;" d="M299.153,129.528c4.533-4.872,6.03-11.832,3.987-18.165L276,27.227l-27.14,84.136&#10;&#9;&#9;&#9;&#9;c-2.043,6.333-0.546,13.294,3.987,18.166c4.809,5.169,12.338,11.264,23.153,14.863&#10;&#9;&#9;&#9;&#9;C286.816,140.792,294.344,134.697,299.153,129.528z"/>
		</g>
	</g>
	<g>
		<path style="fill:none;stroke:#000000;stroke-width:15;stroke-linecap:round;stroke-linejoin:round;stroke-miterlimit:10;" d="&#10;&#9;&#9;&#9;M386.481,225.061c16.21,19.408,34.229,37.766,52.91,51.121c14.18,10.138,16.885,30.167,5.74,43.569&#10;&#9;&#9;&#9;c-5.896,7.09-13.558,13.598-23.272,17.14c0,0,15.328,32.295,49.376,54.598c17.334,11.355,18.026,36.459,1.518,48.985&#10;&#9;&#9;&#9;c-15.284,11.598-36.877,23.855-66.423,32.542"/>
		<path style="fill:none;stroke:#000000;stroke-width:15;stroke-linecap:round;stroke-linejoin:round;stroke-miterlimit:10;" d="&#10;&#9;&#9;&#9;M125.519,225.061c-16.21,19.408-34.229,37.766-52.91,51.121c-14.18,10.138-16.885,30.167-5.74,43.569&#10;&#9;&#9;&#9;c5.896,7.09,13.558,13.598,23.272,17.14c0,0-15.328,32.295-49.376,54.598c-17.334,11.355-18.026,36.459-1.518,48.985&#10;&#9;&#9;&#9;c15.284,11.598,36.877,23.855,66.423,32.542"/>
		<path style="fill:none;stroke:#000000;stroke-width:15;stroke-linecap:round;stroke-linejoin:round;stroke-miterlimit:10;" d="&#10;&#9;&#9;&#9;M116.355,112.035c1.065,15.369,4.584,31.977,11.333,49.505c1.396,3.627,3.144,7.008,5.189,10.127"/>
		<path style="fill:none;stroke:#000000;stroke-width:15;stroke-linecap:round;stroke-linejoin:round;stroke-miterlimit:10;" d="&#10;&#9;&#9;&#9;M217.262,83.599c-7.048-17.015-14.942-36.073-25.939-62.623c-13.433-32.43-62.313-3.498-73.174,56.524"/>
		<path style="fill:none;stroke:#000000;stroke-width:15;stroke-linecap:round;stroke-linejoin:round;stroke-miterlimit:10;" d="&#10;&#9;&#9;&#9;M294.905,83.196c7.006-16.914,14.862-35.88,25.772-62.22c18.752-45.27,106.579,29.033,63.634,140.564&#10;&#9;&#9;&#9;c-1.505,3.91-3.419,7.535-5.674,10.853"/>
		<path style="fill:none;stroke:#000000;stroke-width:15;stroke-linecap:round;stroke-linejoin:round;stroke-miterlimit:10;" d="&#10;&#9;&#9;&#9;M380.78,390.277c-6.471-24.465-9.78-49.745-9.78-75.22v-3.612"/>
		<path style="fill:none;stroke:#000000;stroke-width:15;stroke-linecap:round;stroke-linejoin:round;stroke-miterlimit:10;" d="&#10;&#9;&#9;&#9;M141,311.445v3.612c0,45.667-10.633,90.708-31.056,131.554v0c-13.298,26.596,6.042,57.889,35.777,57.889h220.557&#10;&#9;&#9;&#9;c29.735,0,49.075-31.292,35.777-57.889v0c-3.775-7.551-7.216-15.245-10.317-23.06"/>
		<path style="fill:none;stroke:#000000;stroke-width:15;stroke-linecap:round;stroke-linejoin:round;stroke-miterlimit:10;" d="&#10;&#9;&#9;&#9;M213.519,94.599C162.583,112.202,126,160.579,126,217.5c0,64.121,18.742,118.344,49.585,152.145"/>
		<path style="fill:none;stroke:#000000;stroke-width:15;stroke-linecap:round;stroke-linejoin:round;stroke-miterlimit:10;" d="&#10;&#9;&#9;&#9;M336.414,369.647C367.258,335.845,386,281.622,386,217.5c0-56.923-36.585-105.3-87.524-122.902"/>
		<path style="fill:none;stroke:#000000;stroke-width:15;stroke-linecap:round;stroke-linejoin:round;stroke-miterlimit:10;" d="&#10;&#9;&#9;&#9;M238.239,20.285l-29.38,91.078c-2.043,6.333-0.546,13.294,3.987,18.165C220.199,137.43,233.904,147.5,256,147.5&#10;&#9;&#9;&#9;s35.801-10.07,43.153-17.972c4.533-4.872,6.03-11.832,3.987-18.165l-29.38-91.078c-2.458-7.62-9.55-12.784-17.556-12.784&#10;&#9;&#9;&#9;c-0.136,0-0.273,0-0.409,0C247.789,7.501,240.697,12.665,238.239,20.285z"/>
		<path style="fill:none;stroke:#000000;stroke-width:15;stroke-linecap:round;stroke-linejoin:round;stroke-miterlimit:10;" d="&#10;&#9;&#9;&#9;M215.15,91.861c7.767,7.416,20.882,15.639,40.85,15.639c19.968,0,33.082-8.223,40.85-15.639"/>
		<path style="fill:none;stroke:#000000;stroke-width:15;stroke-linecap:round;stroke-linejoin:round;stroke-miterlimit:10;" d="&#10;&#9;&#9;&#9;M228.276,51.168C235.481,54.833,244.629,57.5,256,57.5c11.371,0,20.519-2.667,27.723-6.332"/>
		<path style="fill:none;stroke:#000000;stroke-width:15;stroke-linecap:round;stroke-linejoin:round;stroke-miterlimit:10;" d="&#10;&#9;&#9;&#9;M226,230.021v-4.631c0-16.569,13.431-30,30-30h0c16.569,0,30,13.431,30,30v4.631c0,38.918,14.119,76.21,38.532,106.519&#10;&#9;&#9;&#9;C331.811,345.576,336,356.17,336,367.5c0,33.137-35.817,60-80,60s-80-26.863-80-60c0-11.33,4.189-21.924,11.468-30.961&#10;&#9;&#9;&#9;C211.881,306.231,226,268.939,226,230.021z"/>
		<path style="fill:none;stroke:#000000;stroke-width:15;stroke-linecap:round;stroke-linejoin:round;stroke-miterlimit:10;" d="&#10;&#9;&#9;&#9;M221.691,369.608c3.985,0.281,8.063-1.094,11.11-4.141c3.047-3.047,4.422-7.125,4.141-11.11"/>
		<path style="fill:none;stroke:#000000;stroke-width:15;stroke-linecap:round;stroke-linejoin:round;stroke-miterlimit:10;" d="&#10;&#9;&#9;&#9;M290.309,369.608c-3.985,0.281-8.063-1.094-11.11-4.141c-3.047-3.047-4.422-7.125-4.141-11.11"/>
		<g>
			<path style="fill:none;stroke:#000000;stroke-width:15;stroke-linecap:round;stroke-linejoin:round;stroke-miterlimit:10;" d="&#10;&#9;&#9;&#9;&#9;M198.243,198.381c0-7.602-6.163-13.765-13.765-13.765c-7.602,0-13.765,6.163-13.765,13.765"/>
			<path style="fill:none;stroke:#000000;stroke-width:15;stroke-linecap:round;stroke-linejoin:round;stroke-miterlimit:10;" d="&#10;&#9;&#9;&#9;&#9;M313.757,198.381c0-7.602,6.163-13.765,13.765-13.765c7.602,0,13.765,6.163,13.765,13.765"/>
		</g>
	</g>
</g>
<g>
</g>
<g>
</g>
<g>
</g>
<g>
</g>
<g>
</g>
<g>
</g>
<g>
</g>
<g>
</g>
<g>
</g>
<g>
</g>
<g>
</g>
<g>
</g>
<g>
</g>
<g>
</g>
<g>
</g>
</svg>