<svg height="512" viewBox="0 0 96 96" width="512" xmlns="http://www.w3.org/2000/svg"><g id="podium"><path d="m72 1-18.81 24.4h-10.38l-18.81-24.4h7.58l14.18 18.4h4.48l14.18-18.4z" fill="#f7486c"/><path d="m55.43 12.67-5.19 6.73h-4.48l-5.19-6.73h-7.58l9.82 12.73h10.38l9.82-12.73z" fill="#b62f4e"/><path d="m53.19 26.4h-10.38a1 1 0 0 1 -.81-.4l-18.79-24.39a1 1 0 0 1 .79-1.61h7.58a1 1 0 0 1 .79.39l13.88 18h3.5l13.88-18a1 1 0 0 1 .79-.39h7.58a1 1 0 0 1 .79 1.61l-18.79 24.39a1 1 0 0 1 -.81.4zm-9.89-2h9.4l17.3-22.4h-5.09l-13.91 18a1 1 0 0 1 -.79.39h-4.45a1 1 0 0 1 -.76-.39l-13.91-18h-5.09z" fill="#302d3d"/><rect fill="#2a3d7e" height="5.92" rx="1.67" width="94" x="1" y="89.08"/><rect fill="#2a569c" height="5.92" rx="1.67" width="64.1" x="15.95" y="89.08"/><rect fill="#2a8dce" height="3.33" rx="1.67" width="52.33" x="21.83" y="89.08"/><path d="m93.33 96h-90.66a2.68 2.68 0 0 1 -2.67-2.67v-2.58a2.68 2.68 0 0 1 2.67-2.67h90.66a2.68 2.68 0 0 1 2.67 2.67v2.58a2.68 2.68 0 0 1 -2.67 2.67zm-90.66-5.92a.67.67 0 0 0 -.67.67v2.58a.67.67 0 0 0 .67.67h90.66a.67.67 0 0 0 .67-.67v-2.58a.67.67 0 0 0 -.67-.67z" fill="#302d3d"/><path d="m64.83 64.75h20.56a3.28 3.28 0 0 1 3.28 3.25v21.08a0 0 0 0 1 0 0h-27.11a0 0 0 0 1 0 0v-21.08a3.28 3.28 0 0 1 3.27-3.25z" fill="#f7486c"/><path d="m64.83 64.75h20.56a3.28 3.28 0 0 1 3.28 3.25v10a5.38 5.38 0 0 1 -5.37 5.38h-16.37a5.38 5.38 0 0 1 -5.37-5.38v-10a3.28 3.28 0 0 1 3.27-3.25z" fill="#f77fa3"/><path d="m76.92 64.75h-12.09a3.26 3.26 0 0 0 -3.27 3.25v5.06a2 2 0 0 0 4 0v-4.31h11.36a2 2 0 1 0 0-4z" fill="#f7b1cb"/><path d="m78.65 64.75h-7.18a2 2 0 0 0 0 4h7.29a2 2 0 0 0 2-2.34 2.07 2.07 0 0 0 -2.11-1.66z" fill="#fff"/><path d="m88.67 90.08h-27.11a1 1 0 0 1 -1-1v-21.08a4.28 4.28 0 0 1 4.27-4.28h20.56a4.28 4.28 0 0 1 4.28 4.28v21a1 1 0 0 1 -1 1.08zm-26.11-2h25.11v-20.08a2.29 2.29 0 0 0 -2.28-2.28h-20.56a2.28 2.28 0 0 0 -2.27 2.28z" fill="#302d3d"/><path d="m37.72 44.5h20.56a3.28 3.28 0 0 1 3.28 3.28v41.3a0 0 0 0 1 0 0h-27.12a0 0 0 0 1 0 0v-41.3a3.28 3.28 0 0 1 3.28-3.28z" fill="#4393ff"/><path d="m37.72 44.5h20.56a3.28 3.28 0 0 1 3.28 3.28v13.5a4.47 4.47 0 0 1 -4.47 4.47h-18.18a4.47 4.47 0 0 1 -4.47-4.47v-13.5a3.28 3.28 0 0 1 3.28-3.28z" fill="#61caff"/><path d="m39.12 48.5h13a2 2 0 0 0 0-4h-14.4a3.28 3.28 0 0 0 -3.28 3.28v5.68a2 2 0 1 0 4 0v-4.28a.67.67 0 0 1 .68-.68z" fill="#acf0ff"/><path d="m57.55 82.83v1.32a.92.92 0 0 1 -.92.93h-17.26a.92.92 0 0 1 -.92-.93v-1.32a2 2 0 0 0 -4 0v6.25h27.1v-6.25a2 2 0 0 0 -4 0z" fill="#434dc3"/><path d="m53.18 44.5h-8.26a2 2 0 0 0 0 4h8.37a2 2 0 0 0 2-2.34 2.07 2.07 0 0 0 -2.11-1.66z" fill="#fff"/><path d="m61.56 90.08h-27.12a1 1 0 0 1 -1-1v-41.3a4.28 4.28 0 0 1 4.28-4.28h20.56a4.28 4.28 0 0 1 4.28 4.28v41.3a1 1 0 0 1 -1 1zm-26.12-2h25.12v-40.3a2.29 2.29 0 0 0 -2.28-2.28h-20.56a2.29 2.29 0 0 0 -2.28 2.28z" fill="#302d3d"/><path d="m10.61 54.33h20.56a3.28 3.28 0 0 1 3.28 3.28v31.47a0 0 0 0 1 0 0h-27.12a0 0 0 0 1 0 0v-31.47a3.28 3.28 0 0 1 3.28-3.28z" fill="#fac625"/><path d="m30.44 82.83v1.32a.92.92 0 0 1 -.93.93h-17.25a.92.92 0 0 1 -.93-.93v-1.32a2 2 0 0 0 -4 0v6.25h27.11v-6.25a2 2 0 0 0 -4 0z" fill="#fa9434"/><path d="m10.61 54.33h20.56a3.28 3.28 0 0 1 3.28 3.28v12.15a4.37 4.37 0 0 1 -4.37 4.37h-18.38a4.37 4.37 0 0 1 -4.37-4.37v-12.15a3.28 3.28 0 0 1 3.28-3.28z" fill="#fae957"/><path d="m11.33 58.33h11.17a2 2 0 0 0 0-4h-11.89a3.28 3.28 0 0 0 -3.28 3.28v5.52a2 2 0 0 0 4 0z" fill="#faff98"/><path d="m23.23 54.33h-6.44a2 2 0 0 0 0 4h6.54a2 2 0 0 0 2-2.34 2.08 2.08 0 0 0 -2.1-1.66z" fill="#fff"/><path d="m34.44 90.08h-27.11a1 1 0 0 1 -1-1v-31.47a4.28 4.28 0 0 1 4.28-4.28h20.56a4.28 4.28 0 0 1 4.27 4.28v31.47a1 1 0 0 1 -1 1zm-26.11-2h25.11v-30.47a2.28 2.28 0 0 0 -2.27-2.28h-20.56a2.29 2.29 0 0 0 -2.28 2.28z" fill="#302d3d"/><circle cx="48" cy="25.4" fill="#fac625" r="10.81"/><path d="m54.56 29.63a7.8 7.8 0 0 1 -13.12 0 1.46 1.46 0 0 0 -1.22-.63 1.5 1.5 0 0 0 -1.22 2.35 10.79 10.79 0 0 0 18 0 1.5 1.5 0 0 0 -1.22-2.35 1.43 1.43 0 0 0 -1.22.63z" fill="#fa8020"/><path d="m52.84 20a2 2 0 0 0 1.07-3.65 10.77 10.77 0 0 0 -11.82 0 2 2 0 0 0 1.07 3.65z" fill="#faee4d"/><path d="m48 37.21a11.82 11.82 0 1 1 11.81-11.81 11.83 11.83 0 0 1 -11.81 11.81zm0-21.63a9.82 9.82 0 1 0 9.81 9.82 9.83 9.83 0 0 0 -9.81-9.82z" fill="#302d3d"/><path d="m48.75 20.09 1.25 2.47a.85.85 0 0 0 .63.45l2.72.4a.83.83 0 0 1 .46 1.42l-2 1.92a.85.85 0 0 0 -.24.73l.43 2.71a.83.83 0 0 1 -1.21.88l-2.43-1.28a.83.83 0 0 0 -.78 0l-2.43 1.28a.83.83 0 0 1 -1.15-.88l.47-2.71a.85.85 0 0 0 -.24-.73l-2-1.92a.83.83 0 0 1 .46-1.42l2.72-.4a.85.85 0 0 0 .63-.45l1.21-2.47a.84.84 0 0 1 1.5 0z" fill="#4393ff"/><path d="m51.21 32.17c-.62 0-.79-.18-3.21-1.45l-2.35 1.28a1.83 1.83 0 0 1 -2.65-2l.45-2.62-1.91-1.86a1.83 1.83 0 0 1 1-3.12l2.64-.4 1.18-2.38a1.83 1.83 0 0 1 3.28 0l1.18 2.38 2.63.39a1.83 1.83 0 0 1 1 3.12l-1.89 1.89.44 2.6a1.84 1.84 0 0 1 -1.79 2.17zm-.21-2.17-.41-2.38a1.82 1.82 0 0 1 .52-1.62l1.72-1.68-2.38-.32a1.82 1.82 0 0 1 -1.38-1l-1.07-2.16-1.07 2.16a1.82 1.82 0 0 1 -1.38 1l-2.38.35 1.72 1.65a1.82 1.82 0 0 1 .53 1.62l-.42 2.38c3.42-1.76 2.6-1.76 6 0z" fill="#302d3d"/><g fill="#434dc3"><path d="m54.62 70.12h-13.24a1 1 0 1 1 0-2h13.24a1 1 0 1 1 0 2z"/><path d="m54.62 76.71h-13.24a1 1 0 0 1 0-2h13.24a1 1 0 0 1 0 2z"/><path d="m54.62 83.29h-13.24a1 1 0 0 1 0-2h13.24a1 1 0 0 1 0 2z"/></g><g fill="#302d3d"><path d="m47.81 61.56a1 1 0 0 1 -1-1v-7.45a1 1 0 0 1 -1.08-1.63l1.38-1.37a1 1 0 0 1 1.7.7v9.75a1 1 0 0 1 -1 1z"/><path d="m23.84 71.31h-5.9a1 1 0 0 1 -.71-1.7l5.14-5.14a1.68 1.68 0 0 0 .47-1.3 1.61 1.61 0 0 0 -2.75-1.17l-1.39 1.4a1 1 0 0 1 -1.42 0 1 1 0 0 1 0-1.41l1.4-1.4a3.66 3.66 0 0 1 5.1 5.26l-3.43 3.43h3.49a1 1 0 1 1 0 2z"/><path d="m75.42 81.58h-.6a3.71 3.71 0 0 1 -2.82-1.58 1 1 0 0 1 0-1.41 1 1 0 0 1 1.42 0c1 1 .83 1 2 1a1.09 1.09 0 1 0 0-2.17h-.33a1 1 0 0 1 -.7-1.71l1.79-1.79a1.2 1.2 0 0 0 .33-.94 1.14 1.14 0 0 0 -1.94-.8l-.66.65a1 1 0 0 1 -1.41-1.41l.65-.66a3.14 3.14 0 0 1 5.36 2.24 3.57 3.57 0 0 1 -1.46 2.9 3.09 3.09 0 0 1 -1.63 5.68z"/></g><circle cx="7.84" cy="44.81" fill="#fac625" r="4.59"/><path d="m6.9 49.73c-.89-2.53-1.45-3.08-4-4a1 1 0 0 1 0-1.89c2.53-.89 3.09-1.45 4-4a1 1 0 0 1 1.89 0c.89 2.53 1.44 3.09 4 4a1 1 0 0 1 0 1.89c-2.54.89-3.09 1.44-4 4a1 1 0 0 1 -1.89 0zm-1.16-4.92a5.39 5.39 0 0 1 2.1 2.11 5.48 5.48 0 0 1 2.16-2.11 5.39 5.39 0 0 1 -2.11-2.1 5.3 5.3 0 0 1 -2.15 2.1z" fill="#302d3d"/><circle cx="28.59" cy="36.21" fill="#fac625" r="4.59"/><path d="m27.65 41.13c-.89-2.53-1.45-3.09-4-4a1 1 0 0 1 0-1.88c2.53-.89 3.09-1.45 4-4a1 1 0 0 1 1.88 0c.89 2.53 1.45 3.09 4 4a1 1 0 0 1 0 1.88c-2.53.89-3.09 1.45-4 4a1 1 0 0 1 -1.88 0zm-1.16-4.92a5.57 5.57 0 0 1 2.1 2.1 5.57 5.57 0 0 1 2.1-2.1 5.57 5.57 0 0 1 -2.1-2.1 5.57 5.57 0 0 1 -2.1 2.1z" fill="#302d3d"/><circle cx="13.35" cy="19.63" fill="#fac625" r="4.59"/><path d="m12.4 24.55c-.89-2.53-1.44-3.09-4-4a1 1 0 0 1 0-1.89c2.53-.89 3.08-1.44 4-4a1 1 0 0 1 1.89 0c.89 2.53 1.45 3.08 4 4a1 1 0 0 1 0 1.89c-2.53.89-3.09 1.45-4 4a1 1 0 0 1 -1.89 0zm-1.16-4.92a5.39 5.39 0 0 1 2.11 2.1 5.3 5.3 0 0 1 2.1-2.1 5.39 5.39 0 0 1 -2.1-2.11 5.48 5.48 0 0 1 -2.11 2.11z" fill="#302d3d"/><circle cx="72" cy="27.19" fill="#fac625" r="4.59"/><path d="m71.06 32.11c-.89-2.53-1.45-3.09-4-4a1 1 0 0 1 0-1.89c2.53-.89 3.09-1.44 4-4a1 1 0 0 1 1.88 0c.89 2.53 1.45 3.08 4 4a1 1 0 0 1 0 1.89c-2.53.89-3.09 1.45-4 4a1 1 0 0 1 -1.88 0zm-1.16-4.92a5.43 5.43 0 0 1 2.1 2.1 5.43 5.43 0 0 1 2.1-2.1 5.53 5.53 0 0 1 -2.1-2.11 5.53 5.53 0 0 1 -2.1 2.11z" fill="#302d3d"/><circle cx="80.05" cy="46.88" fill="#fac625" r="4.59"/><path d="m79.11 51.8c-.89-2.53-1.45-3.09-4-4a1 1 0 0 1 0-1.89c2.53-.89 3.09-1.45 4-4a1 1 0 0 1 1.89.09c.89 2.53 1.45 3.09 4 4a1 1 0 0 1 0 1.89c-2.53.89-3.09 1.45-4 4a1 1 0 0 1 -1.89-.09zm-1.11-4.92a5.43 5.43 0 0 1 2.1 2.1 5.43 5.43 0 0 1 2.1-2.1 5.53 5.53 0 0 1 -2.1-2.11 5.53 5.53 0 0 1 -2.1 2.11z" fill="#302d3d"/></g></svg>