<?xml version="1.0" encoding="utf-8"?>
<!-- Generator: Adobe Illustrator 16.0.0, SVG Export Plug-In . SVG Version: 6.00 Build 0)  -->
<!DOCTYPE svg PUBLIC "-//W3C//DTD SVG 1.1//EN" "http://www.w3.org/Graphics/SVG/1.1/DTD/svg11.dtd">
<svg xmlns="http://www.w3.org/2000/svg" xmlns:xlink="http://www.w3.org/1999/xlink" version="1.1" id="Business_x5F_proposal_1_" x="0px" y="0px" width="512" height="512" viewBox="0 0 512 512" enable-background="new 0 0 512 512" xml:space="preserve">
<g>
	<path fill="none" d="M177.789,426.531l7.672-15.344c-0.969-1.063-1.961-2.094-2.898-3.188h-20.406   c2.273,3.094,4.547,6.188,7.016,9.125C171.898,420.375,174.828,423.477,177.789,426.531z"/>
	<path fill="#FFBB00" d="M187.055,408h-4.492c0.938,1.094,1.93,2.125,2.898,3.188L187.055,408z"/>
	<path fill="#FFBB00" d="M352,236.688L395.313,280L360,315.313l-0.188-0.188L328,344.813V408h-67.703l-14.836,13.844   c-0.391,0.367-0.859,0.547-1.297,0.82c-0.219,0.133-0.352,0.375-0.586,0.492l-28.133,14.063C240.813,454.117,271.242,464,304,464   c88.359,0,160-71.633,160-160c0-80.18-59.055-146.398-136-158.008v114.695L352,236.688z M416,376h-24v24h-16v-24h-24v-16h24v-24h16   v24h24V376z"/>
	<path fill="#FFBB00" d="M169.172,417.125c-2.469-2.938-4.742-6.031-7.016-9.125h-19.359c4.344,6.719,8.969,13.281,14.125,19.422   c4.172,4.961,8.672,9.656,13.328,14.188l7.539-15.078C174.828,423.477,171.898,420.375,169.172,417.125z"/>
	<path fill="#FFBB00" d="M207.984,470.297c9.656,5.594,19.867,10.359,30.336,14.172c10.461,3.813,21.336,6.719,32.344,8.641   C281.602,495.031,292.82,496,304,496s22.398-0.969,33.344-2.891c11-1.922,21.875-4.828,32.336-8.641   c10.469-3.813,20.68-8.578,30.336-14.172L392,456.453c-8.852,5.125-18.203,9.484-27.789,12.984   c-9.586,3.484-19.555,6.148-29.625,7.922c-20.078,3.5-41.102,3.5-61.164,0c-10.078-1.773-20.047-4.438-29.633-7.93   s-18.938-7.852-27.789-12.977c-5.781-3.352-11.313-7.156-16.703-11.156l-15.898,7.953   C191.164,459.523,199.375,465.313,207.984,470.297z"/>
	<path fill="#FFBB00" d="M493.117,270.656c-1.922-10.984-4.836-21.867-8.648-32.348c-3.813-10.461-8.586-20.664-14.172-30.328   c-5.578-9.633-12.039-18.852-19.219-27.402c-7.18-8.539-15.141-16.5-23.664-23.656c-8.531-7.168-17.75-13.637-27.398-19.219   c-9.656-5.594-19.867-10.359-30.336-14.168c-10.461-3.813-21.336-6.723-32.344-8.648c-9.805-1.715-19.82-2.543-29.859-2.723   l17.195,17.195c3.313,0.383,6.633,0.715,9.906,1.285c10.078,1.77,20.047,4.434,29.633,7.926c9.586,3.488,18.938,7.855,27.789,12.98   c8.852,5.117,17.297,11.047,25.125,17.625c7.82,6.563,15.117,13.863,21.703,21.695c6.578,7.836,12.508,16.293,17.625,25.121   c5.117,8.855,9.484,18.211,12.984,27.797c3.492,9.594,6.156,19.563,7.914,29.633C479.109,283.438,480,293.719,480,304   s-0.891,20.563-2.648,30.578c-1.758,10.07-4.422,20.039-7.914,29.625c-3.5,9.609-7.867,18.953-12.984,27.805l13.844,8.008   c5.586-9.648,10.352-19.852,14.172-30.328c3.813-10.477,6.727-21.359,8.648-32.344C495.031,326.422,496,315.203,496,304   S495.031,281.578,493.117,270.656z"/>
	<polygon fill="#FFBB00" points="344,88 360,88 360,64 384,64 384,48 360,48 360,24 344,24 344,48 320,48 320,64 344,64  "/>
	<polygon fill="#FFFFFF" points="392,336 376,336 376,360 352,360 352,376 376,376 376,400 392,400 392,376 416,376 416,360    392,360  "/>
	<polygon fill="#FFFFFF" points="80,304 56,304 56,288 80,288 80,272 56,272 56,256 80,256 80,240 56,240 56,224 80,224 80,208    56,208 56,192 80,192 80,168 56,168 56,56 224,56 224,80 248,80 248,32 32,32 32,328 80,328  "/>
	<polygon fill="#E85D3A" points="56,56 56,168 80,168 80,80 224,80 224,56  "/>
	<rect x="56" y="192" fill="#43C2E8" width="24" height="16"/>
	<rect x="56" y="224" fill="#43C2E8" width="24" height="16"/>
	<rect x="56" y="256" fill="#43C2E8" width="24" height="16"/>
	<rect x="56" y="288" fill="#43C2E8" width="24" height="16"/>
	<polygon fill="#FFFFFF" points="312,359.75 277.438,392 312,392  "/>
	<path fill="#FFFFFF" d="M195.055,392l5.789-11.578c0.117-0.242,0.367-0.375,0.508-0.602c0.367-0.586,0.68-1.195,1.188-1.664   L213.414,368H120v-16h110.563l17.141-16H120v-16h144.844l17.141-16H224H120v-16h104h64v10.391l24-22.406V152h-24v80H120V120h144V96   H96v296H195.055z M288,256v16h-64H120v-16h104H288z"/>
	<polygon fill="#FFFFFF" points="280,107.313 280,136 308.688,136  "/>
	<path d="M275.313,80H264V16H16v328h64v64h62.797h19.359h20.406h4.492l-1.594,3.188l-7.672,15.344l-7.539,15.078l-1.406,2.813   c-1.539,3.078-0.938,6.797,1.5,9.234C171.883,455.188,173.93,456,176,456c1.219,0,2.438-0.281,3.578-0.844l3.82-1.906l15.898-7.953   l16.148-8.078l28.133-14.063c0.234-0.117,0.367-0.359,0.586-0.492c0.438-0.273,0.906-0.453,1.297-0.82L260.297,408H328v-63.188   l31.813-29.688l0.188,0.188L395.313,280L352,236.688l-24,24V145.992v-13.305l-3.328-3.328l-17.195-17.195L275.313,80z M352,259.313   L372.688,280L360,292.688L339.313,272L352,259.313z M312,359.75V392h-34.563L312,359.75z M240.195,404.875l-20.68-20.672   l108.289-101.078l20.68,20.672L240.195,404.875z M210.195,397.5l16.297,16.313l-32.602,16.297L210.195,397.5z M96,392V96h168v24v32   h24h24v123.984l-24,22.406L281.984,304l-17.141,16l-17.141,16l-17.141,16l-17.148,16l-10.875,10.156   c-0.508,0.469-0.82,1.078-1.188,1.664c-0.141,0.227-0.391,0.359-0.508,0.602L195.055,392H96z M32,32h216v48h-24H80v88v24v16v16v16   v16v16v16v16v24H32V32z M280,136v-28.688L308.688,136H280z"/>
	<polygon fill="#FFBB00" points="120,120 120,232 288,232 288,152 264,152 264,120  "/>
	<polygon fill="#43C2E8" points="120,256 120,272 224,272 288,272 288,256 224,256  "/>
	<polygon fill="#43C2E8" points="224,288 120,288 120,304 224,304 281.984,304 288,298.391 288,288  "/>
	<polygon fill="#43C2E8" points="120,320 120,336 247.703,336 264.844,320  "/>
	<polygon fill="#43C2E8" points="120,352 120,368 213.414,368 230.563,352  "/>
	<polygon fill="#E85D3A" points="348.484,303.797 327.805,283.125 219.516,384.203 240.195,404.875  "/>
	
		<rect x="341.372" y="267.029" transform="matrix(0.7071 0.7071 -0.7071 0.7071 299.4315 -170.8915)" fill="#FFFFFF" width="29.257" height="17.943"/>
	<polygon fill="#FFFFFF" points="226.492,413.813 210.195,397.5 193.891,430.109  "/>
</g>
</svg>
