<svg id="Capa_1" enable-background="new 0 0 512 512" viewBox="0 0 512 512" xmlns="http://www.w3.org/2000/svg"><g><g><g><path d="m338.115 477.673h-164.229l10.302-75.189h143.624z" fill="#c9c5cd"/></g></g><g><g><path d="m512 339.84v-272.032c0-22.758-18.449-41.207-41.207-41.207h-429.586c-22.758 0-41.207 18.449-41.207 41.207v272.032l262.326 9.757z" fill="#eef7ff"/></g></g><g><g><path d="m481.095 71.194v281.789l30.905-13.143v-268.646c0-22.758-18.449-41.207-41.207-41.207h-30.905c22.758 0 41.207 18.449 41.207 41.207z" fill="#e0eeff"/></g></g><g><g><path d="m0 339.84v27.784c0 22.758 18.449 41.207 41.207 41.207h429.586c22.758 0 41.207-18.449 41.207-41.207v-27.784z" fill="#968e9c"/></g></g><g><g><path d="m480.965 339.84c-1.598 21.297-19.371 38.084-41.077 38.084h-429.586c-3.181 0-6.273-.372-9.247-1.055 4.198 18.304 20.575 31.962 40.153 31.962h429.586c22.758 0 41.207-18.449 41.207-41.207v-27.784z" fill="#867f8b"/></g></g><g><g><path d="m175.942 280.288-103.473-31.326v-124.356l119.005 18.646z" fill="#a0cfff"/></g></g><g><g><path d="m279.415 248.962-103.473 31.326v-124.357l38.791-22.981 64.682-8.344z" fill="#54afff"/></g></g><g><g><path d="m72.469 124.606 103.473 31.325 103.473-31.325-103.473-33.421z" fill="#429cff"/></g></g><g><g><circle cx="175.942" cy="91.185" fill="#f29cda" r="17.089"/></g></g><g><g><circle cx="175.942" cy="150.376" fill="#f29cda" r="17.089"/></g></g><g><g><circle cx="175.942" cy="280.288" fill="#f29cda" r="17.089"/></g></g><g><g><circle cx="72.469" cy="248.962" fill="#f29cda" r="17.089"/></g></g><g><g><circle cx="72.469" cy="126.163" fill="#f29cda" r="17.089"/></g></g><g><g><circle cx="279.415" cy="124.606" fill="#f29cda" r="17.089"/></g></g><g><g><circle cx="279.415" cy="245.145" fill="#f29cda" r="17.089"/></g></g><g><g><path d="m454.433 283.605h-98.768c-5.474 0-9.912-4.438-9.912-9.912v-48.185c0-5.474 4.438-9.912 9.912-9.912h98.768c5.474 0 9.912 4.438 9.912 9.912v48.185c.001 5.474-4.437 9.912-9.912 9.912z" fill="#f8cb3c"/></g></g><g><g><path d="m366.266 485.399h-220.532c-4.268 0-7.726-3.459-7.726-7.726s3.459-7.726 7.726-7.726h220.532c4.268 0 7.726 3.459 7.726 7.726.001 4.267-3.458 7.726-7.726 7.726z" fill="#968e9c"/></g></g><g><g><path d="m262.843 382.062h-13.685c-4.268 0-7.726-3.459-7.726-7.726s3.459-7.726 7.726-7.726h13.685c4.268 0 7.726 3.459 7.726 7.726s-3.459 7.726-7.726 7.726z" fill="#736e78"/></g></g><g><g><path d="m456.619 99.641h-103.14c-4.268 0-7.726-3.459-7.726-7.726s3.459-7.726 7.726-7.726h103.141c4.268 0 7.726 3.459 7.726 7.726s-3.459 7.726-7.727 7.726z" fill="#c2deff"/></g></g><g><g><path d="m456.619 140.509h-103.14c-4.268 0-7.726-3.459-7.726-7.726s3.459-7.726 7.726-7.726h103.141c4.268 0 7.726 3.459 7.726 7.726 0 4.266-3.459 7.726-7.727 7.726z" fill="#c2deff"/></g></g><g><g><path d="m456.619 181.376h-103.14c-4.268 0-7.726-3.459-7.726-7.726s3.459-7.726 7.726-7.726h103.141c4.268 0 7.726 3.459 7.726 7.726s-3.459 7.726-7.727 7.726z" fill="#c2deff"/></g></g></g><g/><g/><g/><g/><g/><g/><g/><g/><g/><g/><g/><g/><g/><g/><g/></svg>