<svg id="Layer_1" viewBox="0 0 128 128" xmlns="http://www.w3.org/2000/svg" data-name="Layer 1"><path d="m109.54 75.25-5.46 3.73h-8.66l-8.07 9.49-9.08-9.86h-43.5l-2.77-5.3v-17.31h2.62a8.758 8.758 0 0 0 8.37-6.64c.92-3.49 2.97-6.6 4.61-9.11.5-.75.94-1.43 1.31-2.04.61-1 1.13-1.93 1.59-2.87a26.18887 26.18887 0 0 0 1.69-4.34c.01-.02.01-.05.02-.07a6.11092 6.11092 0 0 0 .86.07h2a5.96875 5.96875 0 0 0 4.47-2 6.03571 6.03571 0 0 0 1.04-1.63h43.95s5.3 4.75 5.00995 4.63c-.29995-.11.00005 43.25.00005 43.25z" fill="#98e07e"/><path d="m69 38.99908h32a1.99994 1.99994 0 1 0 0-3.99988h-32a1.99994 1.99994 0 1 0 0 3.99988z" fill="#2d4356"/><path d="m69 46.9989h22a1.99994 1.99994 0 1 0 0-3.9999h-22a1.99994 1.99994 0 1 0 0 3.99988z" fill="#2d4356"/><path d="m69 54.99872h32a1.99994 1.99994 0 1 0 0-3.99988h-32a1.99994 1.99994 0 1 0 0 3.99988z" fill="#2d4356"/><path d="m69 62.99854h22a1.99994 1.99994 0 1 0 0-3.99988h-22a1.99994 1.99994 0 1 0 0 3.99988z" fill="#2d4356"/><path d="m69 70.99835h32a1.99994 1.99994 0 1 0 0-3.99988h-32a1.99994 1.99994 0 1 0 0 3.99988z" fill="#2d4356"/><path d="m118.3 92.8a5.3546 5.3546 0 0 0 -5.27-.21l-25.58 13.14a6.14726 6.14726 0 0 0 -3.02-3.24l-18.85-8.94a5.60836 5.60836 0 0 0 -3.67-.41l-15.18 3.43a4.00634 4.00634 0 0 0 -3.73-2.57h-6a3.99887 3.99887 0 0 0 -4 4v18a4.00529 4.00529 0 0 0 4 4h6a4.00054 4.00054 0 0 0 3.18-1.6h2.51a9.93841 9.93841 0 0 1 2.97.44l23.5 8.87c.07.02.15.05.23.07a7.71152 7.71152 0 0 0 1.84.22 7.80408 7.80408 0 0 0 4.25-1.28l37.09-24.17c.03-.02.06-.04.1-.07a5.88264 5.88264 0 0 0 2.33-4.96 5.8135 5.8135 0 0 0 -2.7-4.72zm-75.3 23.2h-6v-18h6zm73.33-16.76-37.03 24.13a3.82927 3.82927 0 0 1 -2.86.55l-23.42-8.84a.4902.4902 0 0 0 -.11-.04 14.02151 14.02151 0 0 0 -4.22-.64h-1.69v-13.79l15.79-3.57a1.67292 1.67292 0 0 1 1.08.12l18.84 8.94a2.25174 2.25174 0 0 1 1.13 1.4 3.083 3.083 0 0 1 -.2 2.42 1.67681 1.67681 0 0 1 -2.14.95l-17.34-7.52a1.9998 1.9998 0 0 0 -1.59 3.67l17.34 7.52a5.52088 5.52088 0 0 0 2.19.46 5.77551 5.77551 0 0 0 5.06-3.18 6.76522 6.76522 0 0 0 .66-1.79l27.04-13.88a1.3435 1.3435 0 0 1 1.33.05 1.81607 1.81607 0 0 1 .81 1.48 1.90018 1.90018 0 0 1 -.67 1.56z" fill="#2d4356"/><path d="m37 98h6v18h-6z" fill="#fc785e"/><path d="m117 97.68a1.90018 1.90018 0 0 1 -.67 1.56l-37.03 24.13a3.82927 3.82927 0 0 1 -2.86.55l-23.42-8.84a.4902.4902 0 0 0 -.11-.04 14.02151 14.02151 0 0 0 -4.22-.64h-1.69v-13.79l15.79-3.57a1.67292 1.67292 0 0 1 1.08.12l18.84 8.94a2.25174 2.25174 0 0 1 1.13 1.4 3.083 3.083 0 0 1 -.2 2.42 1.67681 1.67681 0 0 1 -2.14.95l-17.34-7.52a1.9998 1.9998 0 0 0 -1.59 3.67l17.34 7.52a5.52088 5.52088 0 0 0 2.19.46 5.77551 5.77551 0 0 0 5.06-3.18 6.76522 6.76522 0 0 0 .66-1.79l27.04-13.88a1.3435 1.3435 0 0 1 1.33.05 1.81607 1.81607 0 0 1 .81 1.48z" fill="#e1ebf4"/><path d="m59 51h-12a3.99887 3.99887 0 0 0 -4 4v12a4.00529 4.00529 0 0 0 4 4h12a4.00529 4.00529 0 0 0 4-4v-12a3.99887 3.99887 0 0 0 -4-4zm0 16h-12v-12h12z" fill="#2d4356"/><path d="m47 55h12v12h-12z" fill="#e1ebf4"/><g fill="#2d4356"><path d="m32.07422 5.99988a2.0001 2.0001 0 0 0 2-2v-1.99994a2 2 0 0 0 -4 0v1.99994a2.0001 2.0001 0 0 0 2 2z"/><path d="m53.07422 22.99945a2 2 0 1 0 0 3.99994h2a2 2 0 1 0 0-3.99994z"/><path d="m9 26.99939h2a2 2 0 1 0 0-3.99994h-2a2 2 0 1 0 0 3.99994z"/><path d="m46.92383 12.15057a1.99352 1.99352 0 0 0 1.41406-.58594l1.41406-1.414a1.99976 1.99976 0 0 0 -2.82812-2.82806l-1.41406 1.414a2 2 0 0 0 1.41406 3.414z"/><path d="m15.81152 11.56464a1.99976 1.99976 0 1 0 2.82812-2.82806l-1.41406-1.414a1.99976 1.99976 0 1 0 -2.82812 2.82806z"/><path d="m39.19238 7.38361a1.99857 1.99857 0 0 0 2.60352-1.10547l.749-1.85443a2 2 0 0 0 -3.709-1.498l-.749 1.85443a1.99937 1.99937 0 0 0 1.10548 2.60347z"/><path d="m10 18.23834 1.85449.749a2 2 0 1 0 1.498-3.70892l-1.85449-.749a2 2 0 1 0 -1.498 3.70892z"/><path d="m49.56445 17.57623a1.9987 1.9987 0 0 0 2.623 1.05908l1.84084-.78174a2.0001 2.0001 0 0 0 -1.56442-3.68157l-1.84082.78174a1.99978 1.99978 0 0 0 -1.0586 2.62249z"/><path d="m22.02832 6.4505a1.99973 1.99973 0 0 0 3.68168-1.56244l-.78129-1.84076a1.99973 1.99973 0 0 0 -3.68164 1.56244z"/><path d="m107 32.99921v39.99908a4.00422 4.00422 0 0 1 -4 3.99994h-7.33789a1.9991 1.9991 0 0 0 -1.51074.68945l-7.16407 8.25812-7.16406-8.25812a1.99911 1.99911 0 0 0 -1.51076-.68945h-40.31248a4.00422 4.00422 0 0 1 -4-3.99994v-12.99969h.61914a1.99994 1.99994 0 1 0 0-3.99988h-5.23828a1.99994 1.99994 0 1 0 0 3.99988h.61914v12.99969a8.009 8.009 0 0 0 8 7.99982h39.39941l8.07715 9.31036a1.99991 1.99991 0 0 0 3.02148 0l8.07715-9.31036h6.42481a8.009 8.009 0 0 0 8-7.99982v-39.99908a8.00909 8.00909 0 0 0 -8-7.99982h-41.92578a5.96863 5.96863 0 0 1 -1.54047 3.99994h43.46625a4.0042 4.0042 0 0 1 4 3.99988z"/><path d="m32.29 8h-.58c-9.21 0-16.71 7.83-16.71 17.46a18.17021 18.17021 0 0 0 2.09 8.11c.4.82.87 1.66 1.42 2.56.35.58.77 1.22 1.23 1.93 1.71 2.6 4.05 6.16 5.14 10.28a4.82161 4.82161 0 0 0 4.5 3.66h5.24a4.82161 4.82161 0 0 0 4.5-3.66c1.09-4.12 3.43-7.68 5.14-10.28.46-.71.88-1.35 1.23-1.93.55-.89 1.01-1.73 1.42-2.56a18.138 18.138 0 0 0 2.09-8.11c0-9.63-7.5-17.46-16.71-17.46zm11.03 23.8c-.35.72-.76 1.46-1.24 2.26-.33.54-.73 1.14-1.16 1.8-1.86 2.83-4.41 6.71-5.66 11.46a.95915.95915 0 0 1 -.64.68h-5.24a.933.933 0 0 1 -.63-.68 39.20577 39.20577 0 0 0 -5.67-11.46c-.43-.66-.83-1.26-1.15-1.8-.49-.81-.9-1.55-1.25-2.25a14.35591 14.35591 0 0 1 -1.68-6.35c0-7.42 5.7-13.46 12.71-13.46h.58c7.01 0 12.71 6.04 12.71 13.46a14.284 14.284 0 0 1 -1.68 6.34z"/></g><path d="m45 25.46a14.284 14.284 0 0 1 -1.68 6.34c-.35.72-.76 1.46-1.24 2.26-.33.54-.73 1.14-1.16 1.8-1.86 2.83-4.41 6.71-5.66 11.46a.95915.95915 0 0 1 -.64.68h-5.24a.933.933 0 0 1 -.63-.68 39.20577 39.20577 0 0 0 -5.67-11.46c-.43-.66-.83-1.26-1.15-1.8-.49-.81-.9-1.55-1.25-2.25a14.35591 14.35591 0 0 1 -1.68-6.35c0-7.42 5.7-13.46 12.71-13.46h.58c7.01 0 12.71 6.04 12.71 13.46z" fill="#ffdb80"/><path d="m52.21 30.93a6.11092 6.11092 0 0 0 .86.07h-.88c.01-.02.01-.05.02-.07z" fill="#cbe0c3" opacity=".6"/><path d="m107 33v2a3.99887 3.99887 0 0 0 -4-4h-47.93a5.96875 5.96875 0 0 0 4.47-2h43.46a3.99887 3.99887 0 0 1 4 4z" fill="#cbe0c3" opacity=".6"/><path d="m83.83 109.48007a2.25684 2.25684 0 0 0 -1.12-1.38l-18.84-8.94a1.67292 1.67292 0 0 0 -1.08-.12l-15.79 3.57v-2l15.79-3.57a1.67292 1.67292 0 0 1 1.08.12l18.84 8.94a2.25174 2.25174 0 0 1 1.13 1.4 3.05163 3.05163 0 0 1 -.01 1.98z" fill="#fff" opacity=".5"/><path d="m37 98h6v2h-6z" fill="#f9dbd7" opacity=".3"/><path d="m37 114h6v2h-6z" fill="#a54b3f" opacity=".5"/><path d="m117 97.68008a1.90018 1.90018 0 0 1 -.67 1.56l-37.03 24.13a3.82927 3.82927 0 0 1 -2.86.55l-23.42-8.84a.4902.4902 0 0 0 -.11-.04 14.0215 14.0215 0 0 0 -4.22-.64h-1.69v-2h1.69a14.0215 14.0215 0 0 1 4.22.64.4902.4902 0 0 1 .11.04l23.42 8.84a3.82927 3.82927 0 0 0 2.86-.55l37.03-24.13a1.89775 1.89775 0 0 0 .41-.48 2.05137 2.05137 0 0 1 .26.92z" fill="#9fa5aa" opacity=".5"/><path d="m47 55h12v2h-12z" fill="#fff" opacity=".5"/><path d="m47 65h12v2h-12z" fill="#9fa5aa" opacity=".5"/><path d="m107 71.00009v2a4.00529 4.00529 0 0 1 -4 4h-7.34a1.99146 1.99146 0 0 0 -1.50995.69l-7.16 8.26-7.17-8.26a1.99149 1.99149 0 0 0 -1.51-.69h-40.31005a4.00529 4.00529 0 0 1 -4-4v-2a4.00529 4.00529 0 0 0 4 4h40.31a1.99149 1.99149 0 0 1 1.51.69l7.17 8.26 7.16-8.26a1.99146 1.99146 0 0 1 1.50995-.69h7.34005a4.00529 4.00529 0 0 0 4-4z" fill="#528440" opacity=".3"/><path d="m45 25.46005a7.50522 7.50522 0 0 1 -.05.94c-.5-6.93-5.99-12.4-12.66-12.4h-.58c-6.67 0-12.16 5.47-12.66 12.4a7.50522 7.50522 0 0 1 -.05-.94c0-7.42 5.7-13.46 12.71-13.46h.58c7.01.00004 12.71 6.04002 12.71 13.46z" fill="#f9edd2" opacity=".5"/><path d="m45 25.46a14.284 14.284 0 0 1 -1.68 6.34c-.35.72-.76 1.46-1.24 2.26-.33.54-.73 1.14-1.16 1.8-1.86 2.83-4.41 6.71-5.66 11.46a.95915.95915 0 0 1 -.64.68h-5.24a.933.933 0 0 1 -.63-.68 39.20577 39.20577 0 0 0 -5.67-11.46c-.43-.66-.83-1.26-1.15-1.8-.49-.81-.9-1.55-1.25-2.25a14.35591 14.35591 0 0 1 -1.68-6.35 9.298 9.298 0 0 1 .05-1.06 15.20151 15.20151 0 0 0 1.63 5.41c.35.7.76 1.44 1.25 2.25.32.54.72 1.14 1.15 1.8a39.20577 39.20577 0 0 1 5.67 11.46.933.933 0 0 0 .63.68h5.24a.95915.95915 0 0 0 .64-.68c1.25-4.75 3.8-8.63 5.66-11.46.43-.66.83-1.26 1.16-1.8.48-.8.89-1.54 1.24-2.26a15.09663 15.09663 0 0 0 1.63-5.4 9.298 9.298 0 0 1 .05 1.06z" fill="#ad9359" opacity=".45"/></svg>