<svg id="Capa_1" enable-background="new 0 0 497 497" height="512" viewBox="0 0 497 497" width="512" xmlns="http://www.w3.org/2000/svg"><g><path d="m248.503 436.854s139.654-23.91 172.555-75.953c-8.092-34.083-37.602-81.166-70.429-111.664l-240.99 39.266c-16.32 20.502-28.847 51.984-33.697 72.391 32.895 52.048 172.561 75.96 172.561 75.96z" fill="#d5717f"/><path d="m228.503 406.854c41.674 0 122.127-50.258 122.127-138.315 0-1.082 0-4.514 0-9.302 32.827 30.498 62.337 67.581 70.429 101.664 4.393-6.949 6.885-14.399 6.885-22.361 0-67.594-144.542-234.065-179.44-234.065s-179.44 166.471-179.44 234.065c0 7.96 2.49 15.407 6.88 22.354 4.849-20.407 17.376-41.889 33.697-62.391 15.448 69.396 82.175 108.351 118.862 108.351z" fill="#c63c50"/><path d="m416.078 420.565-53.82-17.09h-227.51l-53.82 17.09c-7.82 2.483-15.042 6.1-21.529 10.616-14.259 14.259-24.396 39.006-24.396 55.819l434.459-10c-6.773-26.3-26.624-47.938-53.384-56.435z" fill="#5f6c75"/><path d="m45.085 473.363c.699-15.461 5.83-30 14.313-42.182-18.951 13.19-31.566 34.14-33.975 57.598-.452 4.403 3.045 8.221 7.471 8.221h208.108l7.5-5 7.5 5h208.103c4.437 0 7.928-3.834 7.47-8.247-.415-3.999-1.128-7.925-2.114-11.753h-420.874c-1.986 0-3.592-1.653-3.502-3.637z" fill="#4e5a61"/><path d="m256.003 427v50l-7.5 10-7.5-10v-50z" fill="#7e8b96"/><path d="m238.503 479.5h20v15h-20z" fill="#5f6c75" transform="matrix(0 -1 1 0 -238.497 735.503)"/><path d="m310.879 365.132v-34.311h-124.752v56.339l-8.807 2.797c18.419 11.099 37.035 16.898 51.183 16.898 22.424-.001 56.072-14.56 82.376-41.723z" fill="#5f6c75"/><path d="m249.113 436.747c6.568-1.168 64.868-11.907 113.144-33.272l-51.379-16.315v-22.028c-26.304 27.162-59.952 41.722-82.376 41.722-14.148 0-32.764-5.799-51.183-16.898l-42.572 13.518c48.277 21.365 106.576 32.104 113.144 33.272.408.073.816.073 1.222.001z" fill="#7e8b96"/><path d="m369.518 246.126-108.869-29.978h-24.292l-88.869 24.471-10 5.507c8.976 70.904 76.894 119.878 121.016 119.878 40.093-6.406 102.039-48.973 111.014-119.878z" fill="#f7f9fd"/><path d="m147.487 246.126v-5.507l-20 5.507c9.763 77.125 82.202 120.728 121.016 120.728 3.131 0 6.482-.288 10-.85-40.094-6.406-102.04-48.973-111.016-119.878z" fill="#cde2ff"/><path d="m248.503 309.436c-16.672 0-34.576-8.015-41.603-15.44-2.847-3.009-2.716-7.755.293-10.603 3.008-2.848 7.756-2.716 10.603.293 3.55 3.751 17.225 10.75 30.707 10.75s27.157-6.999 30.707-10.75c2.847-3.008 7.594-3.14 10.603-.293s3.14 7.594.293 10.603c-7.027 7.425-24.931 15.44-41.603 15.44z" fill="#7e8b96"/><path d="m236.357 216.149h24.292c15.913 37.104 74.98 46.474 108.869 29.978.719-5.684 1.111-11.543 1.111-17.587 0-30.732-63.247-84.065-122.126-84.065-38.753 0-79.395 23.104-102.654 47.661l-8.362 43.991 10.982 16.489c33.303 5.584 74.921-6.234 87.888-36.467z" fill="#7e8b96"/><path d="m145.849 192.135c-12.08 12.754-19.473 25.899-19.473 36.404 0 6.044.392 11.903 1.111 17.587 6.275 3.055 13.414 5.22 20.982 6.489-.376-2.136-.705-4.299-.982-6.489-1.459-11.528-1.718-34.706-1.638-53.991z" fill="#5f6c75"/><path d="m272.809 244.501-12.16-28.352c-4.368-10.184-19.925-10.184-24.292 0l-12.16 28.352c-3.376 7.872-.718 16.712 8.751 20.688s21.641 3.976 31.11 0 12.127-12.817 8.751-20.688z" fill="#cde2ff"/><path d="m386.082 39.305c3.583-3.88 2.147-10.146-2.771-12.071-21.832-8.541-76.296-27.234-134.808-27.234-14.968 0-48.765 3.845-82.748 26.968-12.979 18.139-37.87 45.519-52.314 89.546-12.157 37.057-25.772 90.174-28.569 154.425 43.214-54.42 137.999-116.465 163.631-116.465s122.376 54.909 177.973 141.856c-6.375-96.315-32.617-203.417-59.469-236.368z" fill="#5f6c75"/><path d="m248.503 144.474c-25.632 0-110.417 52.045-153.631 106.465 6.076-49 16.412-97.369 28.569-134.425 14.444-44.026 29.335-71.407 42.314-89.546-12.092 8.227-24.207 18.892-35.506 32.697-30.982 37.855-61.186 173.773-61.186 278.874 0-67.594 144.543-174.065 179.44-174.065s179.44 106.471 179.44 174.065c0-13.638-.513-27.804-1.467-42.209-15.181-66.406-145.129-151.856-177.973-151.856z" fill="#4e5a61"/></g></svg>