<svg id="Capa_1" enable-background="new 0 0 512 512" viewBox="0 0 512 512" xmlns="http://www.w3.org/2000/svg"><g><path d="m199.486 272.048 11.989-20.766c8.013-13.882 22.948-22.506 38.974-22.506 5.497 0 10.894.996 16.028 2.956l4.198 1.6c3.663-2.311 7.421-4.465 11.263-6.458l.765-4.435c3.734-21.641 22.383-37.349 44.344-37.349h23.894v-170.09c0-8.284-6.716-15-15-15h-305.539c-8.284 0-15 6.716-15 15v257.048zm-23.722-96.342c-4.097 13.935-14.981 24.519-28.985 29.205v4.284c0 8.284-6.716 15-15 15s-15-6.716-15-15v-3.119c-8.54-1.841-16.921-5.338-24.153-10.208-6.873-4.626-8.693-13.947-4.067-20.819 4.627-6.872 13.949-8.692 20.819-4.067 6.124 4.122 13.931 6.583 20.883 6.583 8.442 0 14.851-3.955 16.723-10.322 2.35-7.99-1.784-14.862-11.058-18.381-3.119-1.185-5.955-2.167-8.698-3.117-10.154-3.518-18.923-6.555-27.385-15.094-9.586-9.674-13.785-23.029-11.234-35.727 2.577-12.822 11.44-23.24 24.318-28.584 1.277-.53 2.563-.98 3.853-1.361v-2.128c0-8.284 6.716-15 15-15s15 6.716 15 15v3.32c7.698 2.392 13.802 5.661 16.703 7.365 7.144 4.194 9.534 13.387 5.339 20.53s-13.386 9.534-20.53 5.339c-7.381-4.334-18.251-7.681-23.867-5.355-3.545 1.472-5.819 3.881-6.403 6.785-.588 2.927.554 6.098 3.132 8.699 3.42 3.452 7.118 4.823 15.895 7.863 2.811.974 5.995 2.077 9.524 3.417 24.009 9.113 36.014 31.685 29.191 54.892zm89.578 2.316h-42.939c-8.284 0-15-6.716-15-15s6.716-15 15-15h42.939c8.284 0 15 6.716 15 15s-6.716 15-15 15zm0-60h-42.939c-8.284 0-15-6.716-15-15s6.716-15 15-15h42.939c8.284 0 15 6.716 15 15s-6.716 15-15 15z"/><path d="m184.874 429.734c-5.343-9.255-7.22-20.14-5.285-30.649 1.039-5.641 3.151-10.986 6.158-15.775h-84.746c-8.284 0-15-6.716-15-15s6.716-15 15-15h94.143c-14.992-12.758-19.808-33.452-12.505-51.262h-167.237v137.523c0 8.284 6.716 15 15 15h168.812z"/><path d="m490.733 396.514-15.702-13.079c1.062-6.564 1.598-13.223 1.598-19.89 0-6.404-.494-12.802-1.472-19.11l15.907-12.942c5.713-4.648 7.206-12.757 3.523-19.136l-26.138-45.272c-3.652-6.371-11.457-9.082-18.171-6.577l-19.19 7.063c-10.126-8.261-21.548-14.911-33.702-19.62l-3.254-20.241c-1.169-7.271-7.444-12.619-14.81-12.619h-52.275c-7.3 0-13.54 5.255-14.781 12.449l-3.474 20.129c-12.181 4.631-23.643 11.208-33.822 19.407l-19.18-7.312c-6.746-2.61-14.647.084-18.334 6.516l-26.138 45.272c-3.65 6.322-2.219 14.354 3.391 19.025l15.701 13.078c-1.062 6.565-1.598 13.223-1.598 19.89 0 6.405.494 12.803 1.472 19.111l-15.907 12.942c-5.713 4.648-7.206 12.757-3.523 19.136l26.138 45.271c3.652 6.37 11.457 9.082 18.171 6.577l19.19-7.063c10.125 8.261 21.548 14.91 33.701 19.62l3.254 20.241c1.169 7.271 7.444 12.619 14.81 12.619h52.276c7.3 0 13.54-5.255 14.781-12.449l3.474-20.128c12.18-4.631 23.643-11.209 33.821-19.408l19.181 7.312c6.745 2.605 14.647-.086 18.334-6.516l26.138-45.272c3.65-6.321 2.219-14.352-3.39-19.024zm-95.962-43.44-42.154 42.154c-2.929 2.929-6.768 4.394-10.606 4.394s-7.678-1.464-10.606-4.394l-20.732-20.731c-5.858-5.857-5.858-15.354 0-21.213 5.857-5.857 15.355-5.859 21.213 0l10.126 10.125 31.548-31.548c5.857-5.857 15.355-5.857 21.213 0 5.856 5.858 5.856 15.356-.002 21.213z"/></g><g/><g/><g/><g/><g/><g/><g/><g/><g/><g/><g/><g/><g/><g/><g/></svg>