<?xml version="1.0" encoding="UTF-8" standalone="no"?>
<!-- Created with Inkscape (http://www.inkscape.org/) -->

<svg
   version="1.1"
   id="svg1569"
   xml:space="preserve"
   width="682.66669"
   height="682.66669"
   viewBox="0 0 682.66669 682.66669"
   xmlns="http://www.w3.org/2000/svg"
   xmlns:svg="http://www.w3.org/2000/svg"><defs
     id="defs1573"><clipPath
       clipPathUnits="userSpaceOnUse"
       id="clipPath1583"><path
         d="M 0,512 H 512 V 0 H 0 Z"
         id="path1581" /></clipPath></defs><g
     id="g1575"
     transform="matrix(1.3333333,0,0,-1.3333333,0,682.66667)"><g
       id="g1577"><g
         id="g1579"
         clip-path="url(#clipPath1583)"><g
           id="g1585"
           transform="translate(15,422.4678)"><path
             d="m 0,0 v -259.494 l 82.471,58.832 c 9.42,6.72 20.702,10.331 32.273,10.331 h 181.382 c 23.694,0 42.902,19.208 42.902,42.902 V 42.902 H 42.902 C 19.208,42.902 0,23.694 0,0 Z"
             style="fill:none;stroke:#000000;stroke-width:30;stroke-linecap:round;stroke-linejoin:round;stroke-miterlimit:10;stroke-dasharray:none;stroke-opacity:1"
             id="path1587" /></g><g
           id="g1589"
           transform="translate(414.0303,349.0303)"><path
             d="M 0,0 H 40.069 C 63.76,0 82.97,-19.21 82.97,-42.91 V -302.4 L 0.5,-243.57 c -9.42,6.719 -20.7,10.33 -32.271,10.33 H -213.16 c -23.691,0 -42.901,19.21 -42.901,42.91 v 13.439"
             style="fill:none;stroke:#000000;stroke-width:30;stroke-linecap:round;stroke-linejoin:round;stroke-miterlimit:10;stroke-dasharray:none;stroke-opacity:1"
             id="path1591" /></g><g
           id="g1593"
           transform="translate(281.166,383.6572)"><path
             d="M 0,0 H -173.304"
             style="fill:none;stroke:#000000;stroke-width:30;stroke-linecap:round;stroke-linejoin:round;stroke-miterlimit:10;stroke-dasharray:none;stroke-opacity:1"
             id="path1595" /></g><g
           id="g1597"
           transform="translate(281.166,313.6572)"><path
             d="M 0,0 H -173.304"
             style="fill:none;stroke:#000000;stroke-width:30;stroke-linecap:round;stroke-linejoin:round;stroke-miterlimit:10;stroke-dasharray:none;stroke-opacity:1"
             id="path1599" /></g></g></g></g></svg>
