<svg id="Layer_1" enable-background="new 0 0 464.105 464.105" height="512" viewBox="0 0 464.105 464.105" width="512" xmlns="http://www.w3.org/2000/svg"><g><path d="m422.81 38.843c-85.24-60.25-162.13.73-159.1 88.37 3.46 99.92-44.72 129.51-77.66 146.09-63.841 32.132-104.013 31.075-106.65 102.35-.149 4.203-3.529 7.661-7.95 7.7-4.511.04-8.2-3.63-8.05-8.14.31-9.19 1.43-17.88 3.35-26.02-20.54 2.22-42.98 11.27-58.98 18.74-11.58 5.41-8.8 20.45-.88 25.76 12.09 8.09 27.47 12.91 44.05 13.23-6.95 9.6-9.78 20.42-8.53 31.14.95 8.09 11.63 13.42 21.53 10.62 24.57-6.95 46.88-17.45 46.88-40.22 20.97 1.76 62.42.96 105.79-6.08-3.127-17.678 5.34-35.954 23.65-43.7 38.56-16.33 55.57-27.76 63.03-34.39 1.97-1.76 2.39-4.56 1.26-6.73-4.47-8.59 6.13-17.42 13.78-11.23 25.46 20.59-27.43 48.29-71.83 67.08-23.561 9.974-16.776 45.245 8.63 45.8 114.355 2.456 198.435-36.169 143.25-136.74-5.15-9.39 8.95-16.97 14.03-7.69 6.902 12.548 12.952 26.611 16.32 40.65 14.18-39.59 1.11-105.84-5.71-169.2-3.415 1.317-6.889 2.506-10.7 3.6-10.03 2.89-14.53-12.45-4.3-15.41 76.822-24.234 67.746-99.679 14.79-95.58zm-36 40.79c-4.42 0-8-3.58-8-8s3.58-8 8-8c4.41 0 8 3.58 8 8s-3.59 8-8 8z"/></g></svg>
