<svg id="Layer_1" viewBox="0 0 512 512" xmlns="http://www.w3.org/2000/svg" data-name="Layer 1"><path d="m508.22 388.567c0 29.391-23.914 53.301-53.325 53.301h-119.088c-4.387 0-8.004-3.578-8.004-7.999s3.616-7.999 8.004-7.999h119.088c20.588 0 37.318-16.73 37.318-37.303s-16.73-37.298-37.318-37.298h-79.794c-4.436 0-8.004-3.578-8.004-7.999s3.568-8.004 8.004-8.004h79.794c29.411 0 53.325 23.909 53.325 53.301zm-81.819 13.731c2.218 3.819 7.087 5.14 10.896 2.932l4.87-2.802v5.593c0 4.416 3.567 7.998 8.003 7.998s8.004-3.582 8.004-7.998v-5.593l4.87 2.802c3.809 2.199 8.678.887 10.896-2.932 2.218-3.828.916-8.717-2.941-10.93l-4.822-2.801 4.822-2.796c3.857-2.213 5.159-7.102 2.941-10.93-2.218-3.823-7.087-5.14-10.896-2.931l-4.87 2.801v-5.593c0-4.421-3.568-7.998-8.004-7.998s-8.003 3.577-8.003 7.998v5.593l-4.87-2.801c-3.809-2.208-8.678-.892-10.896 2.931-2.218 3.828-.916 8.717 2.941 10.93l4.822 2.796-4.822 2.801c-3.857 2.213-5.159 7.102-2.941 10.93zm-43.537-41.179c-4.436 0-8.003 3.577-8.003 7.998v5.593l-4.87-2.801c-3.809-2.208-8.679-.892-10.896 2.931-2.218 3.828-.916 8.717 2.941 10.93l4.822 2.796-4.822 2.801c-3.857 2.213-5.159 7.102-2.941 10.93 2.218 3.819 7.088 5.14 10.896 2.932l4.87-2.802v5.593c0 4.416 3.568 7.998 8.003 7.998s8.004-3.582 8.004-7.998v-5.593l4.821 2.802c3.857 2.199 8.727.887 10.945-2.932 2.218-3.828.916-8.717-2.941-10.93l-4.821-2.801 4.821-2.796c3.857-2.213 5.159-7.102 2.941-10.93-2.218-3.823-7.087-5.14-10.945-2.931l-4.821 2.801v-5.593c0-4.421-3.568-7.998-8.004-7.998zm-162.819 27.448c0 4.421 3.568 8.004 7.956 8.004h22.323c4.387 0 7.955-3.583 7.955-8.004s-3.568-7.999-7.955-7.999h-22.323c-4.387 0-7.956 3.583-7.956 7.999zm61.425 8.004h22.323c4.387 0 7.955-3.583 7.955-8.004s-3.568-7.999-7.955-7.999h-22.323c-4.387 0-7.955 3.583-7.955 7.999s3.568 8.004 7.955 8.004zm63.245-20.91-37.071 85.514c-.17.393-.375.759-.597 1.109-.006.009-.011.018-.017.027-.206.321-.425.63-.67.913-.047.055-.1.103-.148.156-.157.172-.32.338-.49.495-.144.135-.292.262-.444.385-.026.02-.053.039-.079.06-1.402 1.101-3.134 1.727-4.926 1.727-1.061 0-2.121-.217-3.182-.67-4.05-1.746-5.882-6.456-4.146-10.521l5.629-12.989h-31.43v34.927c0 13.339-10.918 24.257-24.257 24.257h-214.849c-13.342 0-24.258-10.915-24.258-24.257v-176.5c0-13.342 10.916-24.257 24.258-24.257h18.712v-42.025c0-48.792 39.92-88.712 88.711-88.712s88.711 39.92 88.711 88.712v42.025h18.714c13.342 0 24.257 10.917 24.257 24.257v34.972h77.63l8.39-19.358c1.784-4.05 6.509-5.911 10.559-4.151 3.547 1.531 5.413 5.333 4.633 8.972-.108.522-.27 1.04-.487 1.548l-23.155 53.383zm-177.529-16.778c0-17.52-14.203-31.723-31.723-31.723s-31.723 14.203-31.723 31.723c0 12.201 6.889 22.791 16.989 28.099v48.215c0 8.103 6.631 14.733 14.734 14.733 8.104 0 14.734-6.63 14.734-14.733v-48.215c10.1-5.307 16.99-15.898 16.99-28.099zm17.967-124.87c0-27.253-22.438-49.692-49.691-49.692s-49.691 22.439-49.691 49.692v42.025h99.382zm152.686 117.256h-94.314c-20.587 0-37.318 16.73-37.318 37.298s16.73 37.303 37.318 37.303h61.982zm-120.513-203.111c-31.389-31.389-31.389-82.279 0-113.668 31.388-31.389 82.279-31.389 113.668 0 22.967 22.967 29.126 56.375 18.482 84.945l35.339 35.339.569 10.019 81.399 81.399-5.427 32.329-32.33 5.427-14.72-14.72 5.397-25.952-25.952 5.397-3.268-3.268 5.397-25.952-25.953 5.396-22.3-22.3-10.019-.57-35.339-35.339c-28.57 10.643-61.977 4.484-84.944-18.483zm25.158-52.464c9.954 9.954 26.092 9.954 36.046 0s9.954-26.092 0-36.046-26.092-9.954-36.046 0-9.954 26.092 0 36.046z" fill-rule="evenodd"/></svg>